<svg width="284" height="395" viewBox="0 0 284 395" fill="none" xmlns="http://www.w3.org/2000/svg">
<path d="M268.023 10.7522H103.692V394.788H268.023V10.7522Z" fill="#F97316"/>
<path opacity="0.8" d="M268.023 10.7522H103.692V394.788H268.023V10.7522Z" fill="#D1D5DB"/>
<g opacity="0.4">
<path d="M271.938 60.5504C265.933 61.0663 263.319 61.8525 260.87 58.7693C258.421 55.6861 249.345 55.0228 246.315 58.4008C243.286 61.7788 242.165 64.0021 235.4 63.1177C228.634 62.2333 226.352 63.8179 225.3 66.3114C224.249 68.805 208.698 69.7017 213.153 72.4533L270.872 64.9234C270.872 64.9234 277.942 60.0345 271.938 60.5504Z" fill="#D1D5DB"/>
<path d="M220.043 33.7474C218.189 32.0154 212.724 32.0769 207.785 34.2511C202.846 36.4253 206.402 26.3773 197.229 29.1902C184.072 33.207 187.545 39.6067 182.094 39.6927C176.643 39.7787 160.636 43.5621 168.992 45.8346L217.414 39.5085C217.414 39.5085 221.911 35.4672 220.043 33.7474Z" fill="#D1D5DB"/>
<path d="M156.541 101.197C155.227 99.9685 151.353 99.9685 147.839 101.565C144.325 103.162 146.884 95.9763 140.354 97.9662C131.016 100.816 133.437 105.336 129.618 105.422C125.8 105.508 114.4 108.162 120.321 109.82L154.659 105.324C154.659 105.324 157.869 102.425 156.541 101.197Z" fill="#D1D5DB"/>
</g>
<path opacity="0.07" d="M248.847 318.335V332.83C248.847 333.414 248.587 333.974 248.123 334.389C247.659 334.803 247.029 335.037 246.371 335.041H241.902C241.576 335.039 241.252 335.095 240.95 335.205C240.648 335.314 240.374 335.476 240.142 335.68C239.911 335.885 239.727 336.128 239.602 336.395C239.476 336.663 239.412 336.95 239.412 337.239V340.016C239.412 340.602 239.15 341.164 238.683 341.579C238.216 341.994 237.582 342.227 236.922 342.227H220.32C219.66 342.223 219.029 341.989 218.563 341.575C218.097 341.162 217.833 340.601 217.83 340.016V318.335C217.83 317.752 217.569 317.193 217.104 316.78C216.64 316.368 216.01 316.136 215.353 316.136H212.766C212.107 316.133 211.475 315.899 211.009 315.485C210.543 315.071 210.279 314.511 210.276 313.925V288.977C210.276 288.394 210.015 287.835 209.55 287.422C209.086 287.01 208.456 286.778 207.799 286.778H202.943C202.285 286.778 201.654 287.01 201.187 287.422C200.721 287.834 200.457 288.393 200.453 288.977V304.467C200.421 304.935 200.182 305.373 199.788 305.686C199.394 305.999 198.878 306.161 198.35 306.137C197.824 306.161 197.309 305.998 196.917 305.685C196.525 305.372 196.29 304.934 196.261 304.467V258.354C196.261 257.767 195.999 257.205 195.532 256.79C195.065 256.376 194.431 256.143 193.771 256.143H188.873C188.547 256.143 188.224 256.2 187.922 256.311C187.621 256.423 187.347 256.586 187.117 256.791C186.887 256.997 186.705 257.241 186.581 257.509C186.458 257.777 186.395 258.064 186.397 258.354V303.926C186.397 304.513 186.134 305.075 185.667 305.49C185.2 305.904 184.567 306.137 183.906 306.137H183.311C182.984 306.137 182.661 306.08 182.359 305.969C182.056 305.858 181.782 305.695 181.551 305.49C181.319 305.284 181.136 305.041 181.011 304.772C180.886 304.504 180.821 304.217 180.821 303.926V280.366C180.825 280.021 180.735 279.679 180.558 279.371L165.797 253.133C165.622 252.829 165.532 252.492 165.534 252.151V219.046C165.534 218.756 165.469 218.469 165.344 218.202C165.219 217.934 165.035 217.691 164.803 217.487C164.572 217.283 164.297 217.121 163.995 217.011C163.693 216.901 163.37 216.846 163.043 216.847H148.669C148.011 216.847 147.38 217.079 146.913 217.491C146.446 217.903 146.182 218.462 146.179 219.046V303.926C146.18 304.216 146.118 304.503 145.994 304.771C145.871 305.04 145.688 305.283 145.458 305.489C145.228 305.694 144.954 305.857 144.653 305.969C144.352 306.08 144.029 306.137 143.702 306.137H142.692C142.366 306.137 142.043 306.08 141.741 305.969C141.44 305.857 141.166 305.694 140.936 305.489C140.706 305.283 140.524 305.04 140.4 304.771C140.277 304.503 140.214 304.216 140.216 303.926V271.657C140.212 271.072 139.949 270.511 139.482 270.097C139.016 269.683 138.385 269.449 137.726 269.446H123.351C122.692 269.449 122.06 269.683 121.594 270.097C121.128 270.511 120.864 271.072 120.861 271.657V303.939C120.863 304.228 120.8 304.516 120.676 304.784C120.553 305.052 120.371 305.296 120.14 305.501C119.91 305.707 119.637 305.87 119.335 305.981C119.034 306.092 118.711 306.15 118.384 306.15H116.434C115.773 306.15 115.14 306.383 114.673 306.797C114.206 307.212 113.943 307.774 113.943 308.361V313.913C113.943 314.497 113.683 315.058 113.219 315.472C112.755 315.886 112.125 316.121 111.467 316.124H110.775C110.449 316.122 110.125 316.178 109.823 316.288C109.521 316.397 109.247 316.559 109.015 316.764C108.784 316.968 108.6 317.211 108.475 317.478C108.349 317.746 108.285 318.033 108.285 318.323V362.458C108.285 362.748 108.349 363.035 108.475 363.302C108.6 363.57 108.784 363.813 109.015 364.017C109.247 364.221 109.521 364.383 109.823 364.493C110.125 364.603 110.449 364.658 110.775 364.657H256.235C256.892 364.657 257.522 364.425 257.986 364.013C258.451 363.6 258.712 363.041 258.712 362.458V318.335C258.712 317.752 258.451 317.193 257.986 316.78C257.522 316.368 256.892 316.136 256.235 316.136H251.338C250.68 316.136 250.048 316.367 249.582 316.779C249.115 317.191 248.851 317.751 248.847 318.335Z" fill="#F97316"/>
<path opacity="0.07" d="M267.552 368.71H103.692V381.583H267.552V368.71Z" fill="#F97316"/>
<path d="M283.767 0.0900879V394.788H265.754V17.7048H121.359V394.788H103.36V0.0900879H283.767Z" fill="#1F2937"/>
<path d="M275.756 0.0900879V394.788H257.757V17.7048H113.362V394.788H95.3494V0.0900879H275.756Z" fill="#F97316"/>
<path d="M140.825 47.5294C134.64 47.9716 126.575 51.7426 144.615 56.1279C162.656 60.5132 165.091 55.7717 165.091 55.7717C165.091 55.7717 157.426 46.3378 140.825 47.5294Z" fill="#F97316"/>
<path opacity="0.4" d="M140.825 47.5294C134.64 47.9716 126.575 51.7426 144.615 56.1279C162.656 60.5132 165.091 55.7717 165.091 55.7717C165.091 55.7717 157.426 46.3378 140.825 47.5294Z" fill="black"/>
<path d="M173.782 87.7503C177.852 87.2028 180.543 83.1982 179.794 78.8058C179.044 74.4134 175.137 71.2964 171.068 71.8439C166.998 72.3914 164.307 76.396 165.056 80.7884C165.806 85.1808 169.712 88.2977 173.782 87.7503Z" fill="#1F2937"/>
<path d="M149.925 68.9046C153.995 68.3571 156.686 64.3525 155.936 59.9601C155.187 55.5677 151.28 52.4507 147.211 52.9982C143.141 53.5457 140.449 57.5502 141.199 61.9427C141.949 66.3351 145.855 69.452 149.925 68.9046Z" fill="#1F2937"/>
<path d="M257.757 308.029V342.177C237.766 328.162 217.318 312.475 213.07 304.307C197.686 274.629 168.162 196.813 168.162 196.813L214.648 179.935L214.855 180.77C216.073 185.794 222.589 213.285 230.239 255.393C232.287 266.633 234.39 278.929 236.534 292.109C240.214 294.246 248.169 300.327 257.757 308.029Z" fill="#1F2937"/>
<path opacity="0.2" d="M232.218 266.498C229.797 252.703 227.459 240.26 225.3 229.377L214.675 222.129C218.377 237.52 224.272 252.43 232.218 266.498Z" fill="black"/>
<path d="M257.757 223.358V294.505C254.99 290.402 252.403 286.705 250.134 283.572C244.877 276.3 237.793 266.228 230.239 255.394C209.612 225.851 185.497 190.585 185.497 190.585L214.855 180.758L228.593 176.164C240.505 190.069 248.405 204.539 257.757 223.358Z" fill="#1F2937"/>
<path d="M153.843 126.784C152.875 127.41 152.141 127.865 151.311 128.356C150.481 128.847 149.693 129.29 148.89 129.744C147.258 130.641 145.625 131.501 143.965 132.336C140.652 133.991 137.244 135.492 133.755 136.832C132.026 137.532 130.241 138.146 128.47 138.785C126.699 139.424 124.887 140.013 123.047 140.468C119.371 141.534 115.629 142.411 111.84 143.096L111.301 143.195C110.291 143.392 109.245 143.401 108.231 143.221C107.216 143.041 106.255 142.677 105.407 142.151C101.78 139.844 98.4287 137.214 95.4046 134.301C92.5525 131.593 89.8647 128.751 87.3527 125.789C84.8901 122.865 82.5843 119.884 80.4352 116.846C78.2632 113.775 76.2156 110.704 74.3202 107.437C73.8327 106.567 73.713 105.571 73.9831 104.63C74.2531 103.689 74.8949 102.865 75.7915 102.308C76.6882 101.752 77.7801 101.5 78.8685 101.598C79.9569 101.696 80.9695 102.138 81.7219 102.843L81.8187 102.929C84.392 105.386 87.0483 107.99 89.7046 110.459C92.3609 112.928 95.031 115.372 97.7565 117.743C100.482 120.114 103.29 122.374 106.057 124.462C108.649 126.456 111.426 128.252 114.358 129.83L107.911 128.884C111.01 127.988 114.082 127.042 117.125 125.912C120.169 124.781 123.185 123.59 126.16 122.226C129.134 120.863 132.067 119.524 134.959 118.05C136.342 117.325 137.836 116.576 139.233 115.814L141.309 114.647L143.218 113.567L143.605 113.345C145.606 112.226 148.018 111.839 150.333 112.267C152.648 112.694 154.687 113.903 156.019 115.638C157.351 117.373 157.873 119.499 157.475 121.569C157.076 123.638 155.79 125.49 153.885 126.735L153.843 126.784Z" fill="#B55B52"/>
<path d="M157.219 106.847C146.379 110.907 135.855 115.601 125.717 120.9C128.94 129.166 133.423 139.006 140.658 144.754C147.118 141.099 153.238 136.991 158.962 132.471C171.593 122.816 170.417 102.142 157.219 106.847Z" fill="#F97316"/>
<path d="M166.101 196.616C168.508 203.986 170.251 212.45 174.014 214.084C177.777 215.717 186.355 204.527 189.606 200.314C198.447 200.903 224.29 197.795 232.204 193.275C240.117 188.755 237.627 183.215 231.291 175.439C213.942 173.891 176.352 190.99 166.101 196.616Z" fill="#D1D5DB"/>
<path d="M193.992 97.3766C181.448 99.2992 169.158 102.357 157.316 106.503C144.546 111.085 137.947 120.31 140.243 132.373C143.01 146.867 155.462 180.623 167.18 203.618C169.214 207.573 230.502 182.859 233.463 177.417C228.635 162.369 216.072 148.034 211.203 112.092C210.206 104.685 202.168 96.1237 193.992 97.3766Z" fill="#F97316"/>
<path d="M181.776 125.826C185.761 124.17 189.905 122.834 194.158 121.833C194.475 121.754 194.815 121.785 195.108 121.919C195.4 122.054 195.625 122.282 195.735 122.558C196.206 123.688 197.036 125.592 197.866 127.275C197.943 127.425 197.982 127.589 197.982 127.754C197.982 127.919 197.942 128.082 197.864 128.232C197.787 128.383 197.674 128.516 197.533 128.624C197.393 128.733 197.228 128.813 197.049 128.86C193.812 129.732 188.527 131.451 185.151 132.754C184.86 132.85 184.54 132.857 184.244 132.772C183.948 132.687 183.692 132.516 183.519 132.287C182.398 130.698 181.584 128.955 181.112 127.128C181.042 126.876 181.069 126.611 181.19 126.374C181.31 126.138 181.517 125.945 181.776 125.826Z" fill="#D1D5DB"/>
<path d="M165.215 121.465C165.409 122.484 165.091 123.381 164.482 123.479C163.873 123.577 163.209 122.828 163.002 121.809C162.794 120.789 163.126 119.892 163.735 119.794C164.344 119.696 165.008 120.445 165.215 121.465Z" fill="#D1D5DB"/>
<path d="M212.31 107.216C215.671 108.96 218.757 110.717 221.897 112.571C225.038 114.426 228.081 116.256 231.097 118.283C234.113 120.31 237.115 122.251 240.062 124.339C243.009 126.427 245.887 128.565 248.751 130.763L249.249 131.144C250.019 131.735 250.645 132.459 251.09 133.272C251.535 134.086 251.789 134.97 251.836 135.873C251.977 139.595 251.535 143.316 250.521 146.929C249.6 150.267 248.35 153.526 246.786 156.67C245.287 159.697 243.568 162.635 241.639 165.465C239.729 168.292 237.598 170.997 235.262 173.56C234.57 174.299 233.606 174.796 232.54 174.963C231.474 175.129 230.376 174.954 229.442 174.468C228.509 173.983 227.799 173.219 227.441 172.312C227.083 171.406 227.099 170.415 227.486 169.518L227.597 169.297C228.759 166.669 229.991 163.794 231.028 161.03C232.066 158.267 233.048 155.454 233.795 152.677C234.561 149.996 235.121 147.271 235.469 144.521C235.777 142.071 235.754 139.596 235.4 137.151L238.485 142.261C232.688 138.576 226.753 135.026 220.763 131.513L202.777 121.096H202.68C200.62 119.966 199.15 118.155 198.594 116.062C198.037 113.969 198.44 111.766 199.713 109.936C200.986 108.107 203.026 106.802 205.383 106.308C207.74 105.814 210.222 106.171 212.282 107.302L212.31 107.216Z" fill="#B55B52"/>
<path d="M202.542 98.6785C212.772 103.822 222.603 109.567 231.969 115.876C227.668 123.532 221.204 130.067 213.209 134.842C213.209 134.842 207.509 133.613 197.423 123.909C186.161 113.038 190.049 92.6349 202.542 98.6785Z" fill="#F97316"/>
<path d="M228.635 167.086L220.652 175.193L233.698 180.991C233.698 180.991 239.938 172.835 235.677 169.052L228.635 167.086Z" fill="#B55B52"/>
<path d="M221.302 186.581L226.241 187.92C227.19 188.178 228.213 188.118 229.116 187.751C230.019 187.384 230.738 186.736 231.139 185.93L233.698 181.016L220.652 175.218L218.438 181.802C218.117 182.773 218.237 183.817 218.773 184.71C219.308 185.603 220.216 186.275 221.302 186.581Z" fill="#B55B52"/>
<path d="M164.344 114.942C164.344 114.942 170.999 118.738 171.635 123.713C187.504 113.333 190.035 103.15 186.577 98.6665C185.022 98.1415 183.303 98.1415 181.748 98.6665C181.748 98.6665 176.878 107.535 164.344 114.942Z" fill="#D1D5DB"/>
<path d="M164.344 114.942C164.344 114.942 159.737 119.708 159.239 124.658C149.084 120.605 152.764 110.029 155.503 107.216C157.245 106.092 159.186 105.232 161.245 104.673C161.245 104.673 157.578 108.739 164.344 114.942Z" fill="#D1D5DB"/>
<path d="M172.506 74.6272C173.295 81.5675 175.702 93.2983 181.43 98.4083C182.121 99.0224 182.56 99.8251 182.676 100.687C182.791 101.55 182.576 102.421 182.066 103.162C178.612 108.543 173.047 112.605 166.433 114.574C158.976 116.785 156.928 113.64 157.025 110.274C157.061 109.421 157.314 108.585 157.764 107.83C158.214 107.075 158.851 106.42 159.626 105.914C166.101 101.578 163.777 96.0007 160.498 91.0382L172.506 74.6272Z" fill="#B55B52"/>
<path opacity="0.2" d="M167.623 81.3218L160.512 91.0873C161.378 92.333 162.119 93.6443 162.725 95.0058C166.184 93.5931 169.947 88.8025 169.186 85.3631C168.947 83.9426 168.417 82.5729 167.623 81.3218Z" fill="black"/>
<path d="M174.457 63.1174C175.495 73.755 176.712 79.9337 171.69 86.2229C164.136 95.6936 148.876 93.0403 144.311 82.9432C140.16 73.8533 139.206 57.9705 149.983 52.0621C152.323 50.7424 155.009 49.9867 157.777 49.8694C160.546 49.7521 163.301 50.2772 165.771 51.3931C168.241 52.5089 170.341 54.177 171.864 56.2329C173.388 58.2888 174.281 60.6615 174.457 63.1174Z" fill="#B55B52"/>
<path d="M153.691 48.6966C146.953 49.2862 143.744 52.8362 145.501 54.6051C139.566 55.5509 144.961 61.9752 151.367 59.3343C151.92 61.3856 164.662 60.6978 164.787 57.6146C167.678 64.2846 171.303 63.8547 171.303 63.8547C171.303 63.8547 167.54 71.2248 172.935 72.183C172.935 76.3471 176.325 79.9954 179.853 79.3689C183.768 78.6565 182.523 72.7726 182.523 72.7726C189.662 69.9596 184.861 63.5844 184.861 63.5844C184.75 56.509 168.176 40.8842 153.691 48.6966Z" fill="#1F2937"/>
<path d="M144.975 76.5435C144.162 76.486 143.378 76.2506 142.692 75.8583C142.006 75.4661 141.441 74.9292 141.046 74.2956C139.851 72.5947 139.175 70.6478 139.081 68.6451C138.885 66.6525 139.281 64.6492 140.23 62.8349C140.473 62.0942 140.968 61.438 141.646 60.9555C142.325 60.473 143.154 60.1876 144.021 60.1379C144.888 60.0883 145.752 60.2769 146.494 60.6781C147.237 61.0793 147.822 61.6736 148.171 62.3804C149.368 64.0765 150.05 66.019 150.149 68.0186C150.467 72.539 148.254 76.3592 145.196 76.5312L144.975 76.5435ZM144.242 60.7958H144.076C143.364 60.9035 142.696 61.1743 142.138 61.5815C141.579 61.9887 141.151 62.5181 140.894 63.1175C140.059 64.8426 139.693 66.7183 139.828 68.5923C139.963 70.4662 140.593 72.2855 141.668 73.9025C142.008 74.4695 142.508 74.948 143.119 75.2905C143.731 75.6331 144.433 75.8279 145.155 75.8556C147.797 75.7082 149.693 72.1705 149.402 68.0555C149.31 66.1705 148.671 64.3385 147.548 62.7367C147.223 62.194 146.75 61.7321 146.173 61.3932C145.595 61.0542 144.932 60.8488 144.242 60.7958Z" fill="#D1D5DB"/>
<path d="M158.187 75.7943C157.3 75.7589 156.434 75.5421 155.656 75.1607C154.879 74.7793 154.211 74.2436 153.705 73.5955C152.324 71.9581 151.533 69.9885 151.436 67.945C151.104 63.4369 153.746 59.5921 157.316 59.3465C160.885 59.1008 164.053 62.663 164.371 67.1834C164.588 69.2158 164.106 71.2587 162.988 73.0427C162.558 73.7845 161.927 74.4198 161.152 74.8915C160.376 75.3632 159.481 75.6566 158.547 75.7451L158.187 75.7943ZM157.62 60.0466H157.426C154.272 60.2309 151.892 63.7317 152.238 67.9082C152.338 69.8142 153.07 71.6516 154.341 73.1901C154.769 73.8192 155.384 74.3319 156.117 74.6725C156.851 75.013 157.676 75.1683 158.502 75.1214C159.328 75.0745 160.124 74.8273 160.803 74.4066C161.481 73.9859 162.017 73.408 162.352 72.7356C163.423 71.0745 163.905 69.1653 163.735 67.2571C163.334 63.2158 160.664 60.0466 157.62 60.0466Z" fill="#D1D5DB"/>
<path d="M149.776 68.375C149.701 68.3747 149.627 68.3542 149.565 68.3161C149.503 68.2781 149.456 68.2244 149.429 68.162C149.402 68.0996 149.397 68.0314 149.414 67.9664C149.432 67.9014 149.471 67.8426 149.527 67.7977C149.873 67.5633 150.289 67.4225 150.723 67.392C151.157 67.3615 151.592 67.4426 151.976 67.6257C152.064 67.6676 152.131 67.7384 152.162 67.8232C152.193 67.908 152.186 68.0001 152.142 68.0802C152.097 68.158 152.02 68.2171 151.927 68.2447C151.834 68.2723 151.732 68.2662 151.644 68.2276C151.391 68.1022 151.104 68.0425 150.815 68.0556C150.527 68.0686 150.248 68.1538 150.011 68.3013C149.945 68.3491 149.862 68.3751 149.776 68.375Z" fill="#D1D5DB"/>
<path d="M174.803 69.2837H174.72C166.668 67.6746 164.122 68.0554 164.109 68.0554C164.011 68.0749 163.909 68.0594 163.825 68.0121C163.741 67.9649 163.681 67.8899 163.659 67.8035C163.637 67.7172 163.654 67.6267 163.708 67.5518C163.761 67.4769 163.845 67.4239 163.943 67.4043C164.053 67.4043 166.613 66.9376 174.886 68.6327C174.934 68.6413 174.979 68.6585 175.019 68.6832C175.06 68.7079 175.094 68.7396 175.119 68.7764C175.145 68.8132 175.163 68.8543 175.17 68.8971C175.177 68.94 175.175 68.9838 175.163 69.0258C175.144 69.0984 175.098 69.1633 175.033 69.2101C174.968 69.2569 174.887 69.2828 174.803 69.2837Z" fill="#D1D5DB"/>
<path d="M180.406 72.8092C179.37 75.199 177.374 77.1636 174.803 78.3245C171.538 79.688 169.712 76.8751 170.459 73.5585C171.137 70.5858 173.641 66.2866 177.003 66.3111C180.365 66.3357 181.776 69.7506 180.406 72.8092Z" fill="#B55B52"/>
<path d="M157.164 68.3751C157.233 69.2349 156.776 69.9842 156.14 70.0334C155.503 70.0825 154.95 69.4315 154.881 68.5593C154.812 67.6872 155.254 66.9502 155.891 66.901C156.527 66.8519 157.081 67.5029 157.164 68.3751Z" fill="#1F2937"/>
<path d="M145.874 69.1363C145.944 69.9962 145.487 70.7455 144.864 70.7946C144.242 70.8437 143.661 70.1927 143.592 69.3206C143.522 68.4484 143.965 67.7114 144.602 67.6623C145.238 67.6131 145.805 68.2642 145.874 69.1363Z" fill="#1F2937"/>
<path d="M150.634 68.6328C148.977 71.0765 147.48 73.6029 146.151 76.1995C147.88 77.5753 151.256 76.568 151.256 76.568L150.634 68.6328Z" fill="#A02724"/>
<path d="M152.39 81.0269C153.479 80.9371 154.536 80.6537 155.499 80.1937C156.461 79.7336 157.31 79.1063 157.994 78.3491C158.034 78.2926 158.049 78.2249 158.036 78.1592C158.023 78.0934 157.983 78.0341 157.924 77.9928C157.9 77.969 157.87 77.95 157.837 77.937C157.803 77.924 157.767 77.9172 157.731 77.9172C157.694 77.9172 157.658 77.924 157.625 77.937C157.592 77.95 157.562 77.969 157.537 77.9928C156.76 78.8122 155.78 79.4604 154.673 79.8867C153.567 80.313 152.364 80.5056 151.159 80.4496C151.121 80.4479 151.083 80.453 151.047 80.4644C151.011 80.4759 150.978 80.4935 150.95 80.5163C150.921 80.5392 150.898 80.5667 150.882 80.5974C150.866 80.6281 150.857 80.6613 150.855 80.6952C150.853 80.7285 150.859 80.7618 150.872 80.793C150.885 80.8243 150.905 80.8528 150.931 80.8769C150.957 80.9011 150.988 80.9203 151.022 80.9334C151.057 80.9465 151.094 80.9532 151.132 80.9532C151.549 81.0027 151.969 81.0273 152.39 81.0269Z" fill="#1F2937"/>
<path d="M161.577 65.1443C161.669 65.1206 161.754 65.0786 161.826 65.0215C161.933 64.9249 161.993 64.7947 161.993 64.6591C161.993 64.5235 161.933 64.3933 161.826 64.2967C161.249 63.6833 160.51 63.2064 159.674 62.9084C158.839 62.6105 157.934 62.5008 157.039 62.5893C156.889 62.6089 156.753 62.6807 156.662 62.7889C156.572 62.8972 156.533 63.0331 156.555 63.1666C156.577 63.3002 156.658 63.4205 156.78 63.5012C156.902 63.5818 157.055 63.6161 157.205 63.5966C157.912 63.5403 158.624 63.6372 159.279 63.879C159.935 64.1208 160.514 64.5002 160.968 64.9846C161.04 65.0621 161.137 65.1187 161.245 65.1471C161.354 65.1756 161.469 65.1746 161.577 65.1443Z" fill="#1F2937"/>
<path d="M141.212 65.7218C141.305 65.7281 141.399 65.7147 141.486 65.6827C141.572 65.6506 141.649 65.6009 141.71 65.5375C142.139 65.0259 142.699 64.6122 143.344 64.3303C143.988 64.0484 144.699 63.9064 145.418 63.9161C145.569 63.9268 145.719 63.8856 145.838 63.8011C145.956 63.7166 146.033 63.5951 146.054 63.4616C146.07 63.3284 146.027 63.195 145.934 63.0896C145.841 62.9842 145.705 62.9149 145.556 62.8965C144.647 62.8738 143.745 63.0436 142.925 63.3918C142.104 63.7399 141.389 64.2565 140.838 64.8988C140.744 65.0024 140.698 65.1346 140.711 65.2674C140.724 65.4002 140.795 65.5234 140.908 65.6112C140.99 65.6804 141.099 65.7198 141.212 65.7218Z" fill="#1F2937"/>
<path d="M80.6845 110.643L68.7588 112.572L69.8379 99.6614C69.8379 99.6614 80.9058 99.0841 82.4 104.28L80.6845 110.643Z" fill="#B55B52"/>
<path d="M58.0781 106.233L59.3093 101.786C59.5615 100.936 60.1477 100.194 60.9621 99.694C61.7765 99.1939 62.7655 98.9689 63.7504 99.0594L69.8377 99.6613L68.7586 112.571L61.2463 110.876C60.1375 110.626 59.1838 109.999 58.5911 109.131C57.9984 108.262 57.8141 107.221 58.0781 106.233Z" fill="#B55B52"/>
<path d="M149.817 48.6594C152.211 42.7264 156.25 38.9062 159.944 38.4271C162.421 38.12 172.728 39.6555 177.196 41.7191C181.665 43.7828 188.14 51.2513 188.472 54.0028C188.804 56.7543 184.806 63.6209 184.806 63.6209C184.806 63.6209 166.862 53.2412 149.817 48.6594Z" fill="#F97316"/>
<path d="M155.642 40.7243C159.995 41.5912 164.283 42.6989 168.481 44.0409C169.103 44.262 169.311 44.7411 168.951 45.1465C168.245 45.9449 166.834 47.6032 165.88 48.8316C165.63 49.0826 165.3 49.2596 164.934 49.3387C164.568 49.4178 164.183 49.3951 163.832 49.2738C160.692 48.2419 155.296 46.6819 151.685 45.8098C151.035 45.6501 150.73 45.2324 150.924 44.8148C151.66 43.3975 152.693 42.1177 153.968 41.0437C154.201 40.8809 154.473 40.7676 154.763 40.7122C155.053 40.6569 155.354 40.661 155.642 40.7243Z" fill="#D1D5DB"/>
<path d="M140.244 47.5786C153.553 47.5786 158.409 55.3541 165.299 57.6266C172.188 59.8991 183.519 58.7567 183.519 58.7567C183.519 58.7567 160.415 45.3675 140.244 47.5786Z" fill="#F97316"/>
<path d="M6.31764 109.946L109.476 98.5381L104.108 60.2754L0.949906 71.6837L6.31764 109.946Z" fill="#F97316"/>
<path opacity="0.4" d="M42.4278 105.95L109.466 98.5359L104.098 60.2732L37.0601 67.6869L42.4278 105.95Z" fill="#D1D5DB"/>
<path opacity="0.3" d="M91.6554 97.0449L90.1335 86.223L103.346 84.7612L104.854 95.5831L91.6554 97.0449ZM91.6554 87.218L92.859 95.7182L103.443 94.5513L102.253 86.0387L91.6554 87.218Z" fill="#D1D5DB"/>
<path opacity="0.3" d="M75.9527 98.7893L74.4309 87.9674L87.6294 86.5056L89.1512 97.3275L75.9527 98.7893ZM75.9527 88.9623L77.1425 97.4626L87.7401 96.2957L86.5502 87.7954L75.9527 88.9623Z" fill="#D1D5DB"/>
<path d="M65.0622 75.7037L79.2029 74.1399L77.6673 63.1938L63.5266 64.7576L65.0622 75.7037Z" fill="#D1D5DB"/>
<path d="M16.5069 81.0895L24.5657 80.1982L23.0301 69.2521L14.9713 70.1433L16.5069 81.0895Z" fill="#D1D5DB"/>
<path d="M218.3 85.4493C211.991 84.7245 202.002 81.1009 197.354 77.8457C197.316 77.8183 197.284 77.7845 197.261 77.7462C197.237 77.7079 197.223 77.6658 197.217 77.6225C197.212 77.5791 197.217 77.5353 197.231 77.4935C197.245 77.4517 197.268 77.4128 197.299 77.3789C197.33 77.345 197.368 77.3169 197.411 77.2961C197.454 77.2753 197.501 77.2622 197.55 77.2577C197.599 77.2531 197.648 77.2571 197.695 77.2695C197.742 77.2819 197.786 77.3024 197.824 77.3298C202.39 80.5235 212.185 84.0858 218.397 84.786C218.446 84.7919 218.494 84.8066 218.536 84.8291C218.579 84.8516 218.616 84.8815 218.646 84.9169C218.676 84.9524 218.697 84.9928 218.709 85.0357C218.721 85.0786 218.723 85.1231 218.715 85.1667C218.71 85.21 218.695 85.2519 218.671 85.2898C218.647 85.3278 218.615 85.361 218.576 85.3874C218.537 85.4139 218.493 85.433 218.445 85.4436C218.398 85.4543 218.348 85.4562 218.3 85.4493Z" fill="#D1D5DB"/>
<path d="M126.174 167.479C126.128 167.49 126.08 167.49 126.035 167.479C120.142 165.354 111.536 159.581 107.981 155.38C107.941 155.308 107.931 155.226 107.952 155.148C107.973 155.071 108.024 155.002 108.096 154.954C108.168 154.906 108.257 154.882 108.347 154.885C108.437 154.889 108.523 154.921 108.589 154.974C112.076 159.102 120.529 164.801 126.326 166.865C126.416 166.903 126.486 166.969 126.522 167.052C126.558 167.134 126.557 167.226 126.519 167.307C126.486 167.362 126.435 167.407 126.374 167.437C126.313 167.468 126.244 167.482 126.174 167.479Z" fill="#D1D5DB"/>
<path d="M230.087 94.9935C224.14 94.7728 218.254 93.8432 212.586 92.2297C212.491 92.2036 212.411 92.145 212.364 92.0667C212.318 91.9883 212.308 91.8968 212.337 91.812C212.367 91.7273 212.433 91.6565 212.521 91.615C212.609 91.5735 212.712 91.5649 212.808 91.591C216.377 92.5614 225.453 94.7724 232.287 94.2442C232.336 94.2391 232.386 94.2427 232.433 94.2548C232.481 94.2669 232.525 94.2872 232.564 94.3146C232.603 94.342 232.635 94.376 232.658 94.4145C232.682 94.453 232.697 94.4954 232.702 94.539C232.71 94.6283 232.678 94.7168 232.613 94.7856C232.549 94.8545 232.457 94.8982 232.356 94.9075C231.623 94.9567 230.862 94.9935 230.087 94.9935Z" fill="#D1D5DB"/>
</svg>
