<svg width="500" height="500" viewBox="0 0 500 500" fill="none" xmlns="http://www.w3.org/2000/svg">
<path d="M500 382.4H0V382.65H500V382.4Z" fill="#1F2937"/>
<path d="M135.14 398.49H102.02V398.74H135.14V398.49Z" fill="#1F2937"/>
<path d="M214.69 390.92H171.14V391.17H214.69V390.92Z" fill="#1F2937"/>
<path d="M101.02 389.21H52.46V389.46H101.02V389.21Z" fill="#1F2937"/>
<path d="M281.9 392.59H247.61V392.84H281.9V392.59Z" fill="#1F2937"/>
<path d="M449.9 392.59H442.46V392.84H449.9V392.59Z" fill="#1F2937"/>
<path d="M339.37 392.59H290.8V392.84H339.37V392.59Z" fill="#1F2937"/>
<path d="M420.3 396.81H326.62V397.06H420.3V396.81Z" fill="#1F2937"/>
<path d="M237 337.8H43.91C42.3973 337.797 40.9475 337.195 39.8788 336.124C38.8102 335.053 38.21 333.603 38.21 332.09V60.66C38.2231 59.156 38.8292 57.718 39.8964 56.6582C40.9637 55.5985 42.4059 55.0026 43.91 55H237C238.514 55 239.967 55.6016 241.038 56.6724C242.108 57.7433 242.71 59.1956 242.71 60.71V332.09C242.71 333.604 242.108 335.057 241.038 336.128C239.967 337.198 238.514 337.8 237 337.8ZM43.91 55.2C42.4636 55.2026 41.0774 55.7791 40.0556 56.8027C39.0338 57.8264 38.46 59.2136 38.46 60.66V332.09C38.46 333.536 39.0338 334.924 40.0556 335.947C41.0774 336.971 42.4636 337.547 43.91 337.55H237C238.447 337.547 239.834 336.971 240.858 335.948C241.881 334.924 242.457 333.537 242.46 332.09V60.66C242.457 59.2127 241.881 57.8255 240.858 56.8021C239.834 55.7787 238.447 55.2026 237 55.2H43.91Z" fill="#1F2937"/>
<path d="M453.31 337.8H260.21C258.696 337.797 257.246 337.195 256.175 336.125C255.105 335.054 254.503 333.604 254.5 332.09V60.66C254.516 59.1551 255.124 57.7171 256.193 56.6576C257.262 55.5981 258.705 55.0025 260.21 55H453.31C454.812 55.0052 456.252 55.6022 457.317 56.6617C458.382 57.7212 458.987 59.1578 459 60.66V332.09C459 333.601 458.401 335.05 457.335 336.121C456.268 337.191 454.821 337.795 453.31 337.8ZM260.21 55.2C258.763 55.2026 257.375 55.7787 256.352 56.8021C255.329 57.8255 254.753 59.2127 254.75 60.66V332.09C254.753 333.537 255.329 334.924 256.352 335.948C257.375 336.971 258.763 337.547 260.21 337.55H453.31C454.757 337.547 456.145 336.971 457.168 335.948C458.191 334.924 458.767 333.537 458.77 332.09V60.66C458.767 59.2127 458.191 57.8255 457.168 56.8021C456.145 55.7787 454.757 55.2026 453.31 55.2H260.21Z" fill="#1F2937"/>
<path d="M272.4 78H71.45V222.26H272.4V78Z" fill="#FAFAFA"/>
<path d="M125.33 222.26L159.79 78H198.15L163.69 222.26H125.33Z" fill="#D1D5DB"/>
<path d="M200.25 222.26L234.71 78H248.7L214.24 222.26H200.25Z" fill="#D1D5DB"/>
<path d="M112.09 222.26L146.56 78H151.81L117.34 222.26H112.09Z" fill="#D1D5DB"/>
<path d="M282 73H61.86C61.7431 73 61.6274 73.023 61.5194 73.0677C61.4114 73.1125 61.3133 73.178 61.2306 73.2607C61.148 73.3433 61.0824 73.4414 61.0377 73.5494C60.993 73.6574 60.97 73.7731 60.97 73.89C60.97 74.126 61.0637 74.3524 61.2306 74.5193C61.3976 74.6862 61.6239 74.78 61.86 74.78H282C282.236 74.78 282.462 74.6862 282.629 74.5193C282.796 74.3524 282.89 74.126 282.89 73.89C282.89 73.7731 282.867 73.6574 282.822 73.5494C282.778 73.4414 282.712 73.3433 282.629 73.2607C282.547 73.178 282.449 73.1125 282.341 73.0677C282.233 73.023 282.117 73 282 73Z" fill="#1F2937"/>
<path d="M168.53 222.56H177.1L177.1 77.6801H168.53L168.53 222.56Z" fill="#F0F0F0"/>
<path d="M177.09 222.56H178.05L178.05 77.6801H177.09L177.09 222.56Z" fill="#1F2937"/>
<path d="M70.05 148.94V151.32H273.78V148.94H70.05Z" fill="#F0F0F0"/>
<path d="M273.79 221.27V76.61H70.0601V221.27V223.65H273.79V221.27ZM72.4401 221.27V79H271.44V221.27H72.4401Z" fill="#F0F0F0"/>
<path d="M273.79 223.65H274.98V76.61H273.79V223.65Z" fill="#1F2937"/>
<path opacity="0.5" d="M238.34 70.85V310.45H288.57L279.36 70.85H238.34Z" fill="#1F2937"/>
<path opacity="0.5" d="M203.48 70.85V310.45H253.71L244.5 70.85H203.48Z" fill="#1F2937"/>
<path opacity="0.5" d="M87.37 70.86V310.45H56.47L62.13 70.86H87.37Z" fill="#1F2937"/>
<path opacity="0.5" d="M108.81 70.86V310.45H77.9099L83.5799 70.86H108.81Z" fill="#1F2937"/>
<path d="M125.4 382.4H161.23L161.23 261.46H125.4L125.4 382.4Z" fill="#F97316" fill-opacity="0.38"/>
<path d="M131.37 382.4H125.41V371.52H137.62L131.37 382.4Z" fill="#F0F0F0"/>
<path d="M271.21 382.4H307.04V261.46H271.21V382.4Z" fill="#F97316" fill-opacity="0.38"/>
<path d="M125.41 378.22H276.42V261.46H125.41L125.41 378.22Z" fill="#F0F0F0"/>
<path d="M130.04 298.65H271.8V266.63H130.04V298.65Z" fill="#F97316" fill-opacity="0.38"/>
<path d="M194.22 276.59H207.61C213.43 276.59 218.99 272.64 222.99 265.66H178.84C182.84 272.64 188.4 276.59 194.22 276.59Z" fill="#F0F0F0"/>
<path d="M270.46 382.4H276.42V371.52H264.21L270.46 382.4Z" fill="#F0F0F0"/>
<path d="M130.04 335.85H271.8V303.83H130.04V335.85Z" fill="#F97316" fill-opacity="0.38"/>
<path d="M194.22 313.78H207.61C213.43 313.78 218.99 309.83 222.99 302.86H178.84C182.84 309.83 188.4 313.78 194.22 313.78Z" fill="#F0F0F0"/>
<path d="M130.04 373.05H271.8V341.03H130.04V373.05Z" fill="#F97316" fill-opacity="0.38"/>
<path d="M194.22 351H207.61C213.43 351 218.99 347 222.99 340.07H178.84C182.84 347 188.4 351 194.22 351Z" fill="#F0F0F0"/>
<path d="M220.24 239.47C217.93 215.53 216.32 176.68 217.57 163.68C217.596 163.457 217.667 163.242 217.779 163.048C217.89 162.854 218.041 162.684 218.22 162.55C218.462 162.374 218.748 162.27 219.046 162.248C219.344 162.227 219.643 162.29 219.907 162.429C220.172 162.569 220.392 162.779 220.542 163.038C220.693 163.296 220.768 163.591 220.76 163.89C220.54 170.33 220.29 186.43 221.66 214.19C222.34 228.01 223.33 237.48 222.66 239.47H220.24Z" fill="#D1D5DB"/>
<path d="M213.62 188C208.34 181.21 197.42 175.84 186.23 175C181.83 174.67 199.48 183.44 206.75 192.19C212.39 198.98 218.7 210.19 220.81 216.28C219.58 203.66 218.9 194.77 213.62 188Z" fill="#D1D5DB"/>
<path d="M224.67 186.51C230.14 178.9 242.75 173.05 256.4 172.39C261.76 172.13 241.4 181.68 233.76 191.46C227.85 199.07 221.76 211.66 220.13 218.57C219.73 204.24 219.21 194.12 224.67 186.51Z" fill="#D1D5DB"/>
<path d="M214 165.59C209.83 159.92 200.63 155.27 190.87 154.31C187.04 153.94 201.92 161.53 207.69 168.84C212.18 174.52 216.95 183.84 218.38 188.84C218.14 178.53 218.15 171.26 214 165.59Z" fill="#D1D5DB"/>
<path d="M222.38 166.75C227.01 160.31 237.69 155.35 249.24 154.75C253.78 154.53 236.52 162.62 230.08 170.91C225.08 177.34 219.94 188.01 218.53 193.91C218.19 181.76 217.75 173.2 222.38 166.75Z" fill="#D1D5DB"/>
<path d="M216.78 213.55C213.78 209.27 207 205.68 199.78 204.82C196.94 204.49 207.88 210.35 212.06 215.87C215.378 220.438 217.956 225.5 219.7 230.87C219.67 223.22 219.79 217.83 216.78 213.55Z" fill="#D1D5DB"/>
<path d="M222.25 211.14C224.87 206.9 231.34 203.32 238.55 202.46C241.39 202.12 230.93 207.95 227.26 213.46C224.337 218.018 222.22 223.044 221 228.32C220.29 220.73 219.64 215.39 222.25 211.14Z" fill="#D1D5DB"/>
<path d="M221.22 261.46C215.46 261.46 210.7 260.26 210.37 254.51L209.37 237.88H233L232 254.51C231.74 260.26 227 261.46 221.22 261.46Z" fill="#F97316" fill-opacity="0.38"/>
<path d="M232.89 241.66H209.54C209.083 241.658 208.643 241.487 208.303 241.181C207.964 240.875 207.749 240.454 207.7 240L207.34 236.8C207.312 236.54 207.339 236.278 207.419 236.029C207.499 235.78 207.631 235.552 207.805 235.357C207.98 235.163 208.193 235.007 208.432 234.901C208.67 234.795 208.929 234.74 209.19 234.74H233.25C233.51 234.741 233.767 234.797 234.005 234.904C234.242 235.011 234.454 235.167 234.628 235.361C234.801 235.555 234.932 235.784 235.012 236.031C235.091 236.279 235.118 236.541 235.09 236.8L234.74 240C234.691 240.456 234.474 240.878 234.133 241.184C233.791 241.491 233.349 241.66 232.89 241.66Z" fill="#F0F0F0"/>
<path d="M250 427.56C357.083 427.56 443.89 422.492 443.89 416.24C443.89 409.988 357.083 404.92 250 404.92C142.918 404.92 56.1101 409.988 56.1101 416.24C56.1101 422.492 142.918 427.56 250 427.56Z" fill="#F5F5F5"/>
<path d="M416.94 103.6H298.16V416.24H416.94V103.6Z" fill="#F97316"/>
<path opacity="0.8" d="M416.94 103.6H298.16V416.24H416.94V103.6Z" fill="#D1D5DB"/>
<g opacity="0.4">
<path d="M419.77 144.14C415.43 144.56 413.54 145.2 411.77 142.69C410 140.18 403.44 139.64 401.25 142.39C399.06 145.14 398.25 146.95 393.36 146.23C388.47 145.51 386.82 146.8 386.06 148.83C385.3 150.86 374.06 151.59 377.28 153.83L419 147.7C419 147.7 424.11 143.72 419.77 144.14Z" fill="#D1D5DB"/>
<path d="M382.26 122.32C380.92 120.91 376.97 120.96 373.4 122.73C369.83 124.5 372.4 116.32 365.77 118.61C356.26 121.88 358.77 127.09 354.83 127.16C350.89 127.23 339.32 130.31 345.36 132.16L380.36 127.01C380.36 127.01 383.61 123.72 382.26 122.32Z" fill="#D1D5DB"/>
<path d="M336.36 177.23C335.41 176.23 332.61 176.23 330.07 177.53C327.53 178.83 329.38 172.98 324.66 174.6C317.91 176.92 319.66 180.6 316.9 180.67C314.14 180.74 305.9 182.9 310.18 184.25L335 180.59C335 180.59 337.32 178.23 336.36 177.23Z" fill="#D1D5DB"/>
</g>
<path opacity="0.07" d="M403.08 354V365.8C403.08 366.276 402.892 366.732 402.556 367.069C402.221 367.407 401.766 367.597 401.29 367.6H398.06C397.824 367.599 397.59 367.644 397.372 367.733C397.154 367.823 396.955 367.954 396.788 368.121C396.621 368.287 396.488 368.485 396.397 368.703C396.307 368.921 396.26 369.154 396.26 369.39V371.65C396.26 372.127 396.07 372.585 395.733 372.923C395.395 373.26 394.937 373.45 394.46 373.45H382.46C381.983 373.447 381.527 373.257 381.19 372.92C380.853 372.583 380.663 372.127 380.66 371.65V354C380.66 353.525 380.471 353.07 380.136 352.734C379.8 352.399 379.345 352.21 378.87 352.21H377C376.523 352.207 376.067 352.017 375.73 351.68C375.393 351.343 375.203 350.887 375.2 350.41V330.1C375.2 329.625 375.011 329.17 374.676 328.834C374.34 328.499 373.885 328.31 373.41 328.31H369.9C369.424 328.31 368.968 328.498 368.631 328.834C368.293 329.169 368.103 329.624 368.1 330.1V342.71C368.077 343.091 367.904 343.448 367.62 343.702C367.335 343.957 366.961 344.089 366.58 344.07C366.2 344.089 365.827 343.957 365.544 343.702C365.261 343.447 365.091 343.09 365.07 342.71V305.17C365.07 304.693 364.88 304.235 364.543 303.897C364.205 303.56 363.747 303.37 363.27 303.37H359.73C359.494 303.37 359.26 303.417 359.043 303.507C358.825 303.598 358.627 303.731 358.461 303.898C358.294 304.065 358.163 304.264 358.073 304.482C357.984 304.7 357.939 304.934 357.94 305.17V342.27C357.94 342.747 357.75 343.205 357.413 343.543C357.075 343.88 356.617 344.07 356.14 344.07H355.71C355.474 344.07 355.24 344.023 355.021 343.933C354.803 343.843 354.604 343.71 354.437 343.543C354.27 343.376 354.137 343.177 354.047 342.959C353.957 342.74 353.91 342.506 353.91 342.27V323.09C353.913 322.809 353.848 322.531 353.72 322.28L343.05 300.92C342.924 300.672 342.858 300.398 342.86 300.12V273.17C342.86 272.934 342.813 272.701 342.723 272.483C342.632 272.265 342.499 272.067 342.332 271.901C342.165 271.734 341.966 271.603 341.748 271.513C341.53 271.424 341.296 271.379 341.06 271.38H330.67C330.194 271.38 329.738 271.568 329.401 271.904C329.063 272.239 328.873 272.694 328.87 273.17V342.27C328.871 342.506 328.826 342.74 328.737 342.958C328.647 343.176 328.516 343.375 328.349 343.542C328.183 343.71 327.985 343.842 327.767 343.933C327.549 344.023 327.316 344.07 327.08 344.07H326.35C326.114 344.07 325.88 344.023 325.663 343.933C325.445 343.842 325.247 343.71 325.081 343.542C324.914 343.375 324.783 343.176 324.693 342.958C324.604 342.74 324.559 342.506 324.56 342.27V316C324.557 315.523 324.367 315.067 324.03 314.73C323.693 314.393 323.237 314.203 322.76 314.2H312.37C311.893 314.203 311.437 314.393 311.1 314.73C310.763 315.067 310.573 315.523 310.57 316V342.28C310.571 342.516 310.526 342.75 310.437 342.968C310.347 343.186 310.216 343.385 310.049 343.552C309.883 343.719 309.685 343.852 309.467 343.943C309.249 344.033 309.016 344.08 308.78 344.08H307.37C306.893 344.08 306.435 344.27 306.097 344.607C305.76 344.945 305.57 345.403 305.57 345.88V350.4C305.57 350.876 305.382 351.332 305.046 351.669C304.711 352.007 304.256 352.197 303.78 352.2H303.28C303.044 352.199 302.81 352.244 302.592 352.333C302.374 352.423 302.175 352.554 302.008 352.721C301.841 352.887 301.708 353.085 301.617 353.303C301.527 353.521 301.48 353.754 301.48 353.99V389.92C301.48 390.156 301.527 390.39 301.617 390.607C301.708 390.825 301.841 391.023 302.008 391.189C302.175 391.356 302.374 391.487 302.592 391.577C302.81 391.666 303.044 391.711 303.28 391.71H408.42C408.895 391.71 409.35 391.521 409.686 391.186C410.021 390.85 410.21 390.395 410.21 389.92V354C410.21 353.525 410.021 353.07 409.686 352.734C409.35 352.399 408.895 352.21 408.42 352.21H404.88C404.404 352.21 403.948 352.398 403.611 352.734C403.273 353.069 403.083 353.524 403.08 354Z" fill="#F97316"/>
<path opacity="0.07" d="M416.6 395.01H298.16V405.49H416.6V395.01Z" fill="#F97316"/>
<path d="M428.32 94.92V416.24H415.3V109.26H310.93V416.24H297.92V94.92H428.32Z" fill="#1F2937"/>
<path d="M422.53 94.92V416.24H409.52V109.26H305.15V416.24H292.13V94.92H422.53Z" fill="#F97316"/>
<path d="M325 133.54C320.53 133.9 314.7 136.97 327.74 140.54C340.78 144.11 342.54 140.25 342.54 140.25C342.54 140.25 337 132.57 325 133.54Z" fill="#F97316"/>
<path opacity="0.4" d="M325 133.54C320.53 133.9 314.7 136.97 327.74 140.54C340.78 144.11 342.54 140.25 342.54 140.25C342.54 140.25 337 132.57 325 133.54Z" fill="black"/>
<path d="M348.822 166.283C351.764 165.838 353.709 162.578 353.167 159.002C352.626 155.426 349.802 152.888 346.86 153.334C343.919 153.78 341.973 157.04 342.515 160.616C343.057 164.192 345.881 166.729 348.822 166.283Z" fill="#1F2937"/>
<path d="M331.578 150.941C334.52 150.495 336.465 147.235 335.923 143.659C335.381 140.084 332.558 137.546 329.616 137.992C326.674 138.437 324.729 141.698 325.271 145.273C325.813 148.849 328.636 151.387 331.578 150.941Z" fill="#1F2937"/>
<path d="M409.52 345.61V373.41C395.07 362 380.29 349.23 377.22 342.58C366.1 318.42 344.76 255.07 344.76 255.07L378.36 241.33L378.51 242.01C379.39 246.1 384.1 268.48 389.63 302.76C391.11 311.91 392.63 321.92 394.18 332.65C396.84 334.39 402.59 339.34 409.52 345.61Z" fill="#1F2937"/>
<path opacity="0.2" d="M391.06 311.8C389.31 300.57 387.62 290.44 386.06 281.58L378.38 275.68C381.056 288.21 385.317 300.347 391.06 311.8Z" fill="black"/>
<path d="M409.52 276.68V334.6C407.52 331.26 405.65 328.25 404.01 325.7C400.21 319.78 395.09 311.58 389.63 302.76C374.72 278.71 357.29 250 357.29 250L378.51 242L388.44 238.26C397.05 249.58 402.76 261.36 409.52 276.68Z" fill="#1F2937"/>
<path d="M334.41 198.06C333.71 198.57 333.18 198.94 332.58 199.34C331.98 199.74 331.41 200.1 330.83 200.47C329.65 201.2 328.47 201.9 327.27 202.58C324.875 203.927 322.412 205.149 319.89 206.24C318.64 206.81 317.35 207.31 316.07 207.83C314.79 208.35 313.48 208.83 312.15 209.2C309.493 210.068 306.789 210.782 304.05 211.34L303.66 211.42C302.93 211.58 302.174 211.588 301.441 211.441C300.708 211.295 300.013 210.998 299.4 210.57C296.778 208.692 294.356 206.551 292.17 204.18C290.109 201.975 288.166 199.662 286.35 197.25C284.57 194.87 282.903 192.443 281.35 189.97C279.78 187.47 278.3 184.97 276.93 182.31C276.578 181.602 276.491 180.791 276.686 180.025C276.882 179.259 277.345 178.588 277.993 178.135C278.642 177.682 279.431 177.476 280.218 177.556C281.004 177.636 281.736 177.996 282.28 178.57L282.35 178.64C284.21 180.64 286.13 182.76 288.05 184.77C289.97 186.78 291.9 188.77 293.87 190.7C295.84 192.63 297.87 194.47 299.87 196.17C301.743 197.793 303.75 199.255 305.87 200.54L301.21 199.77C303.45 199.04 305.67 198.27 307.87 197.35C310.07 196.43 312.25 195.46 314.4 194.35C316.55 193.24 318.67 192.15 320.76 190.95C321.76 190.36 322.84 189.75 323.85 189.13L325.35 188.18L326.73 187.3L327.01 187.12C328.456 186.209 330.199 185.894 331.873 186.242C333.547 186.59 335.02 187.574 335.983 188.986C336.945 190.399 337.323 192.129 337.035 193.814C336.747 195.499 335.817 197.007 334.44 198.02L334.41 198.06Z" fill="#B55B52"/>
<path d="M336.85 181.83C329.015 185.135 321.408 188.957 314.08 193.27C316.41 200 319.65 208.01 324.88 212.69C329.549 209.714 333.973 206.37 338.11 202.69C347.24 194.83 346.39 178 336.85 181.83Z" fill="#F97316"/>
<path d="M343.27 254.91C345.01 260.91 346.27 267.8 348.99 269.13C351.71 270.46 357.91 261.35 360.26 257.92C366.65 258.4 385.33 255.87 391.05 252.19C396.77 248.51 394.97 244 390.39 237.67C377.85 236.41 350.68 250.33 343.27 254.91Z" fill="#D1D5DB"/>
<path d="M363.43 174.12C354.363 175.685 345.48 178.175 336.92 181.55C327.69 185.28 322.92 192.79 324.58 202.61C326.58 214.41 335.58 241.89 344.05 260.61C345.52 263.83 389.82 243.71 391.96 239.28C388.47 227.03 379.39 215.36 375.87 186.1C375.15 180.07 369.34 173.1 363.43 174.12Z" fill="#F97316"/>
<path d="M354.6 197.28C357.481 195.932 360.476 194.845 363.55 194.03C363.779 193.966 364.025 193.991 364.236 194.1C364.448 194.21 364.61 194.395 364.69 194.62C365.03 195.54 365.63 197.09 366.23 198.46C366.286 198.582 366.314 198.715 366.314 198.85C366.314 198.984 366.285 199.117 366.229 199.239C366.173 199.362 366.091 199.471 365.99 199.559C365.888 199.647 365.769 199.712 365.64 199.75C363.3 200.46 359.48 201.86 357.04 202.92C356.829 202.999 356.598 203.004 356.384 202.935C356.17 202.866 355.985 202.727 355.86 202.54C355.05 201.247 354.461 199.827 354.12 198.34C354.069 198.135 354.089 197.919 354.176 197.727C354.263 197.535 354.413 197.377 354.6 197.28Z" fill="#D1D5DB"/>
<path d="M342.63 193.73C342.77 194.56 342.54 195.29 342.1 195.37C341.66 195.45 341.18 194.84 341.03 194.01C340.88 193.18 341.12 192.45 341.56 192.37C342 192.29 342.48 192.9 342.63 193.73Z" fill="#D1D5DB"/>
<path d="M376.67 182.13C379.1 183.55 381.33 184.98 383.6 186.49C385.87 188 388.07 189.49 390.25 191.14C392.43 192.79 394.6 194.37 396.73 196.07C398.86 197.77 400.94 199.51 403.01 201.3L403.37 201.61C403.927 202.091 404.38 202.681 404.701 203.343C405.023 204.004 405.206 204.725 405.24 205.46C405.342 208.489 405.022 211.519 404.29 214.46C403.624 217.177 402.721 219.831 401.59 222.39C400.507 224.855 399.264 227.246 397.87 229.55C396.489 231.851 394.949 234.054 393.26 236.14C392.76 236.742 392.063 237.147 391.293 237.282C390.522 237.418 389.729 237.275 389.054 236.88C388.379 236.485 387.866 235.863 387.607 235.124C387.348 234.386 387.36 233.58 387.64 232.85L387.72 232.67C388.56 230.53 389.45 228.19 390.2 225.94C390.95 223.69 391.66 221.4 392.2 219.14C392.754 216.957 393.158 214.738 393.41 212.5C393.633 210.505 393.616 208.491 393.36 206.5L395.59 210.66C391.4 207.66 387.11 204.77 382.78 201.91L369.78 193.43H369.71C368.221 192.51 367.158 191.035 366.756 189.332C366.354 187.628 366.645 185.834 367.565 184.345C368.485 182.856 369.96 181.793 371.663 181.391C373.367 180.989 375.161 181.28 376.65 182.2L376.67 182.13Z" fill="#B55B52"/>
<path d="M369.61 175.18C377.004 179.367 384.11 184.044 390.88 189.18C387.772 195.413 383.1 200.733 377.32 204.62C377.32 204.62 373.2 203.62 365.91 195.72C357.77 186.87 360.58 170.26 369.61 175.18Z" fill="#F97316"/>
<path d="M388.47 230.87L382.7 237.47L392.13 242.19C392.13 242.19 396.64 235.55 393.56 232.47L388.47 230.87Z" fill="#B55B52"/>
<path d="M383.17 246.74L386.74 247.83C387.426 248.04 388.165 247.992 388.818 247.693C389.47 247.394 389.991 246.867 390.28 246.21L392.13 242.21L382.7 237.49L381.1 242.85C380.868 243.64 380.955 244.49 381.342 245.217C381.729 245.944 382.385 246.491 383.17 246.74Z" fill="#B55B52"/>
<path d="M342 188.42C342 188.42 346.81 191.51 347.27 195.56C358.74 187.11 360.57 178.82 358.07 175.17C356.946 174.743 355.704 174.743 354.58 175.17C354.58 175.17 351.06 182.39 342 188.42Z" fill="#D1D5DB"/>
<path d="M342 188.42C342 188.42 338.67 192.3 338.31 196.33C330.97 193.03 333.63 184.42 335.61 182.13C336.869 181.215 338.272 180.516 339.76 180.06C339.76 180.06 337.11 183.37 342 188.42Z" fill="#D1D5DB"/>
<path d="M347.9 155.6C348.47 161.25 350.21 170.8 354.35 174.96C354.85 175.46 355.167 176.113 355.25 176.815C355.334 177.517 355.179 178.227 354.81 178.83C352.313 183.21 348.291 186.517 343.51 188.12C338.12 189.92 336.64 187.36 336.71 184.62C336.736 183.925 336.919 183.245 337.244 182.63C337.57 182.015 338.03 181.482 338.59 181.07C343.27 177.54 341.59 173 339.22 168.96L347.9 155.6Z" fill="#B55B52"/>
<path opacity="0.2" d="M344.37 161.05L339.23 169C339.856 170.014 340.392 171.082 340.83 172.19C343.33 171.04 346.05 167.14 345.5 164.34C345.327 163.184 344.944 162.069 344.37 161.05Z" fill="black"/>
<path d="M349.31 146.23C350.06 154.89 350.94 159.92 347.31 165.04C341.85 172.75 330.82 170.59 327.52 162.37C324.52 154.97 323.83 142.04 331.62 137.23C333.311 136.156 335.253 135.54 337.254 135.445C339.255 135.349 341.246 135.777 343.032 136.685C344.817 137.594 346.335 138.952 347.436 140.625C348.537 142.299 349.183 144.231 349.31 146.23Z" fill="#B55B52"/>
<path d="M334.3 134.49C329.43 134.97 327.11 137.86 328.38 139.3C324.09 140.07 327.99 145.3 332.62 143.15C333.02 144.82 342.23 144.26 342.32 141.75C344.41 147.18 347.03 146.83 347.03 146.83C347.03 146.83 344.31 152.83 348.21 153.61C348.21 157 350.66 159.97 353.21 159.46C356.04 158.88 355.14 154.09 355.14 154.09C360.3 151.8 356.83 146.61 356.83 146.61C356.75 140.85 344.77 128.13 334.3 134.49Z" fill="#1F2937"/>
<path d="M328 157.16C327.413 157.113 326.846 156.922 326.35 156.602C325.854 156.283 325.446 155.846 325.16 155.33C324.297 153.945 323.808 152.36 323.74 150.73C323.598 149.108 323.885 147.477 324.57 146C324.746 145.397 325.104 144.863 325.594 144.47C326.084 144.077 326.684 143.845 327.311 143.804C327.937 143.764 328.562 143.917 329.098 144.244C329.635 144.571 330.058 145.055 330.31 145.63C331.175 147.011 331.668 148.592 331.74 150.22C331.97 153.9 330.37 157.01 328.16 157.15L328 157.16ZM327.47 144.34H327.35C326.835 144.428 326.353 144.648 325.949 144.98C325.546 145.311 325.236 145.742 325.05 146.23C324.447 147.634 324.183 149.161 324.28 150.687C324.377 152.213 324.833 153.694 325.61 155.01C325.855 155.472 326.217 155.861 326.659 156.14C327.101 156.419 327.608 156.577 328.13 156.6C330.04 156.48 331.41 153.6 331.2 150.25C331.133 148.715 330.672 147.224 329.86 145.92C329.625 145.478 329.283 145.102 328.866 144.826C328.449 144.55 327.969 144.383 327.47 144.34Z" fill="#D1D5DB"/>
<path d="M337.55 156.55C336.909 156.521 336.282 156.345 335.72 156.034C335.159 155.724 334.676 155.288 334.31 154.76C333.312 153.427 332.741 151.824 332.67 150.16C332.43 146.49 334.34 143.36 336.92 143.16C339.5 142.96 341.79 145.86 342.02 149.54C342.177 151.195 341.828 152.858 341.02 154.31C340.709 154.914 340.253 155.431 339.693 155.815C339.132 156.199 338.485 156.438 337.81 156.51L337.55 156.55ZM337.14 143.73H337C334.72 143.88 333 146.73 333.25 150.13C333.322 151.682 333.851 153.178 334.77 154.43C335.079 154.942 335.523 155.36 336.054 155.637C336.584 155.914 337.18 156.04 337.777 156.002C338.374 155.964 338.95 155.763 339.44 155.42C339.931 155.078 340.318 154.607 340.56 154.06C341.334 152.708 341.683 151.153 341.56 149.6C341.27 146.31 339.34 143.73 337.14 143.73Z" fill="#D1D5DB"/>
<path d="M331.47 150.51C331.416 150.51 331.363 150.493 331.318 150.462C331.273 150.431 331.239 150.387 331.219 150.337C331.2 150.286 331.196 150.23 331.209 150.177C331.221 150.124 331.25 150.076 331.29 150.04C331.541 149.849 331.841 149.735 332.154 149.71C332.468 149.685 332.783 149.751 333.06 149.9C333.124 149.934 333.172 149.992 333.195 150.061C333.217 150.13 333.212 150.205 333.18 150.27C333.148 150.333 333.092 150.381 333.025 150.404C332.957 150.426 332.884 150.421 332.82 150.39C332.638 150.288 332.43 150.239 332.221 150.25C332.013 150.261 331.811 150.33 331.64 150.45C331.592 150.489 331.532 150.51 331.47 150.51Z" fill="#D1D5DB"/>
<path d="M349.56 151.25H349.5C343.68 149.94 341.84 150.25 341.83 150.25C341.76 150.266 341.686 150.253 341.625 150.215C341.564 150.176 341.521 150.115 341.505 150.045C341.489 149.975 341.502 149.901 341.54 149.84C341.579 149.779 341.64 149.736 341.71 149.72C341.79 149.72 343.64 149.34 349.62 150.72C349.655 150.727 349.687 150.741 349.716 150.761C349.745 150.781 349.77 150.807 349.789 150.837C349.807 150.867 349.82 150.9 349.825 150.935C349.831 150.97 349.829 151.006 349.82 151.04C349.807 151.099 349.774 151.152 349.726 151.19C349.679 151.228 349.621 151.249 349.56 151.25Z" fill="#D1D5DB"/>
<path d="M353.61 154.12C352.861 156.065 351.418 157.665 349.56 158.61C347.2 159.72 345.88 157.43 346.42 154.73C346.91 152.31 348.72 148.81 351.15 148.83C353.58 148.85 354.6 151.63 353.61 154.12Z" fill="#B55B52"/>
<path d="M336.81 150.51C336.86 151.21 336.53 151.82 336.07 151.86C335.61 151.9 335.21 151.37 335.16 150.66C335.11 149.95 335.43 149.35 335.89 149.31C336.35 149.27 336.75 149.8 336.81 150.51Z" fill="#1F2937"/>
<path d="M328.65 151.13C328.7 151.83 328.37 152.44 327.92 152.48C327.47 152.52 327.05 151.99 327 151.28C326.95 150.57 327.27 149.97 327.73 149.93C328.19 149.89 328.6 150.42 328.65 151.13Z" fill="#1F2937"/>
<path d="M332.09 150.72C330.893 152.709 329.811 154.766 328.85 156.88C330.1 158 332.54 157.18 332.54 157.18L332.09 150.72Z" fill="#A02724"/>
<path d="M333.36 160.81C334.147 160.737 334.911 160.506 335.607 160.132C336.302 159.757 336.916 159.246 337.41 158.63C337.439 158.584 337.45 158.529 337.441 158.475C337.431 158.422 337.403 158.374 337.36 158.34C337.342 158.321 337.321 158.305 337.296 158.295C337.272 158.284 337.246 158.278 337.22 158.278C337.194 158.278 337.168 158.284 337.144 158.295C337.119 158.305 337.098 158.321 337.08 158.34C336.518 159.007 335.81 159.535 335.01 159.882C334.21 160.229 333.341 160.386 332.47 160.34C332.442 160.339 332.415 160.343 332.389 160.352C332.363 160.361 332.339 160.376 332.319 160.394C332.298 160.413 332.282 160.435 332.27 160.46C332.258 160.485 332.251 160.512 332.25 160.54C332.249 160.567 332.253 160.594 332.262 160.62C332.272 160.645 332.286 160.668 332.305 160.688C332.324 160.708 332.346 160.723 332.371 160.734C332.396 160.745 332.423 160.75 332.45 160.75C332.752 160.79 333.056 160.81 333.36 160.81Z" fill="#1F2937"/>
<path d="M340 147.88C340.067 147.861 340.128 147.826 340.18 147.78C340.258 147.701 340.301 147.595 340.301 147.485C340.301 147.375 340.258 147.269 340.18 147.19C339.763 146.691 339.229 146.302 338.625 146.06C338.021 145.817 337.367 145.728 336.72 145.8C336.611 145.816 336.513 145.874 336.448 145.962C336.382 146.051 336.354 146.161 336.37 146.27C336.386 146.379 336.444 146.477 336.533 146.542C336.621 146.608 336.731 146.636 336.84 146.62C337.351 146.574 337.866 146.653 338.339 146.85C338.813 147.047 339.232 147.356 339.56 147.75C339.612 147.813 339.682 147.859 339.76 147.882C339.839 147.905 339.922 147.905 340 147.88Z" fill="#1F2937"/>
<path d="M325.28 148.35C325.348 148.355 325.416 148.344 325.478 148.318C325.541 148.292 325.596 148.252 325.64 148.2C325.95 147.783 326.355 147.447 326.821 147.217C327.287 146.988 327.801 146.872 328.32 146.88C328.43 146.889 328.538 146.855 328.624 146.786C328.709 146.718 328.765 146.619 328.78 146.51C328.792 146.402 328.76 146.293 328.693 146.207C328.626 146.121 328.528 146.065 328.42 146.05C327.763 146.031 327.111 146.17 326.518 146.453C325.925 146.737 325.408 147.157 325.01 147.68C324.942 147.764 324.909 147.872 324.918 147.98C324.928 148.088 324.978 148.188 325.06 148.26C325.12 148.316 325.198 148.348 325.28 148.35Z" fill="#1F2937"/>
<path d="M281.53 184.92L272.91 186.49L273.69 175.98C273.69 175.98 281.69 175.51 282.77 179.74L281.53 184.92Z" fill="#B55B52"/>
<path d="M265.19 181.33L266.08 177.71C266.262 177.018 266.686 176.414 267.275 176.007C267.863 175.599 268.578 175.416 269.29 175.49L273.69 175.98L272.91 186.49L267.48 185.11C266.679 184.907 265.989 184.396 265.561 183.689C265.132 182.982 264.999 182.134 265.19 181.33Z" fill="#B55B52"/>
<path d="M331.5 134.46C333.23 129.63 336.15 126.52 338.82 126.13C340.61 125.88 348.06 127.13 351.29 128.81C354.52 130.49 359.2 136.57 359.44 138.81C359.68 141.05 356.79 146.64 356.79 146.64C356.79 146.64 343.82 138.19 331.5 134.46Z" fill="#F97316"/>
<path d="M335.71 128C338.857 128.706 341.956 129.607 344.99 130.7C345.44 130.88 345.59 131.27 345.33 131.6C344.82 132.25 343.8 133.6 343.11 134.6C342.93 134.804 342.691 134.948 342.427 135.013C342.162 135.077 341.884 135.059 341.63 134.96C339.36 134.12 335.46 132.85 332.85 132.14C332.38 132.01 332.16 131.67 332.3 131.33C332.832 130.176 333.578 129.134 334.5 128.26C334.669 128.127 334.865 128.035 335.075 127.99C335.285 127.945 335.502 127.948 335.71 128Z" fill="#D1D5DB"/>
<path d="M324.58 133.58C334.2 133.58 337.71 139.91 342.69 141.76C347.67 143.61 355.86 142.68 355.86 142.68C355.86 142.68 339.16 131.78 324.58 133.58Z" fill="#F97316"/>
<path d="M227.777 184.353L302.341 175.065L298.461 143.916L223.897 153.203L227.777 184.353Z" fill="#F97316"/>
<path opacity="0.4" d="M253.878 181.099L302.333 175.064L298.454 143.914L249.998 149.95L253.878 181.099Z" fill="#D1D5DB"/>
<path opacity="0.3" d="M289.46 173.85L288.36 165.04L297.91 163.85L299 172.66L289.46 173.85ZM289.46 165.85L290.33 172.77L297.98 171.82L297.12 164.89L289.46 165.85Z" fill="#D1D5DB"/>
<path opacity="0.3" d="M278.11 175.27L277.01 166.46L286.55 165.27L287.65 174.08L278.11 175.27ZM278.11 167.27L278.97 174.19L286.63 173.24L285.77 166.32L278.11 167.27Z" fill="#D1D5DB"/>
<path d="M270.238 156.476L280.459 155.203L279.349 146.292L269.128 147.565L270.238 156.476Z" fill="#D1D5DB"/>
<path d="M235.142 160.861L240.967 160.135L239.857 151.224L234.032 151.95L235.142 160.861Z" fill="#D1D5DB"/>
<path d="M381 164.41C376.44 163.82 369.22 160.87 365.86 158.22C365.832 158.198 365.809 158.17 365.793 158.139C365.776 158.108 365.765 158.074 365.761 158.038C365.758 158.003 365.761 157.967 365.771 157.933C365.781 157.899 365.798 157.868 365.82 157.84C365.842 157.812 365.87 157.79 365.901 157.773C365.932 157.756 365.966 157.745 366.002 157.741C366.037 157.738 366.073 157.741 366.107 157.751C366.141 157.761 366.172 157.778 366.2 157.8C369.5 160.4 376.58 163.3 381.07 163.87C381.106 163.875 381.14 163.887 381.171 163.905C381.202 163.923 381.229 163.948 381.25 163.977C381.272 164.005 381.287 164.038 381.296 164.073C381.304 164.108 381.306 164.144 381.3 164.18C381.296 164.215 381.286 164.249 381.268 164.28C381.251 164.311 381.228 164.338 381.2 164.36C381.171 164.381 381.139 164.397 381.105 164.405C381.071 164.414 381.035 164.416 381 164.41Z" fill="#D1D5DB"/>
<path d="M314.41 231.19C314.377 231.199 314.343 231.199 314.31 231.19C310.05 229.46 303.83 224.76 301.26 221.34C301.232 221.281 301.224 221.215 301.239 221.152C301.255 221.088 301.292 221.032 301.344 220.993C301.396 220.954 301.46 220.934 301.525 220.937C301.59 220.941 301.652 220.966 301.7 221.01C304.22 224.37 310.33 229.01 314.52 230.69C314.585 230.721 314.636 230.775 314.662 230.842C314.688 230.909 314.687 230.983 314.66 231.05C314.636 231.094 314.599 231.131 314.555 231.156C314.511 231.181 314.461 231.192 314.41 231.19Z" fill="#D1D5DB"/>
<path d="M389.52 172.18C385.222 172 380.967 171.243 376.87 169.93C376.801 169.909 376.743 169.861 376.71 169.797C376.676 169.733 376.669 169.659 376.69 169.59C376.711 169.521 376.759 169.463 376.823 169.43C376.886 169.396 376.961 169.389 377.03 169.41C379.61 170.2 386.17 172 391.11 171.57C391.145 171.566 391.181 171.569 391.216 171.579C391.25 171.588 391.282 171.605 391.31 171.627C391.338 171.65 391.361 171.677 391.378 171.709C391.396 171.74 391.406 171.774 391.41 171.81C391.416 171.883 391.393 171.955 391.346 172.011C391.299 172.067 391.233 172.102 391.16 172.11C390.63 172.15 390.08 172.18 389.52 172.18Z" fill="#D1D5DB"/>
<path d="M150.43 129.11C142.1 138.75 153.88 146.62 156.18 154.74C158.48 162.86 157.12 180.35 167.45 190.35C183.53 205.95 202.08 197.16 205.24 188.04C208.4 178.92 207.24 164.6 193.57 154.74C185.4 148.86 191.79 129.41 184.26 127.08C185.79 115.35 148.84 106.84 150.43 129.11Z" fill="#1F2937"/>
<path d="M205 187.26C204.956 187.26 204.913 187.249 204.875 187.228C204.836 187.207 204.804 187.177 204.78 187.14C204.745 187.081 204.734 187.011 204.749 186.944C204.764 186.877 204.804 186.819 204.86 186.78C207.53 185.06 208.96 182 208.86 178.17C208.74 171.91 204.29 163.03 194.62 157.29C190.25 154.7 189.8 146.97 189.39 140.15C189.08 134.78 188.78 129.7 186.68 127.96C186.352 127.697 185.972 127.506 185.566 127.399C185.159 127.292 184.735 127.272 184.32 127.34C184.285 127.346 184.249 127.344 184.215 127.335C184.181 127.327 184.149 127.311 184.12 127.29C184.092 127.268 184.069 127.241 184.052 127.21C184.034 127.179 184.024 127.145 184.02 127.11C184.014 127.041 184.035 126.973 184.077 126.919C184.12 126.865 184.182 126.83 184.25 126.82C184.737 126.743 185.235 126.768 185.712 126.894C186.189 127.02 186.634 127.243 187.02 127.55C189.28 129.44 189.59 134.63 189.91 140.12C190.31 146.81 190.76 154.39 194.91 156.84C203.57 161.98 209.26 170.35 209.4 178.16C209.48 182.16 207.96 185.4 205.13 187.22C205.092 187.246 205.046 187.26 205 187.26Z" fill="#1F2937"/>
<path d="M131.48 196.7L128.3 198.22L120.63 196.54C119.749 196.345 118.958 195.863 118.38 195.17L116.7 193.17C116.327 192.722 116.122 192.158 116.122 191.575C116.122 190.992 116.327 190.428 116.7 189.98L118.45 187.92C118.868 187.425 119.463 187.114 120.108 187.052C120.752 186.991 121.396 187.184 121.9 187.59L126.14 190.99C126.14 190.99 131.27 192.61 131.48 196.7Z" fill="#FF8B7B"/>
<path d="M158.86 410.67L152.83 410.68L151.81 387.99L161.97 388.24L158.86 410.67Z" fill="#FF8B7B"/>
<path d="M148.36 214.88C148.36 214.88 147.83 277.88 146.5 305.26C146.45 306.076 146.45 306.894 146.5 307.71C148.5 335.18 151.78 387.99 151.78 387.99L162.01 388.25C162.01 388.25 170.93 346.08 165.4 307.88C174.27 264.68 179.06 226.13 171.02 214.88H148.36Z" fill="#1F2937"/>
<path d="M150.8 384.81C150.905 387.098 151.135 389.378 151.49 391.64C151.513 391.722 151.555 391.797 151.612 391.859C151.669 391.922 151.741 391.97 151.82 392C156.58 393.86 161.34 393.57 161.73 392.66C162.12 391.75 162.94 386.92 163.27 385.09C163.286 385.01 163.282 384.927 163.261 384.849C163.239 384.77 163.2 384.697 163.146 384.636C163.092 384.575 163.024 384.528 162.949 384.497C162.873 384.467 162.791 384.454 162.71 384.46C160.71 384.57 154.71 384.83 151.42 384.25C151.341 384.236 151.259 384.241 151.182 384.263C151.104 384.285 151.033 384.325 150.973 384.379C150.914 384.433 150.867 384.5 150.837 384.574C150.807 384.649 150.794 384.73 150.8 384.81Z" fill="#F97316"/>
<path opacity="0.2" d="M165.5 239.89C162.4 250.41 165.42 284.2 167.04 299.8C169.25 288.53 171.13 277.69 172.52 267.7L165.5 239.89Z" fill="black"/>
<path d="M152.15 407.74H160C160.165 407.732 160.327 407.787 160.452 407.895C160.576 408.003 160.655 408.156 160.67 408.32L161.46 414.75C161.467 414.949 161.433 415.148 161.361 415.334C161.289 415.52 161.18 415.69 161.041 415.833C160.902 415.976 160.735 416.089 160.551 416.166C160.367 416.243 160.169 416.282 159.97 416.28C156.52 416.22 154.86 416.03 150.5 416.03C147.82 416.03 146.19 416.31 142.5 416.31C138.81 416.31 138.79 412.76 140.35 412.44C147.35 410.98 148.24 410.18 150.67 408.28C151.089 407.939 151.61 407.749 152.15 407.74Z" fill="#1F2937"/>
<path d="M151.33 163.49C150.195 163.253 149.013 163.474 148.04 164.105C147.068 164.736 146.385 165.727 146.14 166.86C145.3 170.78 144.39 174.79 143.45 178.73C142.51 182.67 141.45 186.59 140.29 190.37C139.7 192.25 139.06 194.1 138.35 195.82C138.02 196.62 137.646 197.401 137.23 198.16C137.17 198.25 137.12 198.35 137.06 198.45C136.373 198.158 135.705 197.824 135.06 197.45C133.51 196.45 131.85 195.29 130.28 194.14L130.17 194.06C129.763 193.761 129.266 193.611 128.762 193.635C128.257 193.659 127.777 193.856 127.4 194.192C127.024 194.529 126.775 194.985 126.694 195.483C126.614 195.982 126.708 196.492 126.96 196.93C128.062 198.906 129.405 200.737 130.96 202.38C131.814 203.298 132.766 204.12 133.8 204.83C134.456 205.265 135.161 205.621 135.9 205.89C137.004 206.304 138.202 206.405 139.36 206.18C140.127 206.023 140.855 205.714 141.5 205.27C141.802 205.054 142.087 204.813 142.35 204.55C142.435 204.465 142.516 204.375 142.59 204.28L142.78 204.06C143.232 203.526 143.646 202.962 144.02 202.37C144.666 201.354 145.247 200.299 145.76 199.21C146.76 197.15 147.53 195.12 148.26 193.09C149.71 189.03 150.84 184.96 151.92 180.89C152.47 178.89 152.92 176.81 153.4 174.76C153.88 172.71 154.31 170.68 154.69 168.56C154.895 167.444 154.66 166.292 154.033 165.347C153.407 164.401 152.438 163.735 151.33 163.49Z" fill="#FF8B7B"/>
<path d="M145.23 206.33C145.23 208.91 185.29 209.41 185.29 206.01L164.82 200.79L145.23 206.33Z" fill="#1F2937"/>
<path d="M152.59 161.8C163.153 160.036 173.944 160.144 184.47 162.12C185.087 162.217 185.678 162.44 186.205 162.774C186.733 163.108 187.186 163.547 187.538 164.063C187.889 164.58 188.131 165.163 188.248 165.776C188.366 166.389 188.356 167.02 188.22 167.63C182.56 193 182.88 201.52 183.43 214.88H148.37C146.61 192.6 145.69 179.88 145.45 172.66C145.27 167.16 147.14 162.61 152.59 161.8Z" fill="#FF8B7B"/>
<path opacity="0.2" d="M184.37 169.17C184.145 172.71 184.614 176.26 185.75 179.62C186.19 177.21 186.75 174.62 187.31 171.79L184.37 169.17Z" fill="black"/>
<path d="M173 143.28C172 148.36 171 157.66 174.56 161.05C174.56 161.05 173.17 166.2 163.74 166.2C153.37 166.2 158.74 161.05 158.74 161.05C164.4 159.7 164.26 155.5 163.27 151.55L173 143.28Z" fill="#FF8B7B"/>
<path opacity="0.2" d="M169 146.66L163.27 151.55C163.511 152.468 163.672 153.404 163.75 154.35C165.92 154.04 168.89 151.66 169.12 149.4C169.243 148.487 169.202 147.559 169 146.66Z" fill="black"/>
<path d="M154.54 136.76C157 144.88 157.87 148.38 163.04 151.62C170.82 156.5 180.26 151.69 180.28 143C180.28 135.17 176.28 123.19 167.4 121.83C165.45 121.52 163.453 121.713 161.599 122.392C159.745 123.071 158.095 124.213 156.806 125.709C155.518 127.205 154.633 129.005 154.236 130.94C153.84 132.874 153.944 134.878 154.54 136.76Z" fill="#FF8B7B"/>
<path d="M155.43 142.41C159.38 142.7 161.06 136.35 159.14 132.85C157.22 129.35 150.15 136.43 155.43 142.41Z" fill="#1F2937"/>
<path d="M153.27 128.29C165.75 134.99 173.27 122.45 179.81 129.11C176.6 119.84 158.94 115.88 153.27 128.29Z" fill="#1F2937"/>
<path d="M175.37 142C171.993 141.369 168.573 141.001 165.14 140.9C165.95 142.79 167.54 144.4 171.41 144.59C175.28 144.78 175.37 142 175.37 142Z" fill="#D1D5DB"/>
<path d="M218.15 395.72L212.1 397.57L203.27 379.07L212.58 376.52L218.15 395.72Z" fill="#FF8B7B"/>
<path d="M210.79 397L217.41 393C217.534 392.922 217.682 392.891 217.827 392.913C217.972 392.935 218.105 393.008 218.2 393.12L222.65 398.3C222.758 398.429 222.837 398.58 222.881 398.743C222.925 398.905 222.934 399.075 222.906 399.242C222.879 399.408 222.816 399.566 222.721 399.705C222.627 399.845 222.504 399.963 222.36 400.05C219.85 401.51 219.36 401.73 216.25 403.74C214.37 404.97 211.73 408.3 209.13 410.01C206.53 411.72 204.75 409.37 205.52 408.27C207.767 405.255 209.305 401.772 210.02 398.08C210.067 397.857 210.16 397.646 210.292 397.46C210.425 397.274 210.594 397.117 210.79 397Z" fill="#1F2937"/>
<path d="M158 214.88C158 214.88 170.89 280.79 175.75 306.88C180.8 334.02 203.29 379.06 203.29 379.06L212.62 376.5C212.62 376.5 199.84 328.36 193.88 304.5C192.72 261.3 194.1 226.11 183.45 214.86L158 214.88Z" fill="#1F2937"/>
<path d="M200 374.1C200.968 376.157 202.046 378.159 203.23 380.1C203.285 380.166 203.354 380.218 203.432 380.255C203.509 380.291 203.594 380.31 203.68 380.31C208.78 380.22 213.08 378.15 213.09 377.16C213.09 376.33 212.03 371.38 211.64 369.57C211.624 369.49 211.59 369.414 211.54 369.349C211.49 369.284 211.426 369.232 211.352 369.196C211.278 369.16 211.197 369.142 211.115 369.143C211.034 369.143 210.953 369.163 210.88 369.2C209.07 370.06 203.66 372.57 200.36 373.29C200.273 373.304 200.191 373.34 200.122 373.394C200.052 373.447 199.997 373.517 199.961 373.598C199.925 373.678 199.91 373.766 199.917 373.854C199.924 373.942 199.952 374.026 200 374.1Z" fill="#F97316"/>
<path d="M168.21 135.82C168.37 136.5 168.86 136.95 169.3 136.82C169.74 136.69 169.96 136.09 169.8 135.42C169.64 134.75 169.16 134.29 168.72 134.42C168.28 134.55 168.05 135.15 168.21 135.82Z" fill="#1F2937"/>
<path d="M175.8 134C175.96 134.67 176.45 135.13 176.89 135C177.33 134.87 177.55 134.27 177.39 133.59C177.23 132.91 176.75 132.46 176.31 132.59C175.87 132.72 175.64 133.35 175.8 134Z" fill="#1F2937"/>
<path d="M176.12 132.7L177.62 131.85C177.62 131.85 177.1 133.31 176.12 132.7Z" fill="#1F2937"/>
<path d="M173.75 135.79C174.708 137.18 175.856 138.428 177.16 139.5C176.873 139.822 176.519 140.077 176.124 140.25C175.729 140.422 175.301 140.508 174.87 140.5L173.75 135.79Z" fill="#FF5652"/>
<path d="M153.81 143.94C154.729 145.303 156.148 146.248 157.76 146.57C159.9 146.97 160.76 145.02 160.03 143.09C159.35 141.37 157.43 139.09 155.36 139.54C154.909 139.649 154.493 139.868 154.149 140.179C153.804 140.49 153.543 140.882 153.389 141.319C153.235 141.756 153.193 142.225 153.267 142.683C153.34 143.141 153.527 143.573 153.81 143.94Z" fill="#FF8B7B"/>
<path d="M152.38 128.29C156.3 122.38 161.7 126.29 162.66 127.63C163.62 128.97 152.96 139.36 157.52 149.41C152.12 146.66 147.76 137.17 152.38 128.29Z" fill="#1F2937"/>
<path d="M165.08 135.18C165.164 135.165 165.241 135.123 165.299 135.059C165.357 134.996 165.393 134.915 165.4 134.83C165.57 132.96 167.66 131.74 167.68 131.73C167.771 131.676 167.838 131.588 167.866 131.485C167.894 131.383 167.881 131.273 167.83 131.18C167.804 131.134 167.769 131.093 167.727 131.06C167.685 131.028 167.638 131.004 167.586 130.99C167.535 130.976 167.482 130.972 167.429 130.979C167.377 130.986 167.326 131.003 167.28 131.03C167.17 131.09 164.8 132.47 164.59 134.75C164.585 134.803 164.59 134.857 164.606 134.909C164.621 134.96 164.647 135.007 164.682 135.048C164.716 135.089 164.759 135.123 164.806 135.148C164.854 135.172 164.907 135.186 164.96 135.19C165 135.197 165.041 135.193 165.08 135.18Z" fill="#1F2937"/>
<path d="M177.9 129.92C177.989 129.935 178.081 129.92 178.161 129.876C178.24 129.833 178.302 129.763 178.337 129.68C178.372 129.596 178.377 129.503 178.353 129.416C178.328 129.329 178.274 129.253 178.2 129.2C177.702 128.791 177.113 128.509 176.483 128.376C175.853 128.244 175.2 128.266 174.58 128.44C174.528 128.456 174.48 128.482 174.438 128.517C174.397 128.552 174.364 128.596 174.34 128.645C174.316 128.694 174.303 128.747 174.302 128.801C174.3 128.856 174.31 128.91 174.33 128.96C174.347 129.01 174.373 129.056 174.408 129.096C174.443 129.136 174.486 129.168 174.533 129.191C174.58 129.215 174.632 129.228 174.685 129.231C174.737 129.235 174.79 129.227 174.84 129.21C175.332 129.08 175.849 129.069 176.346 129.179C176.844 129.288 177.308 129.515 177.7 129.84C177.76 129.881 177.828 129.908 177.9 129.92Z" fill="#1F2937"/>
<path d="M202.9 191.85C202.9 191.59 202.85 191.31 202.8 191.02L202.72 190.58L202.65 190.28C202.55 189.92 202.46 189.53 202.35 189.2C201.548 186.699 200.514 184.278 199.26 181.97C198.12 179.75 196.87 177.64 195.58 175.57C193.01 171.41 190.31 167.47 187.34 163.57C186.611 162.753 185.603 162.238 184.514 162.127C183.425 162.016 182.333 162.317 181.455 162.97C180.576 163.624 179.975 164.583 179.768 165.659C179.562 166.734 179.766 167.848 180.34 168.78V168.83C183.01 172.55 185.73 176.4 188.28 180.22C189.54 182.15 190.76 184.09 191.91 186.02C193.005 187.835 193.961 189.73 194.77 191.69C194.87 191.91 194.92 192.11 194.99 192.31L195.04 192.44C195.04 192.44 195.04 192.44 195.04 192.5C195.084 192.775 195.084 193.055 195.04 193.33C194.922 194.256 194.711 195.167 194.41 196.05C193.702 198.135 192.86 200.173 191.89 202.15C190.89 204.21 189.89 206.27 188.73 208.3C187.57 210.33 186.46 212.4 185.32 214.41C185.056 214.877 184.974 215.424 185.088 215.948C185.203 216.471 185.506 216.934 185.94 217.249C186.374 217.563 186.909 217.706 187.442 217.651C187.975 217.596 188.469 217.346 188.83 216.95C192.091 213.321 195.064 209.443 197.72 205.35C199.111 203.211 200.328 200.964 201.36 198.63C201.943 197.313 202.388 195.939 202.69 194.53C202.866 193.648 202.937 192.749 202.9 191.85Z" fill="#FF8B7B"/>
<path d="M168.53 134.5L170.04 133.65C170.04 133.65 169.51 135.11 168.53 134.5Z" fill="#1F2937"/>
<path d="M146.43 170.16C147.083 167.526 147.915 164.94 148.92 162.42C150.528 161.961 152.17 161.626 153.83 161.42C157.192 164.404 159.963 167.993 162 172C166.49 167.47 175.06 162.89 180.29 161.21C182.073 161.092 183.861 161.316 185.56 161.87C182 173.11 178.37 184.43 184.81 187.33C184.7 192.67 185.01 199.33 185.27 205.99C179.18 205.33 155.02 204.17 145.21 206.31C144.71 199.52 144.52 193.74 144.56 188.81C140 183 144.54 175.07 146.43 170.16Z" fill="#F97316"/>
<path d="M174.71 167.12C173.59 166.62 172.39 166.05 171.17 165.4L170.63 165.7C171.97 166.42 173.28 167.05 174.49 167.6C175.37 168 176.26 168.39 177.16 168.78C179.03 169.6 180.91 170.44 182.75 171.35C182.8 171.18 182.84 171.01 182.89 170.83C181.07 169.94 179.21 169.11 177.37 168.3L174.71 167.12Z" fill="#D1D5DB"/>
<path d="M166.67 184.43C163.72 182.43 160.67 180.31 157.6 178.38C153.845 175.867 149.732 173.936 145.4 172.65L145.19 173.14C149.5 174.406 153.591 176.325 157.32 178.83C160.38 180.75 163.43 182.83 166.37 184.83C172.27 188.83 178.37 193.05 184.92 196.14C184.92 195.94 184.92 195.75 184.92 195.56C178.46 192.53 172.48 188.42 166.67 184.43Z" fill="#D1D5DB"/>
<path d="M184.81 189.74V189.17L183.9 188.78C170.9 183.17 157.4 177.37 147.14 167.59C147.08 167.78 147.03 167.97 146.97 168.16C157.28 177.89 170.7 183.67 183.69 189.26L184.81 189.74Z" fill="#D1D5DB"/>
<path d="M169.72 170.48C173.53 172.96 177.43 175.48 181.45 177.81C181.45 177.62 181.5 177.44 181.52 177.25C177.58 174.96 173.75 172.48 170.01 170.04L166.92 168.04L166.46 168.37L169.72 170.48Z" fill="#D1D5DB"/>
<path d="M153.91 197C150.494 195.353 147.346 193.203 144.57 190.62C144.57 190.86 144.57 191.11 144.57 191.35C147.3 193.808 150.363 195.869 153.67 197.47C156.35 198.81 159.16 199.97 161.88 201.1C164.88 202.34 167.99 203.64 170.93 205.18H172.11C168.861 203.469 165.523 201.933 162.11 200.58C159.38 199.52 156.57 198.36 153.91 197Z" fill="#D1D5DB"/>
<path d="M154.66 205.29C150.966 203.61 147.61 201.268 144.76 198.38C144.76 198.65 144.76 198.92 144.76 199.19C147.348 201.702 150.322 203.782 153.57 205.35L154.66 205.29Z" fill="#D1D5DB"/>
<path d="M182.38 197.12C177.91 194.82 173.15 192.91 168.55 191.07C161.15 188.07 153.5 185.07 146.99 180.29C145.771 179.42 144.627 178.45 143.57 177.39C143.51 177.58 143.44 177.77 143.39 177.96C144.411 178.963 145.511 179.883 146.68 180.71C153.25 185.5 160.93 188.58 168.36 191.55C172.95 193.39 177.7 195.29 182.14 197.55C183.136 198.055 184.101 198.62 185.03 199.24V198.6C184.172 198.062 183.288 197.568 182.38 197.12Z" fill="#D1D5DB"/>
<path d="M159.05 194C154.42 190.85 149.63 187.59 144.69 184.77C144.023 184.391 143.331 184.057 142.62 183.77C142.62 183.96 142.62 184.16 142.68 184.35C143.28 184.62 143.87 184.94 144.43 185.26C149.35 188.07 154.13 191.33 158.75 194.47C164.414 198.477 170.308 202.15 176.4 205.47L177.65 205.53C171.207 202.093 164.994 198.242 159.05 194Z" fill="#D1D5DB"/>
<path d="M191.07 213.4L187.84 212L180.23 214C179.358 214.229 178.585 214.739 178.03 215.45L176.43 217.54C176.072 218.003 175.888 218.578 175.912 219.164C175.936 219.749 176.165 220.307 176.56 220.74L178.38 222.74C178.815 223.219 179.419 223.51 180.065 223.551C180.711 223.592 181.348 223.38 181.84 222.96L185.97 219.41C185.97 219.41 190.92 217 191.07 213.4Z" fill="#FF8B7B"/>
<path d="M186 212.17C186.13 213.93 187.19 216.91 188.76 218.17C189.64 217.89 190.38 216.51 190.38 216.51C188.749 214.902 187.715 212.785 187.45 210.51C186.819 210.914 186.316 211.49 186 212.17Z" fill="#F97316"/>
<path d="M131.26 195.52C132.15 192 128.68 190.37 127.14 186.05C126.57 184.45 125.48 185.26 125.41 187C125.491 189.097 125.945 191.162 126.75 193.1L131.26 195.52Z" fill="#FF8B7B"/>
<path d="M128.81 193L123.01 194.22C122.687 194.27 122.356 194.218 122.064 194.071C121.771 193.924 121.532 193.689 121.38 193.4L114.43 179.56C114.358 179.442 114.316 179.308 114.307 179.169C114.299 179.031 114.324 178.893 114.381 178.767C114.439 178.64 114.526 178.53 114.635 178.445C114.745 178.361 114.873 178.304 115.01 178.28L120.81 177.07C121.132 177.017 121.463 177.067 121.755 177.213C122.048 177.358 122.287 177.591 122.44 177.88L129.39 191.72C129.465 191.838 129.509 191.972 129.519 192.111C129.528 192.25 129.503 192.39 129.446 192.517C129.388 192.644 129.3 192.754 129.189 192.839C129.078 192.923 128.948 192.979 128.81 193Z" fill="#F97316"/>
<path d="M121.7 174.32C121.665 174.319 121.631 174.311 121.6 174.296C121.569 174.281 121.541 174.259 121.518 174.233C121.496 174.207 121.479 174.176 121.469 174.143C121.459 174.109 121.456 174.074 121.46 174.04L121.61 172.04C121.612 172.006 121.622 171.973 121.637 171.942C121.653 171.911 121.674 171.884 121.7 171.862C121.726 171.839 121.756 171.823 121.789 171.812C121.821 171.801 121.856 171.797 121.89 171.8C121.958 171.808 122.021 171.841 122.065 171.893C122.11 171.945 122.133 172.012 122.13 172.08L121.98 174.08C121.977 174.114 121.968 174.148 121.953 174.178C121.937 174.209 121.916 174.236 121.89 174.258C121.864 174.281 121.834 174.297 121.801 174.308C121.768 174.319 121.734 174.323 121.7 174.32Z" fill="#F97316"/>
<path d="M123.72 175.09C123.652 175.087 123.588 175.058 123.54 175.01C123.493 174.96 123.467 174.894 123.467 174.825C123.467 174.756 123.493 174.69 123.54 174.64L127.06 171.12C127.11 171.073 127.176 171.047 127.245 171.047C127.314 171.047 127.38 171.073 127.43 171.12C127.456 171.143 127.476 171.172 127.49 171.204C127.504 171.236 127.512 171.27 127.512 171.305C127.512 171.34 127.504 171.374 127.49 171.406C127.476 171.438 127.456 171.467 127.43 171.49L123.91 175C123.886 175.027 123.857 175.049 123.824 175.064C123.791 175.08 123.756 175.088 123.72 175.09Z" fill="#F97316"/>
<path d="M124.51 177.11C124.449 177.109 124.391 177.088 124.343 177.05C124.296 177.012 124.263 176.959 124.25 176.9C124.238 176.832 124.254 176.763 124.293 176.707C124.332 176.651 124.392 176.612 124.46 176.6L128.09 175.84C128.157 175.825 128.228 175.838 128.286 175.876C128.344 175.913 128.385 175.972 128.4 176.04C128.414 176.108 128.402 176.178 128.364 176.236C128.327 176.295 128.267 176.335 128.2 176.35L124.56 177.11H124.51Z" fill="#F97316"/>
<path d="M128.17 193.93L122.38 195.15C122.056 195.2 121.725 195.149 121.432 195.004C121.138 194.86 120.897 194.627 120.74 194.34L113.8 180.5C113.725 180.382 113.681 180.248 113.671 180.109C113.661 179.97 113.687 179.83 113.744 179.703C113.802 179.576 113.89 179.466 114.001 179.381C114.112 179.297 114.242 179.242 114.38 179.22L120.17 178C120.493 177.95 120.825 178.001 121.118 178.146C121.412 178.291 121.653 178.523 121.81 178.81L128.76 192.65C128.832 192.769 128.874 192.904 128.882 193.043C128.89 193.182 128.863 193.321 128.805 193.447C128.747 193.573 128.659 193.683 128.548 193.768C128.437 193.852 128.307 193.908 128.17 193.93Z" fill="#1F2937"/>
<path d="M116.73 189.94L117.87 188.58C118.019 188.399 118.21 188.255 118.426 188.162C118.642 188.069 118.876 188.028 119.111 188.044C119.346 188.06 119.573 188.131 119.775 188.252C119.976 188.373 120.146 188.54 120.27 188.74L122.27 191.86C122.677 192.492 122.897 193.226 122.906 193.978C122.915 194.73 122.712 195.468 122.32 196.11L122.15 196.39L116.73 189.94Z" fill="#FF8B7B"/>
<path d="M62.2401 98.27L61.3701 97.71C64.9561 92.1367 69.786 87.4711 75.4801 84.08L76.0001 85C70.4544 88.3069 65.7458 92.8478 62.2401 98.27Z" fill="#F97316"/>
<path d="M56.29 113.61L55.29 113.43C55.8094 110.363 56.6714 107.364 57.86 104.49L58.86 104.88C57.6857 107.687 56.8239 110.615 56.29 113.61Z" fill="#F97316"/>
<path d="M135.85 120.59C135.862 112.692 133.464 104.979 128.977 98.4799C124.49 91.9808 118.127 87.0054 110.737 84.218C103.348 81.4307 95.284 80.9641 87.6224 82.8805C79.9608 84.7969 73.0662 89.0052 67.8594 94.9433C62.6525 100.881 59.3812 108.267 58.4822 116.113C57.5833 123.959 59.0996 131.893 62.8286 138.855C66.5575 145.817 72.3217 151.476 79.3514 155.075C86.3811 158.675 94.3416 160.044 102.17 159L115.86 169.3L118.86 152.62C124.09 149.072 128.373 144.299 131.335 138.716C134.296 133.133 135.846 126.91 135.85 120.59Z" fill="#F97316"/>
<path d="M86.1502 133.11C86.0095 133.111 85.8726 133.065 85.7605 132.98C85.6485 132.895 85.5675 132.776 85.5302 132.64L78.6502 109.25C78.6248 109.157 78.6197 109.06 78.6353 108.965C78.6508 108.87 78.6866 108.78 78.7402 108.7C78.794 108.62 78.8651 108.554 78.9482 108.505C79.0313 108.457 79.1243 108.428 79.2202 108.42L114 105.25C114.093 105.24 114.187 105.251 114.275 105.282C114.364 105.314 114.444 105.364 114.51 105.43C114.579 105.495 114.632 105.575 114.667 105.663C114.701 105.751 114.716 105.846 114.71 105.94L113.12 130.1C113.109 130.255 113.044 130.401 112.936 130.512C112.828 130.624 112.685 130.694 112.53 130.71L86.2102 133.1L86.1502 133.11ZM80.1502 109.64L86.6502 131.76L111.9 129.46L113.4 106.61L80.1502 109.64Z" fill="#D1D5DB"/>
<path d="M79.2801 109.71C79.1791 109.711 79.0793 109.688 78.9889 109.642C78.8985 109.597 78.8201 109.531 78.7601 109.45L76.0001 105.7L70.6201 106.19C70.4481 106.204 70.2775 106.15 70.1448 106.04C70.0121 105.929 69.9279 105.772 69.9101 105.6C69.8961 105.428 69.9501 105.257 70.0603 105.125C70.1706 104.992 70.3285 104.908 70.5001 104.89L76.2501 104.37C76.3608 104.362 76.4717 104.381 76.5729 104.427C76.6742 104.472 76.7625 104.542 76.8301 104.63L79.8301 108.68C79.8806 108.748 79.917 108.826 79.9372 108.908C79.9575 108.99 79.9612 109.076 79.9482 109.159C79.9352 109.243 79.9057 109.323 79.8614 109.396C79.8171 109.468 79.7589 109.53 79.6901 109.58C79.5742 109.673 79.4282 109.719 79.2801 109.71Z" fill="#D1D5DB"/>
<path d="M90.61 142.7C89.9762 142.699 89.3562 142.514 88.8256 142.168C88.295 141.821 87.8765 141.328 87.6211 140.748C87.3656 140.168 87.2843 139.526 87.3869 138.901C87.4895 138.275 87.7717 137.693 88.1991 137.225C88.6264 136.757 89.1806 136.423 89.7942 136.264C90.4077 136.105 91.0543 136.128 91.6551 136.33C92.2559 136.532 92.7851 136.904 93.1783 137.401C93.5715 137.898 93.8118 138.499 93.87 139.13C93.9097 139.561 93.8633 139.995 93.7334 140.408C93.6036 140.82 93.3929 141.203 93.1137 141.533C92.8345 141.864 92.4923 142.135 92.1071 142.332C91.7219 142.529 91.3013 142.647 90.87 142.68L90.61 142.7ZM90.61 137.45H90.43C90.0332 137.48 89.6544 137.627 89.342 137.874C89.0296 138.12 88.7978 138.454 88.6761 138.833C88.5545 139.212 88.5487 139.618 88.6593 140C88.7699 140.383 88.9921 140.723 89.2972 140.978C89.6024 141.234 89.9768 141.392 90.3725 141.433C90.7682 141.475 91.1673 141.397 91.5186 141.211C91.87 141.024 92.1577 140.737 92.345 140.386C92.5323 140.035 92.6106 139.636 92.57 139.24C92.5189 138.755 92.2925 138.306 91.9335 137.976C91.5744 137.647 91.1073 137.459 90.62 137.45H90.61Z" fill="#D1D5DB"/>
<path d="M108.4 141.08C107.636 141.079 106.896 140.81 106.31 140.32C105.647 139.762 105.231 138.965 105.152 138.101C105.074 137.238 105.339 136.379 105.89 135.71C106.304 135.213 106.857 134.849 107.477 134.666C108.098 134.483 108.759 134.488 109.377 134.681C109.995 134.873 110.542 135.245 110.948 135.749C111.355 136.252 111.602 136.865 111.66 137.51C111.699 137.94 111.651 138.374 111.521 138.786C111.39 139.198 111.18 139.581 110.901 139.911C110.622 140.241 110.28 140.512 109.895 140.71C109.511 140.907 109.091 141.026 108.66 141.06L108.4 141.08ZM108.4 135.83H108.22C107.839 135.878 107.479 136.034 107.184 136.281C106.889 136.528 106.672 136.855 106.558 137.222C106.444 137.589 106.438 137.981 106.542 138.352C106.645 138.722 106.853 139.055 107.14 139.31C107.338 139.477 107.567 139.603 107.815 139.681C108.062 139.758 108.322 139.785 108.58 139.76C109.099 139.707 109.576 139.453 109.91 139.054C110.244 138.654 110.409 138.14 110.37 137.62C110.319 137.132 110.089 136.68 109.726 136.35C109.363 136.02 108.891 135.835 108.4 135.83Z" fill="#D1D5DB"/>
<path d="M95.92 126.16C95.5543 126.154 95.2016 126.023 94.92 125.79L89.25 121.07C88.9857 120.788 88.8328 120.419 88.8193 120.032C88.8059 119.646 88.9329 119.268 89.1769 118.968C89.4209 118.667 89.7653 118.466 90.1464 118.4C90.5275 118.334 90.9196 118.409 91.25 118.61L95.69 122.3L104.83 111.3C105.111 111.026 105.482 110.865 105.873 110.847C106.265 110.828 106.65 110.955 106.954 111.201C107.259 111.448 107.463 111.798 107.526 112.185C107.59 112.572 107.509 112.969 107.3 113.3L97.15 125.59C96.9996 125.77 96.8114 125.914 96.5988 126.013C96.3861 126.111 96.1543 126.161 95.92 126.16Z" fill="#D1D5DB"/>
</svg>
