<svg width="500" height="500" viewBox="0 0 500 500" fill="none" xmlns="http://www.w3.org/2000/svg">
<g clip-path="url(#clip0_59_640)">
<path d="M-18.9175 403.27C-18.9175 403.12 113.802 403.01 277.482 403.01C441.162 403.01 573.918 403.12 573.918 403.27C573.918 403.42 441.226 403.53 277.482 403.53C113.738 403.53 -18.9175 403.41 -18.9175 403.27Z" fill="#263238"/>
<path d="M86.5984 268.26C80.0673 271.95 75.0477 278.32 71.4478 285.32C67.8479 292.32 65.5213 300.02 63.2038 307.65L61.2344 347.01C68.8372 332.89 74.9744 316.29 76.5957 300.01L71.5302 299.52C74.9286 298.96 77.7773 296.27 79.5819 293.09C81.3864 289.91 82.3299 286.24 83.2459 282.63L77.0812 283.63C81.9419 280.029 85.3492 274.526 86.5984 268.26Z" fill="#D1D5DB"/>
<g opacity="0.1">
<path d="M86.5984 268.26C80.0673 271.95 75.0477 278.32 71.4478 285.32C67.8479 292.32 65.5213 300.02 63.2038 307.65L61.2344 347.01C68.8372 332.89 74.9744 316.29 76.5957 300.01L71.5302 299.52C74.9286 298.96 77.7773 296.27 79.5819 293.09C81.3864 289.91 82.3299 286.24 83.2459 282.63L77.0812 283.63C81.9419 280.029 85.3492 274.526 86.5984 268.26Z" fill="black"/>
</g>
<path d="M60.0803 356.23C60.0803 356.23 43.5923 334.67 43.7664 314.08H50.4349C50.4349 314.08 43.1985 308.88 43.7664 305.97C44.3343 303.06 44.5358 292.03 44.5358 292.03L50.6272 293.7C50.6272 293.7 46.0472 291.2 45.4885 287.25C44.9297 283.3 46.8167 265 46.8167 265C46.8167 265 54.2454 273.53 56.5354 282.26C58.8254 290.99 64.7794 301.18 63.0573 327.8C61.3353 354.42 60.0803 356.23 60.0803 356.23Z" fill="#D1D5DB"/>
<path d="M68.4524 358.27C68.4524 358.27 86.3327 345.27 90.3082 328.67L84.9496 327.07C84.9496 327.07 91.8104 324.62 91.9295 322.15C92.0486 319.68 94.1096 310.76 94.1096 310.76L88.8792 310.64C88.8792 310.64 93.0562 309.73 94.3019 306.69C95.5477 303.65 97.6911 288.48 97.6911 288.48C97.6911 288.48 90.0059 293.56 86.4243 300.04C82.8428 306.52 75.9636 313.27 72.0523 335.09C68.141 356.91 68.4524 358.27 68.4524 358.27Z" fill="#D1D5DB"/>
<path d="M51.3232 283.8C51.3582 283.869 51.3829 283.943 51.3965 284.02C51.3965 284.2 51.4881 284.42 51.5431 284.69C51.6805 285.31 51.8545 286.17 52.0835 287.24C52.5507 289.46 53.1644 292.69 53.9155 296.69C55.3262 304.69 56.9933 315.8 58.3032 328.15C59.613 340.5 60.3092 351.74 60.6023 359.88C60.758 363.95 60.8313 367.24 60.8405 369.52C60.8405 370.62 60.8405 371.52 60.8405 372.14C60.8405 372.41 60.8405 372.64 60.8405 372.82C60.8405 373 60.8405 373.05 60.8405 373.05C60.8405 373.05 60.8405 372.98 60.8405 372.82C60.8405 372.66 60.8405 372.41 60.8405 372.14C60.8405 371.5 60.7855 370.63 60.7397 369.52C60.6756 367.25 60.5474 363.96 60.3458 359.89C59.9703 351.77 59.2192 340.55 57.9093 328.21C56.5994 315.87 54.8224 304.77 53.5308 296.76C52.8713 292.76 52.3125 289.52 51.9003 287.28C51.7171 286.2 51.5614 285.34 51.4515 284.71C51.4515 284.44 51.3782 284.22 51.3507 284.04C51.3351 283.961 51.3259 283.881 51.3232 283.8Z" fill="#263238"/>
<path d="M57.7994 369.44C57.7994 369.44 42.6946 350.73 38.0047 339.44L41.5404 337.79C40.2448 337.944 38.9341 337.794 37.6956 337.351C36.4572 336.908 35.3197 336.181 34.359 335.22C32.4522 333.285 30.8081 331.062 29.4767 328.62L34.1392 327.75C29.8524 326.42 26.2006 323.336 23.9441 319.14C29.4401 320.14 34.4323 323.43 38.536 327.55C41.7895 330.971 44.7455 334.713 47.3662 338.73C48.6878 340.66 49.838 342.722 50.8012 344.89C53.3385 350.6 57.7994 362.57 57.7994 369.44Z" fill="#D1D5DB"/>
<path d="M90.5466 299.39C90.4625 299.643 90.3646 299.89 90.2534 300.13L89.3374 302.22C88.5314 304.02 87.3955 306.63 86.0124 309.88C83.2644 316.37 79.6004 325.42 75.9822 335.6C72.364 345.78 69.506 355.17 67.555 362C66.5748 365.42 65.8054 368.19 65.2833 370.11L64.6696 372.31C64.6111 372.571 64.5314 372.825 64.4314 373.07C64.4595 372.806 64.5085 372.545 64.578 372.29C64.7154 371.73 64.8894 370.99 65.1092 370.05C65.5672 368.12 66.2909 365.33 67.2344 361.89C69.0664 355.03 71.9334 345.62 75.5425 335.41C79.1515 325.2 82.8705 316.18 85.7101 309.72C87.1299 306.49 88.3115 303.9 89.1634 302.13C89.5725 301.27 89.9023 300.603 90.1527 300.13C90.258 299.868 90.3901 299.62 90.5466 299.39Z" fill="#263238"/>
<path d="M59.0727 377.46C58.9545 377.022 58.8718 376.574 58.8254 376.12C58.6972 375.26 58.4956 374.02 58.2117 372.49C57.4682 368.514 56.4391 364.609 55.1339 360.81C53.8168 357.011 52.224 353.332 50.3707 349.81C49.6562 348.46 49.0608 347.38 48.6303 346.65C48.3907 346.276 48.1852 345.878 48.0166 345.46C48.3066 345.786 48.5645 346.145 48.786 346.53C49.2624 347.24 49.9036 348.29 50.6638 349.63C52.6103 353.123 54.257 356.806 55.5828 360.63C56.8993 364.442 57.8898 368.379 58.5414 372.39C58.7796 373.94 58.9353 375.19 59.0086 376.07C59.0766 376.529 59.0981 376.995 59.0727 377.46Z" fill="#263238"/>
<path d="M79.0047 373.05H45.9463V380.41H79.0047V373.05Z" fill="#F97316"/>
<path d="M49.0974 380.42L52.679 405.18H72.6478L75.982 380.42H49.0974Z" fill="#F97316"/>
<path d="M76.9805 380.39C76.9805 380.53 70.7242 380.65 63.0115 380.65C55.2988 380.65 49.0425 380.53 49.0425 380.39C49.0425 380.25 55.2988 380.13 63.0115 380.13C70.7242 380.13 76.9805 380.27 76.9805 380.39Z" fill="#263238"/>
<path d="M414.05 361.42C414.05 361.42 407.354 361.85 406.814 363.12C406.814 363.12 406.731 368.51 411.467 373.93L410.551 376.14V379.73C412.758 375.06 415.222 367.92 415.222 367.92C415.222 367.92 415.305 362.9 414.05 361.42Z" fill="#D1D5DB"/>
<g opacity="0.3">
<path d="M413.812 361.9C413.812 361.9 411.476 368.53 412.896 373.3C412.914 373.3 416.12 367.45 413.812 361.9Z" fill="black"/>
</g>
<path d="M424.346 370.35C424.346 370.35 421.241 363.86 419.949 363.85C419.949 363.85 415.424 365.97 412.841 372.92H410.615C410.064 371.004 409.141 369.24 407.91 367.747C406.679 366.255 405.168 365.069 403.479 364.27C403.479 364.27 400.081 370.96 399.971 370.89C402.061 373.008 404.771 374.248 407.62 374.39C412.42 374.66 419.4 374.18 419.4 374.18C419.4 374.18 423.631 372.2 424.346 370.35Z" fill="#D1D5DB"/>
<g opacity="0.3">
<path d="M409.461 373.8C409.461 373.8 404.441 370.64 400.383 370.93C400.42 370.93 405.082 375.26 409.461 373.8Z" fill="black"/>
</g>
<g opacity="0.3">
<path d="M423.851 370.31C423.851 370.31 417.357 370.71 413.958 374.1C413.958 374.1 420.178 374.89 423.851 370.31Z" fill="black"/>
</g>
<path d="M434.12 374.14L432.343 403.27L391.159 402.85L390.839 373.7L434.12 374.14Z" fill="#F97316"/>
<g opacity="0.3">
<path d="M426.306 374.06L426.059 403.2L432.343 403.27L434.12 374.14L426.306 374.06Z" fill="black"/>
</g>
<path d="M431.024 374.11L429.723 403.24L428.294 403.23L428.55 374.08L431.024 374.11Z" fill="#D1D5DB"/>
<path d="M407.507 374.086L407.24 403.226L410.675 403.263L410.942 374.123L407.507 374.086Z" fill="#D1D5DB"/>
<path d="M433.194 386.54H390.985V389.37H433.194V386.54Z" fill="#D1D5DB"/>
<path d="M454.62 346.26C454.385 344.005 453.958 341.779 453.347 339.61C452.717 337.403 451.731 335.337 450.434 333.51C449.814 332.478 448.969 331.63 447.975 331.041C446.982 330.452 445.87 330.142 444.739 330.137C443.609 330.132 442.495 330.433 441.497 331.013C440.499 331.592 439.648 332.433 439.02 333.46C437.719 335.279 436.726 337.338 436.089 339.54C435.478 341.707 435.046 343.929 434.798 346.18C434.786 346.017 434.786 345.853 434.798 345.69C434.798 345.37 434.798 344.91 434.898 344.31C435.06 342.642 435.367 340.995 435.814 339.39C436.435 337.115 437.431 334.983 438.755 333.1C439.439 332.062 440.331 331.208 441.363 330.602C442.394 329.995 443.538 329.653 444.709 329.6C445.879 329.668 447.02 330.022 448.047 330.637C449.074 331.251 449.962 332.11 450.644 333.15C451.967 335.042 452.958 337.185 453.567 339.47C454.019 341.073 454.326 342.721 454.483 344.39C454.536 344.848 454.567 345.308 454.574 345.77C454.613 345.93 454.628 346.095 454.62 346.26Z" fill="#263238"/>
<path d="M458.045 346.26C457.805 344.006 457.379 341.78 456.772 339.61C456.139 337.405 455.153 335.339 453.859 333.51C453.239 332.478 452.395 331.63 451.401 331.041C450.407 330.452 449.296 330.142 448.165 330.137C447.034 330.132 445.92 330.433 444.922 331.013C443.924 331.592 443.074 332.433 442.446 333.46C441.141 335.279 440.146 337.338 439.506 339.54C438.888 341.705 438.459 343.928 438.223 346.18C438.2 346.018 438.2 345.852 438.223 345.69C438.223 345.37 438.223 344.91 438.315 344.31C438.473 342.641 438.78 340.994 439.231 339.39C439.851 337.115 440.848 334.983 442.171 333.1C442.856 332.062 443.748 331.208 444.779 330.602C445.811 329.995 446.955 329.653 448.125 329.6C449.295 329.668 450.436 330.022 451.463 330.637C452.491 331.251 453.379 332.11 454.061 333.15C455.376 335.047 456.366 337.188 456.983 339.47C457.431 341.074 457.738 342.722 457.899 344.39C457.954 344.99 457.981 345.45 457.991 345.77C458.021 345.931 458.039 346.095 458.045 346.26Z" fill="#263238"/>
<path d="M423.293 343.37L461.948 343.04L462.79 403.01H419.409L423.293 343.37Z" fill="#F97316"/>
<path d="M461.948 343.04H466.803L470.98 403.01H462.791L461.948 343.04Z" fill="#F97316"/>
<path d="M455.362 363.41H430.053V369.47H455.362V363.41Z" fill="#D1D5DB"/>
<g opacity="0.3">
<path d="M461.948 343.04H466.803L470.98 403.01H462.791L461.948 343.04Z" fill="black"/>
</g>
<path d="M419.409 403C419.28 403 419.812 392.63 420.6 379.86C421.387 367.09 422.138 356.74 422.267 356.75C422.395 356.76 421.873 367.12 421.076 379.89C420.279 392.66 419.546 403 419.409 403Z" fill="#263238"/>
<path d="M442.263 64.9399H94.8882C93.4643 64.9386 92.0543 65.2436 90.7385 65.8376C89.4227 66.4315 88.227 67.3027 87.2198 68.4013C86.2126 69.5 85.4136 70.8046 84.8685 72.2405C84.3233 73.6764 84.0427 75.2156 84.0427 76.7699V344.63C84.0427 347.77 85.1854 350.782 87.2193 353.002C89.2532 355.223 92.0118 356.47 94.8882 356.47H228.212L221.745 403.27H318.41L313.015 356.47H442.263C445.139 356.47 447.898 355.223 449.932 353.002C451.966 350.782 453.108 347.77 453.108 344.63V76.7699C453.108 75.2156 452.828 73.6764 452.283 72.2405C451.737 70.8046 450.938 69.5 449.931 68.4013C448.924 67.3027 447.728 66.4315 446.413 65.8376C445.097 65.2436 443.687 64.9386 442.263 64.9399Z" fill="#D1D5DB"/>
<path d="M273.215 328.3C277.942 335.67 270.54 343.75 263.789 338.59C263.559 338.419 263.36 338.201 263.203 337.95C258.495 330.58 265.878 322.52 272.629 327.67C272.857 327.841 273.055 328.054 273.215 328.3Z" fill="#263238"/>
<path d="M102.638 75.1599H434.55C435.717 75.1599 436.872 75.4108 437.95 75.8983C439.028 76.3857 440.008 77.1002 440.833 78.001C441.658 78.9017 442.312 79.971 442.759 81.1479C443.205 82.3247 443.435 83.5861 443.435 84.8599V307.47H93.7615V84.8599C93.7615 82.289 94.6963 79.8233 96.3606 78.0045C98.025 76.1857 100.283 75.1626 102.638 75.1599Z" fill="#263238"/>
<path d="M348.849 356.47C348.849 356.6 319.729 356.71 283.813 356.71C247.897 356.71 218.777 356.6 218.777 356.47C218.777 356.34 247.897 356.24 283.813 356.24C319.729 356.24 348.849 356.35 348.849 356.47Z" fill="#263238"/>
<path d="M434.367 84.76H103.242V297.86H434.367V84.76Z" fill="#D1D5DB"/>
<path d="M434.367 84.76H103.242V102.47H434.367V84.76Z" fill="#1F2937"/>
<path d="M116.112 94C116.126 94.5055 116.002 95.0042 115.756 95.4323C115.509 95.8604 115.151 96.1983 114.728 96.4029C114.304 96.6075 113.834 96.6693 113.378 96.5805C112.922 96.4918 112.5 96.2564 112.168 95.9046C111.835 95.5527 111.606 95.1005 111.51 94.6057C111.414 94.1109 111.456 93.5962 111.63 93.1274C111.803 92.6586 112.101 92.2571 112.485 91.9743C112.869 91.6915 113.322 91.5402 113.785 91.54C114.086 91.5347 114.385 91.5941 114.664 91.7149C114.944 91.8357 115.199 92.0154 115.415 92.2438C115.631 92.4723 115.804 92.745 115.924 93.0463C116.043 93.3476 116.107 93.6717 116.112 94Z" fill="#D1D5DB"/>
<path d="M123.046 94C123.061 94.5055 122.937 95.0042 122.69 95.4323C122.443 95.8604 122.085 96.1983 121.662 96.4029C121.238 96.6075 120.768 96.6693 120.312 96.5805C119.856 96.4918 119.435 96.2564 119.102 95.9046C118.769 95.5527 118.54 95.1005 118.444 94.6057C118.348 94.1109 118.39 93.5962 118.564 93.1274C118.737 92.6586 119.035 92.2571 119.419 91.9743C119.803 91.6915 120.256 91.5402 120.719 91.54C121.02 91.5347 121.319 91.5941 121.598 91.7149C121.878 91.8357 122.133 92.0154 122.349 92.2438C122.565 92.4723 122.738 92.745 122.858 93.0463C122.977 93.3476 123.041 93.6717 123.046 94Z" fill="#D1D5DB"/>
<path d="M129.641 94C129.656 94.5055 129.532 95.0042 129.285 95.4323C129.039 95.8604 128.68 96.1983 128.257 96.4029C127.833 96.6075 127.363 96.6693 126.907 96.5805C126.451 96.4918 126.03 96.2564 125.697 95.9046C125.364 95.5527 125.135 95.1005 125.039 94.6057C124.944 94.1109 124.985 93.5962 125.159 93.1274C125.333 92.6586 125.631 92.2571 126.015 91.9743C126.399 91.6915 126.851 91.5402 127.315 91.54C127.615 91.5347 127.914 91.5941 128.194 91.7149C128.473 91.8357 128.729 92.0154 128.945 92.2438C129.161 92.4723 129.333 92.745 129.453 93.0463C129.572 93.3476 129.636 93.6717 129.641 94Z" fill="#D1D5DB"/>
<path d="M434.431 128.84H103.178V205.03H434.431V128.84Z" fill="#1F2937"/>
<path d="M149.143 112.82H116.771V121.82H149.143V112.82Z" fill="#F97316"/>
<path d="M375.963 110.78H352.522V119.78H375.963V110.78Z" fill="#1F2937"/>
<path d="M337.646 110.54H314.206V119.54H337.646V110.54Z" fill="#1F2937"/>
<path d="M256.443 194.42C256.463 195.061 256.307 195.695 255.995 196.239C255.683 196.783 255.229 197.213 254.692 197.473C254.154 197.734 253.558 197.813 252.979 197.7C252.4 197.588 251.865 197.289 251.443 196.843C251.021 196.396 250.73 195.822 250.609 195.194C250.488 194.565 250.542 193.912 250.763 193.318C250.984 192.723 251.363 192.214 251.852 191.856C252.34 191.499 252.915 191.308 253.503 191.31C253.883 191.303 254.261 191.379 254.614 191.531C254.968 191.684 255.29 191.911 255.563 192.2C255.836 192.489 256.054 192.834 256.205 193.214C256.356 193.595 256.437 194.005 256.443 194.42Z" fill="#F97316"/>
<path d="M268.168 194.42C268.188 195.061 268.032 195.695 267.72 196.239C267.408 196.783 266.954 197.213 266.417 197.473C265.879 197.734 265.283 197.813 264.704 197.7C264.125 197.588 263.59 197.289 263.168 196.843C262.745 196.396 262.455 195.822 262.334 195.194C262.213 194.565 262.266 193.912 262.488 193.318C262.709 192.723 263.088 192.214 263.576 191.856C264.065 191.499 264.64 191.308 265.227 191.31C265.608 191.303 265.985 191.379 266.339 191.531C266.692 191.684 267.015 191.911 267.288 192.2C267.561 192.489 267.779 192.834 267.93 193.214C268.081 193.595 268.162 194.005 268.168 194.42Z" fill="#D1D5DB"/>
<path d="M279.361 194.42C279.382 195.061 279.226 195.695 278.913 196.239C278.601 196.783 278.148 197.213 277.61 197.473C277.073 197.734 276.476 197.813 275.897 197.7C275.318 197.588 274.784 197.289 274.361 196.843C273.939 196.396 273.649 195.822 273.527 195.194C273.406 194.565 273.46 193.912 273.681 193.318C273.903 192.723 274.282 192.214 274.77 191.856C275.258 191.499 275.833 191.308 276.421 191.31C276.801 191.303 277.179 191.379 277.532 191.531C277.886 191.684 278.208 191.911 278.481 192.2C278.754 192.489 278.973 192.834 279.124 193.214C279.275 193.595 279.355 194.005 279.361 194.42Z" fill="#D1D5DB"/>
<path d="M217.614 185.18H130.969V194.66H217.614V185.18Z" fill="#D1D5DB"/>
<path d="M188.036 218.88H137.968V266.56H188.036V218.88Z" fill="#1F2937"/>
<path d="M288.054 218.03H245.836V264.12H288.054V218.03Z" fill="#1F2937"/>
<path d="M387.459 216.61H342.648V265.53H387.459V216.61Z" fill="#1F2937"/>
<path d="M193.798 230.76C193.798 230.76 181.249 215.27 179.664 214.28C178.57 213.738 177.41 213.371 176.22 213.19C175.531 213.029 174.834 212.919 174.131 212.86H173.994C170.147 212.49 164.321 212.67 164.321 212.67C164.321 212.67 164.22 218.26 157.689 220.61C150.975 222.21 148.282 217.44 148.282 217.44C148.282 217.44 143.18 220.51 140.038 222.96L139.919 223.05C139.34 223.489 138.789 223.97 138.27 224.49C137.326 225.304 136.496 226.264 135.806 227.34C134.89 229.07 131.29 249.34 131.29 249.34L144.728 252.28L146.093 242.28L153.347 274.86L169.313 270.11L170.669 269.7L186.827 264.89L177.75 232.89L183.575 240.75L193.798 230.76Z" fill="#F97316"/>
<path d="M148.099 250.3C147.757 249.346 147.478 248.367 147.265 247.37C146.807 245.54 146.193 242.97 145.516 240.08L145.561 240.16L144.774 239.03C142.942 236.37 141.302 233.95 140.139 232.19C139.562 231.31 139.094 230.59 138.783 230.08C138.599 229.832 138.445 229.56 138.325 229.27C138.551 229.469 138.752 229.702 138.92 229.96C139.278 230.43 139.781 231.12 140.395 231.96C141.632 233.67 143.308 236.05 145.14 238.7L145.919 239.85C146.578 242.76 147.137 245.33 147.522 247.19C147.789 248.208 147.982 249.248 148.099 250.3Z" fill="#263238"/>
<path d="M179.664 240.89C179.293 239.957 178.986 238.994 178.748 238.01C178.217 236.2 177.502 233.66 176.714 230.8V230.7C176.769 230.25 176.815 229.77 176.861 229.28C177.209 225.98 177.548 223 177.777 220.84C177.905 219.76 178.024 218.84 178.116 218.29C178.143 217.973 178.205 217.661 178.299 217.36C178.342 217.675 178.342 217.995 178.299 218.31C178.299 218.92 178.198 219.8 178.107 220.88C177.923 223.05 177.64 226.04 177.291 229.34C177.246 229.83 177.191 230.34 177.145 230.76V230.66C177.914 233.53 178.574 236.08 179.032 237.91C179.309 238.885 179.52 239.881 179.664 240.89Z" fill="#263238"/>
<path d="M163.889 230L173.614 227.12L175.293 233.876C175.607 235.14 175.448 236.489 174.852 237.626C174.255 238.762 173.269 239.594 172.111 239.937L171.12 240.23C169.962 240.573 168.727 240.4 167.685 239.748C166.644 239.097 165.883 238.02 165.568 236.756L163.889 230Z" fill="#D1D5DB"/>
<path d="M169.936 240.38C168.938 240.373 167.97 240.011 167.178 239.349C166.386 238.686 165.814 237.76 165.548 236.71L163.872 230L173.6 227.12L175.276 233.84C175.585 235.113 175.422 236.467 174.822 237.609C174.221 238.751 173.233 239.589 172.07 239.94L171.154 240.22C170.757 240.334 170.347 240.388 169.936 240.38ZM163.927 230L165.594 236.71C165.907 237.961 166.661 239.027 167.69 239.675C168.719 240.322 169.941 240.501 171.09 240.17L172.052 239.88C173.198 239.538 174.174 238.716 174.768 237.592C175.361 236.468 175.524 235.134 175.221 233.88L173.554 227.17L163.927 230Z" fill="#263238"/>
<path d="M172.336 239.73C172.336 239.73 172.666 239.6 173.197 239.27C173.84 238.858 174.365 238.26 174.715 237.541C175.064 236.822 175.224 236.012 175.175 235.2C175.064 234.42 174.895 233.651 174.672 232.9C174.241 231.24 173.756 229.41 173.27 227.44L173.536 227.61L168.168 229.22L164.229 230.38L164.385 230.08C164.916 232.26 165.42 234.29 165.869 236.14C165.988 236.6 166.08 237.06 166.217 237.45C166.407 237.99 166.697 238.482 167.069 238.895C167.441 239.308 167.887 239.633 168.379 239.85C169.3 240.25 170.318 240.292 171.264 239.97C171.614 239.854 171.973 239.773 172.336 239.73C172.004 239.901 171.657 240.035 171.301 240.13C170.324 240.531 169.246 240.531 168.269 240.13C167.742 239.902 167.263 239.56 166.86 239.126C166.457 238.691 166.139 238.172 165.924 237.6C165.772 237.158 165.644 236.707 165.539 236.25C165.072 234.41 164.55 232.38 164 230.25L163.945 230.02L164.156 229.95L168.095 228.78L173.472 227.19L173.682 227.12L173.737 227.36C174.223 229.36 174.653 231.17 175.075 232.84C175.3 233.616 175.46 234.412 175.551 235.22C175.572 235.939 175.444 236.653 175.175 237.31C174.803 238.228 174.157 238.982 173.343 239.45C173.128 239.57 172.9 239.664 172.666 239.73C172.464 239.73 172.382 239.75 172.336 239.73Z" fill="#263238"/>
<path d="M185.517 276.51H141.842V282.88H185.517V276.51Z" fill="#1F2937"/>
<path d="M287.779 276.51H244.104V282.88H287.779V276.51Z" fill="#1F2937"/>
<path d="M387.889 276.67H346.422V282.72H387.889V276.67Z" fill="#1F2937"/>
<path d="M396.6 255.78C396.078 253.78 393.706 253.78 391.974 252.93C387.604 250.835 383.522 248.085 379.847 244.76L342.712 242L342.574 243.63C351.038 257 366.711 266.81 381.578 266C385.578 265.919 389.501 264.78 393.009 262.68C394.924 261.37 397.223 258.16 396.6 255.78Z" fill="#F97316"/>
<g opacity="0.3">
<path d="M396.6 255.78C396.078 253.78 393.706 253.78 391.974 252.93C387.604 250.835 383.522 248.085 379.847 244.76L342.712 242L342.574 243.63C351.038 257 366.711 266.81 381.578 266C385.578 265.919 389.501 264.78 393.009 262.68C394.924 261.37 397.223 258.16 396.6 255.78Z" fill="black"/>
</g>
<path d="M381.834 234.21C380.002 229.41 377.373 224.9 372.482 222.51C369.425 221.111 366.109 220.517 362.802 220.776C359.495 221.035 356.291 222.139 353.448 224C347.897 227.53 343.518 236.3 342.584 242.61C355.344 255.33 380.836 257.61 384.821 249.76C385.306 244.8 383.694 239 381.834 234.21Z" fill="#F97316"/>
<path d="M396.481 255C395.959 253 393.971 252 392.24 251.21C387.87 249.113 383.789 246.363 380.112 243.04L342.556 242.57C351.047 255.92 366.949 265.09 381.816 264.23C385.819 264.182 389.751 263.073 393.275 261C395.217 259.69 397.104 257.42 396.481 255Z" fill="#F97316"/>
<path d="M385.233 247.16C385.24 247.335 385.225 247.51 385.187 247.68C385.095 248.182 384.963 248.673 384.793 249.15C384.123 250.91 382.911 252.36 381.367 253.25C380.318 253.864 379.191 254.305 378.024 254.56C377.376 254.7 376.721 254.804 376.064 254.87C375.386 254.95 374.69 255.01 373.975 255.02C370.866 255.076 367.762 254.741 364.723 254.02C359.206 252.749 353.901 250.557 348.996 247.52C347.522 246.599 346.091 245.597 344.709 244.52L343.61 243.59C343.479 243.489 343.359 243.371 343.252 243.24C343.403 243.306 343.544 243.393 343.674 243.5L344.819 244.35C345.817 245.08 347.292 246.08 349.161 247.23C354.077 250.143 359.353 252.268 364.824 253.54C367.834 254.246 370.906 254.582 373.984 254.54C374.673 254.538 375.361 254.494 376.045 254.41C376.69 254.358 377.333 254.268 377.969 254.14C379.106 253.909 380.207 253.501 381.239 252.93C382.741 252.1 383.942 250.739 384.646 249.07C384.871 248.444 385.067 247.807 385.233 247.16Z" fill="#263238"/>
<path d="M376.86 254.55C376.846 254.314 376.846 254.076 376.86 253.84C376.86 253.32 376.86 252.653 376.86 251.84C376.924 250.07 376.86 247.5 376.741 244.35C376.549 240.655 375.99 236.993 375.074 233.43C374.52 231.341 373.749 229.328 372.775 227.43C371.749 225.4 370.276 223.682 368.488 222.43C368.289 222.299 368.081 222.185 367.865 222.09H367.993C365.945 222.532 364.017 223.483 362.36 224.87C360.843 226.21 359.472 227.737 358.275 229.42C356.168 232.206 354.406 235.282 353.035 238.57C351.854 241.37 351.102 243.73 350.544 245.35L349.893 247.21C349.829 247.428 349.746 247.639 349.646 247.84C349.676 247.61 349.731 247.385 349.811 247.17C349.948 246.69 350.141 246.06 350.37 245.28C350.873 243.65 351.579 241.28 352.724 238.42C354.069 235.078 355.823 231.95 357.936 229.12C359.143 227.397 360.533 225.836 362.076 224.47C363.784 223.029 365.775 222.04 367.893 221.58H367.966H368.021C368.266 221.679 368.502 221.803 368.726 221.95C370.585 223.254 372.115 225.045 373.178 227.16C374.166 229.095 374.944 231.148 375.496 233.28C376.397 236.871 376.929 240.56 377.08 244.28C377.2 246.788 377.2 249.302 377.08 251.81C377.034 252.65 376.998 253.33 376.961 253.81C376.957 254.06 376.923 254.309 376.86 254.55Z" fill="#263238"/>
<path d="M368.282 220.257L368.535 220.304C368.808 220.356 369.051 220.524 369.21 220.771C369.37 221.018 369.433 221.324 369.386 221.622L369.247 222.499L366.963 222.068L367.102 221.191C367.148 220.898 367.298 220.636 367.518 220.462C367.738 220.287 368.013 220.214 368.282 220.257Z" fill="#263238"/>
<path d="M367.444 241.08L366.528 245.69C366.528 245.69 372.107 249.01 377.355 247.87C379.271 247.555 381.017 246.488 382.265 244.87L381.908 240.87C381.908 240.87 380.415 242.74 375.908 242.87C372.555 243 367.444 241.08 367.444 241.08Z" fill="#D1D5DB"/>
<path d="M394.75 259.58C394.75 259.58 394.668 259.7 394.466 259.89C394.179 260.178 393.873 260.442 393.55 260.68C392.372 261.577 391.091 262.3 389.739 262.83C385.258 264.544 380.481 265.135 375.761 264.56C371.066 263.943 366.498 262.48 362.241 260.23C360.611 259.38 359.328 258.62 358.458 258.06C358.018 257.79 357.689 257.56 357.46 257.41C357.339 257.34 357.228 257.253 357.13 257.15C357.618 257.355 358.089 257.602 358.541 257.89C359.457 258.39 360.739 259.1 362.388 259.89C366.642 262.01 371.172 263.397 375.816 264C380.466 264.556 385.171 264.027 389.62 262.45C391.443 261.756 393.17 260.79 394.75 259.58Z" fill="#263238"/>
<path d="M240.486 233C240.486 233 245.479 222.71 251.542 222C251.542 222 262.727 229 264.44 228.55C266.153 228.1 263.661 224.55 266.015 222.55C268.369 220.55 270.733 222.79 271.694 224.33C272.656 225.87 279.398 242.68 285.105 246.96C290.811 251.24 299.761 259.82 298.332 263.68C297.251 266.56 297.535 265.51 292.478 266.55C287.422 267.59 270.678 258.78 265.282 252.79C256.809 243.48 246.046 233.53 240.486 233Z" fill="#F97316"/>
<path d="M296.298 267.76C296.533 267.618 296.715 267.391 296.812 267.117C296.909 266.844 296.914 266.542 296.828 266.265C296.742 265.987 296.569 265.752 296.34 265.599C296.111 265.446 295.84 265.387 295.575 265.43C295.273 265.495 294.966 265.532 294.659 265.54C291.233 265.66 286.827 264.23 281.358 261.64C275.89 259.05 273.902 257.34 266.977 251.64C260.052 245.94 254.327 236 248.877 234.3C246.253 233.377 243.508 232.938 240.752 233C240.58 233.011 240.412 233.069 240.266 233.17C236.474 235.66 229.467 245.53 233.103 248.17C235.622 249.98 244.343 251.17 250.507 253.47C256.672 255.77 270.174 262.28 277.841 265.18C285.508 268.08 293.312 269.38 296.252 267.84L296.298 267.76Z" fill="#D1D5DB"/>
<path d="M296.298 267.76C296.19 267.845 296.069 267.909 295.941 267.95C295.587 268.115 295.219 268.239 294.842 268.32C293.382 268.577 291.897 268.62 290.427 268.45C285.023 267.806 279.727 266.348 274.69 264.12C268.278 261.51 260.766 257.96 252.312 254.43C248.098 252.6 243.427 251.63 238.618 250.43C237.418 250.11 236.199 249.79 234.999 249.36C234.366 249.151 233.753 248.876 233.167 248.54C232.856 248.368 232.583 248.124 232.366 247.825C232.15 247.526 231.995 247.18 231.912 246.81C231.72 245.354 231.968 243.869 232.618 242.58C233.182 241.282 233.863 240.05 234.651 238.9C235.422 237.74 236.27 236.644 237.189 235.62C238.087 234.573 239.106 233.659 240.221 232.9C240.553 232.777 240.905 232.726 241.256 232.75C241.576 232.75 241.897 232.75 242.172 232.75C242.813 232.75 243.445 232.85 244.077 232.94C245.312 233.125 246.536 233.392 247.741 233.74C248.958 234.036 250.122 234.549 251.185 235.26C252.208 235.976 253.173 236.786 254.071 237.68C255.848 239.42 257.423 241.29 258.989 243.08C261.862 246.591 265.054 249.774 268.516 252.58C271.405 255.139 274.467 257.455 277.676 259.51C283.758 262.88 289.062 264.94 292.863 265.37C293.7 265.475 294.545 265.475 295.382 265.37C295.555 265.323 295.735 265.314 295.911 265.343C296.087 265.372 296.256 265.439 296.408 265.54C296.652 265.73 296.825 266.011 296.894 266.33C296.948 266.538 296.95 266.758 296.9 266.967C296.85 267.177 296.75 267.367 296.61 267.52C296.54 267.597 296.46 267.661 296.371 267.71H296.28C296.384 267.628 296.482 267.538 296.573 267.44C296.699 267.291 296.787 267.107 296.827 266.909C296.867 266.71 296.859 266.504 296.802 266.31C296.73 266.025 296.568 265.777 296.344 265.61C296.066 265.438 295.737 265.391 295.428 265.48C294.576 265.597 293.715 265.597 292.863 265.48C290.537 265.197 288.252 264.606 286.057 263.72C283.135 262.608 280.288 261.271 277.538 259.72C274.285 257.685 271.182 255.374 268.259 252.81C266.561 251.479 264.948 250.022 263.432 248.45C261.866 246.84 260.336 245.09 258.779 243.29C257.222 241.49 255.628 239.65 253.878 237.93C252.999 237.06 252.055 236.27 251.057 235.57C250.032 234.883 248.908 234.389 247.732 234.11C246.526 233.772 245.302 233.511 244.068 233.33C243.454 233.24 242.831 233.18 242.236 233.15C241.924 233.15 241.613 233.15 241.32 233.15C241.036 233.126 240.75 233.16 240.477 233.25C239.416 233.985 238.444 234.861 237.583 235.86C236.684 236.868 235.851 237.944 235.091 239.08C234.324 240.207 233.658 241.413 233.103 242.68C232.51 243.864 232.273 245.221 232.425 246.56C232.673 247.86 234.028 248.3 235.173 248.75C236.318 249.2 237.555 249.5 238.755 249.81C243.537 251.05 248.254 252.04 252.495 253.89C260.968 257.46 268.443 261.03 274.845 263.68C279.847 265.93 285.103 267.437 290.472 268.16C291.929 268.358 293.403 268.358 294.86 268.16C295.234 268.089 295.602 267.982 295.959 267.84L296.298 267.76Z" fill="#263238"/>
<path d="M278.409 238C278.409 238.15 277.236 238.35 275.881 238.93C274.525 239.51 273.527 240.22 273.444 240.1C274.03 239.311 274.823 238.735 275.716 238.45C276.548 237.996 277.49 237.839 278.409 238Z" fill="#D1D5DB"/>
<path d="M280.809 241.61C280.149 242.321 279.38 242.9 278.537 243.32C277.771 243.89 276.922 244.316 276.027 244.58C276.689 243.872 277.457 243.293 278.299 242.87C279.066 242.302 279.914 241.876 280.809 241.61Z" fill="#D1D5DB"/>
<path d="M283.52 245.21C283.603 245.33 282.851 246.14 281.935 247.13C281.019 248.12 280.25 248.91 280.149 248.82C280.048 248.73 280.662 247.76 281.596 246.75C282.531 245.74 283.438 245.1 283.52 245.21Z" fill="#D1D5DB"/>
<path d="M247.027 243.097L240.777 241.132C240.291 240.98 239.784 241.286 239.644 241.817L239.588 242.028C239.448 242.559 239.729 243.113 240.215 243.266L246.465 245.23C246.951 245.383 247.458 245.076 247.598 244.546L247.654 244.334C247.794 243.803 247.513 243.249 247.027 243.097Z" fill="#F97316"/>
<path d="M250.196 222.87C250.059 222.021 249.746 221.217 249.28 220.52C249.102 220.179 248.81 219.928 248.465 219.82C248.08 219.804 247.703 219.939 247.402 220.2L246.532 220.8C246.349 220.93 246.147 221.08 246.129 221.31C246.129 221.485 246.184 221.654 246.285 221.79L247.558 223.93" fill="#F97316"/>
<path d="M251.542 222.06C251.542 222.15 250.727 222.41 249.481 223.06C247.874 223.974 246.391 225.129 245.075 226.49C243.757 227.854 242.6 229.392 241.631 231.07C240.899 232.36 240.541 233.23 240.468 233.2C240.638 232.379 240.932 231.595 241.338 230.88C242.242 229.108 243.395 227.502 244.755 226.12C246.089 224.707 247.639 223.56 249.335 222.73C250.025 222.356 250.774 222.128 251.542 222.06Z" fill="#263238"/>
<path d="M248.162 223.65C248.025 223.65 247.805 223.01 247.246 222.38C246.688 221.75 246.166 221.38 246.211 221.26C246.257 221.14 247.008 221.26 247.613 222.04C248.217 222.82 248.291 223.64 248.162 223.65Z" fill="#263238"/>
<g opacity="0.3">
<path d="M264.953 228.17C265.081 227.71 269.963 236.47 273.261 239.88C269.597 236.93 265.823 232.16 262.938 228.3C262.938 228.3 264.66 229.23 264.953 228.17Z" fill="black"/>
</g>
<path d="M285.187 249.34C284.993 249.511 284.763 249.627 284.518 249.68C283.866 249.894 283.18 249.958 282.503 249.87C281.501 249.74 280.536 249.379 279.673 248.81C278.642 248.103 277.715 247.23 276.925 246.22C276.503 245.69 276.109 245.15 275.743 244.63C275.377 244.11 275.065 243.63 274.745 243.08L273.096 240.44C272.551 239.651 272.069 238.811 271.658 237.93C272.289 238.637 272.862 239.403 273.371 240.22C273.893 241 274.479 241.86 275.12 242.79L276.137 244.32C276.503 244.83 276.897 245.32 277.309 245.87C278.073 246.847 278.961 247.699 279.948 248.4C280.753 248.958 281.653 249.332 282.595 249.5C283.461 249.614 284.338 249.56 285.187 249.34Z" fill="#263238"/>
<path d="M276.687 238.38C276.569 238.061 276.501 237.723 276.485 237.38C276.371 236.465 276.341 235.541 276.394 234.62C276.465 233.259 276.699 231.915 277.09 230.62C277.313 229.846 277.595 229.093 277.932 228.37C278.104 227.978 278.296 227.597 278.509 227.23C278.64 227.022 278.805 226.843 278.995 226.7C279.107 226.62 279.234 226.567 279.367 226.546C279.5 226.526 279.636 226.537 279.764 226.58C279.984 226.694 280.173 226.869 280.31 227.089C280.447 227.309 280.527 227.565 280.543 227.83C280.598 228.261 280.623 228.695 280.616 229.13C280.627 229.944 280.566 230.758 280.433 231.56C280.207 232.915 279.79 234.224 279.196 235.44C278.801 236.259 278.318 237.024 277.758 237.72C277.574 237.99 277.347 238.224 277.09 238.41C277.767 237.415 278.38 236.369 278.922 235.28C279.454 234.078 279.825 232.798 280.021 231.48C280.143 230.707 280.195 229.924 280.177 229.14C280.18 228.732 280.156 228.324 280.103 227.92C280.048 227.54 279.883 227.15 279.645 227.07C279.407 226.99 279.132 227.2 278.931 227.53C278.726 227.875 278.54 228.232 278.372 228.6C278.044 229.301 277.763 230.026 277.529 230.77C277.134 232.036 276.876 233.348 276.76 234.68C276.531 237 276.76 238.37 276.687 238.38Z" fill="#D1D5DB"/>
<path d="M276.76 238.17C276.913 237.863 277.104 237.58 277.328 237.33C277.722 236.82 278.299 236.08 279.068 235.22C279.959 234.194 280.948 233.275 282.018 232.48C282.655 232.006 283.333 231.601 284.042 231.27C284.426 231.065 284.837 230.93 285.26 230.87C285.507 230.83 285.759 230.864 285.99 230.968C286.22 231.072 286.421 231.242 286.57 231.46C286.696 231.688 286.772 231.944 286.794 232.209C286.817 232.474 286.784 232.741 286.699 232.99C286.548 233.426 286.331 233.832 286.057 234.19C285.563 234.856 284.98 235.435 284.326 235.91C283.229 236.682 282.017 237.24 280.745 237.56C279.9 237.788 279.044 237.958 278.18 238.07C277.879 238.138 277.571 238.165 277.264 238.15C277.264 238.05 278.601 237.83 280.69 237.21C281.907 236.845 283.063 236.271 284.115 235.51C284.72 235.056 285.261 234.506 285.718 233.88C286.195 233.25 286.589 232.4 286.204 231.75C286.102 231.611 285.967 231.504 285.814 231.44C285.661 231.377 285.495 231.36 285.334 231.39C284.961 231.442 284.599 231.56 284.262 231.74C283.576 232.055 282.917 232.437 282.293 232.88C281.24 233.652 280.25 234.522 279.334 235.48C277.676 237.13 276.76 238.23 276.76 238.17Z" fill="#D1D5DB"/>
<path d="M421.231 105.33H396.307C394.364 105.33 392.79 107.049 392.79 109.17V136.38C392.79 138.501 394.364 140.22 396.307 140.22H421.231C423.174 140.22 424.749 138.501 424.749 136.38V109.17C424.749 107.049 423.174 105.33 421.231 105.33Z" fill="#F97316"/>
<path d="M414.096 125.82H403.534C403.414 125.817 403.299 125.764 403.213 125.671C403.128 125.577 403.079 125.452 403.076 125.32C403.076 125.187 403.125 125.06 403.211 124.966C403.296 124.873 403.413 124.82 403.534 124.82H413.711L414.81 118.05H402.545C402.424 118.05 402.307 117.997 402.221 117.904C402.135 117.81 402.087 117.683 402.087 117.55C402.087 117.417 402.135 117.29 402.221 117.196C402.307 117.103 402.424 117.05 402.545 117.05H415.369C415.436 117.049 415.503 117.064 415.564 117.093C415.626 117.123 415.681 117.166 415.726 117.22C415.768 117.277 415.797 117.343 415.813 117.414C415.829 117.485 415.83 117.558 415.818 117.63L414.563 125.41C414.543 125.528 414.485 125.635 414.399 125.71C414.314 125.785 414.206 125.824 414.096 125.82Z" fill="#D1D5DB"/>
<path d="M413.748 128.54H403.672C403.561 128.538 403.454 128.493 403.372 128.412C403.289 128.331 403.236 128.22 403.223 128.1L401.821 116H398.991C398.869 116 398.753 115.947 398.667 115.854C398.581 115.76 398.533 115.633 398.533 115.5C398.533 115.367 398.581 115.24 398.667 115.146C398.753 115.053 398.869 115 398.991 115H402.252C402.364 114.997 402.472 115.039 402.557 115.118C402.642 115.198 402.696 115.309 402.71 115.43L404.084 127.5H413.739C413.86 127.5 413.977 127.553 414.062 127.646C414.148 127.74 414.197 127.867 414.197 128C414.2 128.068 414.192 128.136 414.171 128.2C414.15 128.264 414.118 128.323 414.076 128.373C414.034 128.423 413.984 128.464 413.927 128.493C413.871 128.521 413.81 128.537 413.748 128.54Z" fill="#D1D5DB"/>
<path d="M405.33 132.44C404.99 132.44 404.659 132.33 404.377 132.124C404.095 131.918 403.876 131.626 403.746 131.283C403.617 130.941 403.583 130.564 403.65 130.201C403.717 129.838 403.881 129.505 404.122 129.244C404.362 128.983 404.668 128.806 405.001 128.735C405.334 128.664 405.679 128.702 405.991 128.845C406.304 128.988 406.571 129.229 406.758 129.538C406.945 129.847 407.044 130.21 407.043 130.58C407.043 130.825 406.998 131.068 406.912 131.294C406.826 131.52 406.699 131.726 406.54 131.899C406.381 132.072 406.192 132.208 405.984 132.301C405.777 132.394 405.554 132.441 405.33 132.44ZM405.33 129.71C405.172 129.71 405.018 129.761 404.887 129.857C404.756 129.952 404.654 130.088 404.593 130.247C404.533 130.406 404.517 130.581 404.548 130.75C404.579 130.918 404.655 131.073 404.766 131.195C404.878 131.317 405.02 131.4 405.174 131.433C405.329 131.467 405.489 131.45 405.635 131.384C405.78 131.318 405.905 131.206 405.992 131.063C406.08 130.92 406.127 130.752 406.127 130.58C406.128 130.465 406.108 130.352 406.068 130.245C406.029 130.139 405.97 130.043 405.896 129.962C405.822 129.881 405.733 129.817 405.636 129.773C405.539 129.73 405.435 129.709 405.33 129.71Z" fill="#D1D5DB"/>
<path d="M412.273 132.44C411.934 132.442 411.601 132.334 411.318 132.129C411.035 131.924 410.814 131.632 410.683 131.29C410.552 130.948 410.518 130.571 410.583 130.208C410.649 129.844 410.813 129.51 411.053 129.248C411.293 128.986 411.599 128.807 411.932 128.735C412.265 128.664 412.61 128.701 412.924 128.844C413.237 128.987 413.504 129.228 413.692 129.537C413.88 129.846 413.979 130.209 413.977 130.58C413.974 131.072 413.794 131.544 413.475 131.892C413.156 132.24 412.724 132.437 412.273 132.44ZM412.273 129.71C412.115 129.708 411.96 129.757 411.828 129.852C411.696 129.946 411.592 130.081 411.53 130.24C411.469 130.399 411.452 130.574 411.481 130.743C411.511 130.913 411.586 131.069 411.697 131.191C411.808 131.314 411.95 131.398 412.105 131.432C412.26 131.467 412.421 131.45 412.567 131.385C412.713 131.319 412.838 131.208 412.926 131.064C413.014 130.921 413.061 130.752 413.061 130.58C413.061 130.351 412.978 130.131 412.831 129.968C412.683 129.805 412.483 129.713 412.273 129.71Z" fill="#D1D5DB"/>
<path d="M406.832 125.82C406.716 125.818 406.604 125.769 406.52 125.682C406.435 125.595 406.383 125.477 406.374 125.35L405.943 117.83C405.94 117.764 405.948 117.698 405.968 117.636C405.987 117.574 406.018 117.517 406.058 117.467C406.098 117.418 406.146 117.378 406.201 117.349C406.255 117.321 406.314 117.304 406.374 117.3C406.434 117.295 406.495 117.303 406.553 117.323C406.61 117.344 406.663 117.378 406.709 117.422C406.754 117.466 406.791 117.519 406.817 117.579C406.843 117.639 406.857 117.704 406.859 117.77L407.29 125.29C407.294 125.356 407.286 125.422 407.266 125.484C407.246 125.546 407.216 125.603 407.176 125.653C407.136 125.702 407.087 125.742 407.033 125.771C406.979 125.799 406.92 125.816 406.859 125.82H406.832Z" fill="#D1D5DB"/>
<path d="M410.661 125.82C410.601 125.816 410.542 125.799 410.488 125.771C410.433 125.742 410.385 125.702 410.345 125.652C410.305 125.603 410.274 125.546 410.254 125.484C410.235 125.421 410.227 125.356 410.23 125.29L410.615 117.77C410.616 117.704 410.63 117.639 410.654 117.58C410.679 117.52 410.715 117.466 410.76 117.422C410.805 117.378 410.857 117.344 410.914 117.323C410.971 117.302 411.031 117.294 411.091 117.3C411.151 117.302 411.21 117.318 411.264 117.346C411.318 117.373 411.367 117.413 411.407 117.461C411.447 117.509 411.478 117.566 411.498 117.628C411.517 117.689 411.526 117.755 411.522 117.82L411.137 125.35C411.135 125.415 411.121 125.479 411.095 125.538C411.07 125.598 411.034 125.651 410.99 125.694C410.945 125.738 410.893 125.772 410.837 125.793C410.78 125.815 410.721 125.824 410.661 125.82Z" fill="#D1D5DB"/>
<path d="M402.93 122.06C402.809 122.057 402.694 122.004 402.608 121.911C402.523 121.817 402.474 121.692 402.472 121.56C402.472 121.427 402.52 121.3 402.606 121.206C402.692 121.113 402.808 121.06 402.93 121.06L414.719 120.93C414.839 120.932 414.954 120.986 415.04 121.079C415.125 121.172 415.174 121.298 415.177 121.43C415.178 121.495 415.167 121.56 415.145 121.621C415.123 121.681 415.09 121.736 415.048 121.783C415.007 121.829 414.957 121.866 414.902 121.892C414.847 121.917 414.787 121.93 414.728 121.93L402.939 122.06H402.93Z" fill="#D1D5DB"/>
<path d="M137.262 175.06C135.447 174.677 133.694 174.003 132.06 173.06L134.991 165.36C136.321 166.208 137.76 166.835 139.259 167.22C140.822 167.658 142.428 167.883 144.041 167.89C144.911 167.946 145.782 167.831 146.615 167.55C146.82 167.491 147.002 167.362 147.135 167.182C147.269 167.003 147.346 166.781 147.357 166.55C147.357 166.1 147.045 165.79 146.441 165.62C145.448 165.374 144.441 165.2 143.427 165.1C141.609 164.88 139.806 164.526 138.032 164.04C136.546 163.607 135.197 162.739 134.13 161.53C133.537 160.811 133.083 159.97 132.793 159.056C132.504 158.143 132.385 157.175 132.444 156.21C132.427 154.43 132.963 152.695 133.965 151.29C135.151 149.706 136.713 148.509 138.481 147.83C140.795 146.913 143.246 146.475 145.708 146.54C147.638 146.539 149.564 146.737 151.46 147.13C153.129 147.453 154.746 148.039 156.26 148.87L153.329 156.57C151.041 155.185 148.462 154.472 145.845 154.5C143.51 154.5 142.346 154.95 142.346 155.84C142.346 156.29 142.658 156.61 143.262 156.84C144.245 157.096 145.243 157.277 146.248 157.38C148.06 157.596 149.855 157.96 151.616 158.47C153.094 158.921 154.434 159.795 155.5 161C156.093 161.72 156.547 162.563 156.837 163.479C157.126 164.394 157.245 165.364 157.185 166.33C157.19 168.075 156.654 169.77 155.665 171.14C154.462 172.735 152.876 173.933 151.085 174.6C148.736 175.52 146.252 175.957 143.757 175.89C141.571 175.866 139.394 175.588 137.262 175.06Z" fill="#D1D5DB"/>
<path d="M186.076 149.67C188.018 151.77 188.989 154.95 188.989 159.18V175.31H178.327V161.2C178.327 157.96 177.267 156.34 175.148 156.34C174.6 156.32 174.055 156.432 173.551 156.669C173.048 156.906 172.598 157.261 172.235 157.71C171.4 158.956 171.006 160.491 171.127 162.03V175.31H160.428V137H171.136V149.36C173.178 147.472 175.789 146.478 178.464 146.57C179.858 146.506 181.25 146.748 182.557 147.28C183.864 147.813 185.061 148.625 186.076 149.67Z" fill="#D1D5DB"/>
<path d="M200.082 173.94C197.882 172.775 196.021 170.969 194.705 168.72C193.435 166.438 192.763 163.82 192.763 161.15C192.763 158.48 193.435 155.862 194.705 153.58C196.02 151.335 197.881 149.534 200.082 148.38C202.522 147.148 205.179 146.511 207.868 146.511C210.556 146.511 213.213 147.148 215.654 148.38C217.849 149.529 219.703 151.332 221.003 153.58C222.256 155.868 222.918 158.484 222.918 161.15C222.918 163.816 222.256 166.432 221.003 168.72C219.702 170.972 217.849 172.78 215.654 173.94C213.217 175.189 210.559 175.836 207.868 175.836C205.176 175.836 202.518 175.189 200.082 173.94ZM210.854 165.26C211.7 164.097 212.121 162.632 212.035 161.15C212.122 159.677 211.701 158.221 210.854 157.07C210.468 156.612 209.999 156.247 209.477 155.997C208.955 155.747 208.392 155.619 207.822 155.619C207.252 155.619 206.688 155.747 206.166 155.997C205.645 156.247 205.176 156.612 204.79 157.07C203.943 158.221 203.521 159.677 203.608 161.15C203.522 162.632 203.943 164.097 204.79 165.26C205.173 165.723 205.641 166.093 206.163 166.346C206.685 166.6 207.25 166.731 207.822 166.731C208.393 166.731 208.958 166.6 209.481 166.346C210.003 166.093 210.471 165.723 210.854 165.26Z" fill="#D1D5DB"/>
<path d="M249.802 148.3C251.744 149.51 253.332 151.295 254.382 153.45C255.485 155.852 256.059 158.503 256.059 161.19C256.059 163.877 255.485 166.527 254.382 168.93C253.324 171.071 251.738 172.845 249.802 174.05C247.892 175.239 245.727 175.853 243.528 175.83C240.661 175.83 238.462 175.02 236.951 173.4V185.34H226.243V147H236.456V149.32C238.001 147.427 240.367 146.48 243.555 146.48C245.748 146.474 247.903 147.102 249.802 148.3ZM244.004 165.3C244.851 164.149 245.272 162.693 245.186 161.22C245.271 159.737 244.85 158.273 244.004 157.11C243.621 156.647 243.153 156.277 242.631 156.023C242.109 155.77 241.543 155.639 240.972 155.639C240.4 155.639 239.835 155.77 239.313 156.023C238.791 156.277 238.323 156.647 237.94 157.11C237.094 158.273 236.673 159.737 236.758 161.22C236.672 162.693 237.093 164.149 237.94 165.3C238.326 165.757 238.795 166.123 239.317 166.373C239.839 166.622 240.402 166.751 240.972 166.751C241.542 166.751 242.105 166.622 242.627 166.373C243.149 166.123 243.618 165.757 244.004 165.3Z" fill="#D1D5DB"/>
<path d="M377.071 163.83L330.575 181.83C330.154 181.968 329.701 181.924 329.309 181.707C328.917 181.49 328.616 181.117 328.469 180.665C328.322 180.212 328.339 179.716 328.518 179.278C328.697 178.839 329.024 178.493 329.43 178.31L374.58 160.81L369.569 128.16L315.058 149.3C314.637 149.438 314.184 149.394 313.792 149.177C313.4 148.96 313.099 148.587 312.952 148.135C312.805 147.682 312.822 147.186 313.001 146.748C313.18 146.309 313.507 145.963 313.913 145.78L370.348 123.91C370.583 123.819 370.834 123.785 371.083 123.81C371.332 123.836 371.573 123.921 371.789 124.059C372.004 124.198 372.19 124.386 372.331 124.61C372.473 124.835 372.569 125.091 372.61 125.36L378.189 161.76C378.255 162.193 378.179 162.638 377.975 163.017C377.771 163.395 377.451 163.683 377.071 163.83Z" fill="#D1D5DB"/>
<path d="M379.435 176.4L335.091 193.4C334.7 193.548 334.273 193.537 333.889 193.367C333.505 193.198 333.19 192.883 333.002 192.48L309.251 141.29L296.427 146.29C296.212 146.387 295.982 146.435 295.75 146.431C295.517 146.427 295.288 146.372 295.076 146.269C294.864 146.166 294.674 146.017 294.516 145.831C294.359 145.645 294.237 145.426 294.16 145.187C294.082 144.948 294.049 144.695 294.064 144.442C294.079 144.189 294.141 143.942 294.246 143.716C294.351 143.49 294.497 143.289 294.675 143.127C294.853 142.964 295.059 142.843 295.282 142.77L309.507 137.26C309.898 137.106 310.327 137.114 310.714 137.281C311.1 137.449 311.417 137.765 311.605 138.17L335.384 189.33L378.308 172.88C378.729 172.742 379.182 172.786 379.574 173.003C379.966 173.22 380.267 173.593 380.414 174.045C380.561 174.498 380.543 174.994 380.365 175.432C380.186 175.871 379.859 176.217 379.453 176.4H379.435Z" fill="#D1D5DB"/>
<path d="M347.961 208C346.553 208.549 345.027 208.629 343.577 208.232C342.127 207.834 340.817 206.975 339.814 205.764C338.812 204.554 338.16 203.045 337.943 201.43C337.725 199.815 337.951 198.166 338.593 196.692C339.234 195.217 340.262 193.984 341.546 193.147C342.829 192.31 344.312 191.908 345.805 191.991C347.298 192.075 348.735 192.64 349.934 193.615C351.133 194.59 352.04 195.932 352.541 197.47C352.874 198.49 353.019 199.571 352.969 200.652C352.919 201.733 352.675 202.793 352.249 203.771C351.824 204.749 351.226 205.626 350.49 206.351C349.755 207.077 348.895 207.637 347.961 208ZM344.049 196C343.281 196.299 342.61 196.841 342.123 197.556C341.636 198.271 341.354 199.128 341.312 200.018C341.271 200.908 341.471 201.791 341.889 202.557C342.307 203.322 342.924 203.935 343.661 204.319C344.397 204.702 345.222 204.839 346.03 204.711C346.838 204.583 347.593 204.197 348.2 203.601C348.807 203.006 349.239 202.227 349.441 201.363C349.643 200.5 349.606 199.591 349.335 198.75C349.161 198.183 348.885 197.66 348.524 197.211C348.163 196.762 347.724 196.396 347.232 196.133C346.741 195.871 346.206 195.718 345.66 195.683C345.113 195.648 344.566 195.732 344.049 195.93V196Z" fill="#D1D5DB"/>
<path d="M378.527 196.12C377.118 196.671 375.59 196.753 374.138 196.355C372.685 195.958 371.374 195.099 370.369 193.887C369.364 192.676 368.711 191.166 368.492 189.549C368.274 187.931 368.5 186.28 369.141 184.803C369.783 183.326 370.812 182.09 372.097 181.252C373.383 180.414 374.867 180.011 376.362 180.094C377.858 180.177 379.297 180.743 380.498 181.719C381.698 182.696 382.607 184.039 383.107 185.58C383.778 187.641 383.672 189.908 382.813 191.884C381.955 193.859 380.413 195.383 378.527 196.12ZM374.616 184.12C373.844 184.419 373.171 184.96 372.681 185.677C372.191 186.393 371.907 187.252 371.864 188.145C371.822 189.038 372.023 189.924 372.442 190.692C372.86 191.461 373.479 192.076 374.218 192.461C374.957 192.845 375.784 192.982 376.595 192.853C377.405 192.725 378.162 192.337 378.771 191.738C379.379 191.14 379.811 190.358 380.012 189.491C380.214 188.625 380.175 187.713 379.901 186.87C379.725 186.306 379.447 185.786 379.085 185.34C378.723 184.894 378.283 184.531 377.792 184.272C377.3 184.012 376.767 183.862 376.222 183.829C375.676 183.796 375.131 183.881 374.616 184.08V184.12Z" fill="#D1D5DB"/>
<path d="M344.938 176.28C344.53 176.442 344.08 176.429 343.681 176.244C343.281 176.058 342.961 175.714 342.785 175.28L330.117 142.87C330.03 142.643 329.984 142.4 329.983 142.155C329.981 141.909 330.025 141.665 330.11 141.438C330.195 141.21 330.32 141.003 330.478 140.829C330.637 140.654 330.825 140.515 331.033 140.42C331.239 140.314 331.463 140.257 331.691 140.25C331.918 140.244 332.145 140.289 332.356 140.383C332.566 140.477 332.757 140.618 332.916 140.796C333.074 140.975 333.197 141.187 333.277 141.42L345.945 173.83C346.033 174.056 346.078 174.3 346.08 174.545C346.081 174.791 346.038 175.035 345.953 175.262C345.867 175.49 345.742 175.697 345.584 175.871C345.425 176.046 345.237 176.185 345.029 176.28H344.938Z" fill="#D1D5DB"/>
<path d="M361.948 169.69H361.856C361.421 169.83 360.954 169.776 360.555 169.539C360.157 169.303 359.861 168.904 359.731 168.43L350.654 134.63C350.58 134.395 350.551 134.146 350.57 133.899C350.589 133.651 350.654 133.411 350.763 133.193C350.872 132.975 351.02 132.783 351.2 132.631C351.38 132.479 351.587 132.37 351.808 132.31C352.024 132.241 352.25 132.219 352.474 132.246C352.697 132.272 352.914 132.347 353.111 132.464C353.309 132.582 353.483 132.742 353.624 132.933C353.765 133.124 353.87 133.344 353.933 133.58L363.02 167.38C363.149 167.842 363.109 168.34 362.909 168.77C362.709 169.201 362.365 169.53 361.948 169.69Z" fill="#D1D5DB"/>
<path d="M322.56 166.31C322.136 166.462 321.674 166.427 321.273 166.213C320.872 165.999 320.563 165.623 320.412 165.164C320.262 164.705 320.282 164.2 320.467 163.756C320.653 163.313 320.99 162.966 321.406 162.79L373.16 142.11C373.578 141.976 374.027 142.022 374.416 142.237C374.804 142.452 375.103 142.821 375.252 143.268C375.4 143.716 375.386 144.208 375.214 144.645C375.041 145.082 374.723 145.43 374.323 145.62L322.56 166.3V166.31Z" fill="#D1D5DB"/>
<path d="M251.35 399.45H188.513C186.891 399.45 185.765 400.45 186.094 401.64C188.568 412.16 191.038 422.68 193.505 433.2C193.694 433.834 194.061 434.387 194.554 434.78C195.048 435.174 195.642 435.387 196.253 435.39H243.665C244.276 435.387 244.87 435.174 245.364 434.78C245.857 434.387 246.224 433.834 246.413 433.2C248.856 422.68 251.326 412.16 253.823 401.64C254.052 400.43 252.944 399.45 251.35 399.45ZM197.627 430.17C197.627 430.34 197.544 430.48 197.434 430.48H196.152C196.042 430.48 195.951 430.34 195.951 430.17V419.78H197.599L197.627 430.17ZM197.627 417.91H195.978V407.51C195.978 407.35 196.07 407.21 196.18 407.21H197.434C197.544 407.21 197.627 407.35 197.627 407.51V417.91ZM200.732 430.17C200.732 430.34 200.65 430.48 200.531 430.48H199.266C199.157 430.48 199.065 430.34 199.065 430.17V419.78H200.732V430.17ZM200.732 417.91H199.083V407.51C199.083 407.35 199.175 407.21 199.285 407.21H200.531C200.65 407.21 200.732 407.35 200.732 407.51V417.91ZM203.819 430.17C203.819 430.34 203.727 430.48 203.617 430.48H202.363C202.253 430.48 202.17 430.34 202.17 430.17V419.78H203.819V430.17ZM203.819 417.91H202.17V407.51C202.17 407.35 202.253 407.21 202.363 407.21H203.617C203.727 407.21 203.819 407.35 203.819 407.51V417.91ZM209.984 430.17C209.984 430.34 209.892 430.48 209.791 430.48H208.527C208.426 430.48 208.335 430.34 208.335 430.17V419.78H209.984V430.17ZM209.984 417.91H208.335V407.51C208.335 407.35 208.426 407.21 208.527 407.21H209.791C209.892 407.21 209.984 407.35 209.984 407.51V417.91ZM213.071 430.17C213.071 430.34 212.979 430.48 212.869 430.48H211.614C211.504 430.48 211.422 430.34 211.422 430.17V419.78H213.071V430.17ZM213.071 417.91H211.422V407.51C211.422 407.35 211.504 407.21 211.614 407.21H212.869C212.979 407.21 213.071 407.35 213.071 407.51V417.91ZM216.148 430.17C216.148 430.34 216.057 430.48 215.956 430.48H214.701C214.591 430.48 214.5 430.34 214.5 430.17V419.78H216.148V430.17ZM216.148 417.91H214.472V407.51C214.472 407.35 214.564 407.21 214.674 407.21H215.928C216.029 407.21 216.121 407.35 216.121 407.51L216.148 417.91ZM219.235 430.17C219.235 430.34 219.144 430.48 219.034 430.48H217.779C217.669 430.48 217.586 430.34 217.586 430.17V419.78H219.235V430.17ZM219.235 417.91H217.586V407.51C217.586 407.35 217.669 407.21 217.779 407.21H219.052C219.162 407.21 219.254 407.35 219.254 407.51L219.235 417.91ZM222.313 430.17C222.313 430.34 222.231 430.48 222.121 430.48H220.884C220.774 430.48 220.683 430.34 220.683 430.17V419.78H222.331L222.313 430.17ZM222.313 417.91H220.664V407.51C220.664 407.35 220.756 407.21 220.866 407.21H222.121C222.231 407.21 222.313 407.35 222.313 407.51V417.91ZM225.4 430.17C225.4 430.34 225.308 430.48 225.198 430.48H223.943C223.843 430.48 223.751 430.34 223.751 430.17V419.78H225.4V430.17ZM225.4 417.91H223.751V407.51C223.751 407.35 223.843 407.21 223.943 407.21H225.198C225.308 407.21 225.4 407.35 225.4 407.51V417.91ZM228.487 430.17C228.487 430.34 228.395 430.48 228.285 430.48H227.03C226.92 430.48 226.838 430.34 226.838 430.17V419.78H228.487V430.17ZM228.487 417.91H226.838V407.51C226.838 407.35 226.92 407.21 227.03 407.21H228.285C228.395 407.21 228.487 407.35 228.487 407.51V417.91ZM231.565 430.17C231.565 430.34 231.482 430.48 231.372 430.48H230.117C230.007 430.48 229.916 430.34 229.916 430.17V419.78H231.565V430.17ZM231.565 417.91H229.916V407.51C229.916 407.35 230.007 407.21 230.117 407.21H231.372C231.482 407.21 231.565 407.35 231.565 407.51V417.91ZM237.738 430.17C237.738 430.34 237.647 430.48 237.537 430.48H236.282C236.172 430.48 236.09 430.34 236.09 430.17V419.78H237.738V430.17ZM237.738 417.91H236.09V407.51C236.09 407.35 236.172 407.21 236.282 407.21H237.537C237.647 407.21 237.738 407.35 237.738 407.51V417.91ZM240.816 430.17C240.816 430.34 240.734 430.48 240.624 430.48H239.369C239.259 430.48 239.167 430.34 239.167 430.17V419.78H240.816V430.17ZM240.816 417.91H239.167V407.51C239.167 407.35 239.259 407.21 239.369 407.21H240.624C240.734 407.21 240.816 407.35 240.816 407.51V417.91ZM243.903 430.17C243.903 430.34 243.812 430.48 243.702 430.48H242.447C242.337 430.48 242.254 430.34 242.254 430.17V419.78H243.903V430.17ZM243.903 417.91H242.254V407.51C242.254 407.35 242.337 407.21 242.447 407.21H243.702C243.812 407.21 243.903 407.35 243.903 407.51V417.91Z" fill="#F97316"/>
<path d="M257.671 401.29C257.678 401.415 257.662 401.541 257.625 401.659C257.587 401.777 257.528 401.886 257.451 401.98C257.374 402.073 257.281 402.148 257.177 402.202C257.074 402.255 256.961 402.285 256.846 402.29H183.017C182.79 402.265 182.58 402.149 182.427 401.964C182.275 401.779 182.191 401.539 182.192 401.29V397.71C182.191 397.461 182.275 397.221 182.427 397.036C182.58 396.851 182.79 396.735 183.017 396.71H256.846C256.961 396.715 257.074 396.745 257.177 396.798C257.281 396.852 257.374 396.927 257.451 397.02C257.528 397.114 257.587 397.223 257.625 397.341C257.662 397.459 257.678 397.585 257.671 397.71V401.29Z" fill="#F97316"/>
<path d="M256.177 402.26C256.177 402.39 240.074 402.49 220.215 402.49C200.356 402.49 184.253 402.39 184.253 402.26C184.253 402.13 200.347 402.03 220.215 402.03C240.083 402.03 256.177 402.13 256.177 402.26Z" fill="#263238"/>
<g opacity="0.3">
<path d="M187.679 402.26C197.72 404.2 207.894 405.203 218.09 405.26C229.439 405.38 242.007 404.75 253.072 402.26H187.679Z" fill="black"/>
</g>
<path d="M221.15 401.09C220.923 401.202 220.678 401.263 220.429 401.269C220.181 401.275 219.934 401.225 219.703 401.123C219.472 401.021 219.263 400.869 219.088 400.676C218.913 400.483 218.776 400.253 218.686 400L207.492 371.17C207.3 370.666 207.298 370.099 207.487 369.594C207.675 369.088 208.039 368.684 208.5 368.47C208.959 368.26 209.476 368.257 209.937 368.461C210.399 368.665 210.768 369.06 210.964 369.56L222.148 398.4C222.251 398.647 222.307 398.915 222.312 399.186C222.317 399.458 222.272 399.728 222.178 399.979C222.085 400.231 221.946 400.459 221.769 400.65C221.592 400.841 221.381 400.991 221.15 401.09Z" fill="#263238"/>
<path d="M220.371 400.63C221.104 400.63 221.699 399.981 221.699 399.18C221.699 398.379 221.104 397.73 220.371 397.73C219.637 397.73 219.043 398.379 219.043 399.18C219.043 399.981 219.637 400.63 220.371 400.63Z" fill="#D1D5DB"/>
<path d="M415.845 427.94C415.677 426.463 415.37 425.009 414.929 423.6C414.439 422.127 413.696 420.769 412.74 419.6C412.219 418.914 411.566 418.362 410.828 417.983C410.089 417.604 409.283 417.408 408.467 417.408C407.651 417.408 406.845 417.604 406.106 417.983C405.368 418.362 404.715 418.914 404.194 419.6C403.233 420.767 402.486 422.125 401.996 423.6C401.537 425.006 401.215 426.461 401.034 427.94C401.022 427.834 401.022 427.726 401.034 427.62C401.042 427.319 401.067 427.018 401.107 426.72C401.234 425.622 401.47 424.542 401.812 423.5C402.291 421.984 403.042 420.587 404.02 419.39C404.559 418.67 405.239 418.09 406.009 417.692C406.778 417.294 407.62 417.087 408.472 417.087C409.324 417.087 410.165 417.294 410.935 417.692C411.705 418.09 412.384 418.67 412.923 419.39C413.877 420.596 414.608 421.991 415.076 423.5C415.416 424.542 415.649 425.622 415.772 426.72C415.818 427.11 415.836 427.42 415.845 427.62C415.857 427.726 415.857 427.834 415.845 427.94Z" fill="#263238"/>
<path d="M418.401 427.94C418.244 426.461 417.937 425.005 417.485 423.6C417.002 422.125 416.262 420.767 415.305 419.6C414.784 418.914 414.131 418.362 413.393 417.983C412.654 417.604 411.848 417.408 411.032 417.408C410.216 417.408 409.41 417.604 408.671 417.983C407.933 418.362 407.28 418.914 406.759 419.6C405.794 420.764 405.048 422.123 404.56 423.6C404.102 425.006 403.78 426.461 403.599 427.94C403.587 427.834 403.587 427.726 403.599 427.62C403.607 427.319 403.632 427.018 403.672 426.72C403.794 425.621 404.031 424.541 404.377 423.5C404.852 421.982 405.603 420.584 406.585 419.39C407.123 418.67 407.802 418.091 408.571 417.692C409.34 417.294 410.181 417.088 411.032 417.088C411.883 417.088 412.724 417.294 413.493 417.692C414.262 418.091 414.941 418.67 415.479 419.39C416.451 420.596 417.195 421.999 417.668 423.52C418.015 424.561 418.251 425.641 418.374 426.74C418.42 427.13 418.438 427.44 418.447 427.64C418.441 427.741 418.425 427.842 418.401 427.94Z" fill="#263238"/>
<path d="M392.378 426.06L421.332 425.84L421.955 465.05H389.474L392.378 426.06Z" fill="#D1D5DB"/>
<path d="M421.332 425.84H424.96L428.092 465.05H421.955L421.332 425.84Z" fill="#D1D5DB"/>
<g opacity="0.3">
<path d="M421.332 425.84H424.96L428.092 465.05H421.955L421.332 425.84Z" fill="black"/>
</g>
<path d="M416.386 439.16H397.434V443.12H416.386V439.16Z" fill="#D1D5DB"/>
<path d="M304.982 323.37L298.625 322.96C294.884 326.762 289.976 328.898 284.866 328.95C279.755 329.002 274.811 326.965 271.007 323.239C267.202 319.514 264.811 314.37 264.304 308.818C263.797 303.266 265.211 297.708 268.267 293.236C271.323 288.764 275.801 285.702 280.821 284.651C285.84 283.6 291.038 284.637 295.393 287.558C299.747 290.479 302.944 295.072 304.354 300.435C305.764 305.798 305.285 311.543 303.013 316.54L304.982 323.37Z" fill="#D1D5DB"/>
<path d="M304.982 323.37L304.863 322.94L304.506 321.63C304.176 320.47 303.7 318.75 303.068 316.52V316.42L303.013 316.49L303.095 316.56C304.623 313.236 305.366 309.547 305.257 305.83C305.228 304.671 305.112 303.518 304.909 302.38C304.689 301.162 304.383 299.965 303.993 298.8C302.166 293.372 298.477 288.932 293.706 286.42C290.948 284.941 287.918 284.163 284.845 284.146C281.772 284.129 278.735 284.872 275.963 286.32C272.956 287.852 270.343 290.174 268.36 293.08L267.6 294.2L266.95 295.38L266.629 295.97L266.354 296.59L265.823 297.82C265.658 298.24 265.53 298.67 265.383 299.09C265.229 299.507 265.101 299.934 264.999 300.37C264.763 301.228 264.586 302.104 264.467 302.99C263.945 306.309 264.121 309.715 264.981 312.949C265.841 316.183 267.363 319.162 269.432 321.66C271.293 323.892 273.545 325.695 276.055 326.96C278.328 328.104 280.775 328.782 283.273 328.96C284.41 329.055 285.552 329.055 286.69 328.96C287.746 328.816 288.795 328.609 289.831 328.34C293.12 327.402 296.142 325.583 298.625 323.05L303.37 323.32L304.579 323.38H304.982H304.561L303.333 323.29L298.625 322.96C296.144 325.463 293.131 327.254 289.859 328.17C288.836 328.437 287.799 328.638 286.754 328.77C285.625 328.86 284.493 328.86 283.364 328.77C280.891 328.587 278.469 327.909 276.22 326.77C272.164 324.751 268.832 321.327 266.741 317.029C264.651 312.73 263.919 307.799 264.66 303C264.784 302.129 264.958 301.267 265.182 300.42C265.287 299.989 265.415 299.564 265.567 299.15C265.713 298.74 265.841 298.31 265.997 297.9L266.528 296.68L266.803 296.07L267.124 295.49C267.335 295.1 267.545 294.71 267.765 294.32C267.985 293.93 268.251 293.59 268.498 293.22C270.463 290.352 273.046 288.057 276.018 286.54C278.841 285.066 281.94 284.33 285.068 284.39C288.013 284.459 290.909 285.22 293.56 286.62C298.282 289.102 301.939 293.486 303.764 298.85C304.155 300.005 304.461 301.192 304.68 302.4C304.884 303.528 305.006 304.671 305.046 305.82C305.16 309.511 304.44 313.175 302.949 316.49L302.775 316.86L303.031 316.55H302.939L304.423 321.61L304.817 322.92C304.927 323.22 304.982 323.37 304.982 323.37Z" fill="#263238"/>
<path d="M291.526 309.42H280.332C280.239 309.404 280.155 309.353 280.093 309.275C280.032 309.197 279.998 309.098 279.998 308.995C279.998 308.892 280.032 308.793 280.093 308.715C280.155 308.637 280.239 308.586 280.332 308.57H291.205L292.405 301.18H279.279C279.186 301.164 279.101 301.113 279.04 301.035C278.979 300.957 278.945 300.858 278.945 300.755C278.945 300.652 278.979 300.553 279.04 300.475C279.101 300.397 279.186 300.346 279.279 300.33H292.863C292.921 300.328 292.978 300.34 293.03 300.366C293.083 300.392 293.129 300.431 293.166 300.48C293.201 300.529 293.227 300.585 293.241 300.645C293.255 300.706 293.258 300.769 293.248 300.83L291.911 309.07C291.895 309.169 291.848 309.258 291.778 309.323C291.707 309.387 291.618 309.421 291.526 309.42Z" fill="#F97316"/>
<path d="M291.16 312.31H280.497C280.403 312.311 280.311 312.273 280.24 312.205C280.169 312.137 280.124 312.042 280.113 311.94L278.592 299H275.505C275.412 298.984 275.327 298.933 275.266 298.855C275.205 298.777 275.171 298.678 275.171 298.575C275.171 298.472 275.205 298.373 275.266 298.295C275.327 298.217 275.412 298.166 275.505 298.15H278.931C279.026 298.147 279.119 298.183 279.19 298.252C279.262 298.321 279.306 298.417 279.316 298.52L280.836 311.44H291.16C291.253 311.456 291.337 311.507 291.399 311.585C291.46 311.663 291.494 311.762 291.494 311.865C291.494 311.968 291.46 312.067 291.399 312.145C291.337 312.223 291.253 312.274 291.16 312.29V312.31Z" fill="#F97316"/>
<path d="M282.256 316.45C281.915 316.452 281.581 316.343 281.296 316.137C281.011 315.931 280.789 315.638 280.658 315.294C280.526 314.95 280.491 314.571 280.558 314.206C280.624 313.84 280.788 313.504 281.029 313.241C281.271 312.977 281.578 312.798 281.913 312.726C282.248 312.653 282.595 312.691 282.91 312.835C283.225 312.978 283.494 313.221 283.683 313.532C283.871 313.842 283.971 314.207 283.969 314.58C283.967 315.075 283.785 315.549 283.465 315.899C283.144 316.249 282.71 316.447 282.256 316.45ZM282.256 313.55C282.075 313.55 281.898 313.609 281.747 313.718C281.597 313.828 281.479 313.985 281.41 314.167C281.341 314.35 281.322 314.551 281.358 314.745C281.393 314.939 281.48 315.117 281.608 315.257C281.737 315.397 281.9 315.492 282.077 315.531C282.255 315.569 282.439 315.549 282.607 315.474C282.774 315.398 282.917 315.27 283.018 315.105C283.118 314.941 283.172 314.748 283.172 314.55C283.172 314.285 283.076 314.03 282.904 313.843C282.732 313.655 282.499 313.55 282.256 313.55Z" fill="#F97316"/>
<path d="M289.584 316.45C289.243 316.45 288.91 316.339 288.626 316.132C288.343 315.925 288.122 315.631 287.992 315.287C287.862 314.943 287.829 314.564 287.896 314.199C287.963 313.835 288.128 313.5 288.37 313.237C288.611 312.975 288.919 312.796 289.254 312.725C289.588 312.653 289.935 312.692 290.25 312.836C290.564 312.98 290.832 313.222 291.02 313.533C291.209 313.843 291.308 314.208 291.306 314.58C291.306 314.826 291.262 315.07 291.175 315.298C291.088 315.525 290.961 315.732 290.801 315.906C290.641 316.08 290.451 316.217 290.242 316.31C290.034 316.404 289.81 316.451 289.584 316.45ZM289.584 313.55C289.403 313.55 289.226 313.609 289.075 313.718C288.925 313.828 288.807 313.985 288.738 314.167C288.669 314.35 288.65 314.551 288.686 314.745C288.721 314.939 288.808 315.117 288.936 315.257C289.065 315.397 289.228 315.492 289.405 315.531C289.583 315.569 289.767 315.55 289.935 315.474C290.102 315.398 290.245 315.27 290.346 315.105C290.446 314.941 290.5 314.748 290.5 314.55C290.5 314.285 290.404 314.03 290.232 313.843C290.06 313.655 289.827 313.55 289.584 313.55Z" fill="#F97316"/>
<path d="M283.786 309.42C283.688 309.418 283.594 309.376 283.522 309.302C283.451 309.228 283.408 309.127 283.401 309.02L282.943 301.02C282.938 300.908 282.974 300.797 283.042 300.713C283.111 300.629 283.207 300.578 283.309 300.57C283.361 300.563 283.412 300.568 283.462 300.584C283.511 300.6 283.556 300.628 283.595 300.665C283.634 300.701 283.666 300.747 283.687 300.798C283.709 300.849 283.721 300.904 283.722 300.96L284.18 308.96C284.185 309.072 284.149 309.183 284.081 309.267C284.012 309.351 283.916 309.402 283.813 309.41L283.786 309.42Z" fill="#F97316"/>
<path d="M287.88 309.42C287.777 309.412 287.681 309.361 287.613 309.277C287.544 309.192 287.509 309.082 287.514 308.97L287.926 300.97C287.927 300.915 287.939 300.86 287.96 300.81C287.981 300.76 288.012 300.715 288.049 300.679C288.087 300.642 288.132 300.614 288.18 300.597C288.228 300.58 288.279 300.574 288.329 300.58C288.38 300.581 288.43 300.594 288.477 300.617C288.523 300.64 288.565 300.673 288.599 300.714C288.633 300.755 288.659 300.804 288.676 300.856C288.693 300.909 288.699 300.964 288.696 301.02L288.293 309.02C288.285 309.132 288.238 309.237 288.161 309.312C288.084 309.387 287.983 309.425 287.88 309.42Z" fill="#F97316"/>
<path d="M279.691 305.43C279.598 305.414 279.514 305.363 279.452 305.285C279.391 305.207 279.357 305.108 279.357 305.005C279.357 304.902 279.391 304.803 279.452 304.725C279.514 304.647 279.598 304.596 279.691 304.58L292.195 304.45C292.288 304.466 292.373 304.517 292.434 304.595C292.495 304.673 292.529 304.772 292.529 304.875C292.529 304.978 292.495 305.077 292.434 305.155C292.373 305.233 292.288 305.284 292.195 305.3L279.691 305.43Z" fill="#F97316"/>
<path d="M140.835 229.253L134.478 228.853C130.72 232.649 125.797 234.773 120.677 234.808C115.557 234.842 110.611 232.785 106.81 229.041C103.009 225.296 100.628 220.135 100.136 214.572C99.6432 209.008 101.075 203.445 104.149 198.975C107.222 194.505 111.717 191.452 116.748 190.416C121.779 189.38 126.983 190.436 131.337 193.375C135.692 196.315 138.881 200.927 140.28 206.304C141.678 211.681 141.183 217.434 138.893 222.433L140.835 229.253Z" fill="#D1D5DB"/>
<path d="M140.835 229.253L140.716 228.823L140.359 227.523C140.029 226.353 139.552 224.633 138.93 222.403V222.303L138.865 222.383L138.957 222.443C140.48 219.121 141.223 215.437 141.119 211.723C141.087 210.564 140.968 209.41 140.762 208.273C140.528 207.049 140.21 205.845 139.809 204.673C138.954 202.105 137.671 199.732 136.026 197.673C134.136 195.323 131.818 193.427 129.221 192.107C126.624 190.787 123.804 190.07 120.939 190.003C117.698 189.944 114.489 190.721 111.575 192.271C108.66 193.821 106.122 196.1 104.167 198.923C103.92 199.293 103.664 199.663 103.425 200.043C103.187 200.423 102.986 200.823 102.775 201.223L102.445 201.813L102.18 202.423C101.996 202.833 101.822 203.253 101.639 203.663C101.456 204.073 101.346 204.503 101.199 204.933C101.048 205.351 100.92 205.779 100.815 206.213C100.588 207.07 100.41 207.942 100.283 208.823C99.7688 212.15 99.9567 215.561 100.833 218.797C101.709 222.032 103.251 225.007 105.34 227.493C107.2 229.726 109.452 231.528 111.962 232.793C114.236 233.938 116.682 234.616 119.181 234.793C120.319 234.872 121.461 234.855 122.597 234.743C123.653 234.61 124.699 234.403 125.73 234.123C129.021 233.191 132.044 231.372 134.524 228.833L139.268 229.103L140.478 229.173H140.881H140.459L139.241 229.083L134.533 228.743C132.054 231.243 129.045 233.03 125.776 233.943C124.749 234.211 123.71 234.411 122.661 234.543C121.533 234.639 120.4 234.639 119.272 234.543C115.178 234.225 111.266 232.567 108.047 229.786C104.828 227.005 102.452 223.23 101.227 218.953C100.315 215.665 100.102 212.194 100.604 208.803C100.732 207.932 100.91 207.07 101.135 206.223C101.237 205.794 101.366 205.373 101.52 204.963C101.658 204.543 101.786 204.113 101.951 203.703C102.115 203.293 102.299 202.893 102.482 202.483L102.748 201.873L103.068 201.293L103.709 200.133C103.948 199.753 104.204 199.393 104.451 199.023C106.413 196.155 108.993 193.861 111.962 192.343C114.704 190.919 117.705 190.186 120.742 190.2C123.778 190.214 126.773 190.974 129.504 192.423C134.22 194.947 137.85 199.377 139.626 204.773C140.007 205.928 140.313 207.111 140.542 208.313C140.738 209.442 140.858 210.585 140.899 211.733C141.019 215.424 140.298 219.091 138.801 222.403L138.636 222.783L138.893 222.463H138.801C139.443 224.673 139.946 226.373 140.285 227.523C140.45 228.103 140.578 228.523 140.67 228.833L140.835 229.253Z" fill="#263238"/>
<path d="M128.295 209.413C128.078 208.365 127.581 207.411 126.866 206.673C126.181 205.911 125.293 205.403 124.329 205.223C123.508 205.089 122.67 205.254 121.943 205.691C121.216 206.128 120.642 206.814 120.307 207.643C119.993 207.137 119.58 206.714 119.098 206.403C118.651 206.12 118.156 205.938 117.643 205.868C117.13 205.797 116.61 205.84 116.112 205.993C115.178 206.319 114.361 206.955 113.776 207.813C113.144 208.669 112.77 209.716 112.704 210.813C112.652 212.182 112.998 213.533 113.694 214.673C114.503 215.837 115.555 216.772 116.762 217.403C118.723 218.503 121.342 219.873 121.342 219.873C121.342 219.873 123.321 217.993 125.153 216.613C126.288 215.812 127.23 214.725 127.901 213.443C128.427 212.182 128.566 210.768 128.295 209.413Z" fill="#F97316"/>
<path d="M338.929 451.74L354.135 460.61C354.135 460.61 349.61 481.83 352.376 484.1L372.024 452L369.862 450.46L361.692 446.46L346.202 438.09L338.929 451.74Z" fill="#D1D5DB"/>
<path d="M357.808 449.32C358.088 449.068 358.443 448.937 358.806 448.952C359.169 448.966 359.515 449.126 359.777 449.4C360.02 449.697 360.15 450.086 360.138 450.484C360.126 450.883 359.974 451.261 359.713 451.54C359.416 451.806 359.039 451.943 358.656 451.925C358.272 451.907 357.908 451.734 357.634 451.44C357.408 451.104 357.311 450.685 357.364 450.272C357.417 449.859 357.616 449.485 357.917 449.23" fill="#1F2937"/>
<path d="M372.024 452L369.862 450.46L351.634 481.7C351.634 481.7 351.332 483.59 352.376 484.1L372.024 452Z" fill="#263238"/>
<path d="M353.704 461C353.851 461.1 354.409 460.34 355.362 459.89C356.315 459.44 357.194 459.47 357.194 459.28C357.194 459.09 356.232 458.71 355.087 459.28C353.942 459.85 353.502 461 353.704 461Z" fill="#263238"/>
<path d="M352.88 465.43C352.999 465.57 353.667 465.05 354.62 464.96C355.573 464.87 356.333 465.18 356.452 465.01C356.571 464.84 355.774 464.14 354.62 464.29C353.466 464.44 352.788 465.33 352.88 465.43Z" fill="#263238"/>
<path d="M355.481 470.13C355.6 470 354.996 469.25 353.942 469.08C352.889 468.91 352.11 469.43 352.183 469.59C352.257 469.75 352.98 469.59 353.851 469.74C354.721 469.89 355.362 470.28 355.481 470.13Z" fill="#263238"/>
<path d="M349.527 459.68C349.701 459.68 349.948 458.82 350.553 457.95C351.158 457.08 351.854 456.57 351.78 456.39C351.707 456.21 350.764 456.52 350.058 457.55C349.353 458.58 349.362 459.67 349.527 459.68Z" fill="#263238"/>
<path d="M315.461 433.2L296.491 445.84L278.839 451.12C277.007 451.56 276.091 452.49 276.091 453.72C276.131 454.229 276.326 454.708 276.645 455.082C276.963 455.455 277.388 455.701 277.85 455.78L304.24 461.27C304.475 461.319 304.719 461.265 304.918 461.12C307.62 459.21 322.129 449.57 322.129 449.57L315.461 433.2Z" fill="#D1D5DB"/>
<path d="M304.799 443.87C305.004 443.657 305.247 443.494 305.513 443.39C306.215 443.035 306.975 442.838 307.748 442.81C308.314 442.736 308.887 442.866 309.379 443.18C309.531 443.301 309.646 443.471 309.706 443.666C309.767 443.862 309.771 444.072 309.718 444.27C309.591 444.643 309.348 444.955 309.031 445.15C308.362 445.513 307.598 445.611 306.87 445.429C306.142 445.246 305.494 444.795 305.037 444.15C304.602 443.495 304.356 442.713 304.329 441.904C304.303 441.096 304.499 440.297 304.89 439.61C304.99 439.436 305.124 439.289 305.283 439.178C305.441 439.067 305.62 438.996 305.806 438.97C305.999 438.954 306.192 439.006 306.357 439.117C306.521 439.229 306.649 439.394 306.722 439.59C306.893 440.172 306.921 440.792 306.805 441.39C306.686 442.223 306.439 443.028 306.072 443.77C305.957 444.052 305.789 444.305 305.577 444.51C306.023 443.512 306.332 442.447 306.493 441.35C306.58 440.826 306.545 440.286 306.393 439.78C306.358 439.674 306.293 439.583 306.207 439.52C306.121 439.457 306.019 439.425 305.916 439.43C305.798 439.463 305.686 439.522 305.589 439.602C305.491 439.683 305.409 439.784 305.348 439.9C305.029 440.504 304.875 441.195 304.904 441.891C304.934 442.588 305.145 443.261 305.513 443.83C305.899 444.377 306.442 444.767 307.055 444.936C307.669 445.104 308.316 445.043 308.893 444.76C309.122 444.632 309.3 444.419 309.397 444.16C309.431 444.053 309.432 443.937 309.4 443.829C309.369 443.721 309.307 443.627 309.223 443.56C308.808 443.296 308.328 443.177 307.849 443.22C306.805 443.238 305.772 443.458 304.799 443.87Z" fill="#263238"/>
<path d="M276.101 453.72L306.072 460.32L305.01 461.01C304.508 461.335 303.914 461.446 303.342 461.32L277.465 455.7C277.159 455.634 276.877 455.471 276.656 455.23C276.434 454.99 276.282 454.684 276.22 454.35L276.101 453.72Z" fill="#263238"/>
<path d="M297.746 449.82C297.599 449.82 297.489 448.88 297.068 447.82C296.646 446.76 296.152 446.01 296.225 445.9C296.298 445.79 297.059 446.45 297.507 447.61C297.679 447.943 297.788 448.31 297.829 448.689C297.87 449.068 297.842 449.453 297.746 449.82Z" fill="#263238"/>
<path d="M293.248 451C293.129 451 293.074 450.11 292.689 449.09C292.305 448.07 291.847 447.38 291.92 447.28C291.993 447.18 292.763 447.78 293.138 448.91C293.514 450.04 293.422 451 293.248 451Z" fill="#263238"/>
<path d="M289.447 452.12C289.309 452.12 289.263 451.21 288.943 450.2C288.622 449.19 288.182 448.43 288.292 448.33C288.402 448.23 289.053 448.9 289.401 450.03C289.749 451.16 289.584 452.13 289.447 452.12Z" fill="#263238"/>
<path d="M299.981 445.51C299.981 445.51 300.164 445.24 300.649 444.98C301.343 444.609 302.135 444.517 302.884 444.72H303.022V444.88C302.96 445.171 302.813 445.432 302.603 445.623C302.393 445.815 302.132 445.926 301.859 445.94C301.346 446.02 300.823 446.04 300.265 446.09C299.972 446.09 299.706 446.15 299.349 446.09C299.171 446.094 298.994 446.059 298.829 445.987C298.664 445.914 298.513 445.807 298.387 445.67C298.167 445.38 298.013 445.037 297.938 444.67C297.652 443.634 297.559 442.546 297.663 441.47C297.688 441.109 297.756 440.752 297.865 440.41C297.94 440.214 298.068 440.047 298.231 439.93C298.319 439.871 298.418 439.833 298.521 439.82C298.624 439.806 298.728 439.816 298.827 439.85C298.99 439.912 299.138 440.015 299.259 440.151C299.38 440.286 299.47 440.45 299.523 440.63C299.622 440.911 299.692 441.203 299.733 441.5C299.822 442.024 299.843 442.559 299.798 443.09C299.738 443.857 299.542 444.605 299.22 445.29C299.116 445.549 298.964 445.781 298.772 445.97C299.155 445.055 299.388 444.073 299.459 443.07C299.479 442.57 299.442 442.07 299.349 441.58C299.239 441.08 299.11 440.41 298.707 440.31C298.304 440.21 298.167 440.85 298.13 441.52C298.077 442.187 298.098 442.859 298.195 443.52C298.247 444.148 298.432 444.754 298.735 445.29C299.019 445.67 299.651 445.56 300.201 445.54C300.75 445.52 301.281 445.54 301.758 445.44C302.234 445.34 302.591 445.12 302.674 444.77L302.802 444.97C302.12 444.767 301.397 444.799 300.732 445.06C300.246 445.36 300.008 445.54 299.981 445.51Z" fill="#263238"/>
<path d="M305.559 451.18C305.474 450.932 305.316 450.721 305.11 450.58C305.007 450.509 304.888 450.471 304.767 450.471C304.645 450.471 304.526 450.509 304.423 450.58H304.332C304.128 450.677 303.951 450.829 303.817 451.022C303.682 451.214 303.595 451.441 303.562 451.68C303.533 451.919 303.567 452.163 303.659 452.382C303.752 452.602 303.899 452.788 304.084 452.92C304.273 453.044 304.491 453.103 304.711 453.086C304.931 453.07 305.14 452.981 305.312 452.83C305.505 452.617 305.633 452.344 305.677 452.048C305.721 451.752 305.68 451.449 305.559 451.18Z" fill="#D1D5DB"/>
<path d="M335.915 415.22C335.915 415.22 290.94 385.89 280.103 399.8C269.267 413.71 288.347 428.65 292.085 431.47C295.822 434.29 338.196 454 338.196 454L345.991 437.73L335.915 415.22Z" fill="#263238"/>
<path d="M301.034 439.23C301.034 439.23 356.589 406.61 362.69 403.4C367.929 400.64 382.668 391.97 387.422 409.12C392.176 426.27 363.606 447.43 363.606 447.43L351.771 440.71L335.421 449.15L315.021 459.84L301.034 439.23Z" fill="#263238"/>
<path d="M346.147 458.47C345.616 458.12 324.016 446.88 324.016 446.88L346.642 436.39L359.466 444.72L346.147 458.47Z" fill="#263238"/>
<path d="M366.336 433.2L366.098 433.35L365.365 433.75L362.516 435.26L351.872 440.86L315.159 459.91L314.985 459.99L314.875 459.83L303.251 442.83L300.869 439.35L300.704 439.11L300.952 438.97C318.63 428.46 334.523 419.11 346.156 412.74C351.964 409.54 356.69 407.03 359.97 405.36C361.609 404.51 362.892 403.89 363.762 403.45L364.696 403L365.035 402.86L364.714 403.05L363.743 403.58L359.997 405.58C356.736 407.3 352.037 409.85 346.257 413.1C334.67 419.55 318.777 428.95 301.135 439.47L301.208 439.08C301.959 440.19 302.775 441.37 303.59 442.56L315.195 459.56L314.911 459.48L351.698 440.6L362.434 435.14L365.31 433.7L366.061 433.33L366.336 433.2Z" fill="#D1D5DB"/>
<path d="M301.391 405.43C301.816 405.53 302.233 405.667 302.637 405.84C303.434 406.11 304.552 406.59 305.944 407.2C308.692 408.46 312.429 410.38 316.441 412.75C320.453 415.12 323.998 417.4 326.517 419.12C327.781 419.98 328.798 420.7 329.485 421.21C329.861 421.451 330.214 421.733 330.538 422.05C330.141 421.861 329.758 421.637 329.393 421.38L326.343 419.44C323.769 417.8 320.206 415.56 316.203 413.2C312.2 410.84 308.509 408.88 305.797 407.54C304.432 406.89 303.333 406.36 302.555 406.03C302.149 405.874 301.759 405.673 301.391 405.43Z" fill="#D1D5DB"/>
<path d="M346.147 458.47C346.343 458.157 346.573 457.871 346.834 457.62L348.84 455.44C350.544 453.63 352.916 451.14 355.563 448.44C356.91 447.08 358.183 445.77 359.347 444.58V444.96C357.331 443.63 355.628 442.49 354.437 441.67C353.791 441.271 353.178 440.813 352.605 440.3C353.295 440.612 353.96 440.987 354.592 441.42C355.82 442.17 357.56 443.25 359.585 444.55L359.841 444.71L359.621 444.93L355.866 448.82C353.218 451.55 350.809 453.99 349.042 455.74L346.935 457.8C346.692 458.05 346.428 458.274 346.147 458.47Z" fill="#D1D5DB"/>
<path d="M343.5 335.67C343.958 335.67 359.924 336.55 362.956 340.27C365.988 343.99 372.748 400.43 372.748 400.43C369.267 400.92 365.273 402.86 363.121 403.87L336.172 418.59L322.432 409.15C322.063 408.896 321.75 408.556 321.516 408.154C321.282 407.753 321.132 407.299 321.078 406.827C321.023 406.354 321.066 405.874 321.202 405.422C321.338 404.969 321.564 404.556 321.864 404.21L309.736 341.81C312.018 339.881 314.608 338.433 317.376 337.54C322.084 336 343.5 335.67 343.5 335.67Z" fill="#F97316"/>
<path d="M314.939 339.6C314.939 339.6 310.075 340.45 308.069 343.6C303.361 350.9 288.686 376.97 286.085 383.28C283.337 389.96 284.967 394.61 287.23 396.99C290.528 400.46 298.955 400.84 303.8 395.81C305.88 393.65 317.339 383.55 317.339 383.55L314.939 339.6Z" fill="#F97316"/>
<path d="M308.948 349.24C308.988 349.427 309.04 349.611 309.104 349.79L309.608 351.32C310.029 352.65 310.606 354.6 311.257 357.02C312.566 361.87 314.124 368.64 315.763 376.14C317.403 383.64 318.814 390.43 319.867 395.38C320.398 397.85 320.838 399.83 321.159 401.2C321.314 401.86 321.442 402.39 321.543 402.78C321.571 402.967 321.624 403.149 321.699 403.32C321.699 403.32 321.699 403.13 321.607 402.76C321.516 402.39 321.415 401.84 321.287 401.17C320.994 399.75 320.591 397.77 320.096 395.33C319.098 390.39 317.724 383.57 316.093 376.06C314.463 368.55 312.85 361.78 311.513 356.95C310.835 354.53 310.212 352.59 309.754 351.27C309.525 350.64 309.333 350.13 309.196 349.76C309.129 349.578 309.046 349.404 308.948 349.24Z" fill="#263238"/>
<path d="M356.992 337.51C356.992 337.51 360.812 337.44 365.236 341.97C367.068 343.85 388.136 377.8 390.06 387.18C391.187 392.62 385.196 403.35 379.407 402.45C371.832 401.26 343.903 387.45 343.903 387.45L351.121 372.65L367.114 376.49L356.058 362.87L355.802 337.75" fill="#F97316"/>
<path d="M292.085 380.46C292.192 380.417 292.293 380.36 292.387 380.29L293.211 379.74L296.188 377.68C298.698 375.92 302.161 373.47 305.962 370.74L308.509 368.91L308.28 368.86C310.432 372.32 312.337 375.34 313.776 377.47C314.472 378.652 315.256 379.769 316.121 380.81L313.95 377.34C312.576 375.12 310.707 372.1 308.591 368.66L308.499 368.51L308.362 368.61L305.816 370.43C302.005 373.16 298.57 375.64 296.097 377.43L293.175 379.59L292.387 380.2C292.279 380.276 292.178 380.363 292.085 380.46Z" fill="#263238"/>
<path d="M338.196 366.45L350.672 373.53L344.92 385.33L337.216 379.05L338.196 366.45Z" fill="#FFBF9D"/>
<path d="M326.032 366.87L317.788 360C317.502 359.753 317.144 359.625 316.78 359.64L305.513 359.97C305.294 359.975 305.084 360.073 304.929 360.242C304.774 360.412 304.684 360.64 304.68 360.88C304.653 361.121 304.675 361.364 304.744 361.594C304.814 361.824 304.93 362.035 305.083 362.21L322.542 377.21L336.227 375.72L326.032 366.87Z" fill="#1F2937"/>
<path d="M338.196 366.45C338.196 366.45 333.772 362.45 332.7 362.14C331.628 361.83 326.737 361.58 326.737 361.58L322.487 363.88L324.933 365.93C325.791 365.886 326.611 365.534 327.268 364.93L330.099 365.32L338.196 366.45Z" fill="#FFBF9D"/>
<path d="M333.085 364.5L325.629 366.77L315.031 367.77C314.98 368.408 315.155 369.043 315.519 369.545C315.884 370.047 316.41 370.378 316.991 370.47C318.246 370.7 320.453 371.01 320.453 371.01C320.573 371.606 320.82 372.162 321.173 372.635C321.526 373.107 321.976 373.482 322.487 373.73C322.824 374.556 323.329 375.287 323.962 375.87C324.058 375.94 324.163 375.998 324.273 376.04C325.262 376.42 327.122 379.54 328.441 380.04C329.76 380.54 337.216 379.11 337.216 379.11L338.196 366.51L333.085 364.5Z" fill="#FFBF9D"/>
<path d="M330.584 370.88C330.584 370.88 329.998 370.97 329.054 371.12C327.84 371.3 326.616 371.397 325.39 371.41C324.15 371.417 322.911 371.337 321.681 371.17C320.765 371.03 320.16 370.9 320.151 370.94C320.281 370.997 320.416 371.04 320.554 371.07C320.81 371.15 321.195 371.23 321.662 371.32C324.13 371.75 326.646 371.733 329.109 371.27C329.483 371.204 329.852 371.117 330.218 371.01C330.343 370.98 330.466 370.936 330.584 370.88Z" fill="#FF9A6C"/>
<path d="M328.972 374.06C328.929 374.34 328.941 374.626 329.008 374.9C329.074 375.174 329.193 375.43 329.357 375.65C329.476 375.781 329.619 375.884 329.777 375.953C329.934 376.022 330.103 376.055 330.273 376.05C330.605 376.042 330.932 375.961 331.235 375.81C331.509 375.68 331.738 375.54 331.94 375.44C332.325 375.22 332.59 375.14 332.581 375.11C332.335 375.108 332.093 375.173 331.876 375.3C331.377 375.585 330.833 375.765 330.273 375.83C329.978 375.838 329.692 375.72 329.476 375.5C329.308 375.306 329.189 375.068 329.128 374.81C329.088 374.557 329.036 374.307 328.972 374.06Z" fill="#FF9A6C"/>
<path d="M323.558 374.5C323.811 374.62 324.075 374.711 324.346 374.77C324.99 374.937 325.641 375.067 326.297 375.16C326.957 375.25 327.62 375.301 328.285 375.31C328.56 375.338 328.838 375.321 329.109 375.26C329.109 375.2 327.854 375.15 326.361 374.94C324.868 374.73 323.568 374.43 323.558 374.5Z" fill="#FF9A6C"/>
<path d="M328.917 378.16C329.234 378.508 329.645 378.735 330.089 378.81C330.523 378.956 330.99 378.931 331.409 378.74C331.409 378.68 330.822 378.74 330.135 378.6C329.448 378.46 328.972 378.1 328.917 378.16Z" fill="#FF9A6C"/>
<path d="M326.297 377.85C326.297 377.91 326.627 378.03 327.067 378.12C327.329 378.216 327.61 378.236 327.882 378.18C327.647 378.029 327.384 377.936 327.113 377.91C326.849 377.82 326.57 377.799 326.297 377.85Z" fill="#FF9A6C"/>
<path d="M325.629 366.77C326.814 366.552 327.979 366.217 329.109 365.77C330.025 365.44 330.941 365.11 331.528 364.86C331.867 364.742 332.193 364.581 332.499 364.38C332.152 364.46 331.812 364.57 331.482 364.71L329.054 365.56L326.627 366.43C326.289 366.524 325.956 366.637 325.629 366.77Z" fill="#FF9A6C"/>
<path d="M314.746 369C314.746 369 315.58 368.74 314.746 367.29C313.913 365.84 311.412 367.38 311.412 367.38L308.188 369.21C308.188 369.21 307.391 370.94 308.234 371.46L308.829 372.37C308.829 372.37 307.538 373.64 307.968 374.85C308.101 375.2 308.33 375.495 308.624 375.696C308.918 375.897 309.262 375.993 309.608 375.97C309.608 375.97 309.342 378.35 310.002 379.32C310.308 379.837 310.772 380.22 311.311 380.4C311.507 381.046 311.841 381.631 312.286 382.107C312.73 382.584 313.272 382.938 313.867 383.14C315.937 383.86 317.027 383.97 317.65 383.04C318.072 382.38 318.423 381.668 318.694 380.92C318.694 380.92 323.329 378.62 323.494 377.33C323.659 376.04 323.494 375.89 323.494 375.89C323.608 375.591 323.667 375.269 323.667 374.945C323.667 374.621 323.608 374.299 323.494 374C323.082 373.18 321.268 373.76 321.268 373.76L315.452 374.87C315.452 374.87 320.169 372.8 320.755 372.07C321.342 371.34 320.81 370.35 318.923 370.47C317.036 370.59 311.44 371.38 311.44 371.38C311.597 371.067 311.836 370.813 312.127 370.65C312.511 370.5 313.702 369.84 313.702 369.84L314.746 369Z" fill="#FFBF9D"/>
<path d="M312.878 378.38C312.878 378.44 315.25 377.94 318.145 377.26C321.039 376.58 323.384 375.99 323.375 375.93C323.366 375.87 321.003 376.37 318.108 377.05C315.214 377.73 312.859 378.32 312.878 378.38Z" fill="#FF9A6C"/>
<path d="M315.424 382C316.003 381.948 316.575 381.824 317.128 381.63C317.595 381.49 318.044 381.35 318.301 381.23C318.417 381.178 318.53 381.118 318.639 381.05C318.675 381.031 318.706 381.004 318.731 380.97C318.731 380.91 318.731 380.97 318.731 380.97C318.731 381.03 318.007 381.19 317.091 381.46C316.52 381.575 315.961 381.756 315.424 382Z" fill="#FF9A6C"/>
<path d="M310.835 375.48C311.688 375.44 312.538 375.349 313.382 375.21C314.783 375.04 315.919 374.96 315.919 374.89C315.063 374.83 314.204 374.863 313.354 374.99C312.501 375.057 311.657 375.221 310.835 375.48Z" fill="#FF9A6C"/>
<path d="M309.608 372.16C309.608 372.16 310.121 371.89 310.762 371.68C311.403 371.47 311.962 371.45 311.962 371.39C311.546 371.274 311.107 371.302 310.707 371.47C310.287 371.578 309.904 371.818 309.608 372.16Z" fill="#FF9A6C"/>
<path d="M305.156 361.06H305.367H305.971L308.188 360.9C310.02 360.79 312.64 360.71 315.516 360.82C316.197 360.76 316.881 360.891 317.504 361.2C317.775 361.396 318.035 361.609 318.282 361.84L319.024 362.49C319.986 363.33 320.856 364.08 321.598 364.73L323.348 366.22L323.833 366.62C323.943 366.71 323.998 366.75 324.007 366.74C323.959 366.682 323.907 366.629 323.852 366.58L323.394 366.15L321.69 364.61L319.143 362.33L318.401 361.68C318.153 361.436 317.886 361.216 317.604 361.02C317.296 360.816 316.948 360.693 316.588 360.66C316.24 360.66 315.882 360.61 315.525 360.6C313.082 360.508 310.636 360.558 308.197 360.75C307.281 360.83 306.503 360.91 305.98 360.97L305.385 361.06H305.156Z" fill="#263238"/>
<path d="M312.127 362.6C312.193 362.512 312.281 362.447 312.38 362.412C312.479 362.376 312.585 362.372 312.686 362.4H312.777C312.944 362.446 313.092 362.552 313.198 362.7C313.267 362.79 313.305 362.903 313.305 363.02C313.305 363.137 313.267 363.25 313.198 363.34C313.11 363.426 312.997 363.476 312.878 363.48C312.763 363.498 312.645 363.488 312.534 363.449C312.423 363.411 312.322 363.347 312.237 363.26C312.158 363.176 312.105 363.067 312.085 362.949C312.066 362.831 312.08 362.709 312.127 362.6Z" fill="#D1D5DB"/>
<path d="M365.456 397.64C365.328 397.554 365.193 397.48 365.053 397.42L363.872 396.83L359.401 394.67L343.93 387.32L344.013 387.57C345.487 384.57 347.1 381.24 348.776 377.82L351.231 372.77L351.048 372.86L366.748 376.49C369.584 377.556 372.269 379.051 374.726 380.93C375.596 381.6 376.256 382.17 376.696 382.55L377.19 382.99C377.309 383.09 377.364 383.14 377.373 383.13L377.218 382.96L376.741 382.49C376.32 382.08 375.679 381.49 374.809 380.8C372.369 378.861 369.685 377.318 366.839 376.22L351.157 372.52H351.038L350.974 372.64L348.51 377.64L343.765 387.39L343.683 387.56L343.839 387.64L359.365 394.86L363.862 396.92L365.071 397.46L365.456 397.64Z" fill="#263238"/>
<path d="M357.67 365.27C358.026 365.912 358.431 366.521 358.879 367.09C359.667 368.18 360.766 369.67 362.03 371.28C363.294 372.89 364.458 374.33 365.355 375.28C365.703 375.679 366.076 376.05 366.473 376.39C366.629 376.5 366.729 376.61 366.876 376.58C366.896 376.567 366.912 376.548 366.92 376.524C366.928 376.5 366.929 376.474 366.922 376.45C366.922 376.45 366.922 376.54 366.922 376.55C366.806 376.5 366.703 376.421 366.62 376.32C366.363 376.06 366.015 375.65 365.584 375.14C364.742 374.14 363.606 372.66 362.351 371.05L359.127 366.92C358.685 366.325 358.198 365.773 357.67 365.27Z" fill="#263238"/>
<path d="M354.968 358.13C355.032 358.13 354.895 357.02 354.968 355.23C355.024 354.186 355.159 353.149 355.371 352.13C355.911 349.632 356.901 347.276 358.284 345.2C358.835 344.354 359.448 343.558 360.116 342.82C361.288 341.56 362.14 340.95 362.104 340.89C361.885 340.996 361.679 341.13 361.49 341.29C361.251 341.458 361.022 341.642 360.803 341.84C360.556 342.07 360.244 342.31 359.951 342.63C359.237 343.355 358.584 344.148 358 345C357.288 346.05 356.674 347.176 356.168 348.36C355.689 349.552 355.314 350.791 355.05 352.06C354.848 353.1 354.734 354.157 354.712 355.22C354.693 355.626 354.693 356.034 354.712 356.44C354.72 356.748 354.748 357.056 354.794 357.36C354.815 357.625 354.874 357.885 354.968 358.13Z" fill="#263238"/>
<path d="M335.65 409.74C335.65 409.68 334.834 409.74 333.534 409.6C331.84 409.436 330.172 409.04 328.569 408.42C326.969 407.787 325.451 406.93 324.053 405.87C322.972 405.06 322.368 404.46 322.331 404.51C322.294 404.56 322.45 404.69 322.716 404.98C323.092 405.372 323.49 405.739 323.907 406.08C325.302 407.218 326.846 408.122 328.487 408.76C330.116 409.397 331.823 409.768 333.552 409.86C334.074 409.894 334.597 409.894 335.118 409.86C335.457 409.8 335.659 409.77 335.65 409.74Z" fill="#263238"/>
<path d="M326.884 393.54C326.996 393.766 327.131 393.977 327.287 394.17C327.561 394.56 327.964 395.11 328.487 395.79C329.531 397.14 331.024 398.95 332.755 400.86C334.486 402.77 336.153 404.41 337.381 405.55C337.995 406.12 338.498 406.55 338.856 406.88C339.03 407.053 339.224 407.201 339.433 407.32C339.433 407.32 339.268 407.1 338.938 406.77L337.537 405.36C336.355 404.17 334.734 402.5 332.957 400.6C331.18 398.7 329.705 396.92 328.624 395.6L327.342 394.05C327.076 393.71 326.902 393.52 326.884 393.54Z" fill="#263238"/>
<path d="M341.64 319.19C342.322 315.61 342.724 311.974 342.84 308.32C342.948 304.647 342.221 301.002 340.724 297.71C340.486 297.23 338.563 293.99 338.068 294.12C337.711 294.21 339.03 297.3 338.892 297.66C337.675 301.229 337.477 305.116 338.324 308.81C339.071 312.395 340.183 315.876 341.64 319.19Z" fill="#263238"/>
<path d="M325.51 342C325.171 339.44 324.896 337.43 324.878 337.43C324.859 337.43 316.725 337.73 315.122 329.11C314.344 324.95 313.391 316.22 312.603 308.32C312.201 304.225 313.225 300.116 315.473 296.808C317.72 293.501 321.025 291.238 324.731 290.47L325.491 290.31C333.818 289.12 339.396 296.18 340.248 305.31L344.178 337.11L342.767 340C341.947 341.631 340.777 343.022 339.358 344.053C337.939 345.084 336.312 345.725 334.617 345.922C332.922 346.118 331.208 345.864 329.622 345.181C328.037 344.498 326.625 343.407 325.51 342Z" fill="#FFBF9D"/>
<path d="M324.877 337.45C328.53 336.684 331.906 334.793 334.605 332C334.605 332 333.186 338.81 325.152 339.67L324.877 337.45Z" fill="#FF9A6C"/>
<path d="M316.688 316.75C316.746 317.069 316.915 317.351 317.159 317.538C317.403 317.724 317.704 317.8 317.998 317.75C318.145 317.733 318.287 317.684 318.415 317.605C318.544 317.527 318.657 317.421 318.748 317.295C318.838 317.168 318.905 317.022 318.943 316.867C318.981 316.711 318.99 316.549 318.969 316.39C318.913 316.07 318.745 315.786 318.501 315.599C318.256 315.412 317.954 315.337 317.659 315.39C317.513 315.407 317.371 315.456 317.242 315.535C317.114 315.613 317.001 315.719 316.91 315.845C316.819 315.972 316.753 316.118 316.715 316.273C316.677 316.429 316.668 316.591 316.688 316.75Z" fill="#263238"/>
<path d="M314.92 311.58C315.095 311.71 315.836 310.84 317.046 310.58C318.255 310.32 319.271 310.8 319.372 310.58C319.473 310.36 319.235 310.24 318.786 310.01C318.191 309.72 317.528 309.64 316.89 309.78C316.256 309.909 315.677 310.26 315.241 310.78C314.92 311.21 314.838 311.52 314.92 311.58Z" fill="#263238"/>
<path d="M327.314 315C327.372 315.319 327.541 315.601 327.785 315.788C328.029 315.974 328.329 316.05 328.624 316C328.77 315.982 328.911 315.932 329.039 315.853C329.167 315.774 329.28 315.669 329.37 315.542C329.46 315.415 329.527 315.27 329.565 315.116C329.604 314.961 329.614 314.799 329.595 314.64C329.535 314.322 329.366 314.042 329.122 313.856C328.878 313.67 328.579 313.593 328.285 313.64C328.139 313.659 327.998 313.709 327.87 313.787C327.741 313.866 327.629 313.972 327.539 314.098C327.448 314.225 327.382 314.37 327.343 314.524C327.305 314.679 327.295 314.841 327.314 315Z" fill="#263238"/>
<path d="M326.929 309.64C327.103 309.78 327.845 308.91 329.054 308.64C330.264 308.37 331.28 308.87 331.381 308.64C331.482 308.41 331.244 308.29 330.795 308.06C330.2 307.77 329.537 307.69 328.899 307.83C328.264 307.959 327.686 308.31 327.25 308.83C326.929 309.27 326.847 309.59 326.929 309.64Z" fill="#263238"/>
<path d="M324.392 320.76C323.714 320.66 323.027 320.66 322.349 320.76C322.038 320.76 321.726 320.76 321.635 320.56C321.536 320.218 321.536 319.852 321.635 319.51C321.781 318.63 321.937 317.71 322.102 316.74C322.585 314.374 322.891 311.97 323.018 309.55C322.375 311.868 321.903 314.239 321.607 316.64C321.461 317.64 321.314 318.54 321.177 319.42C321.052 319.872 321.078 320.357 321.25 320.79C321.318 320.898 321.406 320.989 321.509 321.056C321.612 321.123 321.726 321.166 321.846 321.18C322.028 321.202 322.212 321.202 322.395 321.18C323.073 321.125 323.744 320.984 324.392 320.76Z" fill="#263238"/>
<path d="M328.056 320.93C327.855 320.93 328.056 322.4 327.14 323.66C326.224 324.92 324.758 325.05 324.777 325.25C324.795 325.45 325.143 325.47 325.693 325.36C326.469 325.21 327.172 324.768 327.68 324.11C328.162 323.475 328.402 322.662 328.349 321.84C328.386 321.23 328.175 320.9 328.056 320.93Z" fill="#263238"/>
<path d="M326.059 304.24C326.242 304.58 327.424 304.15 328.89 304.04C330.355 303.93 331.573 304.12 331.711 303.76C331.766 303.58 331.509 303.29 330.978 303.03C330.281 302.736 329.532 302.616 328.787 302.681C328.042 302.745 327.319 302.99 326.673 303.4C326.224 303.74 325.977 304.08 326.059 304.24Z" fill="#263238"/>
<path d="M314.655 307.06C314.921 307.32 315.708 306.83 316.707 306.61C317.705 306.39 318.603 306.43 318.749 306.07C318.804 305.9 318.621 305.62 318.2 305.42C317.643 305.17 317.027 305.117 316.441 305.27C315.845 305.419 315.307 305.769 314.902 306.27C314.6 306.6 314.536 306.94 314.655 307.06Z" fill="#263238"/>
<path d="M340.715 311.86C340.843 311.76 345.854 308.97 346.706 314.91C347.558 320.85 341.924 320.57 341.888 320.4C341.851 320.23 340.715 311.86 340.715 311.86Z" fill="#FFBF9D"/>
<path d="M343.225 317.86C343.225 317.86 343.335 317.92 343.509 317.97C343.747 318.035 343.999 318 344.214 317.87C344.532 317.566 344.77 317.175 344.903 316.737C345.037 316.3 345.061 315.831 344.975 315.38C344.912 314.867 344.746 314.375 344.489 313.94C344.41 313.765 344.293 313.614 344.15 313.497C344.007 313.381 343.841 313.303 343.665 313.27C343.551 313.258 343.437 313.289 343.341 313.358C343.246 313.427 343.176 313.531 343.143 313.65C343.097 313.83 343.143 313.94 343.143 313.96C343.143 313.98 343.014 313.88 343.023 313.63C343.031 313.476 343.089 313.33 343.188 313.22C343.306 313.092 343.462 313.014 343.628 313C343.86 313.005 344.086 313.077 344.284 313.209C344.482 313.341 344.644 313.527 344.755 313.75C345.061 314.225 345.256 314.774 345.323 315.35C345.427 315.874 345.386 316.42 345.205 316.919C345.024 317.418 344.711 317.846 344.306 318.15C344.164 318.231 344.007 318.273 343.848 318.273C343.688 318.273 343.531 318.231 343.39 318.15C343.262 318 343.207 317.88 343.225 317.86Z" fill="#FF9A6C"/>
<path d="M314.792 297.92C313.876 297.53 316.066 293.98 318.081 292.55C321.14 290.4 326.004 288.55 329.155 289.03C332.947 289.57 336.236 291.03 338.553 294.38C340.82 297.771 342.214 301.763 342.593 305.94C342.806 307.198 342.712 308.495 342.318 309.7C341.732 311.14 340.385 312.2 340.697 314.01C340.825 314.668 340.71 315.354 340.376 315.92C339.533 317.24 338.169 316.35 337.463 315.35C335.943 313.21 335.43 310.45 334.963 307.79C334.536 305.925 334.393 303.996 334.541 302.08C334.669 301.08 334.972 300.08 335.054 298.99C335.122 298.472 335.085 297.945 334.948 297.444C334.81 296.944 334.575 296.482 334.257 296.09C334.104 295.931 333.935 295.79 333.753 295.67C332.894 295.068 331.903 294.726 330.882 294.68C329.861 294.635 328.848 294.887 327.946 295.41C325.042 297.09 320.041 299.71 318.511 298.8C317.44 298.252 316.485 297.465 315.708 296.49L314.792 297.92Z" fill="#263238"/>
</g>
<defs>
<clipPath id="clip0_59_640">
<rect width="500" height="500" fill="white"/>
</clipPath>
</defs>
</svg>
