<svg width="500" height="500" viewBox="0 0 500 500" fill="none" xmlns="http://www.w3.org/2000/svg">
<path d="M111.73 92.76C139.35 78.16 174.73 75.19 202.84 90.19C227.06 103.11 235.77 129.28 244.26 153.57C256.13 187.57 276.59 226.57 318.58 203.39C347.28 187.52 376.76 158.69 412.47 174.29C444.94 188.47 451.81 229.21 442.27 260.06C411.33 360 285.53 398 193.07 367.36C108.29 339.27 12.1901 236.81 60.6201 142.66C71.1301 122.23 89.8601 104.32 111.73 92.76Z" fill="#F97316"/>
<path opacity="0.9" d="M111.73 92.76C139.35 78.16 174.73 75.19 202.84 90.19C227.06 103.11 235.77 129.28 244.26 153.57C256.13 187.57 276.59 226.57 318.58 203.39C347.28 187.52 376.76 158.69 412.47 174.29C444.94 188.47 451.81 229.21 442.27 260.06C411.33 360 285.53 398 193.07 367.36C108.29 339.27 12.1901 236.81 60.6201 142.66C71.1301 122.23 89.8601 104.32 111.73 92.76Z" fill="#D1D5DB"/>
<path d="M250 427.56C357.083 427.56 443.89 422.492 443.89 416.24C443.89 409.988 357.083 404.92 250 404.92C142.918 404.92 56.1101 409.988 56.1101 416.24C56.1101 422.492 142.918 427.56 250 427.56Z" fill="#F5F5F5"/>
<path d="M277.49 321.17H228.89V417.77H277.49V321.17Z" fill="#263238"/>
<path opacity="0.2" d="M277.49 352.26H228.89V367.16H277.49V352.26Z" fill="#1F2937"/>
<path d="M310.28 411.27H196.08V417.92H310.28V411.27Z" fill="#263238"/>
<path opacity="0.2" d="M310.28 411.27H196.08V417.92H310.28V411.27Z" fill="#1F2937"/>
<path d="M391.14 157.29H115.24C109.342 157.29 104.56 162.072 104.56 167.97V352C104.56 357.898 109.342 362.68 115.24 362.68H391.14C397.038 362.68 401.82 357.898 401.82 352V167.97C401.82 162.072 397.038 157.29 391.14 157.29Z" fill="#263238"/>
<path opacity="0.5" d="M391.14 157.29H115.24C109.342 157.29 104.56 162.072 104.56 167.97V352C104.56 357.898 109.342 362.68 115.24 362.68H391.14C397.038 362.68 401.82 357.898 401.82 352V167.97C401.82 162.072 397.038 157.29 391.14 157.29Z" fill="#D1D5DB"/>
<path d="M395.74 164.04H109.62V341.03H395.74V164.04Z" fill="#263238"/>
<path d="M260.694 354.012C261.673 349.862 259.103 345.704 254.954 344.725C250.804 343.745 246.646 346.315 245.667 350.465C244.688 354.614 247.257 358.772 251.407 359.752C255.557 360.731 259.715 358.161 260.694 354.012Z" fill="#E0E0E0"/>
<path opacity="0.7" d="M390.62 167.21H114.74V337.86H390.62V167.21Z" fill="#D1D5DB"/>
<path d="M390.62 167.21H114.74V335.64H390.62V167.21Z" fill="#F97316"/>
<g opacity="0.9">
<path d="M390.62 167.21H114.74V337.86H390.62V167.21Z" fill="#D1D5DB"/>
</g>
<path d="M390.61 219.53H202.97V285H390.61V219.53Z" fill="#F97316"/>
<g opacity="0.4">
<path d="M390.61 219.53H202.97V285H390.61V219.53Z" fill="#D1D5DB"/>
</g>
<path d="M202.97 219.53H142.86V285H202.97V219.53Z" fill="#F97316"/>
<g opacity="0.7">
<path d="M202.97 219.53H142.86V285H202.97V219.53Z" fill="#D1D5DB"/>
</g>
<path d="M142.86 219.53H114.74V285H142.86V219.53Z" fill="#F97316"/>
<g opacity="0.6">
<path d="M142.86 219.53H114.74V285H142.86V219.53Z" fill="#D1D5DB"/>
</g>
<path d="M326.64 203.48H167.72V213.01H326.64V203.48Z" fill="#F97316"/>
<g opacity="0.8">
<path d="M326.64 203.48H167.72V213.01H326.64V203.48Z" fill="#D1D5DB"/>
</g>
<path d="M336.96 203.48H326.64V213.01H336.96V203.48Z" fill="#F97316"/>
<g opacity="0.5">
<path d="M336.96 203.48H326.64V213.01H336.96V203.48Z" fill="#D1D5DB"/>
</g>
<path d="M390.62 167.21H114.74V177.98H390.62V167.21Z" fill="#F97316"/>
<path d="M364.22 172.59C364.222 173.202 364.042 173.8 363.704 174.309C363.366 174.819 362.884 175.217 362.319 175.452C361.755 175.687 361.133 175.75 360.533 175.632C359.933 175.514 359.382 175.22 358.949 174.789C358.515 174.357 358.22 173.806 358.1 173.207C357.98 172.607 358.041 171.985 358.274 171.42C358.508 170.855 358.904 170.371 359.412 170.031C359.921 169.692 360.518 169.51 361.13 169.51C361.948 169.51 362.732 169.834 363.311 170.412C363.891 170.989 364.217 171.772 364.22 172.59Z" fill="#D1D5DB"/>
<path d="M376.08 172.59C376.082 173.202 375.903 173.8 375.564 174.309C375.226 174.819 374.744 175.217 374.18 175.452C373.615 175.687 372.994 175.75 372.393 175.632C371.793 175.514 371.242 175.22 370.809 174.789C370.376 174.357 370.08 173.806 369.96 173.207C369.84 172.607 369.901 171.985 370.134 171.42C370.368 170.855 370.764 170.371 371.272 170.031C371.781 169.692 372.379 169.51 372.99 169.51C373.808 169.51 374.592 169.834 375.172 170.412C375.751 170.989 376.077 171.772 376.08 172.59Z" fill="#D1D5DB"/>
<path d="M387.94 172.59C387.942 173.202 387.762 173.8 387.424 174.309C387.086 174.819 386.604 175.217 386.039 175.452C385.475 175.687 384.853 175.75 384.253 175.632C383.653 175.514 383.102 175.22 382.669 174.789C382.235 174.357 381.94 173.806 381.82 173.207C381.7 172.607 381.761 171.985 381.994 171.42C382.228 170.855 382.624 170.371 383.132 170.031C383.641 169.692 384.238 169.51 384.85 169.51C385.668 169.51 386.452 169.834 387.031 170.412C387.611 170.989 387.937 171.772 387.94 172.59Z" fill="#D1D5DB"/>
<path d="M123.65 212.21C123.105 212.094 122.581 211.892 122.1 211.61L122.97 209.61C123.373 209.84 123.803 210.018 124.25 210.14C124.691 210.272 125.149 210.339 125.61 210.34C125.881 210.357 126.152 210.323 126.41 210.24C126.478 210.215 126.537 210.17 126.58 210.111C126.622 210.052 126.647 209.982 126.65 209.91C126.65 209.74 126.55 209.62 126.34 209.53C126.013 209.418 125.679 209.327 125.34 209.26C124.818 209.156 124.303 209.016 123.8 208.84C123.384 208.688 123.013 208.433 122.72 208.1C122.399 207.714 122.235 207.221 122.26 206.72C122.255 206.229 122.405 205.75 122.69 205.35C123.001 204.898 123.44 204.55 123.95 204.35C124.587 204.099 125.266 203.977 125.95 203.99C126.495 203.989 127.038 204.05 127.57 204.17C128.06 204.274 128.531 204.45 128.97 204.69L128.16 206.69C127.471 206.317 126.703 206.112 125.92 206.09C125.23 206.09 124.92 206.26 124.92 206.6C124.92 206.76 125.02 206.88 125.23 206.96C125.557 207.068 125.892 207.155 126.23 207.22C126.756 207.308 127.275 207.439 127.78 207.61C128.199 207.759 128.573 208.009 128.87 208.34C129.195 208.72 129.36 209.211 129.33 209.71C129.335 210.199 129.189 210.678 128.91 211.08C128.589 211.526 128.149 211.872 127.64 212.08C127.004 212.331 126.324 212.453 125.64 212.44C124.97 212.444 124.302 212.367 123.65 212.21Z" fill="#263238"/>
<path d="M131.75 206.33H129.4V204.23H136.8V206.33H134.45V212.25H131.75V206.33Z" fill="#263238"/>
<path d="M139.27 211.9C138.774 211.631 138.338 211.266 137.987 210.825C137.635 210.384 137.376 209.877 137.225 209.334C137.074 208.791 137.034 208.223 137.107 207.664C137.18 207.105 137.364 206.566 137.65 206.08C138.044 205.445 138.604 204.929 139.27 204.59C139.987 204.222 140.784 204.036 141.59 204.05C142.399 204.039 143.198 204.224 143.92 204.59C144.581 204.932 145.137 205.447 145.53 206.08C145.925 206.731 146.129 207.479 146.12 208.24C146.133 209.001 145.928 209.751 145.53 210.4C145.141 211.038 144.584 211.557 143.92 211.9C143.198 212.266 142.399 212.451 141.59 212.44C140.784 212.454 139.987 212.268 139.27 211.9ZM142.5 210C142.779 209.834 143.005 209.591 143.15 209.3C143.317 208.972 143.399 208.608 143.39 208.24C143.397 207.872 143.315 207.509 143.15 207.18C143.002 206.894 142.777 206.655 142.5 206.49C142.225 206.326 141.91 206.24 141.59 206.24C141.27 206.24 140.955 206.326 140.68 206.49C140.403 206.655 140.178 206.894 140.03 207.18C139.865 207.509 139.783 207.872 139.79 208.24C139.78 208.608 139.863 208.972 140.03 209.3C140.175 209.591 140.401 209.834 140.68 210C140.955 210.164 141.27 210.25 141.59 210.25C141.91 210.25 142.225 210.164 142.5 210Z" fill="#263238"/>
<path d="M150.54 210.24H149.8V212.24H147.1V204.24H151C151.665 204.228 152.326 204.354 152.94 204.61C153.455 204.832 153.896 205.196 154.21 205.66C154.512 206.141 154.666 206.702 154.65 207.27C154.662 207.796 154.527 208.316 154.26 208.77C153.991 209.204 153.602 209.552 153.14 209.77L154.83 212.24H151.9L150.54 210.24ZM151.61 206.57C151.378 206.386 151.085 206.297 150.79 206.32H149.79V208.2H150.79C151.085 208.223 151.378 208.134 151.61 207.95C151.787 207.764 151.886 207.517 151.886 207.26C151.886 207.003 151.787 206.756 151.61 206.57Z" fill="#263238"/>
<path d="M162.3 210.21V212.21H155.63V204.21H162.15V206.21H158.29V207.15H161.68V209.1H158.29V210.15L162.3 210.21Z" fill="#263238"/>
<path d="M350.79 213C350.79 213.273 350.709 213.54 350.557 213.767C350.406 213.994 350.19 214.171 349.938 214.275C349.686 214.379 349.409 214.407 349.141 214.354C348.873 214.3 348.627 214.169 348.434 213.976C348.241 213.783 348.11 213.537 348.057 213.269C348.003 213.002 348.031 212.724 348.135 212.472C348.24 212.22 348.416 212.004 348.643 211.853C348.87 211.701 349.137 211.62 349.41 211.62C349.592 211.619 349.772 211.653 349.94 211.722C350.108 211.791 350.26 211.893 350.389 212.021C350.517 212.15 350.619 212.302 350.688 212.47C350.757 212.638 350.791 212.818 350.79 213Z" fill="#263238"/>
<path d="M358 214.38C358.762 214.38 359.38 213.762 359.38 213C359.38 212.238 358.762 211.62 358 211.62C357.238 211.62 356.62 212.238 356.62 213C356.62 213.762 357.238 214.38 358 214.38Z" fill="#263238"/>
<path d="M348.26 203.26L347.33 200.26H343.85V201.2H346.63L349.24 209.69H358.39L359.19 204.07L348.26 203.26ZM357.67 209.04L349.88 208.96L348.41 203.96L358.3 204.69L357.67 209.04Z" fill="#263238"/>
<path d="M246.74 277.11C246.742 277.657 246.581 278.192 246.279 278.647C245.976 279.103 245.546 279.458 245.041 279.668C244.536 279.878 243.98 279.934 243.444 279.827C242.908 279.721 242.415 279.458 242.028 279.072C241.642 278.685 241.379 278.192 241.273 277.656C241.166 277.12 241.222 276.564 241.432 276.059C241.642 275.554 241.997 275.124 242.453 274.821C242.908 274.518 243.443 274.358 243.99 274.36C244.719 274.36 245.419 274.65 245.934 275.165C246.45 275.681 246.74 276.381 246.74 277.11Z" fill="#F97316"/>
<path opacity="0.9" d="M246.74 277.11C246.742 277.657 246.581 278.192 246.279 278.647C245.976 279.103 245.546 279.458 245.041 279.668C244.536 279.878 243.98 279.934 243.444 279.827C242.908 279.721 242.415 279.458 242.028 279.072C241.642 278.685 241.379 278.192 241.273 277.656C241.166 277.12 241.222 276.564 241.432 276.059C241.642 275.554 241.997 275.124 242.453 274.821C242.908 274.518 243.443 274.358 243.99 274.36C244.719 274.36 245.419 274.65 245.934 275.165C246.45 275.681 246.74 276.381 246.74 277.11Z" fill="#D1D5DB"/>
<path d="M254.78 277.11C254.782 277.656 254.622 278.191 254.32 278.646C254.018 279.101 253.587 279.457 253.083 279.667C252.579 279.877 252.024 279.934 251.488 279.828C250.952 279.723 250.459 279.461 250.072 279.075C249.685 278.69 249.421 278.198 249.314 277.662C249.206 277.126 249.261 276.571 249.469 276.066C249.678 275.561 250.031 275.13 250.486 274.826C250.94 274.522 251.474 274.36 252.02 274.36C252.382 274.359 252.741 274.429 253.075 274.566C253.41 274.704 253.715 274.906 253.971 275.162C254.227 275.417 254.431 275.721 254.57 276.055C254.709 276.39 254.78 276.748 254.78 277.11Z" fill="#F97316"/>
<path opacity="0.9" d="M254.78 277.11C254.782 277.656 254.622 278.191 254.32 278.646C254.018 279.101 253.587 279.457 253.083 279.667C252.579 279.877 252.024 279.934 251.488 279.828C250.952 279.723 250.459 279.461 250.072 279.075C249.685 278.69 249.421 278.198 249.314 277.662C249.206 277.126 249.261 276.571 249.469 276.066C249.678 275.561 250.031 275.13 250.486 274.826C250.94 274.522 251.474 274.36 252.02 274.36C252.382 274.359 252.741 274.429 253.075 274.566C253.41 274.704 253.715 274.906 253.971 275.162C254.227 275.417 254.431 275.721 254.57 276.055C254.709 276.39 254.78 276.748 254.78 277.11Z" fill="#D1D5DB"/>
<path d="M262.88 277.26C262.882 277.806 262.722 278.341 262.42 278.796C262.118 279.251 261.687 279.607 261.183 279.817C260.679 280.027 260.124 280.084 259.588 279.978C259.052 279.873 258.559 279.611 258.172 279.225C257.785 278.84 257.521 278.348 257.414 277.812C257.307 277.276 257.361 276.721 257.569 276.216C257.778 275.711 258.132 275.28 258.586 274.976C259.04 274.672 259.574 274.51 260.12 274.51C260.85 274.51 261.551 274.799 262.068 275.315C262.585 275.83 262.877 276.53 262.88 277.26Z" fill="#F97316"/>
<path opacity="0.9" d="M262.88 277.26C262.882 277.806 262.722 278.341 262.42 278.796C262.118 279.251 261.687 279.607 261.183 279.817C260.679 280.027 260.124 280.084 259.588 279.978C259.052 279.873 258.559 279.611 258.172 279.225C257.785 278.84 257.521 278.348 257.414 277.812C257.307 277.276 257.361 276.721 257.569 276.216C257.778 275.711 258.132 275.28 258.586 274.976C259.04 274.672 259.574 274.51 260.12 274.51C260.85 274.51 261.551 274.799 262.068 275.315C262.585 275.83 262.877 276.53 262.88 277.26Z" fill="#D1D5DB"/>
<path d="M271 277.26C271.002 277.806 270.842 278.341 270.54 278.796C270.238 279.251 269.807 279.607 269.303 279.817C268.799 280.027 268.244 280.084 267.708 279.978C267.172 279.873 266.679 279.611 266.292 279.225C265.905 278.84 265.641 278.348 265.534 277.812C265.426 277.276 265.481 276.721 265.689 276.216C265.898 275.711 266.251 275.28 266.706 274.976C267.16 274.672 267.694 274.51 268.24 274.51C268.969 274.513 269.668 274.803 270.185 275.318C270.702 275.833 270.995 276.531 271 277.26Z" fill="#F97316"/>
<path opacity="0.9" d="M271 277.26C271.002 277.806 270.842 278.341 270.54 278.796C270.238 279.251 269.807 279.607 269.303 279.817C268.799 280.027 268.244 280.084 267.708 279.978C267.172 279.873 266.679 279.611 266.292 279.225C265.905 278.84 265.641 278.348 265.534 277.812C265.426 277.276 265.481 276.721 265.689 276.216C265.898 275.711 266.251 275.28 266.706 274.976C267.16 274.672 267.694 274.51 268.24 274.51C268.969 274.513 269.668 274.803 270.185 275.318C270.702 275.833 270.995 276.531 271 277.26Z" fill="#D1D5DB"/>
<path d="M279.08 277.26C279.082 277.806 278.922 278.341 278.62 278.796C278.318 279.251 277.887 279.607 277.383 279.817C276.879 280.027 276.324 280.084 275.788 279.978C275.252 279.873 274.759 279.611 274.372 279.225C273.985 278.84 273.721 278.348 273.614 277.812C273.507 277.276 273.561 276.721 273.769 276.216C273.978 275.711 274.332 275.28 274.786 274.976C275.24 274.672 275.774 274.51 276.32 274.51C277.05 274.513 277.748 274.803 278.265 275.318C278.782 275.833 279.075 276.531 279.08 277.26Z" fill="#F97316"/>
<path opacity="0.5" d="M279.08 277.26C279.082 277.806 278.922 278.341 278.62 278.796C278.318 279.251 277.887 279.607 277.383 279.817C276.879 280.027 276.324 280.084 275.788 279.978C275.252 279.873 274.759 279.611 274.372 279.225C273.985 278.84 273.721 278.348 273.614 277.812C273.507 277.276 273.561 276.721 273.769 276.216C273.978 275.711 274.332 275.28 274.786 274.976C275.24 274.672 275.774 274.51 276.32 274.51C277.05 274.513 277.748 274.803 278.265 275.318C278.782 275.833 279.075 276.531 279.08 277.26Z" fill="#D1D5DB"/>
<path d="M287.18 277.26C287.182 277.806 287.022 278.341 286.72 278.796C286.418 279.251 285.987 279.607 285.483 279.817C284.979 280.027 284.424 280.084 283.888 279.978C283.352 279.873 282.859 279.611 282.472 279.225C282.085 278.84 281.821 278.348 281.714 277.812C281.607 277.276 281.661 276.721 281.869 276.216C282.078 275.711 282.432 275.28 282.886 274.976C283.34 274.672 283.874 274.51 284.42 274.51C285.15 274.513 285.849 274.803 286.365 275.318C286.882 275.833 287.175 276.531 287.18 277.26Z" fill="#F97316"/>
<path opacity="0.9" d="M287.18 277.26C287.182 277.806 287.022 278.341 286.72 278.796C286.418 279.251 285.987 279.607 285.483 279.817C284.979 280.027 284.424 280.084 283.888 279.978C283.352 279.873 282.859 279.611 282.472 279.225C282.085 278.84 281.821 278.348 281.714 277.812C281.607 277.276 281.661 276.721 281.869 276.216C282.078 275.711 282.432 275.28 282.886 274.976C283.34 274.672 283.874 274.51 284.42 274.51C285.15 274.513 285.849 274.803 286.365 275.318C286.882 275.833 287.175 276.531 287.18 277.26Z" fill="#D1D5DB"/>
<path d="M295.28 277.26C295.282 277.806 295.122 278.341 294.82 278.796C294.518 279.251 294.087 279.607 293.583 279.817C293.079 280.027 292.524 280.084 291.988 279.978C291.452 279.873 290.959 279.611 290.572 279.225C290.185 278.84 289.921 278.348 289.814 277.812C289.706 277.276 289.761 276.721 289.969 276.216C290.178 275.711 290.531 275.28 290.986 274.976C291.44 274.672 291.974 274.51 292.52 274.51C293.249 274.513 293.948 274.803 294.465 275.318C294.982 275.833 295.275 276.531 295.28 277.26Z" fill="#F97316"/>
<path opacity="0.9" d="M295.28 277.26C295.282 277.806 295.122 278.341 294.82 278.796C294.518 279.251 294.087 279.607 293.583 279.817C293.079 280.027 292.524 280.084 291.988 279.978C291.452 279.873 290.959 279.611 290.572 279.225C290.185 278.84 289.921 278.348 289.814 277.812C289.706 277.276 289.761 276.721 289.969 276.216C290.178 275.711 290.531 275.28 290.986 274.976C291.44 274.672 291.974 274.51 292.52 274.51C293.249 274.513 293.948 274.803 294.465 275.318C294.982 275.833 295.275 276.531 295.28 277.26Z" fill="#D1D5DB"/>
<path d="M303.37 277.26C303.372 277.807 303.212 278.342 302.909 278.797C302.607 279.253 302.176 279.608 301.671 279.818C301.166 280.028 300.61 280.084 300.074 279.977C299.538 279.871 299.045 279.608 298.659 279.222C298.272 278.835 298.009 278.342 297.903 277.806C297.796 277.27 297.852 276.714 298.062 276.209C298.272 275.704 298.628 275.274 299.083 274.971C299.538 274.668 300.073 274.508 300.62 274.51C301.349 274.513 302.047 274.803 302.562 275.318C303.077 275.834 303.367 276.531 303.37 277.26Z" fill="#F97316"/>
<path opacity="0.9" d="M303.37 277.26C303.372 277.807 303.212 278.342 302.909 278.797C302.607 279.253 302.176 279.608 301.671 279.818C301.166 280.028 300.61 280.084 300.074 279.977C299.538 279.871 299.045 279.608 298.659 279.222C298.272 278.835 298.009 278.342 297.903 277.806C297.796 277.27 297.852 276.714 298.062 276.209C298.272 275.704 298.628 275.274 299.083 274.971C299.538 274.668 300.073 274.508 300.62 274.51C301.349 274.513 302.047 274.803 302.562 275.318C303.077 275.834 303.367 276.531 303.37 277.26Z" fill="#D1D5DB"/>
<path d="M218.81 255.76C217.645 255.514 216.528 255.081 215.5 254.48L217.36 250.27C218.221 250.765 219.142 251.148 220.1 251.41C221.046 251.684 222.025 251.829 223.01 251.84C223.59 251.875 224.172 251.793 224.72 251.6C224.867 251.554 224.995 251.462 225.087 251.338C225.179 251.214 225.229 251.064 225.23 250.91C225.23 250.55 225.01 250.28 224.56 250.1C223.839 249.849 223.1 249.652 222.35 249.51C221.23 249.293 220.127 248.996 219.05 248.62C218.166 248.298 217.376 247.762 216.75 247.06C216.053 246.24 215.695 245.185 215.75 244.11C215.741 243.064 216.055 242.04 216.65 241.18C217.333 240.239 218.274 239.516 219.36 239.1C220.748 238.556 222.23 238.298 223.72 238.34C224.884 238.34 226.044 238.468 227.18 238.72C228.23 238.937 229.241 239.311 230.18 239.83L228.46 244C226.99 243.211 225.357 242.777 223.69 242.73C222.21 242.73 221.47 243.09 221.47 243.81C221.47 244.15 221.69 244.41 222.13 244.58C222.838 244.819 223.564 245.003 224.3 245.13C225.421 245.321 226.524 245.602 227.6 245.97C228.495 246.288 229.298 246.82 229.94 247.52C230.639 248.335 230.997 249.388 230.94 250.46C230.949 251.505 230.631 252.526 230.03 253.38C229.345 254.315 228.409 255.036 227.33 255.46C225.943 256.006 224.46 256.268 222.97 256.23C221.57 256.237 220.174 256.079 218.81 255.76Z" fill="#263238"/>
<path d="M244.3 252.86H237.8L236.65 255.86H230.78L238.26 238.74H243.94L251.42 255.86H245.42L244.3 252.86ZM242.71 248.71L241.05 244.4L239.39 248.71H242.71Z" fill="#263238"/>
<path d="M252.35 238.73H258.12V251.37H265.85V255.85H252.35V238.73Z" fill="#263238"/>
<path d="M281.67 251.5V255.85H267.43V238.73H281.35V243.08H273.11V245.08H280.35V249.23H273.11V251.49L281.67 251.5Z" fill="#263238"/>
<path d="M390.62 177.98H114.74V198.46H390.62V177.98Z" fill="#F97316"/>
<g opacity="0.7">
<path d="M390.62 177.98H114.74V198.46H390.62V177.98Z" fill="#D1D5DB"/>
</g>
<path d="M375.06 193.83H146.27C144.782 193.83 143.355 193.239 142.303 192.187C141.251 191.135 140.66 189.708 140.66 188.22C140.66 186.732 141.251 185.305 142.303 184.253C143.355 183.201 144.782 182.61 146.27 182.61H375.06C376.548 182.61 377.975 183.201 379.027 184.253C380.079 185.305 380.67 186.732 380.67 188.22C380.67 189.708 380.079 191.135 379.027 192.187C377.975 193.239 376.548 193.83 375.06 193.83Z" fill="#263238"/>
<path opacity="0.7" d="M375.06 193.83H146.27C144.782 193.83 143.355 193.239 142.303 192.187C141.251 191.135 140.66 189.708 140.66 188.22C140.66 186.732 141.251 185.305 142.303 184.253C143.355 183.201 144.782 182.61 146.27 182.61H375.06C376.548 182.61 377.975 183.201 379.027 184.253C380.079 185.305 380.67 186.732 380.67 188.22C380.67 189.708 380.079 191.135 379.027 192.187C377.975 193.239 376.548 193.83 375.06 193.83Z" fill="#D1D5DB"/>
<path d="M373.28 183.92L374.68 186.75L377.8 187.2L375.54 189.41L376.07 192.52L373.28 191.05L370.48 192.52L371.02 189.41L368.76 187.2L371.88 186.75L373.28 183.92Z" fill="#F97316"/>
<path d="M247.95 186.03H147.65C146.667 186.03 145.87 186.827 145.87 187.81V188.91C145.87 189.893 146.667 190.69 147.65 190.69H247.95C248.933 190.69 249.73 189.893 249.73 188.91V187.81C249.73 186.827 248.933 186.03 247.95 186.03Z" fill="#F97316"/>
<path d="M129.34 182.34L123.16 188.52H124.97V194.09H133.71V188.52H135.51L129.34 182.34Z" fill="#F97316"/>
<path d="M189.78 227.85H150.5C150.252 227.851 150.007 227.804 149.778 227.71C149.548 227.616 149.34 227.478 149.164 227.303C148.989 227.128 148.849 226.92 148.754 226.692C148.659 226.463 148.61 226.218 148.61 225.97C148.61 225.469 148.809 224.988 149.164 224.634C149.518 224.279 149.999 224.08 150.5 224.08H189.78C190.28 224.083 190.758 224.283 191.11 224.637C191.462 224.991 191.66 225.47 191.66 225.97C191.66 226.469 191.462 226.947 191.109 227.299C190.757 227.652 190.279 227.85 189.78 227.85Z" fill="#F97316"/>
<path d="M189.78 235.39H150.5C150.252 235.391 150.007 235.344 149.778 235.25C149.548 235.156 149.34 235.018 149.164 234.843C148.989 234.668 148.849 234.461 148.754 234.232C148.659 234.003 148.61 233.758 148.61 233.51C148.609 233.261 148.657 233.015 148.751 232.785C148.846 232.555 148.985 232.346 149.161 232.171C149.337 231.995 149.545 231.856 149.775 231.761C150.005 231.667 150.252 231.619 150.5 231.62H189.78C190.028 231.62 190.273 231.669 190.502 231.764C190.731 231.859 190.938 231.999 191.113 232.174C191.288 232.35 191.426 232.558 191.52 232.788C191.614 233.017 191.661 233.262 191.66 233.51C191.66 234.009 191.462 234.487 191.109 234.839C190.757 235.192 190.279 235.39 189.78 235.39Z" fill="#F97316"/>
<path d="M189.78 242.93H150.5C150.252 242.931 150.007 242.884 149.778 242.79C149.548 242.696 149.34 242.558 149.164 242.383C148.989 242.208 148.849 242 148.754 241.772C148.659 241.543 148.61 241.298 148.61 241.05C148.609 240.801 148.657 240.555 148.751 240.325C148.846 240.095 148.985 239.886 149.161 239.711C149.337 239.535 149.545 239.396 149.775 239.301C150.005 239.207 150.252 239.159 150.5 239.16H189.78C190.028 239.16 190.273 239.209 190.502 239.304C190.731 239.399 190.938 239.538 191.113 239.714C191.288 239.89 191.426 240.098 191.52 240.327C191.614 240.557 191.661 240.802 191.66 241.05C191.66 241.549 191.462 242.027 191.109 242.379C190.757 242.732 190.279 242.93 189.78 242.93Z" fill="#F97316"/>
<path d="M189.78 250.47H150.5C149.999 250.47 149.518 250.271 149.164 249.916C148.809 249.562 148.61 249.081 148.61 248.58C148.61 248.332 148.659 248.087 148.754 247.858C148.849 247.629 148.989 247.422 149.164 247.247C149.34 247.072 149.548 246.934 149.778 246.84C150.007 246.746 150.252 246.699 150.5 246.7H189.78C190.279 246.7 190.757 246.898 191.109 247.251C191.462 247.603 191.66 248.081 191.66 248.58C191.66 249.08 191.462 249.559 191.11 249.913C190.758 250.267 190.28 250.467 189.78 250.47Z" fill="#F97316"/>
<path d="M189.78 258H150.5C149.999 258 149.518 257.801 149.164 257.446C148.809 257.092 148.61 256.611 148.61 256.11C148.61 255.862 148.659 255.617 148.754 255.388C148.849 255.16 148.989 254.952 149.164 254.777C149.34 254.602 149.548 254.464 149.778 254.37C150.007 254.276 150.252 254.229 150.5 254.23H189.78C190.279 254.23 190.757 254.428 191.109 254.781C191.462 255.133 191.66 255.611 191.66 256.11C191.66 256.61 191.462 257.089 191.11 257.443C190.758 257.797 190.28 257.997 189.78 258Z" fill="#F97316"/>
<path d="M189.78 265.55H150.5C149.999 265.55 149.518 265.351 149.164 264.996C148.809 264.642 148.61 264.161 148.61 263.66C148.61 263.412 148.659 263.167 148.754 262.938C148.849 262.709 148.989 262.502 149.164 262.327C149.34 262.152 149.548 262.014 149.778 261.92C150.007 261.826 150.252 261.779 150.5 261.78H189.78C190.279 261.78 190.757 261.978 191.109 262.331C191.462 262.683 191.66 263.161 191.66 263.66C191.66 264.159 191.462 264.639 191.11 264.993C190.758 265.347 190.28 265.547 189.78 265.55Z" fill="#F97316"/>
<path d="M189.78 273.09H150.5C149.999 273.09 149.518 272.891 149.164 272.536C148.809 272.182 148.61 271.701 148.61 271.2C148.61 270.952 148.659 270.707 148.754 270.478C148.849 270.249 148.989 270.042 149.164 269.867C149.34 269.692 149.548 269.554 149.778 269.46C150.007 269.366 150.252 269.319 150.5 269.32H189.78C190.279 269.32 190.757 269.518 191.109 269.871C191.462 270.223 191.66 270.701 191.66 271.2C191.66 271.7 191.462 272.179 191.11 272.533C190.758 272.887 190.28 273.087 189.78 273.09Z" fill="#F97316"/>
<path d="M189.78 280.63H150.5C149.999 280.63 149.518 280.431 149.164 280.076C148.809 279.722 148.61 279.241 148.61 278.74C148.61 278.492 148.659 278.247 148.754 278.018C148.849 277.79 148.989 277.582 149.164 277.407C149.34 277.232 149.548 277.094 149.778 277C150.007 276.906 150.252 276.859 150.5 276.86H189.78C190.279 276.86 190.757 277.058 191.109 277.411C191.462 277.763 191.66 278.241 191.66 278.74C191.66 279.24 191.462 279.719 191.11 280.073C190.758 280.427 190.28 280.627 189.78 280.63Z" fill="#F97316"/>
<g opacity="0.5">
<path d="M189.78 227.85H150.5C150.252 227.851 150.007 227.804 149.778 227.71C149.548 227.616 149.34 227.478 149.164 227.303C148.989 227.128 148.849 226.92 148.754 226.692C148.659 226.463 148.61 226.218 148.61 225.97C148.61 225.469 148.809 224.988 149.164 224.634C149.518 224.279 149.999 224.08 150.5 224.08H189.78C190.28 224.083 190.758 224.283 191.11 224.637C191.462 224.991 191.66 225.47 191.66 225.97C191.66 226.469 191.462 226.947 191.109 227.299C190.757 227.652 190.279 227.85 189.78 227.85Z" fill="#D1D5DB"/>
<path d="M189.78 235.39H150.5C150.252 235.391 150.007 235.344 149.778 235.25C149.548 235.156 149.34 235.018 149.164 234.843C148.989 234.668 148.849 234.46 148.754 234.232C148.659 234.003 148.61 233.758 148.61 233.51C148.609 233.261 148.657 233.015 148.751 232.785C148.846 232.555 148.985 232.346 149.161 232.171C149.337 231.995 149.545 231.856 149.775 231.761C150.005 231.667 150.252 231.619 150.5 231.62H189.78C190.028 231.62 190.273 231.669 190.502 231.764C190.731 231.859 190.938 231.998 191.113 232.174C191.288 232.35 191.426 232.558 191.52 232.787C191.614 233.017 191.661 233.262 191.66 233.51C191.66 234.009 191.462 234.487 191.109 234.839C190.757 235.192 190.279 235.39 189.78 235.39Z" fill="#D1D5DB"/>
<path d="M189.78 242.93H150.5C150.252 242.931 150.007 242.884 149.778 242.79C149.548 242.696 149.34 242.558 149.164 242.383C148.989 242.208 148.849 242 148.754 241.772C148.659 241.543 148.61 241.298 148.61 241.05C148.609 240.801 148.657 240.555 148.751 240.325C148.846 240.095 148.985 239.886 149.161 239.711C149.337 239.535 149.545 239.396 149.775 239.301C150.005 239.207 150.252 239.159 150.5 239.16H189.78C190.028 239.16 190.273 239.209 190.502 239.304C190.731 239.399 190.938 239.538 191.113 239.714C191.288 239.89 191.426 240.098 191.52 240.327C191.614 240.557 191.661 240.802 191.66 241.05C191.66 241.549 191.462 242.027 191.109 242.379C190.757 242.732 190.279 242.93 189.78 242.93Z" fill="#D1D5DB"/>
<path d="M189.78 250.47H150.5C149.999 250.47 149.518 250.271 149.164 249.916C148.809 249.562 148.61 249.081 148.61 248.58C148.61 248.332 148.659 248.087 148.754 247.858C148.849 247.629 148.989 247.422 149.164 247.247C149.34 247.072 149.548 246.934 149.778 246.84C150.007 246.746 150.252 246.699 150.5 246.7H189.78C190.279 246.7 190.757 246.898 191.109 247.251C191.462 247.603 191.66 248.081 191.66 248.58C191.66 249.08 191.462 249.559 191.11 249.913C190.758 250.267 190.28 250.467 189.78 250.47Z" fill="#D1D5DB"/>
<path d="M189.78 258H150.5C149.999 258 149.518 257.801 149.164 257.446C148.809 257.092 148.61 256.611 148.61 256.11C148.61 255.862 148.659 255.617 148.754 255.388C148.849 255.16 148.989 254.952 149.164 254.777C149.34 254.602 149.548 254.464 149.778 254.37C150.007 254.276 150.252 254.229 150.5 254.23H189.78C190.279 254.23 190.757 254.428 191.109 254.781C191.462 255.133 191.66 255.611 191.66 256.11C191.66 256.61 191.462 257.089 191.11 257.443C190.758 257.797 190.28 257.997 189.78 258Z" fill="#D1D5DB"/>
<path d="M189.78 265.55H150.5C149.999 265.55 149.518 265.351 149.164 264.996C148.809 264.642 148.61 264.161 148.61 263.66C148.61 263.412 148.659 263.167 148.754 262.938C148.849 262.709 148.989 262.502 149.164 262.327C149.34 262.152 149.548 262.014 149.778 261.92C150.007 261.826 150.252 261.779 150.5 261.78H189.78C190.279 261.78 190.757 261.978 191.109 262.331C191.462 262.683 191.66 263.161 191.66 263.66C191.66 264.159 191.462 264.639 191.11 264.993C190.758 265.347 190.28 265.547 189.78 265.55Z" fill="#D1D5DB"/>
<path d="M189.78 273.09H150.5C149.999 273.09 149.518 272.891 149.164 272.536C148.809 272.182 148.61 271.701 148.61 271.2C148.61 270.952 148.659 270.707 148.754 270.478C148.849 270.249 148.989 270.042 149.164 269.867C149.34 269.692 149.548 269.554 149.778 269.46C150.007 269.366 150.252 269.319 150.5 269.32H189.78C190.279 269.32 190.757 269.518 191.109 269.871C191.462 270.223 191.66 270.701 191.66 271.2C191.66 271.7 191.462 272.179 191.11 272.533C190.758 272.887 190.28 273.087 189.78 273.09Z" fill="#D1D5DB"/>
<path d="M189.78 280.63H150.5C149.999 280.63 149.518 280.431 149.164 280.076C148.809 279.722 148.61 279.241 148.61 278.74C148.61 278.492 148.659 278.247 148.754 278.018C148.849 277.789 148.989 277.582 149.164 277.407C149.34 277.232 149.548 277.094 149.778 277C150.007 276.906 150.252 276.859 150.5 276.86H189.78C190.279 276.86 190.757 277.058 191.109 277.411C191.462 277.763 191.66 278.241 191.66 278.74C191.66 279.239 191.462 279.719 191.11 280.073C190.758 280.427 190.28 280.627 189.78 280.63Z" fill="#D1D5DB"/>
</g>
<path d="M248.67 291.16H120.72V331.78H248.67V291.16Z" fill="#F97316"/>
<g opacity="0.7">
<path d="M248.67 291.16H120.72V331.78H248.67V291.16Z" fill="#D1D5DB"/>
</g>
<path d="M149.8 294.96H127.56V317.2H149.8V294.96Z" fill="#F97316"/>
<path d="M148.59 318.95H128.55V320.51H148.59V318.95Z" fill="#F97316"/>
<path opacity="0.2" d="M148.59 318.95H128.55V320.51H148.59V318.95Z" fill="#D1D5DB"/>
<path d="M148.59 321.13H128.55V322.69H148.59V321.13Z" fill="#F97316"/>
<path opacity="0.2" d="M148.59 321.13H128.55V322.69H148.59V321.13Z" fill="#D1D5DB"/>
<path d="M138.31 326.63H128.55V328.19H138.31V326.63Z" fill="#F97316"/>
<path opacity="0.2" d="M138.31 326.63H128.55V328.19H138.31V326.63Z" fill="#D1D5DB"/>
<path d="M135.23 323.74H128.55V325.87H135.23V323.74Z" fill="#F97316"/>
<path opacity="0.2" d="M135.23 323.74H128.55V325.87H135.23V323.74Z" fill="#D1D5DB"/>
<path d="M241.13 294.96H218.89V317.2H241.13V294.96Z" fill="#F97316"/>
<path d="M239.93 318.95H219.89V320.51H239.93V318.95Z" fill="#F97316"/>
<path opacity="0.2" d="M239.93 318.95H219.89V320.51H239.93V318.95Z" fill="#D1D5DB"/>
<path d="M239.93 321.13H219.89V322.69H239.93V321.13Z" fill="#F97316"/>
<path opacity="0.2" d="M239.93 321.13H219.89V322.69H239.93V321.13Z" fill="#D1D5DB"/>
<path d="M229.65 326.63H219.89V328.19H229.65V326.63Z" fill="#F97316"/>
<path opacity="0.2" d="M229.65 326.63H219.89V328.19H229.65V326.63Z" fill="#D1D5DB"/>
<path d="M226.57 323.74H219.89V325.87H226.57V323.74Z" fill="#F97316"/>
<path opacity="0.2" d="M226.57 323.74H219.89V325.87H226.57V323.74Z" fill="#D1D5DB"/>
<path d="M181.25 294.96H159.01V317.2H181.25V294.96Z" fill="#F97316"/>
<path d="M180.05 318.95H160.01V320.51H180.05V318.95Z" fill="#F97316"/>
<path opacity="0.2" d="M180.05 318.95H160.01V320.51H180.05V318.95Z" fill="#D1D5DB"/>
<path d="M180.05 321.13H160.01V322.69H180.05V321.13Z" fill="#F97316"/>
<path opacity="0.2" d="M180.05 321.13H160.01V322.69H180.05V321.13Z" fill="#D1D5DB"/>
<path d="M169.77 326.63H160.01V328.19H169.77V326.63Z" fill="#F97316"/>
<path opacity="0.2" d="M169.77 326.63H160.01V328.19H169.77V326.63Z" fill="#D1D5DB"/>
<path d="M166.69 323.74H160.01V325.87H166.69V323.74Z" fill="#F97316"/>
<path opacity="0.2" d="M166.69 323.74H160.01V325.87H166.69V323.74Z" fill="#D1D5DB"/>
<path d="M211.19 294.96H188.95V317.2H211.19V294.96Z" fill="#F97316"/>
<path d="M209.99 318.95H189.95V320.51H209.99V318.95Z" fill="#F97316"/>
<path opacity="0.2" d="M209.99 318.95H189.95V320.51H209.99V318.95Z" fill="#D1D5DB"/>
<path d="M209.99 321.13H189.95V322.69H209.99V321.13Z" fill="#F97316"/>
<path opacity="0.2" d="M209.99 321.13H189.95V322.69H209.99V321.13Z" fill="#D1D5DB"/>
<path d="M199.71 326.63H189.95V328.19H199.71V326.63Z" fill="#F97316"/>
<path opacity="0.2" d="M199.71 326.63H189.95V328.19H199.71V326.63Z" fill="#D1D5DB"/>
<path d="M196.63 323.74H189.95V325.87H196.63V323.74Z" fill="#F97316"/>
<path opacity="0.2" d="M196.63 323.74H189.95V325.87H196.63V323.74Z" fill="#D1D5DB"/>
<path d="M382.12 291.16H254.17V331.78H382.12V291.16Z" fill="#F97316"/>
<g opacity="0.7">
<path d="M382.12 291.16H254.17V331.78H382.12V291.16Z" fill="#D1D5DB"/>
</g>
<path d="M283.59 294.96H261.35V317.2H283.59V294.96Z" fill="#F97316"/>
<path d="M282.39 318.95H262.35V320.51H282.39V318.95Z" fill="#F97316"/>
<path opacity="0.2" d="M282.39 318.95H262.35V320.51H282.39V318.95Z" fill="#D1D5DB"/>
<path d="M282.39 321.13H262.35V322.69H282.39V321.13Z" fill="#F97316"/>
<path opacity="0.2" d="M282.39 321.13H262.35V322.69H282.39V321.13Z" fill="#D1D5DB"/>
<path d="M272.11 326.63H262.35V328.19H272.11V326.63Z" fill="#F97316"/>
<path opacity="0.2" d="M272.11 326.63H262.35V328.19H272.11V326.63Z" fill="#D1D5DB"/>
<path d="M269.03 323.74H262.35V325.87H269.03V323.74Z" fill="#F97316"/>
<path opacity="0.2" d="M269.03 323.74H262.35V325.87H269.03V323.74Z" fill="#D1D5DB"/>
<path d="M374.93 294.96H352.69V317.2H374.93V294.96Z" fill="#F97316"/>
<path d="M373.72 318.95H353.68V320.51H373.72V318.95Z" fill="#F97316"/>
<path opacity="0.2" d="M373.72 318.95H353.68V320.51H373.72V318.95Z" fill="#D1D5DB"/>
<path d="M373.72 321.13H353.68V322.69H373.72V321.13Z" fill="#F97316"/>
<path opacity="0.2" d="M373.72 321.13H353.68V322.69H373.72V321.13Z" fill="#D1D5DB"/>
<path d="M363.44 326.63H353.68V328.19H363.44V326.63Z" fill="#F97316"/>
<path opacity="0.2" d="M363.44 326.63H353.68V328.19H363.44V326.63Z" fill="#D1D5DB"/>
<path d="M360.36 323.74H353.68V325.87H360.36V323.74Z" fill="#F97316"/>
<path opacity="0.2" d="M360.36 323.74H353.68V325.87H360.36V323.74Z" fill="#D1D5DB"/>
<path d="M315.05 294.96H292.81V317.2H315.05V294.96Z" fill="#F97316"/>
<path d="M313.85 318.95H293.81V320.51H313.85V318.95Z" fill="#F97316"/>
<path opacity="0.2" d="M313.85 318.95H293.81V320.51H313.85V318.95Z" fill="#D1D5DB"/>
<path d="M313.85 321.13H293.81V322.69H313.85V321.13Z" fill="#F97316"/>
<path opacity="0.2" d="M313.85 321.13H293.81V322.69H313.85V321.13Z" fill="#D1D5DB"/>
<path d="M303.57 326.63H293.81V328.19H303.57V326.63Z" fill="#F97316"/>
<path opacity="0.2" d="M303.57 326.63H293.81V328.19H303.57V326.63Z" fill="#D1D5DB"/>
<path d="M300.49 323.74H293.81V325.87H300.49V323.74Z" fill="#F97316"/>
<path opacity="0.2" d="M300.49 323.74H293.81V325.87H300.49V323.74Z" fill="#D1D5DB"/>
<path d="M344.99 294.96H322.75V317.2H344.99V294.96Z" fill="#F97316"/>
<path d="M343.78 318.95H323.74V320.51H343.78V318.95Z" fill="#F97316"/>
<path opacity="0.2" d="M343.78 318.95H323.74V320.51H343.78V318.95Z" fill="#D1D5DB"/>
<path d="M343.78 321.13H323.74V322.69H343.78V321.13Z" fill="#F97316"/>
<path opacity="0.2" d="M343.78 321.13H323.74V322.69H343.78V321.13Z" fill="#D1D5DB"/>
<path d="M333.5 326.63H323.74V328.19H333.5V326.63Z" fill="#F97316"/>
<path opacity="0.2" d="M333.5 326.63H323.74V328.19H333.5V326.63Z" fill="#D1D5DB"/>
<path d="M330.42 323.74H323.74V325.87H330.42V323.74Z" fill="#F97316"/>
<path opacity="0.2" d="M330.42 323.74H323.74V325.87H330.42V323.74Z" fill="#D1D5DB"/>
<path d="M340.95 273.92C363.295 273.92 381.41 271.525 381.41 268.57C381.41 265.615 363.295 263.22 340.95 263.22C318.605 263.22 300.49 265.615 300.49 268.57C300.49 271.525 318.605 273.92 340.95 273.92Z" fill="#F97316"/>
<path opacity="0.1" d="M340.95 273.92C363.295 273.92 381.41 271.525 381.41 268.57C381.41 265.615 363.295 263.22 340.95 263.22C318.605 263.22 300.49 265.615 300.49 268.57C300.49 271.525 318.605 273.92 340.95 273.92Z" fill="#1F2937"/>
<path d="M345 266.4L340.67 256.82H330.57L332.12 265.82C332.142 265.937 332.138 266.057 332.108 266.172C332.078 266.287 332.023 266.394 331.946 266.485C331.869 266.576 331.774 266.649 331.665 266.698C331.557 266.748 331.439 266.772 331.32 266.77H326.9C326.786 266.77 326.677 266.815 326.596 266.896C326.515 266.977 326.47 267.086 326.47 267.2V267.68C326.47 267.736 326.481 267.792 326.503 267.844C326.524 267.897 326.556 267.944 326.596 267.984C326.636 268.024 326.683 268.056 326.735 268.077C326.788 268.099 326.843 268.11 326.9 268.11H344.7C344.761 268.11 344.822 268.098 344.878 268.074C344.935 268.05 344.986 268.015 345.029 267.972C345.072 267.928 345.105 267.876 345.128 267.819C345.15 267.762 345.161 267.701 345.16 267.64V267.15C345.161 266.891 345.107 266.635 345 266.4Z" fill="#F97316"/>
<path opacity="0.2" d="M331.49 266.73H326.9C326.786 266.73 326.677 266.775 326.596 266.856C326.515 266.937 326.47 267.046 326.47 267.16V267.64C326.47 267.754 326.515 267.863 326.596 267.944C326.677 268.025 326.786 268.07 326.9 268.07H344.7C344.825 268.07 344.944 268.02 345.032 267.932C345.12 267.844 345.17 267.725 345.17 267.6V267.11C345.169 266.978 345.153 266.847 345.12 266.72L331.49 266.73Z" fill="#D1D5DB"/>
<path d="M345.58 266.4L341.25 256.82H340.68L345 266.4C345.099 266.627 345.151 266.872 345.15 267.12V267.61C345.152 267.671 345.141 267.732 345.118 267.789C345.096 267.846 345.062 267.898 345.019 267.942C344.976 267.985 344.925 268.02 344.869 268.044C344.812 268.068 344.751 268.08 344.69 268.08H345.26C345.322 268.08 345.383 268.068 345.44 268.044C345.497 268.021 345.549 267.986 345.593 267.942C345.636 267.899 345.671 267.847 345.694 267.79C345.718 267.733 345.73 267.672 345.73 267.61V267.12C345.73 266.872 345.679 266.627 345.58 266.4Z" fill="#F97316"/>
<g opacity="0.2">
<path d="M345.58 266.4L341.25 256.82H340.68L345 266.4C345.099 266.627 345.151 266.872 345.15 267.12V267.61C345.152 267.671 345.141 267.732 345.118 267.789C345.096 267.846 345.062 267.898 345.019 267.942C344.976 267.985 344.925 268.02 344.869 268.044C344.812 268.068 344.751 268.08 344.69 268.08H345.26C345.322 268.08 345.383 268.068 345.44 268.044C345.497 268.021 345.549 267.986 345.593 267.942C345.636 267.899 345.671 267.847 345.694 267.79C345.718 267.733 345.73 267.672 345.73 267.61V267.12C345.73 266.872 345.679 266.627 345.58 266.4Z" fill="#1F2937"/>
</g>
<path opacity="0.2" d="M340.68 256.82H330.57L330.97 259.11H341.72L340.68 256.82Z" fill="#1F2937"/>
<path d="M356.17 257.83H313C312.798 257.833 312.598 257.792 312.413 257.712C312.227 257.631 312.061 257.513 311.925 257.363C311.789 257.214 311.686 257.038 311.623 256.846C311.561 256.654 311.539 256.451 311.56 256.25L314.29 225.08C314.332 224.653 314.529 224.256 314.844 223.964C315.16 223.673 315.571 223.508 316 223.5H359.15C359.352 223.497 359.552 223.538 359.736 223.618C359.921 223.699 360.087 223.818 360.222 223.967C360.357 224.116 360.459 224.293 360.521 224.485C360.583 224.677 360.603 224.88 360.58 225.08L357.86 256.25C357.815 256.672 357.619 257.064 357.309 257.354C356.999 257.644 356.595 257.813 356.17 257.83Z" fill="#263238"/>
<path d="M311.89 252.88L311.59 256.25C311.569 256.451 311.59 256.654 311.653 256.846C311.716 257.038 311.819 257.214 311.955 257.363C312.091 257.513 312.257 257.631 312.443 257.712C312.628 257.792 312.828 257.833 313.03 257.83H356.17C356.6 257.82 357.011 257.655 357.328 257.364C357.644 257.073 357.844 256.677 357.89 256.25L358.18 252.88H311.89Z" fill="#F97316"/>
<path d="M356.66 251.93H313.58C313.47 251.932 313.361 251.911 313.26 251.867C313.159 251.824 313.068 251.759 312.994 251.677C312.92 251.596 312.865 251.5 312.831 251.395C312.798 251.29 312.787 251.179 312.8 251.07L315.05 225.31C315.082 225.081 315.192 224.871 315.361 224.714C315.531 224.557 315.75 224.464 315.98 224.45H359.06C359.17 224.446 359.28 224.466 359.382 224.509C359.484 224.552 359.575 224.617 359.65 224.699C359.724 224.781 359.779 224.878 359.812 224.983C359.845 225.089 359.855 225.2 359.84 225.31L357.59 251.07C357.558 251.299 357.448 251.509 357.279 251.666C357.109 251.823 356.89 251.916 356.66 251.93Z" fill="#F97316"/>
<path d="M356.66 251.93H313.58C313.47 251.932 313.361 251.911 313.26 251.867C313.159 251.824 313.068 251.759 312.994 251.677C312.92 251.596 312.865 251.5 312.831 251.395C312.798 251.29 312.787 251.179 312.8 251.07L315.05 225.31C315.082 225.081 315.192 224.871 315.361 224.714C315.531 224.557 315.75 224.464 315.98 224.45H359.06C359.17 224.446 359.28 224.466 359.382 224.509C359.484 224.552 359.575 224.617 359.65 224.699C359.724 224.781 359.779 224.878 359.812 224.983C359.845 225.089 359.855 225.2 359.84 225.31L357.59 251.07C357.558 251.299 357.448 251.509 357.279 251.666C357.109 251.823 356.89 251.916 356.66 251.93Z" fill="#F97316"/>
<path d="M360.13 223.5H359.18C359.382 223.497 359.582 223.537 359.766 223.618C359.951 223.699 360.117 223.817 360.252 223.967C360.387 224.116 360.489 224.293 360.551 224.485C360.613 224.677 360.633 224.88 360.61 225.08L357.89 256.25C357.844 256.677 357.644 257.073 357.328 257.364C357.011 257.655 356.6 257.82 356.17 257.83H357.17C357.599 257.82 358.009 257.654 358.324 257.363C358.639 257.072 358.836 256.676 358.88 256.25L361.61 225.08C361.632 224.876 361.609 224.669 361.544 224.474C361.479 224.28 361.372 224.101 361.232 223.951C361.091 223.801 360.92 223.683 360.73 223.605C360.54 223.528 360.335 223.492 360.13 223.5Z" fill="#F97316"/>
<path opacity="0.2" d="M360.13 223.5H359.18C359.382 223.497 359.582 223.537 359.766 223.618C359.951 223.699 360.117 223.817 360.252 223.967C360.387 224.116 360.489 224.293 360.551 224.485C360.613 224.677 360.633 224.88 360.61 225.08L357.89 256.25C357.844 256.677 357.644 257.073 357.328 257.364C357.011 257.655 356.6 257.82 356.17 257.83H357.17C357.599 257.82 358.009 257.654 358.324 257.363C358.639 257.072 358.836 256.676 358.88 256.25L361.61 225.08C361.632 224.876 361.609 224.669 361.544 224.474C361.479 224.28 361.372 224.101 361.232 223.951C361.091 223.801 360.92 223.683 360.73 223.605C360.54 223.528 360.335 223.492 360.13 223.5Z" fill="#F97316"/>
<g opacity="0.3">
<path d="M358.49 224.45H356.83L350.99 251.93H352.64L358.49 224.45Z" fill="#D1D5DB"/>
<path d="M349.31 251.93L355.15 224.45H348.93L343.09 251.93H349.31Z" fill="#D1D5DB"/>
</g>
<path opacity="0.6" d="M311.89 252.88L311.59 256.25C311.569 256.451 311.59 256.654 311.653 256.846C311.716 257.038 311.819 257.214 311.955 257.363C312.091 257.513 312.257 257.631 312.443 257.712C312.628 257.792 312.828 257.833 313.03 257.83H356.17C356.6 257.82 357.011 257.655 357.328 257.364C357.644 257.073 357.844 256.677 357.89 256.25L358.18 252.88H311.89Z" fill="#D1D5DB"/>
<path opacity="0.2" d="M360.13 223.53H359.18C359.382 223.527 359.582 223.568 359.766 223.648C359.951 223.729 360.117 223.848 360.252 223.997C360.387 224.146 360.489 224.323 360.551 224.515C360.613 224.707 360.633 224.91 360.61 225.11L357.89 256.28C357.844 256.707 357.644 257.103 357.328 257.394C357.011 257.685 356.6 257.85 356.17 257.86H357.17C357.599 257.85 358.009 257.684 358.324 257.393C358.639 257.102 358.836 256.706 358.88 256.28L361.61 225.11C361.632 224.906 361.609 224.699 361.544 224.504C361.479 224.31 361.372 224.131 361.232 223.981C361.091 223.831 360.92 223.713 360.73 223.636C360.54 223.558 360.335 223.522 360.13 223.53Z" fill="#D1D5DB"/>
<path d="M338.32 266.57H364.75C364.923 266.572 365.094 266.538 365.252 266.469C365.411 266.401 365.553 266.299 365.669 266.172C365.785 266.044 365.873 265.893 365.927 265.729C365.98 265.565 365.998 265.392 365.98 265.22L364.33 246.36C364.291 245.996 364.12 245.658 363.849 245.411C363.578 245.164 363.226 245.025 362.86 245.02H336.43C336.258 245.018 336.088 245.052 335.931 245.12C335.773 245.188 335.631 245.288 335.515 245.415C335.399 245.541 335.311 245.691 335.257 245.854C335.202 246.017 335.183 246.189 335.2 246.36L336.85 265.22C336.887 265.586 337.057 265.926 337.328 266.175C337.599 266.424 337.952 266.564 338.32 266.57Z" fill="#263238"/>
<path opacity="0.4" d="M338.32 266.57H364.75C364.923 266.572 365.094 266.538 365.252 266.469C365.411 266.401 365.553 266.299 365.669 266.172C365.785 266.044 365.873 265.893 365.927 265.729C365.98 265.565 365.998 265.392 365.98 265.22L364.33 246.36C364.291 245.996 364.12 245.658 363.849 245.411C363.578 245.164 363.226 245.025 362.86 245.02H336.43C336.258 245.018 336.088 245.052 335.931 245.12C335.773 245.188 335.631 245.288 335.515 245.415C335.399 245.541 335.311 245.691 335.257 245.854C335.202 246.017 335.183 246.189 335.2 246.36L336.85 265.22C336.887 265.586 337.057 265.926 337.328 266.175C337.599 266.424 337.952 266.564 338.32 266.57Z" fill="#D1D5DB"/>
<path d="M338.8 266.57H365.23C365.403 266.572 365.574 266.538 365.732 266.469C365.891 266.401 366.033 266.299 366.149 266.172C366.265 266.044 366.353 265.893 366.407 265.729C366.46 265.565 366.478 265.392 366.46 265.22L364.81 246.36C364.771 245.996 364.6 245.658 364.329 245.411C364.058 245.164 363.706 245.025 363.34 245.02H336.91C336.738 245.018 336.568 245.052 336.41 245.12C336.253 245.188 336.111 245.288 335.995 245.415C335.879 245.541 335.791 245.691 335.737 245.854C335.682 246.017 335.663 246.189 335.68 246.36L337.33 265.22C337.367 265.586 337.537 265.926 337.808 266.175C338.079 266.424 338.432 266.564 338.8 266.57Z" fill="#263238"/>
<path opacity="0.7" d="M338.8 266.57H365.23C365.403 266.572 365.574 266.538 365.732 266.469C365.891 266.401 366.033 266.299 366.149 266.172C366.265 266.044 366.353 265.893 366.407 265.729C366.46 265.565 366.478 265.392 366.46 265.22L364.81 246.36C364.771 245.996 364.6 245.658 364.329 245.411C364.058 245.164 363.706 245.025 363.34 245.02H336.91C336.738 245.018 336.568 245.052 336.41 245.12C336.253 245.188 336.111 245.288 335.995 245.415C335.879 245.541 335.791 245.691 335.737 245.854C335.682 246.017 335.663 246.189 335.68 246.36L337.33 265.22C337.367 265.586 337.537 265.926 337.808 266.175C338.079 266.424 338.432 266.564 338.8 266.57Z" fill="#D1D5DB"/>
<path d="M338.4 265.23H365.39L363.74 246.36H336.75L338.4 265.23Z" fill="#F97316"/>
<path opacity="0.5" d="M338.4 265.23H365.39L363.74 246.36H336.75L338.4 265.23Z" fill="#D1D5DB"/>
<path d="M339 268.37H366C366.284 268.371 366.566 268.316 366.828 268.208C367.091 268.1 367.33 267.941 367.53 267.74C367.731 267.539 367.89 267.301 367.998 267.038C368.107 266.775 368.161 266.494 368.16 266.21H336.86C336.859 266.492 336.913 266.772 337.02 267.034C337.127 267.295 337.284 267.533 337.483 267.733C337.681 267.934 337.918 268.093 338.178 268.202C338.438 268.312 338.718 268.369 339 268.37Z" fill="#263238"/>
<path opacity="0.2" d="M339 268.37H366C366.284 268.371 366.566 268.316 366.828 268.208C367.091 268.1 367.33 267.941 367.53 267.74C367.731 267.539 367.89 267.301 367.998 267.038C368.107 266.775 368.161 266.494 368.16 266.21H336.86C336.859 266.492 336.913 266.772 337.02 267.034C337.127 267.295 337.284 267.533 337.483 267.733C337.681 267.934 337.918 268.093 338.178 268.202C338.438 268.312 338.718 268.369 339 268.37Z" fill="#D1D5DB"/>
<path d="M341.16 268.37H368.16C368.444 268.37 368.725 268.314 368.987 268.206C369.249 268.097 369.487 267.938 369.687 267.737C369.888 267.537 370.047 267.299 370.156 267.037C370.264 266.774 370.32 266.494 370.32 266.21H339C339 266.783 339.228 267.332 339.633 267.737C340.038 268.142 340.587 268.37 341.16 268.37Z" fill="#263238"/>
<path opacity="0.5" d="M341.16 268.37H368.16C368.444 268.37 368.725 268.314 368.987 268.206C369.249 268.097 369.487 267.938 369.687 267.737C369.888 267.537 370.047 267.299 370.156 267.037C370.264 266.774 370.32 266.494 370.32 266.21H339C339 266.783 339.228 267.332 339.633 267.737C340.038 268.142 340.587 268.37 341.16 268.37Z" fill="#D1D5DB"/>
<path opacity="0.3" d="M357.46 266.21C357.35 266.402 357.192 266.562 357 266.672C356.809 266.783 356.591 266.841 356.37 266.84H352.94C352.719 266.842 352.501 266.784 352.309 266.674C352.118 266.563 351.959 266.403 351.85 266.21H357.46Z" fill="#1F2937"/>
<path d="M328.93 244.41H326.79L324.63 269.07H326.77C327.268 269.072 327.748 268.889 328.118 268.557C328.488 268.224 328.72 267.765 328.77 267.27L330.61 246.21C330.636 245.977 330.612 245.742 330.538 245.52C330.465 245.298 330.344 245.094 330.185 244.923C330.025 244.752 329.83 244.618 329.614 244.529C329.397 244.44 329.164 244.4 328.93 244.41Z" fill="#263238"/>
<path d="M326.33 269.07H317.52C317.29 269.074 317.061 269.029 316.849 268.938C316.638 268.847 316.448 268.712 316.293 268.541C316.137 268.371 316.02 268.169 315.949 267.95C315.878 267.731 315.855 267.499 315.88 267.27L317.72 246.21C317.769 245.723 317.994 245.272 318.354 244.94C318.713 244.608 319.181 244.42 319.67 244.41H328.49C328.72 244.407 328.948 244.453 329.159 244.545C329.37 244.637 329.559 244.772 329.714 244.942C329.869 245.112 329.986 245.313 330.058 245.532C330.129 245.75 330.154 245.981 330.13 246.21L328.28 267.27C328.231 267.757 328.006 268.208 327.647 268.54C327.287 268.872 326.819 269.06 326.33 269.07Z" fill="#F97316"/>
<path d="M328.45 244.82H326.16C326.085 244.821 326.013 244.847 325.955 244.894C325.896 244.941 325.856 245.007 325.84 245.08V245.16C325.798 245.336 325.699 245.494 325.558 245.608C325.416 245.722 325.242 245.786 325.06 245.79H322.88C322.708 245.793 322.542 245.728 322.417 245.611C322.292 245.493 322.218 245.331 322.21 245.16V245.08C322.208 245.01 322.178 244.944 322.128 244.895C322.077 244.847 322.01 244.82 321.94 244.82H319.65C319.272 244.826 318.908 244.97 318.63 245.227C318.351 245.483 318.177 245.833 318.14 246.21L316.3 267.27C316.28 267.446 316.298 267.625 316.353 267.794C316.407 267.963 316.497 268.118 316.616 268.25C316.735 268.381 316.881 268.486 317.044 268.556C317.207 268.627 317.383 268.662 317.56 268.66H326.38C326.757 268.652 327.118 268.506 327.394 268.25C327.671 267.994 327.844 267.645 327.88 267.27L329.72 246.21C329.742 246.032 329.725 245.852 329.67 245.682C329.616 245.512 329.525 245.355 329.405 245.223C329.284 245.091 329.136 244.986 328.972 244.917C328.807 244.847 328.629 244.814 328.45 244.82Z" fill="#F97316"/>
<path opacity="0.7" d="M328.45 244.82H326.16C326.085 244.821 326.013 244.847 325.955 244.894C325.896 244.941 325.856 245.007 325.84 245.08V245.16C325.798 245.336 325.699 245.494 325.558 245.608C325.416 245.722 325.242 245.786 325.06 245.79H322.88C322.708 245.793 322.542 245.728 322.417 245.611C322.292 245.493 322.218 245.331 322.21 245.16V245.08C322.208 245.01 322.178 244.944 322.128 244.895C322.077 244.847 322.01 244.82 321.94 244.82H319.65C319.272 244.826 318.908 244.97 318.63 245.227C318.351 245.483 318.177 245.833 318.14 246.21L316.3 267.27C316.28 267.446 316.298 267.625 316.353 267.794C316.407 267.963 316.497 268.118 316.616 268.25C316.735 268.381 316.881 268.486 317.044 268.556C317.207 268.627 317.383 268.662 317.56 268.66H326.38C326.757 268.652 327.118 268.506 327.394 268.25C327.671 267.994 327.844 267.645 327.88 267.27L329.72 246.21C329.742 246.032 329.725 245.852 329.67 245.682C329.616 245.512 329.525 245.355 329.405 245.223C329.284 245.091 329.136 244.986 328.972 244.917C328.807 244.847 328.629 244.814 328.45 244.82Z" fill="#D1D5DB"/>
<g opacity="0.2">
<path d="M323.49 245.06C323.485 245.107 323.463 245.15 323.428 245.182C323.393 245.213 323.347 245.23 323.3 245.23C323.278 245.232 323.255 245.228 323.234 245.22C323.214 245.212 323.195 245.2 323.179 245.183C323.164 245.167 323.153 245.147 323.146 245.126C323.139 245.105 323.137 245.082 323.14 245.06C323.143 245.011 323.164 244.966 323.199 244.932C323.234 244.899 323.281 244.88 323.33 244.88C323.353 244.88 323.375 244.885 323.396 244.894C323.417 244.903 323.436 244.917 323.451 244.934C323.466 244.951 323.477 244.971 323.484 244.993C323.491 245.014 323.493 245.037 323.49 245.06Z" fill="#1F2937"/>
<path d="M324.75 244.88H324.15C324.101 244.88 324.055 244.899 324.019 244.932C323.984 244.966 323.963 245.011 323.96 245.06C323.957 245.082 323.959 245.105 323.966 245.126C323.973 245.147 323.984 245.167 324 245.183C324.015 245.2 324.034 245.212 324.055 245.22C324.075 245.228 324.098 245.232 324.12 245.23H324.72C324.767 245.228 324.811 245.21 324.846 245.179C324.88 245.148 324.903 245.106 324.91 245.06C324.913 245.037 324.911 245.014 324.904 244.993C324.897 244.971 324.886 244.951 324.871 244.934C324.856 244.917 324.837 244.903 324.816 244.894C324.796 244.885 324.773 244.88 324.75 244.88Z" fill="#1F2937"/>
</g>
<path d="M319.13 245.79H319.31L319.33 245.6H319.14L319.13 245.79Z" fill="#F97316"/>
<path d="M319.51 245.6L319.5 245.79H319.69L319.7 245.6L319.72 245.42H319.53L319.51 245.6Z" fill="#F97316"/>
<path d="M319.92 245.23L319.9 245.42L319.89 245.6L319.87 245.79H320.06L320.07 245.6L320.09 245.42L320.1 245.23H319.92Z" fill="#F97316"/>
<path d="M327.89 245.24V245.38H327.8V245.65H327.89V245.79H328.71V245.24H327.89ZM328.22 245.65H327.94V245.38H328.21L328.22 245.65Z" fill="#F97316"/>
<g opacity="0.4">
<path d="M322.88 245.79L316.79 268.42C317.012 268.578 317.278 268.662 317.55 268.66H318L324.15 245.79H322.88Z" fill="#D1D5DB"/>
<path d="M328.45 244.82H326.16C326.085 244.821 326.013 244.847 325.954 244.894C325.896 244.941 325.856 245.007 325.84 245.08V245.16C325.799 245.332 325.704 245.486 325.569 245.599C325.434 245.713 325.266 245.78 325.09 245.79L318.94 268.66H323.63L329.71 246C329.694 245.678 329.554 245.375 329.319 245.155C329.084 244.934 328.772 244.814 328.45 244.82Z" fill="#D1D5DB"/>
</g>
<g opacity="0.2">
<path d="M342.92 122.82H197.63V209.89H342.92V122.82Z" fill="#1F2937"/>
</g>
<path d="M338.83 118.2H193.54V205.27H338.83V118.2Z" fill="#F97316"/>
<g opacity="0.5">
<path d="M338.83 118.2H193.54V205.27H338.83V118.2Z" fill="#D1D5DB"/>
</g>
<path d="M338.83 118.2H193.53V124.03H338.83V118.2Z" fill="#F97316"/>
<path d="M336.94 121.09C336.938 121.432 336.835 121.765 336.644 122.048C336.452 122.332 336.181 122.552 335.865 122.681C335.549 122.811 335.201 122.843 334.866 122.776C334.531 122.708 334.224 122.542 333.983 122.3C333.742 122.057 333.578 121.749 333.512 121.414C333.447 121.079 333.481 120.731 333.613 120.416C333.744 120.1 333.966 119.831 334.25 119.641C334.534 119.451 334.868 119.35 335.21 119.35C335.67 119.353 336.11 119.537 336.434 119.863C336.758 120.189 336.94 120.63 336.94 121.09Z" fill="#D1D5DB"/>
<path d="M241.46 136.93L250.96 126.19L255.91 140.72L269.97 136.65L267.16 151.08L282 154.76L272.18 165.22L283.83 175.69L269.63 179.37L274.97 193.8L260.2 189.72L257.79 204.26L246.41 193.51L236.9 204.26L231.95 189.72L217.89 193.8L220.7 179.37L205.86 175.69L215.68 165.22L204.03 154.76L218.23 151.08L212.89 136.65L227.66 140.72L230.07 126.19L241.46 136.93Z" fill="#F5F5F5"/>
<path d="M214.94 166.7L235.3 189C245.68 172.61 267.23 182.46 272.59 163.07L251.88 141.5C250.52 157.93 222 153.7 214.94 166.7Z" fill="#F97316"/>
<path opacity="0.4" d="M214.94 166.7L235.3 189C245.68 172.61 267.23 182.46 272.59 163.07L251.88 141.5C250.52 157.93 222 153.7 214.94 166.7Z" fill="#D1D5DB"/>
<path d="M239.28 162.9C239.535 162.94 239.776 163.041 239.983 163.194C240.19 163.347 240.357 163.548 240.47 163.78C240.648 164.101 240.741 164.463 240.74 164.83C240.722 165.229 240.598 165.615 240.38 165.95C240.104 166.357 239.742 166.698 239.32 166.95C238.962 167.183 238.576 167.368 238.17 167.5C237.807 167.625 237.423 167.676 237.04 167.65L236.98 166.39C237.276 166.417 237.574 166.39 237.86 166.31C238.161 166.224 238.448 166.092 238.71 165.92C238.97 165.765 239.181 165.539 239.32 165.27C239.374 165.165 239.403 165.048 239.403 164.93C239.403 164.812 239.374 164.695 239.32 164.59C239.269 164.485 239.19 164.396 239.09 164.334C238.991 164.272 238.877 164.24 238.76 164.24C238.395 164.293 238.05 164.441 237.76 164.67L236.44 165.53L235.02 162.33L238.16 160.27L238.72 161.27L236.57 162.68L237.06 163.75L237.48 163.48C237.997 163.087 238.631 162.883 239.28 162.9Z" fill="#F97316"/>
<path d="M242.83 164.22C242.359 164.212 241.901 164.058 241.52 163.78C241.053 163.429 240.67 162.978 240.4 162.46C240.098 161.946 239.91 161.373 239.85 160.78C239.802 160.277 239.888 159.769 240.1 159.31C240.321 158.863 240.669 158.491 241.1 158.24C241.488 157.97 241.948 157.824 242.42 157.82C242.897 157.826 243.359 157.983 243.74 158.27C244.206 158.615 244.586 159.064 244.85 159.58C245.156 160.092 245.344 160.666 245.4 161.26C245.457 161.755 245.374 162.255 245.162 162.705C244.95 163.156 244.617 163.538 244.2 163.81C243.798 164.088 243.319 164.232 242.83 164.22ZM244.07 161.85C244.06 161.32 243.9 160.804 243.61 160.36C243.394 159.894 243.046 159.501 242.61 159.23C242.453 159.151 242.278 159.115 242.102 159.126C241.926 159.136 241.757 159.193 241.61 159.29C241.459 159.386 241.335 159.519 241.249 159.677C241.163 159.834 241.119 160.011 241.12 160.19C241.13 160.72 241.29 161.236 241.58 161.68C241.796 162.146 242.144 162.539 242.58 162.81C242.735 162.898 242.912 162.939 243.089 162.928C243.266 162.917 243.437 162.856 243.58 162.75C243.732 162.654 243.857 162.521 243.942 162.364C244.028 162.206 244.072 162.029 244.07 161.85Z" fill="#F97316"/>
<path d="M245.56 158.84C245.345 158.773 245.145 158.663 244.973 158.517C244.801 158.371 244.661 158.192 244.56 157.99C244.321 157.594 244.233 157.126 244.31 156.67C244.353 156.465 244.438 156.271 244.558 156.099C244.678 155.927 244.832 155.781 245.01 155.67C245.173 155.55 245.362 155.47 245.561 155.435C245.761 155.4 245.966 155.412 246.16 155.47C246.376 155.536 246.576 155.645 246.748 155.791C246.92 155.938 247.06 156.117 247.16 156.32C247.402 156.711 247.491 157.177 247.41 157.63C247.369 157.835 247.287 158.029 247.169 158.201C247.05 158.373 246.897 158.519 246.72 158.63C246.554 158.749 246.364 158.83 246.164 158.866C245.963 158.903 245.757 158.894 245.56 158.84ZM246.63 157.53C246.625 157.273 246.553 157.021 246.42 156.8C246.311 156.574 246.137 156.386 245.92 156.26C245.842 156.211 245.752 156.185 245.66 156.185C245.568 156.185 245.478 156.211 245.4 156.26C245.321 156.31 245.255 156.38 245.21 156.462C245.165 156.544 245.14 156.636 245.14 156.73C245.133 156.988 245.202 157.242 245.34 157.46C245.447 157.688 245.621 157.876 245.84 158C245.92 158.044 246.009 158.067 246.1 158.067C246.191 158.067 246.28 158.044 246.36 158C246.438 157.947 246.502 157.878 246.549 157.796C246.596 157.715 246.624 157.624 246.63 157.53ZM248.15 153.72L249.03 153.15L248.51 160.84L247.64 161.41L248.15 153.72ZM250.86 159.14C250.593 159.149 250.33 159.072 250.11 158.92C249.861 158.744 249.659 158.511 249.52 158.24C249.359 157.969 249.264 157.664 249.24 157.35C249.22 157.067 249.275 156.785 249.4 156.53C249.534 156.284 249.726 156.075 249.96 155.92C250.125 155.804 250.314 155.726 250.513 155.691C250.711 155.657 250.915 155.667 251.11 155.72C251.325 155.787 251.525 155.897 251.697 156.043C251.869 156.189 252.009 156.368 252.11 156.57C252.351 156.965 252.436 157.435 252.35 157.89C252.311 158.095 252.229 158.29 252.11 158.462C251.991 158.635 251.838 158.78 251.66 158.89C251.425 159.053 251.146 159.14 250.86 159.14ZM251.54 157.79C251.538 157.532 251.465 157.28 251.33 157.06C251.223 156.832 251.049 156.644 250.83 156.52C250.751 156.473 250.661 156.449 250.57 156.449C250.479 156.449 250.389 156.473 250.31 156.52C250.232 156.573 250.168 156.643 250.121 156.724C250.074 156.805 250.046 156.896 250.04 156.99C250.033 157.252 250.106 157.51 250.25 157.73C250.359 157.956 250.533 158.144 250.75 158.27C250.827 158.317 250.915 158.342 251.005 158.342C251.095 158.342 251.183 158.317 251.26 158.27C251.342 158.219 251.411 158.149 251.46 158.065C251.509 157.981 251.536 157.887 251.54 157.79Z" fill="#F97316"/>
<path d="M243.28 174.74C242.738 174.782 242.196 174.663 241.72 174.4C241.229 174.12 240.827 173.708 240.56 173.21C240.272 172.704 240.12 172.132 240.12 171.55C240.12 170.968 240.272 170.396 240.56 169.89C240.862 169.36 241.287 168.91 241.8 168.58C242.291 168.249 242.859 168.049 243.45 168C243.992 167.96 244.534 168.078 245.01 168.34C245.505 168.615 245.908 169.029 246.17 169.53C246.463 170.033 246.612 170.608 246.6 171.19C246.592 171.772 246.437 172.343 246.15 172.85C245.845 173.375 245.42 173.821 244.91 174.15C244.425 174.481 243.864 174.684 243.28 174.74ZM245.04 172.33C245.202 172.022 245.282 171.678 245.27 171.33C245.258 170.979 245.162 170.636 244.99 170.33C244.823 170.022 244.578 169.764 244.28 169.58C244.003 169.413 243.684 169.329 243.36 169.34C243.024 169.36 242.699 169.47 242.42 169.66C242.123 169.849 241.878 170.11 241.71 170.42C241.548 170.728 241.468 171.072 241.48 171.42C241.491 171.771 241.587 172.114 241.76 172.42C241.929 172.729 242.173 172.991 242.47 173.18C242.748 173.345 243.068 173.424 243.39 173.41C243.728 173.395 244.054 173.284 244.33 173.09C244.613 172.896 244.843 172.635 245 172.33H245.04Z" fill="#F97316"/>
<path d="M247.34 166.47L248.13 167.89L250.52 166.33L251.07 167.33L248.69 168.88L249.78 170.88L248.59 171.65L245.59 166.27L249.48 163.72L250.04 164.72L247.34 166.47Z" fill="#F97316"/>
<path d="M252 163.4L252.79 164.82L255.18 163.26L255.73 164.26L253.35 165.82L254.44 167.82L253.25 168.6L250.25 163.21L254.14 160.67L254.7 161.67L252 163.4Z" fill="#F97316"/>
<path d="M291.27 158H288.07L287.51 159.47H284.63L288.3 151.07H291.09L294.76 159.47H291.83L291.27 158ZM290.49 156L289.67 153.89L288.85 156H290.49Z" fill="#F97316"/>
<path d="M302.33 150.51V159.42H299.75V158.88C299.516 159.114 299.234 159.294 298.923 159.408C298.612 159.522 298.28 159.567 297.95 159.54C297.392 159.546 296.843 159.401 296.36 159.12C295.87 158.842 295.471 158.429 295.21 157.93C294.929 157.372 294.782 156.755 294.782 156.13C294.782 155.505 294.929 154.888 295.21 154.33C295.476 153.837 295.874 153.428 296.36 153.15C296.843 152.869 297.392 152.724 297.95 152.73C298.252 152.709 298.556 152.749 298.842 152.847C299.129 152.945 299.394 153.099 299.62 153.3V150.51H302.33ZM299.33 157.08C299.556 156.798 299.664 156.44 299.63 156.08C299.653 155.737 299.546 155.398 299.33 155.13C299.236 155.017 299.119 154.926 298.986 154.863C298.852 154.801 298.707 154.768 298.56 154.768C298.413 154.768 298.268 154.801 298.135 154.863C298.002 154.926 297.884 155.017 297.79 155.13C297.574 155.398 297.467 155.737 297.49 156.08C297.456 156.44 297.564 156.798 297.79 157.08C297.884 157.193 298.002 157.284 298.135 157.347C298.268 157.41 298.413 157.442 298.56 157.442C298.707 157.442 298.852 157.41 298.986 157.347C299.119 157.284 299.236 157.193 299.33 157.08Z" fill="#F97316"/>
<path d="M310.79 150.51V159.42H308.21V158.88C307.976 159.114 307.694 159.294 307.383 159.408C307.072 159.522 306.74 159.567 306.41 159.54C305.852 159.546 305.303 159.401 304.82 159.12C304.33 158.842 303.931 158.429 303.67 157.93C303.389 157.372 303.242 156.755 303.242 156.13C303.242 155.505 303.389 154.888 303.67 154.33C303.936 153.837 304.334 153.428 304.82 153.15C305.303 152.869 305.852 152.724 306.41 152.73C306.712 152.709 307.016 152.749 307.302 152.847C307.589 152.945 307.854 153.099 308.08 153.3V150.51H310.79ZM307.79 157.08C308.016 156.798 308.124 156.44 308.09 156.08C308.113 155.737 308.006 155.398 307.79 155.13C307.696 155.017 307.579 154.926 307.445 154.863C307.312 154.801 307.167 154.768 307.02 154.768C306.873 154.768 306.728 154.801 306.595 154.863C306.462 154.926 306.344 155.017 306.25 155.13C306.034 155.398 305.927 155.737 305.95 156.08C305.916 156.44 306.024 156.798 306.25 157.08C306.344 157.193 306.462 157.284 306.595 157.347C306.728 157.41 306.873 157.442 307.02 157.442C307.167 157.442 307.312 157.41 307.445 157.347C307.579 157.284 307.696 157.193 307.79 157.08Z" fill="#F97316"/>
<path d="M275.64 173.45C274.947 173.098 274.368 172.557 273.97 171.89C273.571 171.198 273.36 170.414 273.36 169.615C273.36 168.816 273.571 168.032 273.97 167.34C274.368 166.673 274.947 166.132 275.64 165.78C276.382 165.401 277.206 165.209 278.04 165.22C278.793 165.208 279.54 165.358 280.23 165.66C280.854 165.932 281.397 166.359 281.81 166.9L280 168.5C279.797 168.199 279.525 167.951 279.207 167.777C278.888 167.603 278.533 167.508 278.17 167.5C277.905 167.488 277.64 167.533 277.394 167.631C277.147 167.729 276.924 167.879 276.74 168.07C276.391 168.504 276.201 169.043 276.201 169.6C276.201 170.157 276.391 170.696 276.74 171.13C276.924 171.321 277.147 171.471 277.394 171.569C277.64 171.667 277.905 171.712 278.17 171.7C278.532 171.69 278.887 171.594 279.205 171.42C279.524 171.247 279.796 171 280 170.7L281.79 172.3C281.375 172.841 280.832 173.27 280.21 173.55C279.513 173.854 278.76 174.007 278 174C277.181 174.008 276.371 173.82 275.64 173.45Z" fill="#F97316"/>
<path d="M283.87 173.5C283.313 173.23 282.843 172.811 282.51 172.29C282.183 171.761 282.01 171.152 282.01 170.53C282.01 169.908 282.183 169.299 282.51 168.77C282.84 168.246 283.311 167.826 283.87 167.56C284.486 167.276 285.157 167.13 285.835 167.13C286.513 167.13 287.184 167.276 287.8 167.56C288.366 167.827 288.842 168.253 289.17 168.785C289.499 169.318 289.665 169.934 289.65 170.56C289.665 171.186 289.499 171.802 289.17 172.335C288.842 172.867 288.366 173.293 287.8 173.56C287.185 173.85 286.514 174 285.835 174C285.156 174 284.485 173.85 283.87 173.56V173.5ZM286.6 171.5C286.796 171.222 286.901 170.89 286.901 170.55C286.901 170.21 286.796 169.878 286.6 169.6C286.506 169.487 286.389 169.396 286.255 169.333C286.122 169.27 285.977 169.238 285.83 169.238C285.683 169.238 285.538 169.27 285.405 169.333C285.272 169.396 285.154 169.487 285.06 169.6C284.864 169.878 284.759 170.21 284.759 170.55C284.759 170.89 284.864 171.222 285.06 171.5C285.154 171.613 285.272 171.704 285.405 171.767C285.538 171.83 285.683 171.862 285.83 171.862C285.977 171.862 286.122 171.83 286.255 171.767C286.389 171.704 286.506 171.613 286.6 171.5Z" fill="#F97316"/>
<path d="M297.67 167.25V173.82H295.09V173.19C294.856 173.438 294.569 173.629 294.25 173.75C293.931 173.872 293.592 173.936 293.25 173.94C292.882 173.956 292.514 173.896 292.17 173.764C291.826 173.631 291.513 173.429 291.25 173.17C290.978 172.858 290.771 172.494 290.641 172.101C290.51 171.708 290.459 171.293 290.49 170.88V167.25H293.21V170.41C293.173 170.757 293.247 171.107 293.42 171.41C293.496 171.506 293.594 171.582 293.705 171.632C293.816 171.683 293.938 171.706 294.06 171.7C294.187 171.7 294.313 171.671 294.427 171.616C294.541 171.56 294.641 171.48 294.72 171.38C294.915 171.085 295.006 170.733 294.98 170.38V167.29L297.67 167.25Z" fill="#F97316"/>
<path d="M304.84 167.55C305.331 167.83 305.733 168.242 306 168.74C306.289 169.295 306.433 169.914 306.42 170.54C306.434 171.163 306.29 171.779 306 172.33C305.733 172.828 305.331 173.241 304.84 173.52C304.358 173.801 303.808 173.946 303.25 173.94C302.949 173.961 302.648 173.921 302.363 173.823C302.077 173.725 301.815 173.571 301.59 173.37V176.14H298.87V167.25H301.45V167.79C301.685 167.558 301.968 167.378 302.278 167.264C302.589 167.151 302.92 167.105 303.25 167.13C303.808 167.124 304.358 167.269 304.84 167.55ZM303.37 171.49C303.596 171.208 303.704 170.85 303.67 170.49C303.693 170.147 303.586 169.808 303.37 169.54C303.276 169.429 303.159 169.339 303.027 169.277C302.895 169.216 302.751 169.184 302.605 169.184C302.459 169.184 302.315 169.216 302.183 169.277C302.051 169.339 301.934 169.429 301.84 169.54C301.624 169.808 301.517 170.147 301.54 170.49C301.506 170.85 301.614 171.208 301.84 171.49C301.938 171.594 302.057 171.678 302.188 171.735C302.32 171.791 302.462 171.821 302.605 171.821C302.748 171.821 302.89 171.791 303.022 171.735C303.153 171.678 303.272 171.594 303.37 171.49Z" fill="#F97316"/>
<path d="M308.78 173.5C308.225 173.228 307.755 172.809 307.42 172.29C307.1 171.759 306.931 171.15 306.931 170.53C306.931 169.91 307.1 169.301 307.42 168.77C307.752 168.248 308.223 167.829 308.78 167.56C309.404 167.263 310.089 167.116 310.78 167.13C311.471 167.118 312.155 167.265 312.78 167.56C313.336 167.827 313.804 168.246 314.13 168.77C314.45 169.301 314.619 169.91 314.619 170.53C314.619 171.15 314.45 171.759 314.13 172.29C313.801 172.811 313.334 173.23 312.78 173.5C312.158 173.803 311.472 173.954 310.78 173.94C310.088 173.956 309.402 173.805 308.78 173.5ZM311.51 171.5C311.706 171.222 311.811 170.89 311.811 170.55C311.811 170.21 311.706 169.878 311.51 169.6C311.416 169.487 311.298 169.396 311.165 169.333C311.032 169.271 310.887 169.238 310.74 169.238C310.593 169.238 310.448 169.271 310.315 169.333C310.181 169.396 310.064 169.487 309.97 169.6C309.774 169.878 309.669 170.21 309.669 170.55C309.669 170.89 309.774 171.222 309.97 171.5C310.064 171.613 310.181 171.704 310.315 171.767C310.448 171.83 310.593 171.862 310.74 171.862C310.887 171.862 311.032 171.83 311.165 171.767C311.298 171.704 311.416 171.613 311.51 171.5Z" fill="#F97316"/>
<path d="M321.92 167.86C322.185 168.16 322.386 168.511 322.513 168.89C322.64 169.27 322.69 169.671 322.66 170.07V173.82H320V170.54C320 169.79 319.73 169.41 319.19 169.41C319.051 169.409 318.914 169.437 318.786 169.492C318.659 169.547 318.544 169.628 318.45 169.73C318.243 170.021 318.144 170.374 318.17 170.73V173.82H315.46V167.25H318V167.9C318.251 167.645 318.555 167.447 318.89 167.32C319.24 167.194 319.608 167.13 319.98 167.13C320.336 167.116 320.691 167.174 321.024 167.299C321.357 167.424 321.662 167.615 321.92 167.86Z" fill="#F97316"/>
<path d="M178 223.26C178.57 224.97 191.82 227.07 185 238C178.18 248.93 174.18 241.55 176.34 253.88C178.5 266.21 162.87 258.03 154.87 260.6C140.51 265.22 134.76 244.36 146.02 243.15C157.28 241.94 159.76 241.35 158.44 232.51C157.12 223.67 174.14 211.39 178 223.26Z" fill="#263238"/>
<path d="M181.69 258.44C181.69 259.44 181.69 260.24 181.77 261.12C181.85 262 181.89 262.86 181.96 263.73C182.12 265.46 182.38 267.18 182.66 268.89C183.237 272.353 184.138 275.755 185.35 279.05L185.58 279.67C185.66 279.89 185.7 280.02 185.89 280.45C186.24 281.242 186.788 281.93 187.48 282.45C188.114 282.914 188.84 283.234 189.61 283.39C190.222 283.512 190.847 283.559 191.47 283.53C192.489 283.468 193.497 283.28 194.47 282.97C195.357 282.691 196.225 282.358 197.07 281.97C200.269 280.525 203.289 278.712 206.07 276.57L204.51 274.12C203.06 274.81 201.51 275.51 200.05 276.12C198.587 276.758 197.088 277.309 195.56 277.77C194.232 278.223 192.842 278.466 191.44 278.49C190.88 278.49 190.57 278.28 190.67 278.28C190.77 278.28 190.74 278.34 190.74 278.28L190.45 277.28C189.559 274.216 188.89 271.091 188.45 267.93C188.22 266.34 188.06 264.74 187.9 263.13C187.74 261.52 187.66 259.88 187.61 258.39L181.69 258.44Z" fill="#FFC3BD"/>
<path d="M186.19 251.72C188.5 252.5 189.45 262.33 189.45 262.33L182.62 266.28C182.62 266.28 177.1 256 179.1 253.56C181.1 251.12 182.81 250.6 186.19 251.72Z" fill="#F97316"/>
<path opacity="0.2" d="M186.19 251.72C188.5 252.5 189.45 262.33 189.45 262.33L182.62 266.28C182.62 266.28 177.1 256 179.1 253.56C181.1 251.12 182.81 250.6 186.19 251.72Z" fill="#D1D5DB"/>
<path opacity="0.2" d="M185.81 253.88L186.92 263.8L186.39 263.97C186.011 268.079 185.343 272.156 184.39 276.17C183.421 273.04 182.643 269.854 182.06 266.63L185.81 253.88Z" fill="#1F2937"/>
<path d="M203.2 274.83L207.39 269.21L208.97 274.83C208.97 274.83 206.34 277.42 204.06 276.71L203.2 274.83Z" fill="#FFC3BD"/>
<path d="M205 268.52C205.264 268.597 205.5 268.75 205.678 268.959C205.855 269.169 205.967 269.427 206 269.7L206.34 272.44L204.53 273.29L205 268.52Z" fill="#FFC3BD"/>
<path d="M211.28 267.43L212.34 271.67L208.97 274.83L207.4 269.21L211.28 267.43Z" fill="#FFC3BD"/>
<path d="M186.19 251.72C186.19 251.72 188.94 254.03 181.03 287.23C171.55 287.23 161.43 287.29 156.57 287.23C157.64 277.8 159.19 269.12 156.08 249.37C159.394 248.931 162.737 248.737 166.08 248.79C169.613 248.79 173.143 249.044 176.64 249.55C181.12 250.3 186.19 251.72 186.19 251.72Z" fill="#F97316"/>
<path opacity="0.2" d="M186.19 251.72C186.19 251.72 188.94 254.03 181.03 287.23C170.1 287.3 162.71 287.23 156.57 287.23C157.64 277.8 159.19 269.12 156.08 249.37C159.394 248.931 162.737 248.737 166.08 248.79C169.613 248.79 173.143 249.044 176.64 249.55C181.12 250.3 186.19 251.72 186.19 251.72Z" fill="#D1D5DB"/>
<path opacity="0.2" d="M161.89 257.5C161.36 261.11 159.71 265.02 157.89 269.58C157.89 266.64 157.74 263.85 157.51 261.27L161.89 257.5Z" fill="#1F2937"/>
<path d="M152.86 256.13C152.73 256.77 152.55 257.56 152.38 258.28C152.21 259 152.02 259.75 151.81 260.48C151.39 261.94 150.96 263.4 150.43 264.8C149.471 267.551 148.124 270.15 146.43 272.52C146.23 272.78 145.97 273.11 145.88 273.21C145.676 273.417 145.459 273.611 145.23 273.79C144.678 274.234 144.1 274.644 143.5 275.02C142.24 275.82 140.9 276.61 139.5 277.35C138.1 278.09 136.74 278.86 135.32 279.58L131.09 281.75L132.09 284.47C135.243 283.623 138.345 282.594 141.38 281.39C142.91 280.77 144.38 280.12 145.95 279.33C146.744 278.919 147.515 278.465 148.26 277.97C148.685 277.681 149.092 277.367 149.48 277.03C149.97 276.57 150.2 276.28 150.53 275.93C151.671 274.572 152.675 273.105 153.53 271.55C154.382 270.053 155.124 268.495 155.75 266.89C156.383 265.32 156.934 263.718 157.4 262.09C157.63 261.28 157.84 260.47 158.04 259.64C158.24 258.81 158.4 258.03 158.55 257.1L152.86 256.13Z" fill="#FFC3BD"/>
<path d="M156.08 249.37C153.7 249.91 150.32 257.73 150.32 257.73L158.89 264.85C158.89 264.85 162.67 258.39 161.89 255.31C161.11 252.23 158.8 248.75 156.08 249.37Z" fill="#F97316"/>
<path opacity="0.2" d="M156.08 249.37C153.7 249.91 150.32 257.73 150.32 257.73L158.89 264.85C158.89 264.85 162.67 258.39 161.89 255.31C161.11 252.23 158.8 248.75 156.08 249.37Z" fill="#D1D5DB"/>
<path d="M132.56 281.6L127.13 278.6L128.26 284.33C128.26 284.33 131.78 285.44 133.49 283.77L132.56 281.6Z" fill="#FFC3BD"/>
<path d="M122.36 279.38L123.57 284.12L128.26 284.33L127.13 278.61L122.36 279.38Z" fill="#FFC3BD"/>
<path d="M168 237C168.42 240.45 168.63 246.72 166.09 248.82C166.09 248.82 166.77 252.33 173.09 252.82C180.09 253.32 176.66 249.61 176.66 249.61C172.94 248.43 173.24 245.61 174.09 243.04L168 237Z" fill="#FFC3BD"/>
<path opacity="0.2" d="M170.44 239.42L174 243C173.795 243.606 173.641 244.228 173.54 244.86C172.11 244.54 170.23 242.81 170.19 241.28C170.158 240.65 170.243 240.019 170.44 239.42Z" fill="#1F2937"/>
<path d="M164.08 231.24C165.38 236.78 165.81 239.16 169.14 241.55C174.14 245.15 180.66 242.34 181.04 236.55C181.39 231.31 179.2 223.11 173.33 221.82C172.04 221.531 170.698 221.575 169.43 221.949C168.163 222.323 167.011 223.015 166.085 223.958C165.159 224.901 164.489 226.064 164.138 227.339C163.787 228.613 163.767 229.956 164.08 231.24Z" fill="#FFC3BD"/>
<path d="M177.43 222.79C179.3 225.39 161.13 235.05 162.88 228.94C164.63 222.83 172.56 216 177.43 222.79Z" fill="#263238"/>
<path d="M168.18 229C168.63 231.7 165.06 234.9 165.06 234.9C165.06 234.9 160.49 231.52 163.36 229.72C166.23 227.92 168.18 229 168.18 229Z" fill="#263238"/>
<path d="M173.64 231.2C173.72 231.65 174.02 231.98 174.32 231.93C174.62 231.88 174.8 231.47 174.72 231.01C174.64 230.55 174.34 230.23 174.04 230.28C173.74 230.33 173.56 230.74 173.64 231.2Z" fill="#263238"/>
<path d="M178.8 230.32C178.88 230.77 179.18 231.1 179.48 231.05C179.78 231 179.96 230.59 179.88 230.13C179.8 229.67 179.5 229.35 179.2 229.4C178.9 229.45 178.72 229.86 178.8 230.32Z" fill="#263238"/>
<path d="M179.07 229.45L180.12 228.94C180.12 228.94 179.7 229.9 179.07 229.45Z" fill="#263238"/>
<path d="M177 231.41C177.586 232.383 178.303 233.271 179.13 234.05C178.925 234.256 178.677 234.414 178.404 234.514C178.131 234.614 177.84 234.654 177.55 234.63L177 231.41Z" fill="#ED847E"/>
<path d="M175.35 236.84C175.578 236.839 175.805 236.818 176.03 236.78C176.065 236.773 176.097 236.752 176.117 236.722C176.138 236.692 176.146 236.656 176.14 236.62C176.133 236.584 176.112 236.553 176.082 236.533C176.052 236.512 176.016 236.504 175.98 236.51C175.414 236.619 174.831 236.593 174.277 236.435C173.722 236.277 173.213 235.991 172.79 235.6C172.778 235.587 172.763 235.577 172.747 235.569C172.73 235.562 172.713 235.559 172.695 235.559C172.677 235.559 172.659 235.562 172.643 235.569C172.627 235.577 172.612 235.587 172.6 235.6C172.576 235.626 172.563 235.66 172.563 235.695C172.563 235.73 172.576 235.764 172.6 235.79C172.966 236.138 173.398 236.41 173.87 236.59C174.342 236.771 174.845 236.856 175.35 236.84Z" fill="#263238"/>
<path d="M163.44 236.64C163.996 237.589 164.906 238.28 165.97 238.56C167.38 238.92 168.06 237.65 167.64 236.33C167.22 235.01 166.07 233.53 164.64 233.75C164.335 233.807 164.049 233.94 163.808 234.136C163.566 234.331 163.378 234.584 163.259 234.871C163.14 235.157 163.094 235.469 163.125 235.778C163.157 236.087 163.265 236.383 163.44 236.64Z" fill="#FFC3BD"/>
<path d="M171.39 230.5C171.448 230.499 171.503 230.48 171.55 230.446C171.597 230.412 171.631 230.365 171.65 230.31C171.832 229.905 172.097 229.543 172.428 229.247C172.759 228.951 173.148 228.727 173.57 228.59C173.638 228.565 173.694 228.515 173.726 228.449C173.757 228.384 173.763 228.309 173.74 228.24C173.73 228.206 173.713 228.174 173.69 228.147C173.667 228.119 173.639 228.097 173.607 228.081C173.575 228.065 173.54 228.056 173.505 228.054C173.469 228.052 173.433 228.058 173.4 228.07C172.895 228.234 172.431 228.505 172.039 228.863C171.647 229.222 171.337 229.661 171.13 230.15C171.119 230.184 171.115 230.22 171.119 230.256C171.122 230.291 171.132 230.326 171.149 230.358C171.166 230.389 171.188 230.417 171.216 230.44C171.244 230.463 171.276 230.48 171.31 230.49L171.39 230.5Z" fill="#263238"/>
<path d="M179.94 227.67C179.989 227.671 180.037 227.658 180.079 227.633C180.122 227.609 180.156 227.573 180.18 227.53C180.213 227.467 180.222 227.394 180.203 227.325C180.185 227.256 180.141 227.197 180.08 227.16C179.71 226.934 179.292 226.802 178.86 226.774C178.428 226.746 177.995 226.824 177.6 227C177.537 227.032 177.488 227.088 177.466 227.155C177.444 227.223 177.449 227.296 177.48 227.36C177.496 227.393 177.518 227.422 177.546 227.446C177.573 227.469 177.605 227.487 177.639 227.499C177.674 227.51 177.71 227.514 177.747 227.511C177.783 227.508 177.818 227.497 177.85 227.48C178.171 227.342 178.52 227.284 178.868 227.31C179.216 227.336 179.553 227.446 179.85 227.63C179.877 227.65 179.907 227.664 179.94 227.67Z" fill="#263238"/>
<path d="M173.91 230.33L174.96 229.82C174.96 229.82 174.54 230.78 173.91 230.33Z" fill="#263238"/>
<path d="M164.26 404.6C161.676 402.107 159.388 399.326 157.44 396.31C156.18 394.51 155.94 394.96 154.6 393.2C154.418 392.921 154.305 392.603 154.269 392.271C154.233 391.94 154.276 391.605 154.393 391.293C154.511 390.981 154.701 390.702 154.947 390.477C155.193 390.253 155.489 390.089 155.81 390C156.988 389.771 158.142 389.436 159.26 389L163.88 392.4C163.03 394.57 164.15 400.7 166.52 403.22C168.22 405 165.6 405.83 164.26 404.6Z" fill="#263238"/>
<path d="M179.75 287.23C179.75 287.23 194.55 330.46 194.75 344.47C194.82 348.75 163.51 393.4 163.51 393.4C162.72 394.01 159.42 389.91 159.23 388.83C167.41 373.02 173.31 354.57 180.72 343.88C162.35 313.06 158 287.23 158 287.23H179.75Z" fill="#263238"/>
<g opacity="0.2">
<path d="M179.75 287.23C179.75 287.23 194.55 330.46 194.75 344.47C194.82 348.75 163.51 393.4 163.51 393.4C162.72 394.01 159.42 389.91 159.23 388.83C167.41 373.02 173.31 354.57 180.72 343.88C162.35 313.06 158 287.23 158 287.23H179.75Z" fill="#D1D5DB"/>
</g>
<path opacity="0.3" d="M167.76 308.42C167.76 308.42 176.1 326.1 176.38 335.59C173.78 330.96 168.24 318.92 166.53 315.15L167.76 308.42Z" fill="#1F2937"/>
<path opacity="0.2" d="M164.26 378.29C163.86 382.58 163.12 388.77 163.26 393.46C162.708 393.306 162.206 393.014 161.8 392.61L161.22 384.85L164.26 378.29Z" fill="#1F2937"/>
<path d="M168.41 420.14C163.78 420.14 163.17 420.07 160.58 419.98C158.35 419.91 157.82 420.18 156.03 420.14C154.54 420.14 154.6 418.68 155.03 417.04C155.26 416.21 155.61 414.47 155.93 413.13L162.7 412.64C163.7 414.46 165.8 417.05 168.41 417.4C171.02 417.75 170.25 420.14 168.41 420.14Z" fill="#263238"/>
<path d="M173.24 287.23C173.24 287.23 168.37 331.86 165.54 350.23C162.54 369.56 162.19 400.57 162.93 413.23C161.85 413.86 157.93 413.42 155.79 412.75C155.79 412.75 148.98 374.04 152.38 352.16C149.07 298.16 158.01 287.22 158.01 287.22L173.24 287.23Z" fill="#263238"/>
<g opacity="0.2">
<path d="M173.24 287.23C173.24 287.23 168.37 331.86 165.54 350.23C162.54 369.56 162.19 400.57 162.93 413.23C161.85 413.86 157.93 413.42 155.79 412.75C155.79 412.75 148.98 374.04 152.38 352.16C149.07 298.16 158.01 287.22 158.01 287.22L173.24 287.23Z" fill="#D1D5DB"/>
</g>
<path d="M106.86 339.89H144.21C144.606 339.889 144.991 339.754 145.301 339.507C145.612 339.261 145.83 338.916 145.92 338.53L151.92 312.25H99.6499L105.15 338.5C105.232 338.893 105.447 339.245 105.759 339.498C106.07 339.751 106.459 339.889 106.86 339.89Z" fill="#F97316"/>
<path opacity="0.1" d="M106.86 339.89H144.21C144.606 339.889 144.991 339.754 145.301 339.507C145.612 339.261 145.83 338.916 145.92 338.53L151.92 312.25H99.6499L105.15 338.5C105.232 338.893 105.447 339.245 105.759 339.498C106.07 339.751 106.459 339.889 106.86 339.89Z" fill="#D1D5DB"/>
<path d="M143.51 323.27C143.707 323.267 143.895 323.187 144.034 323.047C144.172 322.906 144.25 322.717 144.25 322.52V315.52C144.25 315.323 144.172 315.134 144.034 314.993C143.895 314.853 143.707 314.773 143.51 314.77C143.311 314.77 143.12 314.849 142.979 314.99C142.839 315.13 142.76 315.321 142.76 315.52V322.52C142.76 322.719 142.839 322.91 142.979 323.05C143.12 323.191 143.311 323.27 143.51 323.27Z" fill="#263238"/>
<path d="M140.52 323.27C140.718 323.267 140.907 323.188 141.047 323.047C141.187 322.907 141.267 322.718 141.27 322.52V315.52C141.267 315.322 141.187 315.133 141.047 314.993C140.907 314.852 140.718 314.773 140.52 314.77C140.322 314.773 140.132 314.852 139.992 314.993C139.852 315.133 139.772 315.322 139.77 315.52V322.52C139.772 322.718 139.852 322.907 139.992 323.047C140.132 323.188 140.322 323.267 140.52 323.27Z" fill="#263238"/>
<path d="M137.59 323.27C137.788 323.267 137.977 323.188 138.117 323.047C138.257 322.907 138.337 322.718 138.34 322.52V315.52C138.337 315.322 138.257 315.133 138.117 314.993C137.977 314.852 137.788 314.773 137.59 314.77C137.392 314.773 137.202 314.852 137.062 314.993C136.922 315.133 136.842 315.322 136.84 315.52V322.52C136.842 322.718 136.922 322.907 137.062 323.047C137.202 323.188 137.392 323.267 137.59 323.27Z" fill="#263238"/>
<path d="M114.19 323.27C114.389 323.27 114.58 323.191 114.72 323.05C114.861 322.91 114.94 322.719 114.94 322.52V315.52C114.94 315.321 114.861 315.13 114.72 314.99C114.58 314.849 114.389 314.77 114.19 314.77C113.993 314.773 113.805 314.853 113.666 314.993C113.528 315.134 113.45 315.323 113.45 315.52V322.52C113.45 322.717 113.528 322.906 113.666 323.047C113.805 323.187 113.993 323.267 114.19 323.27Z" fill="#263238"/>
<path d="M111.16 323.27C111.359 323.27 111.55 323.191 111.69 323.05C111.831 322.91 111.91 322.719 111.91 322.52V315.52C111.91 315.321 111.831 315.13 111.69 314.99C111.55 314.849 111.359 314.77 111.16 314.77C110.963 314.773 110.775 314.853 110.636 314.993C110.498 315.134 110.42 315.323 110.42 315.52V322.52C110.42 322.717 110.498 322.906 110.636 323.047C110.775 323.187 110.963 323.267 111.16 323.27Z" fill="#263238"/>
<path d="M108.15 323.27C108.347 323.267 108.535 323.187 108.674 323.047C108.812 322.906 108.89 322.717 108.89 322.52V315.52C108.89 315.323 108.812 315.134 108.674 314.993C108.535 314.853 108.347 314.773 108.15 314.77C107.951 314.77 107.76 314.849 107.62 314.99C107.479 315.13 107.4 315.321 107.4 315.52V322.52C107.4 322.719 107.479 322.91 107.62 323.05C107.76 323.191 107.951 323.27 108.15 323.27Z" fill="#263238"/>
<path d="M130.58 323.27C130.778 323.267 130.967 323.188 131.107 323.047C131.247 322.907 131.327 322.718 131.33 322.52V315.52C131.327 315.322 131.247 315.133 131.107 314.993C130.967 314.852 130.778 314.773 130.58 314.77C130.382 314.773 130.192 314.852 130.052 314.993C129.912 315.133 129.832 315.322 129.83 315.52V322.52C129.832 322.718 129.912 322.907 130.052 323.047C130.192 323.188 130.382 323.267 130.58 323.27Z" fill="#263238"/>
<path d="M127.67 323.27C127.868 323.267 128.057 323.188 128.197 323.047C128.337 322.907 128.417 322.718 128.42 322.52V315.52C128.417 315.322 128.337 315.133 128.197 314.993C128.057 314.852 127.868 314.773 127.67 314.77C127.472 314.773 127.283 314.852 127.142 314.993C127.002 315.133 126.923 315.322 126.92 315.52V322.52C126.923 322.718 127.002 322.907 127.142 323.047C127.283 323.188 127.472 323.267 127.67 323.27Z" fill="#263238"/>
<path d="M124.68 323.27C124.879 323.27 125.07 323.191 125.21 323.05C125.351 322.91 125.43 322.719 125.43 322.52V315.52C125.43 315.321 125.351 315.13 125.21 314.99C125.07 314.849 124.879 314.77 124.68 314.77C124.483 314.773 124.295 314.853 124.156 314.993C124.018 315.134 123.94 315.323 123.94 315.52V322.52C123.94 322.717 124.018 322.906 124.156 323.047C124.295 323.187 124.483 323.267 124.68 323.27Z" fill="#263238"/>
<path d="M121.7 323.27C121.897 323.267 122.085 323.187 122.224 323.047C122.362 322.906 122.44 322.717 122.44 322.52V315.52C122.44 315.323 122.362 315.134 122.224 314.993C122.085 314.853 121.897 314.773 121.7 314.77C121.501 314.77 121.31 314.849 121.17 314.99C121.029 315.13 120.95 315.321 120.95 315.52V322.52C120.95 322.719 121.029 322.91 121.17 323.05C121.31 323.191 121.501 323.27 121.7 323.27Z" fill="#263238"/>
<path d="M143.51 335.59C143.706 335.59 143.894 335.512 144.033 335.373C144.172 335.234 144.25 335.046 144.25 334.85V327.85C144.25 327.654 144.172 327.465 144.033 327.327C143.894 327.188 143.706 327.11 143.51 327.11C143.412 327.109 143.314 327.127 143.224 327.163C143.133 327.2 143.05 327.254 142.98 327.323C142.91 327.392 142.855 327.474 142.817 327.564C142.779 327.655 142.76 327.752 142.76 327.85V334.85C142.76 334.948 142.779 335.045 142.817 335.135C142.855 335.226 142.91 335.308 142.98 335.377C143.05 335.446 143.133 335.5 143.224 335.537C143.314 335.573 143.412 335.591 143.51 335.59Z" fill="#263238"/>
<path d="M140.52 335.59C140.717 335.59 140.906 335.512 141.047 335.374C141.187 335.235 141.267 335.047 141.27 334.85V327.85C141.267 327.653 141.187 327.465 141.047 327.326C140.906 327.188 140.717 327.11 140.52 327.11C140.323 327.11 140.133 327.188 139.993 327.326C139.853 327.465 139.772 327.653 139.77 327.85V334.85C139.772 335.047 139.853 335.235 139.993 335.374C140.133 335.512 140.323 335.59 140.52 335.59Z" fill="#263238"/>
<path d="M137.59 335.59C137.787 335.59 137.976 335.512 138.117 335.374C138.257 335.235 138.337 335.047 138.34 334.85V327.85C138.337 327.653 138.257 327.465 138.117 327.326C137.976 327.188 137.787 327.11 137.59 327.11C137.393 327.11 137.203 327.188 137.063 327.326C136.923 327.465 136.842 327.653 136.84 327.85V334.85C136.842 335.047 136.923 335.235 137.063 335.374C137.203 335.512 137.393 335.59 137.59 335.59Z" fill="#263238"/>
<path d="M114.19 335.59C114.288 335.591 114.385 335.573 114.476 335.537C114.567 335.5 114.65 335.446 114.72 335.377C114.789 335.308 114.845 335.226 114.883 335.135C114.92 335.045 114.94 334.948 114.94 334.85V327.85C114.94 327.752 114.92 327.655 114.883 327.564C114.845 327.474 114.789 327.392 114.72 327.323C114.65 327.254 114.567 327.2 114.476 327.163C114.385 327.127 114.288 327.109 114.19 327.11C113.994 327.11 113.805 327.188 113.667 327.327C113.528 327.465 113.45 327.654 113.45 327.85V334.85C113.45 335.046 113.528 335.234 113.667 335.373C113.805 335.512 113.994 335.59 114.19 335.59Z" fill="#263238"/>
<path d="M111.16 335.59C111.258 335.591 111.355 335.573 111.446 335.537C111.537 335.5 111.62 335.446 111.69 335.377C111.759 335.308 111.815 335.226 111.853 335.135C111.89 335.045 111.91 334.948 111.91 334.85V327.85C111.91 327.752 111.89 327.655 111.853 327.564C111.815 327.474 111.759 327.392 111.69 327.323C111.62 327.254 111.537 327.2 111.446 327.163C111.355 327.127 111.258 327.109 111.16 327.11C110.964 327.11 110.775 327.188 110.637 327.327C110.498 327.465 110.42 327.654 110.42 327.85V334.85C110.42 335.046 110.498 335.234 110.637 335.373C110.775 335.512 110.964 335.59 111.16 335.59Z" fill="#263238"/>
<path d="M108.15 335.59C108.346 335.59 108.534 335.512 108.673 335.373C108.812 335.234 108.89 335.046 108.89 334.85V327.85C108.89 327.654 108.812 327.465 108.673 327.327C108.534 327.188 108.346 327.11 108.15 327.11C108.052 327.109 107.955 327.127 107.864 327.163C107.773 327.2 107.69 327.254 107.62 327.323C107.55 327.392 107.495 327.474 107.457 327.564C107.419 327.655 107.4 327.752 107.4 327.85V334.85C107.4 334.948 107.419 335.045 107.457 335.135C107.495 335.226 107.55 335.308 107.62 335.377C107.69 335.446 107.773 335.5 107.864 335.537C107.955 335.573 108.052 335.591 108.15 335.59Z" fill="#263238"/>
<path d="M130.58 335.59C130.777 335.59 130.966 335.512 131.107 335.374C131.247 335.235 131.327 335.047 131.33 334.85V327.85C131.327 327.653 131.247 327.465 131.107 327.326C130.966 327.188 130.777 327.11 130.58 327.11C130.383 327.11 130.193 327.188 130.053 327.326C129.913 327.465 129.832 327.653 129.83 327.85V334.85C129.832 335.047 129.913 335.235 130.053 335.374C130.193 335.512 130.383 335.59 130.58 335.59Z" fill="#263238"/>
<path d="M127.67 335.59C127.867 335.59 128.056 335.512 128.197 335.374C128.337 335.235 128.417 335.047 128.42 334.85V327.85C128.417 327.653 128.337 327.465 128.197 327.326C128.056 327.188 127.867 327.11 127.67 327.11C127.473 327.11 127.283 327.188 127.143 327.326C127.003 327.465 126.923 327.653 126.92 327.85V334.85C126.923 335.047 127.003 335.235 127.143 335.374C127.283 335.512 127.473 335.59 127.67 335.59Z" fill="#263238"/>
<path d="M124.68 335.59C124.778 335.591 124.875 335.573 124.966 335.537C125.057 335.5 125.14 335.446 125.21 335.377C125.279 335.308 125.335 335.226 125.373 335.135C125.41 335.045 125.43 334.948 125.43 334.85V327.85C125.43 327.752 125.41 327.655 125.373 327.564C125.335 327.474 125.279 327.392 125.21 327.323C125.14 327.254 125.057 327.2 124.966 327.163C124.875 327.127 124.778 327.109 124.68 327.11C124.484 327.11 124.295 327.188 124.157 327.327C124.018 327.465 123.94 327.654 123.94 327.85V334.85C123.94 335.046 124.018 335.234 124.157 335.373C124.295 335.512 124.484 335.59 124.68 335.59Z" fill="#263238"/>
<path d="M121.7 335.59C121.896 335.59 122.084 335.512 122.223 335.373C122.362 335.234 122.44 335.046 122.44 334.85V327.85C122.44 327.654 122.362 327.465 122.223 327.327C122.084 327.188 121.896 327.11 121.7 327.11C121.602 327.109 121.505 327.127 121.414 327.163C121.323 327.2 121.24 327.254 121.17 327.323C121.1 327.392 121.045 327.474 121.007 327.564C120.969 327.655 120.95 327.752 120.95 327.85V334.85C120.95 334.948 120.969 335.045 121.007 335.135C121.045 335.226 121.1 335.308 121.17 335.377C121.24 335.446 121.323 335.5 121.414 335.537C121.505 335.573 121.602 335.591 121.7 335.59Z" fill="#263238"/>
<path opacity="0.2" d="M151.75 313.06H99.8799L99.4099 311.38H152.25L151.75 313.06Z" fill="#1F2937"/>
<path d="M98.3499 312.25H153.62C154.214 312.25 154.784 312.014 155.204 311.594C155.624 311.174 155.86 310.604 155.86 310.01C155.86 309.416 155.624 308.846 155.204 308.426C154.784 308.006 154.214 307.77 153.62 307.77H98.3499C97.7575 307.77 97.1893 308.005 96.7695 308.423C96.3497 308.84 96.1125 309.408 96.1099 310C96.1086 310.295 96.1655 310.587 96.2775 310.86C96.3895 311.133 96.5543 311.381 96.7624 311.59C96.9706 311.799 97.2179 311.965 97.4904 312.079C97.7628 312.192 98.0549 312.25 98.3499 312.25Z" fill="#F97316"/>
<path opacity="0.3" d="M98.3499 312.25H153.62C154.214 312.25 154.784 312.014 155.204 311.594C155.624 311.174 155.86 310.604 155.86 310.01C155.86 309.416 155.624 308.846 155.204 308.426C154.784 308.006 154.214 307.77 153.62 307.77H98.3499C97.7575 307.77 97.1893 308.005 96.7695 308.423C96.3497 308.84 96.1125 309.408 96.1099 310C96.1086 310.295 96.1655 310.587 96.2775 310.86C96.3895 311.133 96.5543 311.381 96.7624 311.59C96.9706 311.799 97.2179 311.965 97.4904 312.079C97.7628 312.192 98.0549 312.25 98.3499 312.25Z" fill="#D1D5DB"/>
<path d="M126 311.38C126.181 311.381 126.36 311.347 126.527 311.279C126.695 311.21 126.847 311.11 126.975 310.982C127.103 310.855 127.205 310.703 127.275 310.537C127.344 310.37 127.38 310.191 127.38 310.01V282C127.38 281.819 127.344 281.64 127.275 281.473C127.205 281.307 127.103 281.155 126.975 281.028C126.847 280.9 126.695 280.8 126.527 280.731C126.36 280.663 126.181 280.629 126 280.63C125.637 280.63 125.288 280.774 125.031 281.031C124.774 281.288 124.63 281.637 124.63 282V310C124.629 310.181 124.663 310.36 124.731 310.527C124.8 310.695 124.9 310.847 125.028 310.975C125.155 311.104 125.306 311.205 125.473 311.275C125.64 311.344 125.819 311.38 126 311.38Z" fill="#263238"/>
</svg>
