<svg width="580" height="580" viewBox="0 0 580 580" fill="none" xmlns="http://www.w3.org/2000/svg">
<g clip-path="url(#clip0_114_49)">
<path d="M370.364 429.862L377.825 415.016C379.247 411.759 381.042 407.944 383.309 403.626C385.361 399.747 389.494 396.017 393.121 393.449C398.764 389.455 401.051 389.831 404.716 387.827C405.04 387.694 405.421 387.475 405.725 387.379C406.39 387.158 407.002 386.803 407.524 386.337C410.822 383.847 408.971 378.749 403.252 378.203C398.961 377.786 391.823 377.764 378.536 387.316C378.358 387.474 378.186 387.594 378.023 387.742C370.772 394.334 369.066 371.577 369.487 363.291C369.513 362 369.246 360.719 368.707 359.543C368.167 358.367 367.369 357.326 366.371 356.498C365.372 355.669 364.2 355.073 362.94 354.756C361.68 354.438 360.364 354.406 359.091 354.661L329.431 362.563C326.949 361.348 324.144 360.949 321.422 361.422C319.386 361.753 317.548 362.827 316.268 364.433C314.988 366.04 314.358 368.064 314.5 370.111L317.866 416.12L266.171 518.334L336.567 530.746L370.364 429.862Z" fill="#FFBE9D"/>
<path d="M441.989 340.243L412.756 378.778L402.405 373.853L339.939 408.417C337.388 409.837 334.378 410.211 331.549 409.458C328.72 408.706 326.296 406.886 324.792 404.387L308.197 376.68C308.197 376.68 353.364 366.117 363.749 352.614C374.133 339.112 365.761 334.143 365.761 334.143L389.452 315.32L441.989 340.243Z" fill="#D1D5DB"/>
<path d="M429.023 248.731C429.023 248.731 398.411 236.115 361.123 185.389C323.835 134.663 312.824 74.0394 307.341 73.3988C301.858 72.7582 279.795 57.436 216.865 147.868C153.934 238.3 167.864 264.286 176.924 265.748C185.984 267.209 250.584 260.969 288.274 272.087C325.965 283.205 371.882 311.841 371.882 311.841L429.023 248.731Z" fill="#D1D5DB"/>
<path d="M487.222 314.331L472.735 332.941L466.238 341.311C461.952 346.819 455.7 350.477 448.77 351.532C441.84 352.586 434.761 350.956 428.994 346.978L364.89 311.302L420.599 228.147L482.438 276.282C488.124 280.725 491.819 287.217 492.715 294.345C493.611 301.472 491.636 308.656 487.222 314.331Z" fill="#D1D5DB"/>
<g opacity="0.4">
<path d="M487.222 314.331L472.735 332.941L466.238 341.311C461.952 346.819 455.7 350.477 448.77 351.532C441.84 352.586 434.761 350.956 428.994 346.978L364.89 311.302L420.599 228.147L482.438 276.282C488.124 280.725 491.819 287.217 492.715 294.345C493.611 301.472 491.636 308.656 487.222 314.331Z" fill="black"/>
</g>
<path d="M220.184 150.302C186.535 199.367 168.055 245.126 178.906 252.49C189.757 259.855 225.857 226.065 259.509 176.987C293.16 127.909 311.636 82.1762 300.787 74.7988C289.938 67.4213 253.833 101.237 220.184 150.302Z" fill="#D1D5DB"/>
<g opacity="0.5">
<path d="M220.184 150.302C186.535 199.367 168.055 245.126 178.906 252.49C189.757 259.855 225.857 226.065 259.509 176.987C293.16 127.909 311.636 82.1762 300.787 74.7988C289.938 67.4213 253.833 101.237 220.184 150.302Z" fill="black"/>
</g>
<path d="M487.857 345.028L470.364 335.989L485.628 316.388L497.997 327.405L487.857 345.028Z" fill="#D1D5DB"/>
<g opacity="0.6">
<path d="M485.628 316.388L470.364 335.989L473.963 337.847L487.108 317.696L485.628 316.388Z" fill="black"/>
</g>
<path d="M471.984 319.12C471.614 319.667 463.006 314.479 452.758 307.574C442.509 300.67 434.534 294.533 434.89 293.984C435.247 293.435 443.866 298.639 454.118 305.599C464.371 312.558 472.367 318.576 471.984 319.12Z" fill="#D1D5DB"/>
<path d="M479.961 307.246C479.567 307.775 471.823 302.807 462.669 296.136C453.515 289.466 446.416 283.633 446.813 283.091C447.209 282.549 454.938 287.528 464.092 294.199C473.245 300.87 480.357 306.705 479.961 307.246Z" fill="#D1D5DB"/>
<path d="M462.436 331.37C462.287 331.67 460.172 330.781 456.869 329.029C455.213 328.18 453.25 327.127 451.092 325.944C448.933 324.762 446.803 323.108 444.471 321.514C435.169 315.062 428.237 309.137 428.587 308.627C428.937 308.118 436.627 313.158 445.816 319.549C448.137 321.128 450.254 322.779 452.297 324.077C454.339 325.375 456.175 326.528 457.703 327.558C460.753 329.66 462.584 331.07 462.436 331.37Z" fill="#D1D5DB"/>
<path d="M271.704 147.166C271.704 147.166 247.031 125.226 225.338 159.72C203.644 194.214 231.681 205.452 231.681 205.452C247.722 188 261.196 168.377 271.704 147.166Z" fill="#D1D5DB"/>
<g opacity="0.5">
<path d="M308.96 108.062C309.132 108.092 308.283 110.579 306.632 114.978C304.981 119.376 302.547 125.73 299.341 133.511L293.199 145.845C292.089 148.051 290.943 150.336 289.76 152.701L287.965 156.286C287.321 157.532 286.565 158.636 285.862 159.83L276.785 174.759C275.995 176.061 275.191 177.36 274.398 178.674C273.606 179.989 272.586 181.196 271.715 182.483L266.114 190.195L260.502 197.892C259.566 199.086 258.682 200.453 257.698 201.611C256.714 202.77 255.68 203.974 254.703 205.093L243.268 218.342C242.347 219.376 241.525 220.468 240.534 221.435L237.669 224.26L232.175 229.653L222.268 239.284C215.837 244.716 210.519 248.957 206.851 251.912C205.019 253.54 203.052 255.012 200.972 256.313C202.582 254.475 204.346 252.776 206.246 251.235C209.849 248.023 214.923 243.535 221.151 238.013L230.741 228.245L236.104 222.815C237.033 221.892 237.966 220.942 238.916 219.981C239.865 219.02 240.647 217.921 241.584 216.876L252.91 203.622L255.863 200.146C256.878 198.966 257.655 197.743 258.636 196.448L264.199 188.797C266.026 186.197 267.936 183.666 269.775 181.149C270.645 179.943 271.661 178.681 272.438 177.377L274.831 173.504L283.964 158.802C284.687 157.57 285.451 156.495 286.099 155.305C286.747 154.114 287.324 152.938 287.927 151.766L291.445 145.006L297.785 132.87L305.737 114.698C306.619 112.398 307.697 110.178 308.96 108.062Z" fill="black"/>
</g>
<g opacity="0.4">
<path d="M315.326 374.892C317.056 379.9 318.807 385.021 321.901 389.278C324.996 393.534 329.64 396.99 335.041 397.399C340.442 397.808 346.043 394.364 347.012 389.179C349.179 391.478 353.191 391.152 355.672 389.183C358.154 387.215 359.4 384.104 360.185 381.048C363.231 383.638 368.232 382.902 371.066 380.099C372.402 378.614 373.392 376.854 373.965 374.944C374.538 373.034 374.681 371.021 374.383 369.048C373.743 365.113 372.522 361.293 370.758 357.711C373.375 358.39 376.076 359.056 378.618 358.295C381.161 357.533 383.35 354.738 382.321 352.273C381.606 350.872 380.404 349.776 378.938 349.189C375.07 347.148 372.376 345.667 368.017 345.401C367.035 345.228 367.757 356.883 338.301 367.43C320.824 373.659 315.326 374.892 315.326 374.892Z" fill="black"/>
</g>
<path d="M372.76 401.603C372.74 401.722 371.009 401.063 368.102 400.632C364.327 400.058 360.474 400.288 356.799 401.306C353.124 402.325 349.71 404.108 346.783 406.538C344.527 408.397 343.462 409.854 343.302 409.757C343.484 409.366 343.728 409.005 344.024 408.688C344.769 407.784 345.582 406.937 346.454 406.154C349.37 403.567 352.845 401.68 356.613 400.638C360.381 399.596 364.34 399.427 368.188 400.144C369.344 400.356 370.479 400.665 371.582 401.069C372.003 401.177 372.402 401.357 372.76 401.603Z" fill="#EB996E"/>
<path d="M318.322 368.066C321.909 372.94 324.053 378.008 327.848 382.945C329.572 385.193 332.196 389.326 334.766 390.268C337.336 391.211 339.257 391.183 340.796 388.817C342.05 386.904 340.957 383.789 340.167 381.909C338.08 376.906 335.938 372.913 334.404 369.04C333.671 367.225 335.045 367.114 335.388 367.963C337.081 370.463 339.866 372.83 341.307 375.518C343.295 379.144 343 383.456 349.898 383.285C350.815 383.299 351.721 383.101 352.546 382.705C355.391 381.236 356.129 377.9 355.506 375.072C354.925 372.871 354.003 370.773 352.772 368.853C355.051 372.531 357.541 376.491 362.001 377.576C363.249 377.954 364.583 377.938 365.819 377.531C367.055 377.123 368.132 376.343 368.902 375.299C370.759 372.528 369.375 369.279 367.865 366.594C365.195 361.82 362.084 357.304 358.573 353.102C357.259 351.545 355.443 350.489 353.435 350.116C351.099 349.704 348.053 349.602 346.372 351.372C345.444 352.205 344.696 353.217 344.174 354.348C343.653 355.478 343.369 356.702 343.339 357.946C343.339 357.946 338.018 353.977 332.779 356.22C329.532 357.728 326.93 360.333 325.436 363.571L318.322 368.066Z" fill="#FFBE9D"/>
<path d="M353.791 348.874C353.047 347.632 352.703 346.194 352.805 344.754C352.907 343.314 353.451 341.941 354.363 340.819C355.7 339.056 357.279 337.391 358.628 337.194C364.515 336.315 388.089 344.781 386.919 350.094C385.75 355.406 383.521 357.65 370.676 353.442C368.412 352.703 364.855 351.613 364.855 351.613L360.834 355.798L353.791 348.874Z" fill="#FFBE9D"/>
<path d="M354.187 372.079C351.918 366.29 348.005 361.279 342.925 357.656C343.804 357.96 344.622 358.417 345.341 359.006C348.997 361.629 351.818 365.241 353.467 369.411C353.871 370.248 354.115 371.154 354.187 372.079Z" fill="#EB996E"/>
<path d="M361.177 356.334C361.039 356.418 359.661 354.843 357.707 353.126C356.892 352.388 356.037 351.697 355.143 351.056C354.448 350.58 353.96 350.399 353.991 350.296C354.023 350.193 354.59 350.238 355.382 350.636C356.398 351.17 357.339 351.834 358.18 352.611C360.184 354.365 361.375 356.219 361.177 356.334Z" fill="#EB996E"/>
<path d="M366.143 352.071C364.529 351.976 362.958 351.513 361.552 350.718C360.513 350.191 359.59 349.465 358.836 348.581C358.273 347.897 358.075 347.386 358.153 347.332C359.285 348.378 360.534 349.291 361.874 350.054C363.34 350.632 364.766 351.306 366.143 352.071Z" fill="#EB996E"/>
<path d="M337.571 375.987C336.888 374.966 336.314 373.876 335.86 372.736C334.774 370.033 333.241 367.53 331.323 365.329C329.303 363.237 326.564 361.977 323.654 361.802C322.447 361.804 321.247 361.962 320.082 362.273C320.082 362.273 320.37 362.039 320.972 361.805C321.829 361.475 322.74 361.304 323.66 361.3C325.188 361.324 326.696 361.65 328.097 362.258C329.498 362.867 330.763 363.747 331.819 364.846C333.803 367.097 335.331 369.706 336.32 372.531C336.834 373.647 337.253 374.803 337.571 375.987Z" fill="#EB996E"/>
<path d="M346.748 432.658C343.353 432.773 339.954 432.659 336.573 432.318C333.171 432.211 329.78 431.868 326.425 431.29C329.824 431.177 333.227 431.291 336.612 431.632C340.01 431.747 343.396 432.09 346.748 432.658Z" fill="#EB996E"/>
<path d="M464.627 93.3022L465.631 96.1837L468.052 98.087L465.126 99.0474L463.2 101.399L462.194 98.5302L459.773 96.627L462.698 95.6666L464.627 93.3022Z" fill="#D1D5DB"/>
<path d="M483.835 163.543L484.839 166.424L487.26 168.328L484.334 169.288L482.407 171.64L481.401 168.771L478.967 166.865L481.906 165.907L483.835 163.543Z" fill="#D1D5DB"/>
<path d="M57.2881 247.098L58.292 249.98L60.7259 251.885L57.7893 252.831L55.8604 255.195L54.8564 252.314L52.4333 250.423L55.3591 249.463L57.2881 247.098Z" fill="#D1D5DB"/>
<path d="M421.594 102.333L423.916 108.975L429.523 113.373L422.752 115.576L418.299 121.023L415.99 114.384L410.381 109.998L417.154 107.783L421.594 102.333Z" fill="#D1D5DB"/>
<path d="M91.9941 210.848L94.307 217.462L99.9034 221.845L93.143 224.063L88.7075 229.487L86.3947 222.873L80.8005 218.477L87.5587 216.272L91.9941 210.848Z" fill="#D1D5DB"/>
<path d="M491.449 419.433L493.76 426.059L499.343 430.441L492.598 432.648L488.16 438.085L485.85 431.458L480.253 427.075L487.011 424.869L491.449 419.433Z" fill="#D1D5DB"/>
</g>
<defs>
<clipPath id="clip0_114_49">
<rect width="500" height="500" fill="white" transform="translate(86.8241) rotate(10)"/>
</clipPath>
</defs>
</svg>
