<svg width="580" height="580" viewBox="0 0 580 580" fill="none" xmlns="http://www.w3.org/2000/svg">
<g clip-path="url(#clip0_59_102)">
<path d="M370.414 430.131L377.875 415.285C379.298 412.028 381.092 408.212 383.359 403.895C385.411 400.016 389.544 396.286 393.171 393.718C398.815 389.724 401.102 390.1 404.766 388.095C405.091 387.962 405.471 387.744 405.775 387.648C406.441 387.427 407.053 387.072 407.574 386.606C410.872 384.115 409.021 379.018 403.303 378.472C399.011 378.055 391.873 378.033 378.586 387.584C378.408 387.743 378.236 387.863 378.073 388.011C370.823 394.603 369.116 371.846 369.537 363.56C369.563 362.269 369.296 360.988 368.757 359.812C368.218 358.636 367.419 357.595 366.421 356.766C365.422 355.938 364.25 355.342 362.99 355.024C361.73 354.707 360.415 354.674 359.142 354.93L329.481 362.831C326.999 361.617 324.194 361.217 321.473 361.691C319.436 362.022 317.599 363.095 316.319 364.702C315.038 366.309 314.408 368.333 314.55 370.38L317.917 416.389L266.222 518.603L336.617 531.015L370.414 430.131Z" fill="#FFBE9D"/>
<path d="M442.04 340.512L412.806 379.046L402.455 374.122L339.99 408.686C337.438 410.106 334.428 410.48 331.599 409.727C328.77 408.974 326.346 407.155 324.843 404.656L308.247 376.949C308.247 376.949 353.414 366.385 363.799 352.883C374.184 339.381 365.811 334.411 365.811 334.411L389.502 315.589L442.04 340.512Z" fill="#1F2937"/>
<path d="M429.074 248.999C429.074 248.999 398.461 236.384 361.173 185.658C323.885 134.932 312.875 74.3082 307.391 73.6676C301.908 73.027 279.845 57.7048 216.915 148.137C153.985 238.569 167.915 264.555 176.974 266.016C186.034 267.478 250.634 261.238 288.324 272.356C326.015 283.474 371.932 312.11 371.932 312.11L429.074 248.999Z" fill="#1F2937"/>
<path d="M487.272 314.6L472.785 333.21L466.288 341.58C462.002 347.088 455.75 350.746 448.82 351.8C441.89 352.855 434.812 351.225 429.044 347.247L364.94 311.57L420.649 228.415L482.488 276.551C488.175 280.993 491.869 287.486 492.765 294.613C493.661 301.741 491.687 308.925 487.272 314.6Z" fill="#1F2937"/>
<g opacity="0.4">
<path d="M487.272 314.6L472.785 333.21L466.288 341.58C462.002 347.088 455.75 350.746 448.82 351.8C441.89 352.855 434.812 351.225 429.044 347.247L364.94 311.57L420.649 228.415L482.488 276.551C488.175 280.993 491.869 287.486 492.765 294.613C493.661 301.741 491.687 308.925 487.272 314.6Z" fill="black"/>
</g>
<path d="M220.235 150.571C186.586 199.636 168.105 245.395 178.956 252.759C189.808 260.123 225.908 226.334 259.559 177.256C293.21 128.177 311.686 82.445 300.837 75.0676C289.988 67.6901 253.884 101.506 220.235 150.571Z" fill="#1F2937"/>
<g opacity="0.5">
<path d="M220.235 150.571C186.586 199.636 168.105 245.395 178.956 252.759C189.808 260.123 225.908 226.334 259.559 177.256C293.21 128.177 311.686 82.445 300.837 75.0676C289.988 67.6901 253.884 101.506 220.235 150.571Z" fill="black"/>
</g>
<path d="M487.907 345.297L470.414 336.258L485.678 316.657L498.047 327.673L487.907 345.297Z" fill="#1F2937"/>
<g opacity="0.6">
<path d="M485.678 316.657L470.414 336.258L474.013 338.116L487.158 317.964L485.678 316.657Z" fill="black"/>
</g>
<path d="M472.034 319.389C471.664 319.936 463.056 314.748 452.808 307.843C442.56 300.939 434.584 294.802 434.941 294.253C435.297 293.704 443.916 298.908 454.169 305.867C464.421 312.827 472.417 318.845 472.034 319.389Z" fill="#1F2937"/>
<path d="M480.011 307.515C479.617 308.044 471.873 303.076 462.719 296.405C453.565 289.734 446.466 283.902 446.863 283.36C447.26 282.818 454.988 287.797 464.142 294.468C473.296 301.138 480.408 306.973 480.011 307.515Z" fill="#1F2937"/>
<path d="M462.486 331.639C462.337 331.939 460.223 331.049 456.919 329.298C455.263 328.448 453.301 327.396 451.142 326.213C448.984 325.03 446.853 323.377 444.521 321.783C435.219 315.331 428.287 309.405 428.637 308.896C428.987 308.387 436.677 313.427 445.866 319.818C448.188 321.397 450.305 323.048 452.347 324.346C454.389 325.644 456.225 326.797 457.753 327.827C460.803 329.928 462.634 331.339 462.486 331.639Z" fill="#1F2937"/>
<path d="M271.754 147.435C271.754 147.435 247.082 125.494 225.388 159.989C203.694 194.483 231.731 205.72 231.731 205.72C247.772 188.268 261.246 168.646 271.754 147.435Z" fill="#1F2937"/>
<g opacity="0.5">
<path d="M309.01 108.33C309.182 108.361 308.333 110.848 306.682 115.247C305.031 119.645 302.597 125.999 299.392 133.78L293.249 146.114C292.14 148.32 290.993 150.605 289.81 152.97L288.015 156.555C287.371 157.801 286.615 158.904 285.912 160.099L276.836 175.028C276.045 176.329 275.241 177.629 274.449 178.943C273.656 180.258 272.636 181.465 271.766 182.752L266.164 190.464L260.552 198.161C259.616 199.355 258.732 200.722 257.748 201.88C256.764 203.039 255.731 204.243 254.753 205.362L243.319 218.611C242.397 219.645 241.576 220.737 240.584 221.704L237.719 224.529L232.225 229.922L222.318 239.553C215.887 244.984 210.57 249.226 206.902 252.181C205.069 253.809 203.102 255.281 201.022 256.582C202.632 254.744 204.397 253.045 206.296 251.504C209.9 248.292 214.974 243.804 221.201 238.282L230.791 228.514L236.154 223.084C237.083 222.16 238.017 221.21 238.966 220.25C239.915 219.289 240.697 218.19 241.634 217.145L252.961 203.891L255.913 200.415C256.928 199.234 257.705 198.012 258.686 196.717L264.249 189.066C266.076 186.466 267.986 183.934 269.825 181.418C270.695 180.212 271.711 178.95 272.488 177.646L274.881 173.773L284.014 159.071C284.737 157.839 285.501 156.764 286.149 155.573C286.797 154.383 287.374 153.207 287.977 152.035L291.495 145.274L297.835 133.139L305.787 114.967C306.669 112.667 307.747 110.447 309.01 108.33Z" fill="black"/>
</g>
<g opacity="0.4">
<path d="M315.376 375.161C317.106 380.169 318.858 385.29 321.952 389.547C325.046 393.803 329.69 397.259 335.091 397.668C340.492 398.076 346.093 394.633 347.062 389.448C349.229 391.746 353.241 391.421 355.722 389.452C358.204 387.484 359.45 384.373 360.235 381.317C363.281 383.907 368.282 383.171 371.116 380.368C372.452 378.883 373.442 377.122 374.015 375.212C374.589 373.302 374.731 371.289 374.433 369.317C373.793 365.382 372.572 361.562 370.808 357.98C373.425 358.659 376.126 359.325 378.668 358.564C381.211 357.802 383.4 355.007 382.371 352.542C381.656 351.141 380.454 350.045 378.988 349.458C375.12 347.417 372.426 345.936 368.067 345.67C367.085 345.497 367.808 357.151 338.351 367.698C320.875 373.928 315.376 375.161 315.376 375.161Z" fill="black"/>
</g>
<path d="M372.811 401.872C372.79 401.991 371.059 401.332 368.152 400.901C364.377 400.327 360.524 400.557 356.849 401.575C353.174 402.593 349.76 404.377 346.834 406.807C344.577 408.665 343.513 410.122 343.352 410.026C343.535 409.634 343.778 409.274 344.074 408.957C344.819 408.053 345.632 407.206 346.505 406.423C349.42 403.835 352.896 401.948 356.663 400.907C360.431 399.865 364.391 399.696 368.238 400.413C369.394 400.624 370.53 400.934 371.633 401.338C372.054 401.445 372.453 401.626 372.811 401.872Z" fill="#EB996E"/>
<path d="M318.372 368.335C321.959 373.209 324.103 378.276 327.898 383.214C329.622 385.462 332.246 389.595 334.816 390.537C337.386 391.48 339.307 391.451 340.846 389.086C342.1 387.173 341.007 384.057 340.217 382.178C338.13 377.175 335.988 373.181 334.455 369.309C333.721 367.494 335.095 367.383 335.438 368.232C337.132 370.732 339.916 373.099 341.358 375.786C343.345 379.413 343.05 383.724 349.949 383.554C350.865 383.568 351.771 383.369 352.596 382.974C355.441 381.505 356.179 378.169 355.556 375.34C354.976 373.139 354.053 371.041 352.822 369.122C355.101 372.8 357.591 376.759 362.052 377.845C363.299 378.223 364.633 378.207 365.869 377.799C367.105 377.392 368.182 376.612 368.952 375.568C370.809 372.796 369.425 369.548 367.915 366.862C365.245 362.089 362.134 357.573 358.623 353.371C357.309 351.814 355.493 350.758 353.485 350.385C351.149 349.973 348.103 349.871 346.422 351.641C345.494 352.474 344.746 353.486 344.225 354.616C343.703 355.747 343.419 356.971 343.389 358.215C343.389 358.215 338.068 354.246 332.829 356.489C329.582 357.997 326.98 360.601 325.486 363.84L318.372 368.335Z" fill="#FFBE9D"/>
<path d="M353.841 349.143C353.097 347.901 352.753 346.463 352.855 345.023C352.958 343.583 353.501 342.21 354.413 341.088C355.75 339.325 357.33 337.66 358.678 337.463C364.566 336.584 388.139 345.05 386.969 350.362C385.8 355.675 383.571 357.919 370.727 353.711C368.462 352.972 364.906 351.882 364.906 351.882L360.884 356.067L353.841 349.143Z" fill="#FFBE9D"/>
<path d="M354.237 372.348C351.968 366.559 348.055 361.548 342.975 357.925C343.854 358.229 344.672 358.686 345.391 359.275C349.047 361.898 351.868 365.51 353.517 369.679C353.921 370.517 354.166 371.422 354.237 372.348Z" fill="#EB996E"/>
<path d="M361.227 356.603C361.089 356.687 359.712 355.112 357.757 353.395C356.943 352.657 356.087 351.966 355.194 351.325C354.498 350.849 354.01 350.668 354.042 350.565C354.074 350.461 354.64 350.507 355.432 350.905C356.448 351.438 357.389 352.103 358.231 352.88C360.234 354.633 361.425 356.488 361.227 356.603Z" fill="#EB996E"/>
<path d="M366.193 352.34C364.579 352.244 363.008 351.781 361.602 350.987C360.563 350.46 359.64 349.734 358.886 348.85C358.323 348.166 358.126 347.655 358.204 347.601C359.335 348.646 360.584 349.56 361.924 350.323C363.39 350.901 364.817 351.574 366.193 352.34Z" fill="#EB996E"/>
<path d="M337.622 376.256C336.938 375.235 336.364 374.145 335.91 373.004C334.824 370.302 333.291 367.799 331.374 365.598C329.353 363.505 326.614 362.246 323.704 362.071C322.498 362.073 321.297 362.231 320.132 362.542C320.132 362.542 320.42 362.307 321.022 362.074C321.879 361.743 322.791 361.572 323.711 361.569C325.238 361.593 326.746 361.918 328.147 362.527C329.548 363.136 330.813 364.016 331.869 365.115C333.853 367.365 335.382 369.975 336.37 372.8C336.884 373.915 337.303 375.071 337.622 376.256Z" fill="#EB996E"/>
<path d="M346.798 432.927C343.403 433.041 340.004 432.928 336.623 432.587C333.221 432.48 329.83 432.136 326.475 431.559C329.874 431.446 333.277 431.56 336.662 431.901C340.06 432.016 343.446 432.358 346.798 432.927Z" fill="#EB996E"/>
<path d="M464.678 93.571L465.682 96.4525L468.103 98.3558L465.177 99.3162L463.25 101.668L462.244 98.799L459.823 96.8958L462.749 95.9354L464.678 93.571Z" fill="#1F2937"/>
<path d="M483.885 163.812L484.889 166.693L487.31 168.596L484.384 169.557L482.457 171.908L481.451 169.04L479.017 167.134L481.956 166.176L483.885 163.812Z" fill="#1F2937"/>
<path d="M57.3383 247.367L58.3423 250.249L60.7762 252.154L57.8396 253.1L55.9106 255.464L54.9067 252.583L52.4835 250.692L55.4094 249.732L57.3383 247.367Z" fill="#1F2937"/>
<path d="M421.644 102.602L423.966 109.244L429.573 113.642L422.802 115.845L418.349 121.292L416.041 114.653L410.431 110.267L417.205 108.051L421.644 102.602Z" fill="#1F2937"/>
<path d="M92.0444 211.117L94.3573 217.731L99.9536 222.114L93.1932 224.332L88.7578 229.756L86.4449 223.142L80.8507 218.746L87.6089 216.541L92.0444 211.117Z" fill="#1F2937"/>
<path d="M491.499 419.702L493.81 426.328L499.394 430.709L492.648 432.917L488.211 438.353L485.9 431.727L480.304 427.343L487.062 425.138L491.499 419.702Z" fill="#1F2937"/>
</g>
<defs>
<clipPath id="clip0_59_102">
<rect width="500" height="500" fill="white" transform="translate(86.8743 0.268799) rotate(10)"/>
</clipPath>
</defs>
</svg>
