<svg width="315" height="391" viewBox="0 0 315 391" fill="none" xmlns="http://www.w3.org/2000/svg">
<path d="M170.145 0.386719H9.61171C4.67424 0.386719 0.671631 4.13061 0.671631 8.74892V198.213C0.671631 202.831 4.67424 206.575 9.61171 206.575H170.145C175.083 206.575 179.085 202.831 179.085 198.213V8.74892C179.085 4.13061 175.083 0.386719 170.145 0.386719Z" fill="#D1D5DB"/>
<path d="M8.14591 0.386728H171.684C173.663 0.386728 175.561 1.1221 176.96 2.43107C178.36 3.74004 179.146 5.5154 179.146 7.36656V24.5555H0.671641V7.37789C0.670045 6.45937 0.862284 5.54961 1.23734 4.70073C1.61239 3.85185 2.16286 3.08055 2.85723 2.43106C3.5516 1.78158 4.37621 1.26667 5.28375 0.915858C6.1913 0.565048 7.16393 0.385236 8.14591 0.386728Z" fill="#1F2937"/>
<path d="M171.769 206.575H172.277C172.779 206.54 173.274 206.452 173.755 206.314C174.704 206.06 175.588 205.627 176.352 205.043C177.117 204.458 177.746 203.734 178.201 202.915C178.507 202.343 178.734 201.738 178.879 201.113C178.999 200.405 179.044 199.688 179.013 198.972C179.013 197.465 179.013 195.811 179.013 194.02C179.013 190.451 179.013 186.315 179.013 181.681C179.013 163.087 178.952 136.199 178.916 102.988C178.916 86.3768 178.916 68.1794 178.916 48.5996C178.916 38.8324 178.916 28.7403 178.916 18.3234C178.916 15.7249 178.916 13.1075 178.916 10.4711C178.916 9.15675 178.916 7.79704 178.916 6.52798C178.765 5.24616 178.218 4.03332 177.341 3.03807C176.445 2.04582 175.264 1.31446 173.937 0.930525C172.548 0.655113 171.125 0.563573 169.709 0.658586H160.963H8.18209C6.54812 0.668632 4.96683 1.2003 3.69996 2.16559C2.44473 3.1382 1.58858 4.48757 1.27717 5.9841C1.15476 6.73371 1.11011 7.49264 1.1439 8.25028V70.4229C1.1439 94.3197 1.1439 117.378 1.1439 139.349C1.1439 150.328 1.1439 161.047 1.1439 171.449V186.825C1.1439 189.352 1.1439 191.856 1.1439 194.338V198.043C1.05619 199.244 1.16238 200.451 1.45887 201.623C1.83028 202.747 2.51368 203.759 3.4394 204.555C4.36512 205.351 5.50006 205.903 6.72844 206.156C7.97668 206.314 9.23787 206.363 10.4959 206.303H29.1271H56.9891L141.108 206.394H163.979H169.927C171.272 206.394 171.962 206.394 171.962 206.394H169.927H163.979H141.108L56.9891 206.496H10.2899C8.99569 206.558 7.698 206.509 6.41346 206.348C5.09957 206.077 3.88512 205.487 2.89212 204.638C1.89911 203.789 1.16249 202.71 0.756245 201.51C0.4339 200.292 0.319426 199.034 0.417057 197.782C0.417057 196.558 0.417057 195.312 0.417057 194.077V186.565C0.417057 181.526 0.417057 176.401 0.417057 171.189C0.417057 160.787 0.417057 150.068 0.417057 139.088C0.417057 117.117 0.417057 94.0591 0.417057 70.1623C0.417057 58.2044 0.417057 46.0501 0.417057 33.6995V8.30694C0.382178 7.49994 0.430891 6.69168 0.562455 5.89345C0.900484 4.26278 1.83403 2.79274 3.20328 1.73502C4.57186 0.688106 6.28096 0.108609 8.04885 0.092041H160.83H171.732C172.482 0.0929401 173.228 0.192098 173.949 0.386638C175.367 0.801811 176.628 1.58822 177.583 2.65282C178.537 3.72709 179.135 5.03846 179.303 6.42601C179.4 7.80837 179.303 9.08876 179.303 10.4258C179.303 13.0697 179.303 15.6871 179.303 18.2781C179.303 28.6874 179.303 38.7795 179.303 48.5543C179.303 68.0887 179.303 86.2861 179.303 102.943C179.303 136.153 179.219 162.996 179.206 181.636C179.206 186.27 179.206 190.406 179.206 193.975C179.206 195.765 179.206 197.374 179.206 198.927C179.229 199.651 179.176 200.376 179.049 201.091C178.907 201.73 178.671 202.348 178.346 202.926C177.876 203.752 177.231 204.48 176.45 205.064C175.669 205.649 174.768 206.078 173.804 206.326C173.319 206.457 172.818 206.533 172.314 206.552L171.769 206.575Z" fill="#263238"/>
<path d="M18.8423 12.4767C18.8423 13.2432 18.5993 13.9924 18.1441 14.6297C17.6889 15.2669 17.0418 15.7636 16.2848 16.0569C15.5278 16.3502 14.6948 16.427 13.8911 16.2774C13.0875 16.1279 12.3492 15.7588 11.7698 15.2169C11.1904 14.6749 10.7959 13.9844 10.636 13.2327C10.4761 12.481 10.5582 11.7019 10.8718 10.9938C11.1853 10.2857 11.7163 9.68046 12.3976 9.25465C13.0789 8.82884 13.88 8.60156 14.6994 8.60156C15.7981 8.60156 16.8519 9.00984 17.6289 9.73657C18.4058 10.4633 18.8423 11.449 18.8423 12.4767Z" fill="#D1D5DB"/>
<path d="M30.7625 12.4767C30.7625 13.2437 30.5192 13.9933 30.0634 14.6308C29.6076 15.2684 28.9599 15.765 28.2022 16.058C27.4444 16.351 26.6108 16.427 25.8068 16.2766C25.0028 16.1262 24.2646 15.756 23.6857 15.2129C23.1068 14.6698 22.7132 13.9782 22.5547 13.2258C22.3962 12.4733 22.48 11.6938 22.7954 10.9859C23.1109 10.278 23.6437 9.67359 24.3266 9.24915C25.0095 8.82471 25.8117 8.59934 26.6316 8.60158C27.1751 8.60158 27.7133 8.7019 28.2152 8.89678C28.7172 9.09167 29.1731 9.37729 29.5569 9.73728C29.9406 10.0973 30.2446 10.5245 30.4515 10.9946C30.6584 11.4647 30.7641 11.9684 30.7625 12.4767Z" fill="#D1D5DB"/>
<path d="M42.6946 12.4767C42.6946 13.2432 42.4516 13.9924 41.9964 14.6297C41.5412 15.2669 40.8941 15.7636 40.1371 16.0569C39.3801 16.3502 38.5471 16.427 37.7434 16.2774C36.9397 16.1279 36.2015 15.7588 35.6221 15.2169C35.0427 14.6749 34.6482 13.9844 34.4883 13.2327C34.3284 12.481 34.4105 11.7019 34.7241 10.9938C35.0376 10.2857 35.5686 9.68046 36.2499 9.25465C36.9312 8.82884 37.7322 8.60156 38.5516 8.60156C39.6504 8.60156 40.7042 9.00984 41.4812 9.73657C42.2582 10.4633 42.6946 11.449 42.6946 12.4767Z" fill="#D1D5DB"/>
<path d="M112.992 38.6965H73.1733C70.6042 38.6965 68.5215 40.6446 68.5215 43.0476V80.2922C68.5215 82.6953 70.6042 84.6433 73.1733 84.6433H112.992C115.561 84.6433 117.643 82.6953 117.643 80.2922V43.0476C117.643 40.6446 115.561 38.6965 112.992 38.6965Z" fill="#F97316"/>
<path d="M101.278 65.4486H85.0449C84.9371 65.432 84.8392 65.3802 84.7685 65.3024C84.6978 65.2246 84.659 65.1258 84.659 65.0236C84.659 64.9215 84.6978 64.8227 84.7685 64.7449C84.8392 64.6671 84.9371 64.6153 85.0449 64.5987H100.89L102.671 55.2168H83.5185C83.3985 55.2138 83.2845 55.1671 83.2008 55.0867C83.1171 55.0063 83.0703 54.8984 83.0703 54.7862C83.0703 54.675 83.1176 54.5684 83.2016 54.4897C83.2857 54.4111 83.3996 54.3669 83.5185 54.3669H103.216C103.28 54.3672 103.344 54.3805 103.403 54.4059C103.461 54.4314 103.513 54.4683 103.555 54.5143C103.601 54.5608 103.635 54.6168 103.654 54.6778C103.673 54.7388 103.676 54.8031 103.664 54.8655L101.726 65.0633C101.714 65.1676 101.662 65.2642 101.579 65.3351C101.497 65.406 101.39 65.4464 101.278 65.4486Z" fill="#D1D5DB"/>
<path d="M100.733 69.0292H85.2874C85.1764 69.0298 85.0692 68.992 84.9864 68.9229C84.9036 68.8538 84.8511 68.7585 84.8392 68.6553L82.6223 52.5315H78.0553C77.9476 52.515 77.8496 52.4632 77.7789 52.3853C77.7082 52.3075 77.6694 52.2087 77.6694 52.1066C77.6694 52.0044 77.7082 51.9056 77.7789 51.8278C77.8496 51.75 77.9476 51.6982 78.0553 51.6816H83.0221C83.133 51.681 83.2402 51.7189 83.323 51.788C83.4058 51.8571 83.4583 51.9524 83.4703 52.0556L85.6871 68.1794H100.745C100.865 68.1824 100.979 68.229 101.062 68.3095C101.146 68.3899 101.193 68.4977 101.193 68.61C101.193 68.666 101.181 68.7215 101.158 68.7731C101.134 68.8247 101.1 68.8714 101.057 68.9105C101.015 68.9496 100.964 68.9803 100.908 69.0006C100.852 69.021 100.792 69.0308 100.733 69.0292Z" fill="#D1D5DB"/>
<path d="M87.8068 74.1732C87.3276 74.1732 86.8593 74.0403 86.4608 73.7913C86.0624 73.5423 85.7518 73.1884 85.5685 72.7743C85.3851 72.3602 85.3371 71.9045 85.4306 71.4649C85.5241 71.0253 85.7548 70.6216 86.0937 70.3046C86.4325 69.9877 86.8642 69.7719 87.3342 69.6844C87.8042 69.597 88.2913 69.6419 88.734 69.8134C89.1767 69.9849 89.5551 70.2754 89.8213 70.648C90.0875 71.0207 90.2296 71.4588 90.2296 71.907C90.2296 72.5081 89.9744 73.0845 89.52 73.5095C89.0656 73.9345 88.4493 74.1732 87.8068 74.1732ZM87.8068 70.5813C87.5169 70.5813 87.2336 70.6618 86.9925 70.8124C86.7515 70.9631 86.5636 71.1772 86.4526 71.4277C86.3417 71.6782 86.3127 71.9539 86.3692 72.2198C86.4258 72.4858 86.5653 72.7301 86.7703 72.9218C86.9753 73.1136 87.2365 73.2442 87.5209 73.2971C87.8052 73.35 88.0999 73.3228 88.3677 73.219C88.6356 73.1153 88.8645 72.9395 89.0256 72.7141C89.1866 72.4886 89.2726 72.2235 89.2726 71.9524C89.2726 71.7723 89.2347 71.594 89.161 71.4277C89.0874 71.2614 88.9794 71.1102 88.8433 70.9829C88.7072 70.8556 88.5456 70.7546 88.3677 70.6857C88.1899 70.6168 87.9993 70.5813 87.8068 70.5813Z" fill="#D1D5DB"/>
<path d="M98.467 74.1732C97.9878 74.1732 97.5194 74.0403 97.121 73.7913C96.7226 73.5423 96.412 73.1884 96.2286 72.7743C96.0453 72.3602 95.9973 71.9045 96.0907 71.4649C96.1842 71.0253 96.415 70.6216 96.7538 70.3046C97.0926 69.9877 97.5244 69.7719 97.9943 69.6844C98.4643 69.597 98.9514 69.6419 99.3941 69.8134C99.8368 69.9849 100.215 70.2754 100.481 70.648C100.748 71.0207 100.89 71.4588 100.89 71.907C100.89 72.5081 100.635 73.0845 100.18 73.5095C99.7258 73.9345 99.1096 74.1732 98.467 74.1732ZM98.467 70.5813C98.1776 70.5836 97.8954 70.6659 97.656 70.8179C97.4165 70.9699 97.2305 71.1848 97.1214 71.4355C97.0123 71.6862 96.9851 71.9615 97.043 72.2267C97.1009 72.4919 97.2414 72.7352 97.4469 72.9258C97.6524 73.1164 97.9136 73.2458 98.1976 73.2978C98.4816 73.3498 98.7756 73.322 99.0428 73.2179C99.3099 73.1138 99.5381 72.9381 99.6987 72.7129C99.8592 72.4877 99.9449 72.2231 99.9449 71.9524C99.9449 71.7714 99.9066 71.5921 99.8322 71.4251C99.7578 71.258 99.6487 71.1063 99.5113 70.9789C99.3739 70.8514 99.2109 70.7506 99.0317 70.6824C98.8524 70.6142 98.6605 70.5798 98.467 70.5813Z" fill="#D1D5DB"/>
<path d="M90.0601 65.4486C89.9453 65.4488 89.8348 65.4078 89.7514 65.334C89.668 65.2602 89.6181 65.1593 89.6119 65.0521L88.9456 55.1489C88.9546 55.046 89.0028 54.9497 89.0814 54.8772C89.16 54.8048 89.2637 54.7612 89.3737 54.7544C89.4838 54.7475 89.5928 54.7778 89.681 54.8399C89.7692 54.9019 89.8306 54.9914 89.8541 55.0922L90.5083 64.9954C90.5132 65.0514 90.5061 65.1077 90.4873 65.1611C90.4685 65.2145 90.4384 65.2637 90.3989 65.306C90.3593 65.3483 90.3111 65.3827 90.2571 65.4072C90.203 65.4317 90.1443 65.4458 90.0843 65.4486H90.0601Z" fill="#D1D5DB"/>
<path d="M95.9958 65.4485C95.8759 65.4427 95.7631 65.3932 95.6817 65.3106C95.6002 65.228 95.5564 65.1189 95.5597 65.0066L96.1533 55.0921C96.1564 55.036 96.1714 54.981 96.1976 54.9305C96.2238 54.8799 96.2607 54.8348 96.3059 54.7978C96.351 54.7608 96.4037 54.7327 96.4607 54.7151C96.5178 54.6975 96.578 54.6909 96.6379 54.6955C96.7557 54.7042 96.8654 54.7549 96.9444 54.8372C97.0233 54.9194 97.0653 55.0269 97.0619 55.1374L96.4683 65.052C96.4652 65.107 96.4505 65.161 96.4251 65.2108C96.3997 65.2605 96.3639 65.3051 96.32 65.342C96.2762 65.3788 96.2249 65.4072 96.1693 65.4255C96.1137 65.4437 96.0547 65.4516 95.9958 65.4485Z" fill="#D1D5DB"/>
<path d="M84.1242 60.4968C84.0164 60.4803 83.9185 60.4285 83.8478 60.3507C83.7771 60.2728 83.7383 60.174 83.7383 60.0719C83.7383 59.9698 83.7771 59.871 83.8478 59.7932C83.9185 59.7153 84.0164 59.6635 84.1242 59.647L102.295 59.4771C102.415 59.48 102.529 59.5267 102.613 59.6071C102.696 59.6875 102.743 59.7954 102.743 59.9076C102.743 60.0188 102.696 60.1254 102.612 60.2041C102.528 60.2827 102.414 60.3269 102.295 60.3269L84.1242 60.4968Z" fill="#D1D5DB"/>
<path d="M104.221 58.0836C107.152 58.0836 109.527 55.8616 109.527 53.1207C109.527 50.3797 107.152 48.1577 104.221 48.1577C101.291 48.1577 98.9155 50.3797 98.9155 53.1207C98.9155 55.8616 101.291 58.0836 104.221 58.0836Z" fill="#D1D5DB"/>
<path d="M83.3852 98.0703H28.5454V104.925H83.3852V98.0703Z" fill="#1F2937"/>
<path d="M151.223 98.0703H129.879V104.925H151.223V98.0703Z" fill="#1F2937"/>
<path d="M99.424 112.619H28.5454V119.474H99.424V112.619Z" fill="#1F2937"/>
<path d="M151.223 112.619H129.879V119.474H151.223V112.619Z" fill="#1F2937"/>
<path d="M61.7376 127.168H28.5454V134.023H61.7376V127.168Z" fill="#1F2937"/>
<path d="M151.223 127.168H129.879V134.023H151.223V127.168Z" fill="#1F2937"/>
<path d="M151.223 141.014H129.879V147.87H151.223V141.014Z" fill="#D1D5DB"/>
<path d="M107.637 165.229H67.9885C61.6326 165.229 56.4802 170.048 56.4802 175.993V177.149C56.4802 183.094 61.6326 187.913 67.9885 187.913H107.637C113.993 187.913 119.146 183.094 119.146 177.149V175.993C119.146 170.048 113.993 165.229 107.637 165.229Z" fill="#F97316"/>
<path d="M104.129 55.1756C103.83 55.1756 103.564 55.1243 103.331 55.0216C103.099 54.9177 102.916 54.775 102.781 54.5937C102.648 54.4111 102.579 54.2005 102.575 53.9619H103.447C103.452 54.0618 103.485 54.1498 103.545 54.2258C103.606 54.3005 103.688 54.3585 103.789 54.3998C103.89 54.4411 104.004 54.4618 104.131 54.4618C104.263 54.4618 104.379 54.4384 104.481 54.3918C104.582 54.3451 104.661 54.2805 104.719 54.1978C104.776 54.1152 104.805 54.0199 104.805 53.9119C104.805 53.8026 104.774 53.7059 104.713 53.6219C104.653 53.5366 104.566 53.47 104.453 53.422C104.341 53.374 104.207 53.35 104.053 53.35H103.671V52.7141H104.053C104.183 52.7141 104.299 52.6915 104.399 52.6461C104.5 52.6008 104.579 52.5382 104.635 52.4582C104.691 52.3769 104.719 52.2822 104.719 52.1742C104.719 52.0716 104.694 51.9816 104.645 51.9043C104.597 51.8256 104.529 51.7643 104.441 51.7203C104.354 51.6763 104.253 51.6543 104.137 51.6543C104.02 51.6543 103.912 51.6757 103.815 51.7183C103.718 51.7597 103.64 51.819 103.581 51.8963C103.522 51.9736 103.491 52.0643 103.487 52.1682H102.657C102.661 51.9323 102.728 51.7243 102.859 51.5444C102.99 51.3644 103.166 51.2238 103.387 51.1225C103.61 51.0198 103.861 50.9685 104.141 50.9685C104.423 50.9685 104.671 51.0198 104.883 51.1225C105.095 51.2251 105.259 51.3637 105.377 51.5384C105.495 51.7117 105.554 51.9063 105.553 52.1223C105.554 52.3515 105.483 52.5428 105.339 52.6961C105.196 52.8494 105.01 52.9467 104.781 52.9881V53.0201C105.082 53.0587 105.311 53.1634 105.469 53.334C105.627 53.5033 105.706 53.7153 105.704 53.9699C105.706 54.2032 105.639 54.4104 105.503 54.5917C105.368 54.773 105.182 54.9157 104.945 55.0196C104.707 55.1236 104.435 55.1756 104.129 55.1756Z" fill="#F97316"/>
<path d="M257.317 186.201L314.022 235.808L302.139 247.864L251.502 192.445L257.317 186.201Z" fill="#1F2937"/>
<path d="M302.139 247.864L263.846 252.317L233.634 199.742L251.502 192.445L302.139 247.864Z" fill="#1F2937"/>
<path d="M302.139 247.864C301.787 246.795 301.536 245.7 301.388 244.59C301 242.561 300.503 239.729 299.982 236.567V236.239H300.334H301.061C304.695 236.058 307.893 235.922 310.255 235.854C311.525 235.756 312.801 235.756 314.071 235.854C312.822 236.09 311.553 236.226 310.279 236.261C307.929 236.431 304.683 236.635 301.097 236.817H300.358L300.661 236.477C301.17 239.638 301.594 242.482 301.872 244.533C302.068 245.634 302.158 246.749 302.139 247.864Z" fill="#263238"/>
<path d="M254.495 189.204C254.628 189.102 264.985 199.606 277.632 212.659C290.279 225.713 300.431 236.454 300.297 236.522C300.164 236.59 289.807 226.132 277.16 213.056C264.513 199.98 254.41 189.318 254.495 189.204Z" fill="#263238"/>
<g opacity="0.3">
<path d="M302.139 247.864L263.846 252.317L233.634 199.742L251.502 192.445L302.139 247.864Z" fill="black"/>
</g>
<path d="M299.764 256.068L282.223 270.05L251.309 199.051L252.811 198.19L299.764 256.068Z" fill="#D1D5DB"/>
<path d="M282.224 270.05L254.253 263.603L233.102 202.835L251.309 199.051L282.224 270.05Z" fill="#D1D5DB"/>
<g opacity="0.3">
<path d="M282.224 270.05L254.253 263.603L233.102 202.835L251.309 199.051L282.224 270.05Z" fill="black"/>
</g>
<path d="M282.272 270.05C282.254 269.668 282.299 269.286 282.405 268.917C282.538 268.18 282.756 267.127 283.023 265.824C283.568 263.218 284.367 259.626 285.288 255.626C285.433 255.014 285.567 254.413 285.7 253.847L285.773 253.575H286.063C289.879 254.209 293.259 254.799 295.682 255.241C296.991 255.426 298.283 255.706 299.546 256.079C298.222 256.043 296.902 255.918 295.597 255.705C293.174 255.365 289.77 254.844 285.906 254.232L286.269 254.006C286.136 254.572 286.003 255.139 285.857 255.784C284.937 259.739 284.065 263.32 283.435 265.903C283.108 267.195 282.829 268.237 282.623 268.951C282.552 269.329 282.434 269.698 282.272 270.05Z" fill="#263238"/>
<path d="M251.987 198.767C252.132 198.688 259.861 210.971 269.225 226.211C278.589 241.451 286.076 253.858 285.93 253.949C285.785 254.04 278.056 241.746 268.68 226.506C259.304 211.265 251.866 198.847 251.987 198.767Z" fill="#263238"/>
<path d="M245.385 197.453L269.843 250.459L249.807 256.952L243.786 197.77L245.385 197.453Z" fill="#F97316"/>
<path d="M249.807 256.952L231.224 253.02L228.68 199.64L243.786 197.77L249.807 256.952Z" fill="#F97316"/>
<g opacity="0.3">
<path d="M249.807 256.952L231.224 253.02L228.68 199.64L243.786 197.77L249.807 256.952Z" fill="black"/>
</g>
<path d="M249.807 256.952C250.463 255.947 251.213 254.999 252.048 254.119C253.489 252.419 255.524 250.097 257.802 247.547L258.541 246.72L258.674 246.561L258.88 246.629C261.981 247.626 264.743 248.556 266.706 249.235C267.785 249.558 268.835 249.963 269.843 250.448C268.728 250.268 267.633 249.991 266.572 249.621C264.561 249.031 261.787 248.17 258.686 247.184L259.025 247.094L258.286 247.921C256.009 250.47 253.925 252.759 252.387 254.391C251.604 255.309 250.741 256.166 249.807 256.952Z" fill="#263238"/>
<path d="M244.597 197.612C244.767 197.612 248.086 208.569 251.999 222.177C255.912 235.786 258.952 246.867 258.783 246.913C258.613 246.958 255.306 235.944 251.381 222.336C247.456 208.727 244.44 197.646 244.597 197.612Z" fill="#263238"/>
<path d="M257.317 186.201L236.808 195.006L238.867 197.612L251.502 192.445L257.317 186.201Z" fill="#263238"/>
<path d="M252.811 198.19L246.318 199.481L246.608 200.037L251.309 199.051L252.811 198.19Z" fill="#263238"/>
<path d="M245.93 122.465C245.93 122.465 252.811 130.771 253.55 136.062C254.168 140.413 257.523 163.993 259.243 175.097C259.616 177.343 259.486 179.638 258.86 181.834C258.234 184.03 257.127 186.081 255.609 187.856C252.641 191.255 248.159 193.521 242.102 189.601C237.935 186.87 227.275 175.721 227.275 175.721L244.804 124.346" fill="#F97316"/>
<path d="M226.984 51.3185C225.279 50.837 223.488 50.6772 221.716 50.8484C219.945 51.0196 218.227 51.5183 216.663 52.3157C215.793 51.2702 214.64 50.4609 213.324 49.9713C212.008 49.4817 210.576 49.3295 209.176 49.5305C207.776 49.7314 206.458 50.2782 205.36 51.1144C204.261 51.9506 203.421 53.0459 202.926 54.2872C201.431 53.7283 199.772 53.6883 198.249 54.1747C196.726 54.6611 195.439 55.6416 194.622 56.9386C193.805 58.2357 193.511 59.7636 193.795 61.2456C194.078 62.7276 194.919 64.0657 196.166 65.0176C194.951 65.4899 193.868 66.2147 192.997 67.1372C192.126 68.0597 191.492 69.1555 191.142 70.3415C190.791 71.5276 190.735 72.7727 190.975 73.9823C191.216 75.192 191.749 76.3344 192.532 77.323C189.952 78.456 189.503 81.7873 189.879 84.4501C190.255 87.1128 191.09 89.9796 189.806 92.3817C188.825 94.2513 186.778 95.4071 185.385 97.0274C183.992 98.6477 183.507 101.435 185.385 102.534C184.527 102.58 183.69 102.796 182.929 103.167C182.167 103.539 181.499 104.058 180.968 104.689C180.437 105.321 180.056 106.051 179.85 106.831C179.644 107.61 179.618 108.422 179.772 109.212C179.927 110.003 180.26 110.753 180.749 111.414C181.237 112.074 181.871 112.63 182.606 113.044C183.342 113.459 184.164 113.722 185.017 113.816C185.869 113.911 186.734 113.835 187.553 113.593C187.077 114.669 186.899 115.839 187.037 116.996C187.175 118.153 187.623 119.259 188.341 120.21C189.809 122.108 191.883 123.52 194.264 124.244C197.655 125.328 201.317 125.422 204.766 124.514C208.215 123.605 211.287 121.737 213.574 119.157L234.87 57.5732C234.063 56.0947 232.95 54.7807 231.597 53.7071C230.243 52.6335 228.675 51.8216 226.984 51.3185Z" fill="#263238"/>
<path d="M237.111 68.3828L237.39 65.0629L216.275 60.0546C209.734 59.0348 202.211 64.8136 201.399 70.9663C200.491 77.7648 199.679 86.195 200.188 91.3619C201.266 101.764 209.625 103.554 209.625 103.554L209.019 113.752L233.368 115.406L237.111 68.3828Z" fill="#AE7461"/>
<path d="M203.979 80.7789C203.952 81.1252 204.072 81.4677 204.312 81.7325C204.552 81.9974 204.894 82.1635 205.263 82.1953C205.444 82.2173 205.627 82.2053 205.802 82.1599C205.977 82.1145 206.141 82.0367 206.283 81.931C206.425 81.8253 206.544 81.6939 206.631 81.5447C206.718 81.3954 206.772 81.2313 206.79 81.0622C206.817 80.7176 206.699 80.3768 206.461 80.1122C206.224 79.8477 205.885 79.6803 205.518 79.6458C205.337 79.6237 205.153 79.6356 204.977 79.6809C204.801 79.7262 204.637 79.8039 204.494 79.9094C204.35 80.015 204.231 80.1463 204.143 80.2956C204.054 80.4449 203.999 80.6092 203.979 80.7789Z" fill="#263238"/>
<path d="M203.446 75.4761C203.616 75.6574 204.73 74.9775 206.245 75.0682C207.759 75.1588 208.837 75.9293 209.019 75.7707C209.201 75.6121 208.946 75.3741 208.474 75.0115C207.846 74.5481 207.08 74.2788 206.281 74.241C205.491 74.1963 204.707 74.3867 204.04 74.7849C203.531 75.0909 203.362 75.3968 203.446 75.4761Z" fill="#263238"/>
<path d="M217.317 81.5496C217.289 81.8855 217.398 82.2188 217.623 82.4819C217.848 82.745 218.172 82.9181 218.528 82.966C218.709 82.9881 218.893 82.9762 219.069 82.9309C219.245 82.8856 219.409 82.8079 219.553 82.7024C219.696 82.5968 219.815 82.4655 219.903 82.3162C219.992 82.1669 220.047 82.0026 220.067 81.8329C220.091 81.4872 219.97 81.1464 219.73 80.8822C219.491 80.618 219.151 80.4511 218.783 80.4165C218.428 80.388 218.076 80.4908 217.802 80.7027C217.528 80.9146 217.354 81.2188 217.317 81.5496Z" fill="#263238"/>
<path d="M218.371 76.5864C218.54 76.7677 219.655 76.0878 221.181 76.1785C222.707 76.2691 223.761 77.0396 223.943 76.8697C224.125 76.6997 223.87 76.4844 223.41 76.1218C222.779 75.6555 222.008 75.386 221.205 75.3513C220.416 75.2959 219.629 75.4829 218.964 75.8839C218.48 76.2012 218.298 76.4958 218.371 76.5864Z" fill="#263238"/>
<path d="M212.181 86.8749C211.4 86.5987 210.587 86.4122 209.758 86.3197C209.37 86.263 209.007 86.1724 208.958 85.9118C208.955 85.5382 209.069 85.1719 209.285 84.858C209.709 83.9969 210.158 83.1017 210.618 82.1499C211.833 79.8693 212.849 77.501 213.659 75.0681C212.256 77.2404 211.041 79.5138 210.024 81.8667C209.58 82.8109 209.156 83.7174 208.752 84.5861C208.475 85.0055 208.368 85.5039 208.45 85.9911C208.499 86.1231 208.579 86.2434 208.684 86.3432C208.788 86.4431 208.915 86.5202 209.055 86.569C209.269 86.6281 209.488 86.6661 209.709 86.6823C210.521 86.8442 211.352 86.909 212.181 86.8749Z" fill="#263238"/>
<path d="M209.673 103.588C214.976 103.962 220.287 102.975 225.034 100.733C225.034 100.733 220.854 107.746 209.516 106.16L209.673 103.588Z" fill="#6F4439"/>
<path d="M218.722 71.6803C218.88 72.0656 220.394 71.873 222.187 72.0769C223.98 72.2809 225.421 72.7341 225.651 72.3942C225.76 72.2242 225.506 71.8616 224.925 71.4877C224.148 71.0227 223.268 70.7317 222.352 70.6374C221.436 70.543 220.509 70.6479 219.643 70.9438C218.989 71.1818 218.662 71.4877 218.722 71.6803Z" fill="#263238"/>
<path d="M203.81 71.9519C204.064 72.2919 205.13 72.0313 206.39 72.0879C207.65 72.1446 208.704 72.4618 208.97 72.0879C209.092 71.9406 208.97 71.6007 208.498 71.2608C207.903 70.8523 207.189 70.6231 206.451 70.6036C205.713 70.566 204.98 70.7442 204.355 71.1135C203.883 71.4647 203.713 71.7933 203.81 71.9519Z" fill="#263238"/>
<path d="M201.448 63.556C203.964 60.4941 207.504 58.3081 211.502 57.3467L229.334 59.4429H230.86C231.187 58.3891 233.089 57.8453 233.089 57.8453C234.761 56.6329 240.564 56.5762 244.61 60.5307C246.075 61.9584 247.105 65.5503 247.141 67.5218C247.141 68.2697 246.306 69.2895 246.972 69.7087C247.776 69.8022 248.585 69.8551 249.395 69.8673C253.925 70.7965 256.76 74.5583 255.936 80.1784C255.863 80.4563 255.83 80.7422 255.839 81.0283C255.982 81.4708 256.26 81.8647 256.639 82.1614C257.696 83.2558 258.376 84.6222 258.592 86.0831C258.808 87.544 258.55 89.0319 257.85 90.3536C257.317 91.1119 256.909 91.9407 256.639 92.8124C256.36 94.4214 257.62 95.8491 258.589 97.1974C261.497 101.243 262.126 107.112 258.71 110.795C257.748 111.567 256.989 112.536 256.493 113.627C256.388 114.2 256.356 114.781 256.397 115.361C256.397 118.296 254.761 121.582 251.696 122.159C249.988 122.499 247.929 122.046 246.718 123.225C246.254 123.788 245.886 124.414 245.627 125.083C244.948 126.285 243.849 127.232 242.513 127.768C241.177 128.304 239.686 128.396 238.286 128.029C235.524 127.236 234.652 116.698 235.003 114.046C231.66 112.913 229.177 112.709 229.334 109.378C229.334 109.378 229.843 103.633 228.85 100.846C227.856 98.0586 229.855 92.0985 230.994 89.2092C232.132 86.3198 230.776 79.6006 230.473 76.9265C230.449 76.1651 230.526 75.4039 230.703 74.6603C230.824 74.0031 230.994 73.2779 231.187 72.4961C231.381 71.7143 231.902 67.8618 231.89 67.1819C231.89 64.6438 228.486 66.0488 225.93 66.808C225.309 67.0039 224.659 67.1109 224.004 67.1253C222.946 67.1461 221.898 66.9368 220.941 66.5141C219.985 66.0913 219.146 65.4666 218.492 64.6891C217.266 65.8813 215.718 66.7413 214.012 67.1781C212.306 67.615 210.505 67.6123 208.801 67.1706C207.51 69.0294 205.957 70.7177 204.185 72.1902C202.392 73.6707 200.044 74.4246 197.656 74.2864C197.598 70.4131 198.933 66.6338 201.448 63.556Z" fill="#263238"/>
<path d="M213.283 90.2742C213.549 89.9295 213.904 89.6532 214.315 89.471C214.726 89.2888 215.179 89.2065 215.633 89.2318C215.965 89.2416 216.291 89.3151 216.591 89.4476C216.891 89.5801 217.159 89.7689 217.377 90.0023C217.591 90.224 217.725 90.5023 217.762 90.7987C217.799 91.0951 217.737 91.3949 217.583 91.6566C217.36 91.9203 217.056 92.1145 216.712 92.2136C216.369 92.3127 216.001 92.3121 215.657 92.2118C214.941 92.0109 214.274 91.6798 213.695 91.2373C213.521 91.1365 213.369 91.0058 213.247 90.8521C213.191 90.7752 213.161 90.6844 213.161 90.5915C213.161 90.4985 213.191 90.4078 213.247 90.3309" fill="#6F4439"/>
<path d="M216.857 87.6907C216.614 87.6907 216.699 89.209 215.367 90.3421C214.034 91.4752 212.314 91.3959 212.302 91.6112C212.29 91.8265 212.702 91.8945 213.44 91.8718C214.389 91.8402 215.295 91.4949 215.997 90.8974C216.339 90.6093 216.617 90.2608 216.814 89.8718C217.012 89.4829 217.125 89.0613 217.147 88.6312C217.22 88.008 217.014 87.6794 216.857 87.6907Z" fill="#263238"/>
<path d="M183.059 359.134L185.07 378.691C185.07 378.691 162.283 386.622 162.053 390.588L205.13 390.702V387.755L203.325 377.694L200.66 358.159L183.059 359.134Z" fill="#D1D5DB"/>
<path d="M198.044 375.654C198.459 375.782 198.811 376.046 199.034 376.398C199.257 376.751 199.336 377.167 199.255 377.569C199.136 377.963 198.86 378.3 198.484 378.511C198.108 378.721 197.66 378.79 197.232 378.702C196.781 378.575 196.396 378.297 196.152 377.92C195.909 377.543 195.823 377.095 195.912 376.663C196.076 376.255 196.402 375.924 196.823 375.738C197.243 375.552 197.724 375.526 198.165 375.665" fill="#1F2937"/>
<path d="M205.118 390.702V387.756L163.798 388.492C163.798 388.492 161.835 389.297 162.065 390.588L205.118 390.702Z" fill="#263238"/>
<path d="M184.355 378.476C184.355 378.679 185.445 378.77 186.499 379.416C187.553 380.062 188.122 380.9 188.328 380.821C188.534 380.742 188.195 379.586 186.899 378.827C185.603 378.068 184.306 378.294 184.355 378.476Z" fill="#263238"/>
<path d="M179.74 380.277C179.74 380.481 180.624 380.821 181.351 381.671C182.078 382.52 182.296 383.416 182.562 383.404C182.829 383.393 182.913 382.271 181.981 381.217C181.048 380.164 179.74 380.084 179.74 380.277Z" fill="#263238"/>
<path d="M177.123 385.467C177.317 385.467 177.62 384.504 177.062 383.393C176.505 382.283 175.5 381.863 175.403 382.022C175.306 382.181 175.936 382.781 176.384 383.699C176.832 384.617 176.881 385.444 177.123 385.467Z" fill="#263238"/>
<path d="M182.829 373.773C182.913 373.966 183.907 373.682 185.118 373.773C186.329 373.864 187.286 374.203 187.396 374.022C187.505 373.841 186.596 373.138 185.167 373.07C183.737 373.002 182.72 373.626 182.829 373.773Z" fill="#263238"/>
<path d="M236.009 359.689L237.85 378.951C237.85 378.951 215.415 386.645 215.148 390.52L257.462 390.872V387.971L255.754 378.079L253.259 358.816L236.009 359.689Z" fill="#D1D5DB"/>
<path d="M250.606 376.005C251.02 376.128 251.372 376.388 251.595 376.737C251.818 377.085 251.897 377.498 251.817 377.897C251.698 378.287 251.426 378.62 251.055 378.83C250.685 379.04 250.243 379.112 249.819 379.03C249.377 378.902 249.002 378.624 248.767 378.251C248.532 377.878 248.454 377.437 248.547 377.013C248.708 376.616 249.028 376.292 249.439 376.11C249.85 375.928 250.321 375.903 250.751 376.039" fill="#1F2937"/>
<path d="M257.462 390.826V387.925L216.857 388.424C216.857 388.424 214.931 389.206 215.149 390.475L257.462 390.826Z" fill="#263238"/>
<path d="M237.147 378.702C237.147 378.895 238.213 378.997 239.243 379.631C240.273 380.266 240.842 381.104 241.036 381.025C241.23 380.946 240.915 379.801 239.643 379.053C238.371 378.305 237.099 378.521 237.147 378.702Z" fill="#263238"/>
<path d="M232.605 380.447C232.605 380.628 233.477 380.968 234.192 381.818C234.906 382.668 235.112 383.54 235.318 383.529C235.524 383.517 235.67 382.396 234.761 381.376C233.853 380.356 232.605 380.254 232.605 380.447Z" fill="#263238"/>
<path d="M230 385.523C230.194 385.523 230.485 384.571 230 383.483C229.516 382.396 228.474 381.965 228.377 382.135C228.28 382.305 228.898 382.883 229.334 383.778C229.77 384.673 229.794 385.5 230 385.523Z" fill="#263238"/>
<path d="M235.682 374.068C235.766 374.249 236.736 373.988 237.935 374.068C239.134 374.147 240.055 374.498 240.164 374.328C240.273 374.158 239.388 373.456 237.971 373.377C236.554 373.297 235.573 373.92 235.682 374.068Z" fill="#263238"/>
<path d="M182.138 189.08C182.138 189.08 171.926 216.738 171.575 237.315C171.223 257.892 170.86 290.57 175.439 326.716C180.018 362.861 182.138 377.308 182.138 377.308H205.373C206.843 363.07 207.546 348.771 207.48 334.466C207.129 314.229 205.445 307.816 207.48 285.551C209.516 263.286 212.847 249.915 216.311 243.173C216.311 243.173 225.906 232.5 226.608 217.871C226.898 208.598 225.252 199.361 221.763 190.677L182.138 189.08Z" fill="#263238"/>
<path d="M202.78 227.888C203.168 229.021 210.049 274.344 215.1 294.343C220.152 314.342 225.724 319.645 226.705 335.916C227.832 354.635 233.332 377.308 233.332 377.308H258.044C258.044 377.308 254.555 342.715 251.078 315.679C247.602 288.644 242.599 255.297 243.35 245.292C244.101 235.287 246.051 222.936 243.35 208.931C240.648 194.926 234.785 191.221 234.785 191.221L213.792 190.337L202.78 227.888Z" fill="#263238"/>
<path d="M226.075 201.94C226.218 202.167 226.347 202.402 226.463 202.642C226.804 203.33 227.083 204.042 227.299 204.773C228.01 207.484 228.283 210.28 228.111 213.067C227.931 217.194 227.248 221.288 226.075 225.27C225.409 227.634 224.505 229.933 223.374 232.137C222.083 234.462 220.588 236.683 218.904 238.777C215.548 243.105 213.889 248.045 212.629 252.498C211.576 256.482 210.791 260.524 210.279 264.6C209.819 268.078 209.552 270.911 209.346 272.871C209.237 273.812 209.164 274.56 209.104 275.138C209.083 275.4 209.042 275.662 208.983 275.919C208.956 275.656 208.956 275.39 208.983 275.126C208.983 274.571 209.067 273.823 209.128 272.86C209.273 270.9 209.491 268.067 209.903 264.577C210.363 260.478 211.115 256.413 212.157 252.408C212.774 250.036 213.555 247.705 214.495 245.428C214.998 244.224 215.572 243.048 216.215 241.904C216.893 240.771 217.656 239.638 218.468 238.505C220.141 236.424 221.628 234.219 222.914 231.91C224.035 229.728 224.936 227.451 225.603 225.112C226.795 221.18 227.518 217.136 227.759 213.056C227.961 210.299 227.744 207.529 227.117 204.829C226.919 204.102 226.672 203.386 226.378 202.688C226.256 202.447 226.155 202.196 226.075 201.94Z" fill="#D1D5DB"/>
<path d="M127.698 132.595C131.528 134.471 135.535 136.015 139.667 137.207L148.304 130.748C148.304 130.748 142.126 120.188 140.139 117.151C139.48 116.143 138.94 115.072 138.528 113.956C137.862 111.689 136.105 112.664 135.766 114.431C135.797 115.403 135.98 116.365 136.311 117.287C136.765 118.368 136.971 119.526 136.917 120.686C136.917 120.686 136.287 120.188 134.724 119.202C133.162 118.216 127.323 113.684 124.9 111.814C121.266 109.027 119.473 110.76 119.945 111.814C120.527 113.151 129.491 119.02 129.164 120.018C129.164 120.018 127.444 120.935 127.201 121.989C127.057 122.674 127.057 123.378 127.201 124.063C127.201 124.063 125.59 124.21 125.154 125.196C124.934 125.967 124.976 126.783 125.275 127.53C125.275 127.53 123.785 127.655 123.604 128.425C123.422 129.196 124.488 130.793 127.698 132.595Z" fill="#AE7461"/>
<path d="M146.875 127.847C146.996 128.21 165.397 145.829 165.397 145.829C165.397 145.829 180.745 129.66 185.421 123.711C190.097 117.763 197.184 110.454 203.277 109.095C209.37 107.735 217.814 111.361 217.814 111.361L207.056 132.198L193.416 149.75C193.416 149.75 178.674 167.063 171.611 169.738C164.549 172.412 157.729 168.604 154.749 165.658C151.769 162.712 134.046 137.558 134.046 137.558L146.875 127.847Z" fill="#F97316"/>
<path d="M249.358 115.95L207.032 109.151C207.032 109.151 195.269 128.505 190.872 148.809C186.475 169.114 181.472 189.465 181.472 189.465L220.575 193.997C224.646 194.471 228.767 194.418 232.823 193.838L236.893 193.261L233.55 180.355C238.39 169.485 242.437 158.321 245.663 146.94C250.885 126.907 249.358 115.95 249.358 115.95Z" fill="#F97316"/>
<path d="M206.051 135.292C205.855 135.605 205.624 135.898 205.361 136.164L203.374 138.431C201.69 140.346 199.425 143.02 196.905 145.977C194.385 148.934 192.06 151.642 190.315 153.444C189.443 154.385 188.716 155.121 188.195 155.62C187.95 155.897 187.67 156.144 187.359 156.356C187.552 156.044 187.784 155.755 188.05 155.495L190.037 153.229C191.708 151.314 193.986 148.64 196.505 145.682C199.025 142.725 201.351 140.017 203.095 138.215C203.968 137.275 204.694 136.538 205.203 136.04C205.453 135.76 205.737 135.508 206.051 135.292Z" fill="#263238"/>
<path d="M232.896 180.921C232.046 181.26 231.155 181.5 230.243 181.635C228.065 182.066 225.852 182.32 223.628 182.394C221.403 182.474 219.174 182.38 216.966 182.111C216.042 182.041 215.131 181.866 214.252 181.59C215.172 181.592 216.091 181.652 217.002 181.771C219.198 181.945 221.402 181.994 223.604 181.919C225.808 181.833 228.005 181.625 230.182 181.295C231.076 181.109 231.982 180.984 232.896 180.921Z" fill="#263238"/>
<path d="M164.985 156.322C164.747 154.659 164.686 152.977 164.803 151.302C164.746 149.627 164.855 147.95 165.13 146.294C165.367 147.958 165.428 149.639 165.312 151.314C165.377 152.989 165.267 154.666 164.985 156.322Z" fill="#263238"/>
<g opacity="0.3">
<path d="M248.002 120.448L221.545 118.239C221.334 118.764 221.24 119.323 221.268 119.884C221.296 120.444 221.445 120.993 221.707 121.497C221.968 122.002 222.337 122.451 222.79 122.818C223.243 123.185 223.772 123.462 224.343 123.632C223.625 124.807 223.237 126.132 223.214 127.484C223.192 128.837 223.536 130.173 224.214 131.367C224.893 132.562 225.884 133.577 227.095 134.316C228.305 135.056 229.697 135.497 231.139 135.598C231.85 135.594 232.559 135.678 233.247 135.847C234.713 136.334 235.415 137.841 236.299 139.042C237.44 140.666 239.206 141.814 241.23 142.249C242.238 142.443 243.283 142.385 244.259 142.08C245.235 141.776 246.108 141.236 246.79 140.515C247.932 138.917 248.5 137.02 248.413 135.099C248.671 130.213 248.533 125.315 248.002 120.448Z" fill="black"/>
</g>
<g opacity="0.3">
<path d="M189.273 154.611C193.633 153.782 197.534 151.526 200.276 148.249C203.018 144.972 204.421 140.889 204.234 136.731C198.686 142.396 194.022 149.546 189.273 154.611Z" fill="black"/>
</g>
<path d="M254.07 105.197L231.502 81.708C232.326 87.6681 229.927 93.5941 227.044 98.965C225.397 102.024 223.568 105.662 225.288 108.687C223.802 110.094 222.545 111.697 221.557 113.446C221.074 114.326 220.802 115.294 220.76 116.282C220.718 117.27 220.907 118.255 221.314 119.168C221.753 120.074 222.526 120.801 223.492 121.218C224.457 121.634 225.551 121.711 226.572 121.434C226.1 122.641 226.024 123.953 226.356 125.2C226.687 126.447 227.411 127.573 228.432 128.432C229.454 129.292 230.728 129.845 232.089 130.022C233.45 130.198 234.836 129.99 236.069 129.422C236.617 131.892 238.123 134.084 240.297 135.575C241.39 136.295 242.673 136.719 244.007 136.801C245.34 136.883 246.672 136.62 247.856 136.04C249.004 135.401 249.864 134.393 250.275 133.204C250.685 132.015 250.618 130.727 250.085 129.581C255.052 128.561 258.153 123.553 258.298 118.794C258.444 114.035 256.312 109.469 254.07 105.197Z" fill="#263238"/>
<path d="M207.396 66.4792C207.277 66.5382 207.151 66.5838 207.02 66.6151C206.625 66.7102 206.213 66.7333 205.809 66.6831C205.094 66.5957 204.412 66.3508 203.818 65.9687C203.224 65.5866 202.735 65.078 202.393 64.4849C201.905 63.6565 201.738 62.6958 201.92 61.7655C202.135 60.7049 202.674 59.725 203.471 58.9441C204.344 58.0767 205.475 57.4731 206.717 57.2105C208.031 56.916 209.401 56.916 210.715 57.2105C211.471 57.3839 212.206 57.6308 212.907 57.947L212.568 58.0716C213.473 56.0559 215.161 54.4361 217.293 53.5393C218.712 52.9561 220.27 52.7289 221.812 52.8799C223.354 53.0309 224.828 53.5549 226.087 54.4004C226.357 54.5786 226.612 54.7755 226.851 54.9896C227.008 55.1369 227.081 55.2276 227.069 55.2389C227.057 55.2502 226.693 54.967 225.99 54.5364C224.977 53.9385 223.85 53.527 222.671 53.324C220.917 53.0123 219.103 53.2264 217.487 53.9359C215.477 54.8116 213.89 56.36 213.041 58.2756L212.932 58.5135L212.689 58.4116C212.019 58.1085 211.317 57.8729 210.594 57.709C209.354 57.4448 208.066 57.4448 206.826 57.709C205.675 57.9478 204.626 58.4998 203.81 59.2954C203.067 60.0077 202.558 60.9043 202.344 61.8788C202.158 62.7254 202.29 63.6063 202.72 64.3716C203.046 64.9346 203.508 65.4185 204.069 65.7845C204.631 66.1504 205.276 66.3884 205.954 66.4792C206.433 66.5344 206.917 66.5344 207.396 66.4792Z" fill="#D1D5DB"/>
<path d="M255.246 81.2094C255.246 81.2094 255.44 80.7675 255.682 79.963C256.011 78.8142 256.077 77.6133 255.876 76.4391C255.586 74.6867 254.652 73.0838 253.235 71.9067C252.357 71.1833 251.33 70.6353 250.218 70.2962C249.106 69.9572 247.931 69.8343 246.766 69.9351H246.39L246.499 69.5952C246.717 68.89 246.847 68.1639 246.887 67.431C247.019 64.9609 246.154 62.5346 244.464 60.6325C243.045 59.1023 241.139 58.038 239.025 57.5958C237.604 57.2776 236.128 57.2351 234.688 57.4711C233.671 57.6411 233.126 57.8337 233.114 57.7997C233.101 57.7657 233.235 57.7204 233.489 57.6184C233.882 57.4766 234.287 57.3667 234.7 57.2898C236.532 56.9106 238.439 56.9941 240.225 57.5317C242.011 58.0694 243.612 59.0418 244.864 60.3492C246.67 62.3241 247.601 64.8693 247.469 67.465C247.432 68.2334 247.294 68.9946 247.057 69.7312L246.79 69.4252C248.023 69.3201 249.265 69.4551 250.439 69.8217C251.613 70.1884 252.693 70.7787 253.61 71.5554C254.822 72.606 255.685 73.9608 256.095 75.4578C256.505 76.9548 256.446 78.5307 255.924 79.997C255.819 80.3111 255.681 80.6147 255.512 80.9034C255.445 81.0203 255.355 81.1242 255.246 81.2094Z" fill="#D1D5DB"/>
<path d="M233.695 121.479C233.581 121.434 233.475 121.373 233.38 121.298C233.098 121.101 232.83 120.885 232.581 120.652C231.439 119.556 230.627 118.196 230.227 116.712C229.827 115.228 229.853 113.671 230.303 112.199C231.033 110.036 232.619 108.216 234.737 107.112C235.599 106.656 236.537 106.338 237.511 106.171L237.366 106.557C236.682 105.83 236.174 104.974 235.877 104.047C235.58 103.12 235.501 102.144 235.646 101.186C235.852 99.9183 236.46 98.7378 237.39 97.7966C238.321 96.8554 239.532 96.1967 240.867 95.9056C241.148 95.8399 241.437 95.802 241.727 95.7922C241.921 95.7922 242.03 95.7922 242.03 95.7922C242.03 95.7922 241.618 95.8602 240.915 96.0529C239.92 96.3428 239.002 96.8297 238.226 97.4805C237.051 98.4481 236.29 99.78 236.082 101.231C235.965 102.126 236.052 103.035 236.338 103.896C236.625 104.757 237.103 105.552 237.741 106.228L238.044 106.545L237.596 106.625C236.681 106.786 235.8 107.088 234.991 107.52C232.982 108.565 231.468 110.281 230.751 112.324C230.207 114.002 230.241 115.798 230.848 117.457C231.248 118.581 231.887 119.618 232.726 120.505C233.32 121.151 233.719 121.434 233.695 121.479Z" fill="#D1D5DB"/>
<path d="M233.32 69.7764L232.617 66.7964C230.217 71.0909 229.42 76.012 230.352 80.7787C230.788 82.9769 231.563 85.3111 230.545 87.3506C229.855 88.733 228.438 89.6735 227.614 90.9992C226.584 92.6648 227.347 97.0725 227.081 97.9337C226.475 99.9166 224.44 101.174 223.955 103.599C223.471 106.024 224.089 108.868 226.378 110.012C230.691 103.361 235.1 96.4153 236.069 88.7217C236.954 82.3424 235.403 75.8838 233.32 69.7764Z" fill="#263238"/>
<path d="M246.403 85.7417C246.278 85.7611 246.151 85.7611 246.027 85.7417C245.677 85.7377 245.328 85.7036 244.985 85.6397C243.683 85.4586 242.459 84.945 241.448 84.1554C240.751 83.5917 240.222 82.8698 239.91 82.0591C239.505 81.1176 239.505 80.066 239.91 79.1244C240.148 78.6071 240.514 78.1496 240.977 77.7893C241.44 77.429 241.987 77.176 242.575 77.0509C243.22 76.9244 243.893 77.0126 244.477 77.3002C244.793 77.46 245.051 77.7057 245.215 78.0051C245.379 78.3044 245.443 78.6433 245.397 78.9771C245.333 79.3279 245.124 79.6412 244.816 79.8496C244.521 80.0329 244.177 80.135 243.822 80.1442C243.182 80.156 242.548 80.0156 241.981 79.7363C240.955 79.2415 240.041 78.5641 239.292 77.7421C238 76.3564 237.244 74.6041 237.148 72.7678C237.086 71.5445 237.322 70.324 237.838 69.1986C237.973 68.8955 238.135 68.6037 238.323 68.3261C238.452 68.1372 238.525 68.0466 238.541 68.0541C238.541 68.0541 238.323 68.4734 238.02 69.2666C237.595 70.3806 237.421 71.5652 237.511 72.7451C237.656 74.4878 238.404 76.1387 239.643 77.4474C240.362 78.2199 241.234 78.8548 242.211 79.3171C242.7 79.5567 243.246 79.6774 243.798 79.6683C244.049 79.6843 244.297 79.6152 244.497 79.4736C244.698 79.332 244.836 79.1276 244.888 78.8978C244.914 78.6679 244.864 78.4362 244.745 78.2336C244.626 78.0311 244.444 77.8675 244.222 77.7647C243.747 77.5284 243.198 77.4562 242.672 77.5608C242.162 77.669 241.686 77.8872 241.282 78.1981C240.878 78.5089 240.557 78.9037 240.346 79.351C239.957 80.1804 239.926 81.1186 240.261 81.9685C240.539 82.7262 241.013 83.4075 241.642 83.9514C242.59 84.7305 243.738 85.2655 244.973 85.5037C245.93 85.651 246.403 85.7417 246.403 85.7417Z" fill="#D1D5DB"/>
<path d="M236.094 192.467C235.961 192.174 235.856 191.871 235.779 191.561L235.028 188.955C234.385 186.609 233.513 183.414 232.484 179.607V179.539V179.471C233.695 175.664 235.355 171.199 237.196 166.463C239.922 159.449 242.55 153.149 244.464 148.606C245.409 146.407 246.197 144.594 246.79 143.246C247.045 142.668 247.263 142.192 247.444 141.796C247.626 141.399 247.699 141.297 247.723 141.308C247.689 141.49 247.636 141.669 247.565 141.841C247.42 142.238 247.238 142.736 247.008 143.325C246.475 144.696 245.797 146.532 244.876 148.764C243.047 153.297 240.479 159.653 237.765 166.667C235.924 171.392 234.289 175.845 232.92 179.63V179.494C233.865 183.312 234.652 186.519 235.233 188.876C235.476 190.009 235.682 190.836 235.839 191.516C235.969 191.821 236.055 192.141 236.094 192.467Z" fill="#263238"/>
<path d="M242.49 174.338C242.599 174.338 242.405 175.811 242.393 178.168C242.357 181.24 242.588 184.309 243.083 187.346C243.51 190.381 244.404 193.343 245.736 196.139C246.365 197.258 247.086 198.331 247.892 199.345C247.584 199.148 247.304 198.916 247.056 198.654C246.38 197.947 245.802 197.163 245.336 196.32C243.855 193.525 242.881 190.519 242.453 187.425C241.952 184.36 241.781 181.254 241.944 178.157C241.989 177.216 242.086 176.278 242.235 175.347C242.27 175.001 242.356 174.662 242.49 174.338Z" fill="#263238"/>
<path d="M242.611 173.839C242.611 173.839 242.453 174.157 242.126 174.689C241.742 175.478 241.434 176.297 241.206 177.137C240.477 179.932 240.071 182.792 239.994 185.669C239.871 188.545 240.05 191.425 240.527 194.269C240.915 196.456 241.46 197.736 241.351 197.77C241.156 197.5 241.001 197.207 240.891 196.898C240.725 196.531 240.591 196.152 240.491 195.765C240.33 195.28 240.197 194.789 240.091 194.292C239.475 191.429 239.231 188.507 239.364 185.59C239.415 182.668 239.875 179.765 240.733 176.955C240.998 176.1 241.38 175.281 241.872 174.519C242.296 174.055 242.587 173.817 242.611 173.839Z" fill="#263238"/>
<path d="M243.168 174.916C242.034 173.232 241.081 171.449 240.321 169.59C239.368 167.816 238.609 165.956 238.056 164.038C239.184 165.719 240.133 167.499 240.891 169.352C241.846 171.131 242.609 172.995 243.168 174.916Z" fill="#263238"/>
</svg>
