<svg width="447" height="547" viewBox="0 0 447 547" fill="none" xmlns="http://www.w3.org/2000/svg">
<g clip-path="url(#clip0_59_60)">
<path d="M275.673 544.906C255.261 534.347 247.127 509.243 244.25 485.861C243.764 481.979 242.746 477.941 243.906 474.215C245.067 470.488 248.642 467.447 252.076 468.495C254.929 469.362 256.599 472.494 258.505 474.965C261.04 478.299 264.391 480.777 268.166 482.108C270.629 482.975 273.554 483.247 275.578 481.487C278.349 479.067 277.946 474.383 277.378 470.527C276.218 463.375 275.081 456.224 273.968 449.072C273.166 445.256 272.93 441.324 273.269 437.426C273.79 433.544 275.697 429.662 278.893 428.058C282.09 426.453 286.578 427.76 287.868 431.409C288.249 432.978 288.534 434.573 288.721 436.184C289.064 437.775 290.023 439.419 291.479 439.613C292.936 439.807 294.203 438.448 295.091 437.116C298.122 432.548 299.827 427.074 301.366 421.652C302.905 416.23 304.349 410.705 307.002 405.84C309.654 400.974 313.703 396.782 318.711 395.488C323.72 394.194 329.64 396.652 331.735 401.841C333.831 407.03 331.806 413.099 329.367 418.094C325.663 425.49 321.002 432.263 315.526 438.203C314.434 439.153 313.647 440.458 313.277 441.929C312.91 444.647 315.538 446.795 318.013 447.209C320.783 447.675 323.601 446.846 326.407 446.691C329.213 446.536 332.398 447.312 333.89 449.965C335.938 453.64 333.559 458.337 331.013 461.611C325.9 468.133 319.801 473.648 312.981 477.915C310.542 479.429 307.949 480.853 306.161 483.234C304.373 485.615 303.651 489.315 305.332 491.8C307.013 494.284 310.411 494.556 313.04 493.495C315.668 492.434 317.859 490.377 320.286 488.837C324.833 485.938 331.155 485.136 334.979 489.147C336.172 490.55 337.051 492.236 337.546 494.073C338.041 495.91 338.139 497.847 337.833 499.732C337.203 503.488 335.886 507.066 333.961 510.252C327.829 521.772 319.013 531.309 308.411 537.892C297.814 544.233 287.56 547.326 275.685 544.919" fill="#F5F5F5"/>
<path d="M278.905 529.3C280.475 515.983 282.745 502.775 285.701 489.742L287.975 479.481C288.721 476.104 289.467 472.765 290.343 469.556C292.113 463.397 294.192 457.349 296.571 451.44C298.808 445.772 301.117 440.467 303.307 435.537C305.498 430.607 307.641 426.052 309.748 422.001C313.038 415.577 316.792 409.45 320.973 403.678C322.453 401.634 323.649 400.094 324.466 399.059C324.856 398.567 325.176 398.179 325.401 397.881C325.626 397.584 325.732 397.493 325.744 397.506C325.659 397.655 325.564 397.798 325.46 397.933L324.56 399.149C323.779 400.211 322.619 401.737 321.174 403.847C317.084 409.675 313.4 415.83 310.151 422.26C308.079 426.323 305.972 430.878 303.793 435.808C301.614 440.739 299.341 446.044 297.127 451.712C294.769 457.621 292.714 463.669 290.97 469.828C290.059 473.024 289.324 476.298 288.602 479.714L286.329 489.988C283.379 502.994 281.098 516.17 279.497 529.455" fill="#E0E0E0"/>
<path d="M290.544 469.504C290.287 469.001 290.085 468.467 289.94 467.913C289.585 466.89 289.123 465.325 288.579 463.5C287.489 459.747 286.14 454.507 284.671 448.735C283.203 442.964 281.794 437.749 280.646 434.036C280.077 432.172 279.604 430.658 279.272 429.636C279.073 429.105 278.919 428.555 278.811 427.993C279.096 428.475 279.331 428.992 279.509 429.533C279.924 430.529 280.456 432.017 281.084 433.854C282.351 437.555 283.831 442.744 285.311 448.541C286.791 454.339 288.034 459.411 289.028 463.345C289.49 465.13 289.869 466.632 290.212 467.835C290.367 468.38 290.478 468.938 290.544 469.504Z" fill="#E0E0E0"/>
<path d="M334.53 451.828C333.958 452.089 333.363 452.284 332.754 452.41C331.57 452.734 329.948 453.2 327.911 453.847C323.826 455.141 318.25 457.056 312.176 459.514C306.102 461.973 300.691 464.471 296.784 466.386C294.842 467.33 293.291 468.145 292.214 468.702C291.672 469.024 291.106 469.293 290.521 469.504C291.01 469.092 291.538 468.736 292.095 468.443C293.137 467.809 294.665 466.929 296.583 465.855C300.407 463.811 305.806 461.235 311.892 458.764C317.086 456.64 322.378 454.813 327.745 453.29C329.806 452.695 331.487 452.307 332.659 452.061C333.275 451.92 333.901 451.842 334.53 451.828Z" fill="#E0E0E0"/>
<path d="M279.32 528.304C279.168 528.134 279.033 527.948 278.917 527.747L277.863 526.104C276.952 524.654 275.685 522.545 274.157 519.905C271.079 514.626 267.053 507.185 262.708 498.904C258.363 490.622 254.42 483.156 251.425 477.825L247.873 471.497L246.925 469.776C246.8 469.585 246.701 469.376 246.629 469.155C246.629 469.155 246.783 469.323 247.032 469.698C247.281 470.074 247.671 470.682 248.086 471.355C248.997 472.791 250.264 474.9 251.803 477.553C254.87 482.832 258.907 490.26 263.253 498.542C267.598 506.823 271.541 514.29 274.524 519.634L278.076 525.948C278.455 526.634 278.775 527.242 279.024 527.669C279.151 527.864 279.25 528.077 279.32 528.304Z" fill="#E0E0E0"/>
<path d="M336.365 495.889C336.198 496.048 336.011 496.179 335.808 496.277L334.163 497.234L328.053 500.715C322.891 503.666 315.811 507.819 307.996 512.361C300.182 516.903 293.066 521.057 287.868 523.878C285.263 525.288 283.132 526.466 281.664 527.152L279.888 528.006C279.693 528.119 279.486 528.206 279.272 528.265C279.442 528.109 279.629 527.979 279.829 527.876L281.487 526.919L287.596 523.425C292.746 520.488 299.827 516.334 307.641 511.779C315.455 507.224 322.583 503.096 327.769 500.275C330.374 498.865 332.505 497.687 333.973 497.002L335.678 496.147C335.894 496.023 336.125 495.936 336.365 495.889Z" fill="#E0E0E0"/>
<path d="M127.626 267.148C127.626 267.148 113.56 269.284 121.457 302.953C129.354 336.623 136.056 353.989 136.056 353.989C136.056 353.989 137.11 361.61 131.486 361.378C125.862 361.145 114.389 356.202 110.493 362.788C106.468 369.672 109.996 377.954 118.781 386.636C127.566 395.319 146.297 415.104 147.979 416.903C149.66 418.702 150.891 422.403 147.031 422.907C143.172 423.412 115.798 419.905 115.063 434.204C114.329 448.503 142.544 468.275 145.587 470.501C148.63 472.726 149.139 474.46 148.429 476.401C147.718 478.342 138.649 476.207 130.822 475.547C122.996 474.887 113.808 475.651 114.01 483.932C114.211 492.214 129.035 513.177 172.251 528.756L192.722 534.541L207.842 518.262C238.27 481.267 241.598 455.037 238.01 447.739C234.422 440.441 226.17 444.776 219.611 449.59C213.051 454.403 206.184 461.236 204.716 459.942C203.248 458.648 202.869 456.862 204.503 453.277C206.137 449.693 221.635 417.214 214.484 405.205C207.333 393.197 185.168 411.08 181.616 412.723C178.064 414.367 177.425 410.459 178.064 408.026C178.703 405.594 185.926 378.264 189.644 365.907C193.361 353.549 192.651 344.465 186.021 340.686C179.627 337.05 171.943 347.609 167.159 350.87C162.376 354.131 159.842 346.988 159.842 346.988C159.842 346.988 157.758 328.29 149.305 294.775C140.851 261.261 127.365 267.265 127.365 267.265" fill="#EBEBEB"/>
<path d="M192.71 540.105C186.589 515.519 176.371 471.523 167.432 433.751C158.493 395.979 150.37 361.921 144.356 337.258C141.348 324.939 138.909 314.975 137.252 308.052C136.423 304.623 135.772 301.944 135.322 300.107L134.824 298.036C134.718 297.571 134.682 297.325 134.682 297.325C134.682 297.325 134.765 297.545 134.895 298.011C135.026 298.476 135.203 299.188 135.44 300.068C135.926 301.905 136.624 304.558 137.5 307.974C139.276 314.845 141.786 324.796 144.841 337.115C150.962 361.701 159.167 395.876 168.107 433.57C177.046 471.264 187.181 515.299 193.196 539.963" fill="#E0E0E0"/>
<path d="M126.288 370.475C126.761 370.688 127.213 370.952 127.638 371.264C128.478 371.807 129.686 372.636 131.19 373.671C134.138 375.754 138.152 378.743 142.52 382.121L153.674 390.816L157.072 393.404C157.5 393.695 157.898 394.038 158.256 394.427C157.778 394.216 157.322 393.951 156.894 393.637C156.054 393.094 154.846 392.266 153.342 391.217C150.418 389.108 146.44 386.041 142.071 382.677L130.858 374.072L127.448 371.484C127.03 371.194 126.641 370.855 126.288 370.475Z" fill="#E0E0E0"/>
<path d="M159.973 393.352C159.819 393.249 165.087 383.945 171.73 372.571C178.372 361.197 183.901 352.061 184.055 352.164C184.209 352.268 178.94 361.585 172.286 372.959C165.632 384.333 160.126 393.43 159.973 393.352Z" fill="#E0E0E0"/>
<path d="M171.315 451.945C171.643 451.498 172.021 451.098 172.44 450.754L175.625 447.7C178.313 445.112 182.019 441.541 185.973 437.426C189.928 433.311 193.409 429.468 195.895 426.66C197.079 425.366 198.05 424.214 198.843 423.334C199.202 422.9 199.598 422.506 200.027 422.157C199.765 422.651 199.447 423.108 199.08 423.515C198.441 424.357 197.482 425.547 196.274 426.996C193.906 429.908 190.449 433.829 186.47 437.944C182.492 442.058 178.751 445.604 175.98 448.088C174.583 449.382 173.446 450.314 172.641 450.974C172.233 451.35 171.789 451.676 171.315 451.945Z" fill="#E0E0E0"/>
<path d="M136.683 438.578C137.161 438.64 137.63 438.766 138.08 438.953L141.834 440.247C144.983 441.347 149.328 442.913 154.112 444.672C158.895 446.432 163.217 448.089 166.331 449.318L170.013 450.793C170.471 450.95 170.912 451.162 171.327 451.427C170.849 451.374 170.379 451.252 169.93 451.065L166.177 449.771C163.027 448.671 158.682 447.105 153.899 445.332C149.115 443.559 144.794 441.916 141.68 440.7L137.998 439.212C137.535 439.066 137.093 438.852 136.683 438.578Z" fill="#E0E0E0"/>
<path d="M140.685 491.696C141.294 491.796 141.893 491.96 142.473 492.188L147.28 493.793C151.329 495.177 156.906 497.131 163.063 499.344C169.219 501.557 174.772 503.575 178.786 505.089L183.522 506.901C184.111 507.107 184.685 507.362 185.239 507.664C184.626 507.566 184.023 507.401 183.439 507.173L178.632 505.568C174.583 504.183 169.006 502.229 162.85 500.017C156.693 497.804 151.14 495.772 147.138 494.271L142.402 492.447C141.81 492.254 141.235 492.003 140.685 491.696Z" fill="#E0E0E0"/>
<path d="M184.268 506.953C184.685 506.393 185.149 505.878 185.654 505.413L189.573 501.388C192.876 497.985 197.423 493.262 202.312 487.892C207.202 482.522 211.524 477.54 214.626 473.917L218.296 469.621C218.729 469.072 219.2 468.561 219.705 468.094C219.36 468.702 218.964 469.274 218.521 469.802C217.716 470.876 216.509 472.39 214.969 474.253C211.95 477.98 207.688 483.027 202.774 488.397C197.861 493.767 193.302 498.451 189.892 501.764C188.187 503.407 186.802 504.74 185.819 505.646C185.336 506.128 184.818 506.565 184.268 506.953Z" fill="#E0E0E0"/>
<path d="M66.5312 66.3583L54.9754 62.4763C54.9754 62.4763 51.9443 73.0871 41.8093 69.8391C39.8471 69.2486 38.1015 68.0061 36.8139 66.2836C35.5263 64.5611 34.7605 62.4438 34.6224 60.2247C34.4707 58.3534 34.73 56.4695 35.3787 54.7297C36.0273 52.9899 37.0467 51.4445 38.352 50.2221C41.3238 47.3494 46.5334 45.6025 53.8861 49.7563L62.0202 21.2883L50.5946 17.4062L45.8586 34.0859C45.8586 34.0859 28.5248 33.1413 23.0192 52.4348C17.7504 70.9002 31.6742 80.3593 38.1626 82.5721C43.088 84.2543 60.3862 88.7056 66.5312 66.3583Z" fill="#F5F5F5"/>
<path d="M52.1424 11.4813L63.7388 15.436L67.1175 3.60226L55.5211 -0.352459L52.1424 11.4813Z" fill="#F5F5F5"/>
<path d="M98.4163 34.2156L103.046 32.9216C102.904 32.347 102.87 31.7472 102.945 31.1579C103.02 30.5686 103.203 30.0018 103.482 29.4912C103.762 28.9805 104.132 28.5365 104.572 28.1855C105.012 27.8345 105.511 27.5837 106.041 27.448C106.813 27.1935 107.637 27.2075 108.401 27.4881C109.165 27.7686 109.83 28.3018 110.304 29.0137C110.706 29.6049 110.975 30.2918 111.088 31.0182C111.201 31.7446 111.156 32.4899 110.955 33.1934C110.517 34.8367 109.108 36.6225 105.84 36.9201L108.599 48.3202L113.169 47.0262L111.559 40.3492C113.292 39.2067 114.633 37.473 115.375 35.4152C116.118 33.3573 116.22 31.0898 115.667 28.962C113.891 21.5603 107.379 21.5991 104.81 22.3367C102.821 22.8414 96.1785 25.3129 98.4163 34.2156Z" fill="#EBEBEB"/>
<path d="M114.781 48.6887L110.119 50.0547L111.285 54.8118L115.948 53.4459L114.781 48.6887Z" fill="#EBEBEB"/>
<path d="M402.22 137.624L406.719 139.397C406.908 138.84 407.197 138.33 407.569 137.897C407.94 137.465 408.388 137.117 408.884 136.876C409.381 136.635 409.916 136.505 410.459 136.493C411.003 136.482 411.543 136.589 412.047 136.809C412.805 137.076 413.469 137.592 413.948 138.287C414.427 138.982 414.698 139.821 414.723 140.691C414.751 141.433 414.617 142.172 414.333 142.847C414.049 143.522 413.623 144.113 413.089 144.573C411.905 145.647 409.786 146.229 406.944 144.444L403.262 155.533L407.714 157.293L409.869 150.823C411.889 150.96 413.895 150.368 415.579 149.139C417.262 147.909 418.529 146.11 419.187 144.017C421.555 136.822 416.215 132.824 413.693 131.827C411.763 130.999 405.014 128.916 402.22 137.624Z" fill="#EBEBEB"/>
<path d="M407.048 159.541L402.528 157.752L401 162.363L405.52 164.152L407.048 159.541Z" fill="#EBEBEB"/>
<path d="M3.13988 221.496L12.6119 217.485C12.6119 217.485 9.53348 208.75 17.786 205.088C19.3654 204.358 21.1132 204.181 22.7885 204.582C24.4638 204.983 25.984 205.942 27.1396 207.327C28.1227 208.478 28.8432 209.867 29.2423 211.38C29.6415 212.894 29.708 214.489 29.4365 216.035C28.8445 219.633 26.2397 223.799 19.3844 225.236L27.6724 248.696L37.1444 244.736L32.29 230.994C32.29 230.994 44.13 221.703 38.577 205.787C33.1898 190.569 19.408 192.303 14.1156 194.542C10.0308 196.263 -3.5142 203.212 3.13988 221.496Z" fill="#F5F5F5"/>
<path d="M38.9387 249.512L29.3818 253.536L32.8211 263.292L42.378 259.268L38.9387 249.512Z" fill="#F5F5F5"/>
<path d="M408.803 331.611L402.054 334.445C402.054 334.445 404.233 340.643 398.384 343.231C397.264 343.743 396.027 343.866 394.841 343.583C393.655 343.301 392.577 342.627 391.754 341.653C391.057 340.836 390.547 339.852 390.265 338.779C389.983 337.706 389.937 336.576 390.131 335.48C390.558 332.892 392.405 329.994 397.235 329.01L391.434 312.331L384.756 315.139L388.19 324.882C385.76 326.914 384.007 329.762 383.203 332.989C382.399 336.215 382.587 339.641 383.738 342.74C387.539 353.519 397.271 352.302 401.06 350.711C403.925 349.481 413.516 344.564 408.803 331.611Z" fill="#F5F5F5"/>
<path d="M383.435 311.758L390.208 308.907L387.773 302L381 304.852L383.435 311.758Z" fill="#F5F5F5"/>
<path d="M117.763 207.586H186.139C186.139 207.586 186.139 144.84 245.801 143.727C276.786 143.132 292.853 165.324 299.389 182.314C306.966 202.048 304.669 224.537 294.511 242.847C282.919 263.746 257.937 284.747 211.856 275.87L211.417 442.369H279.036V343.663C279.036 343.663 373.862 316.877 373.862 202.617C373.862 93.3387 293.007 69.7361 249.542 68.2092C225.365 67.3681 216.603 66.2294 186.696 70.8748C148.583 76.8272 116.958 125.197 117.763 207.586Z" fill="#1F2937"/>
<path d="M279.853 477.074H211.228V547.118H279.853V477.074Z" fill="#1F2937"/>
<path opacity="0.1" d="M279.853 477.074H211.228V547.118H279.853V477.074Z" fill="black"/>
<path opacity="0.1" d="M117.763 207.586H186.139C186.139 207.586 186.139 144.84 245.801 143.727C276.786 143.132 292.853 165.324 299.389 182.314C306.966 202.048 304.669 224.537 294.511 242.847C282.919 263.746 257.937 284.747 211.856 275.87L211.417 442.369H279.036V343.663C279.036 343.663 373.862 316.877 373.862 202.617C373.862 93.3387 293.007 69.7361 249.542 68.2092C225.365 67.3681 216.603 66.2294 186.696 70.8748C148.583 76.8272 116.958 125.197 117.763 207.586Z" fill="black"/>
<path d="M89.4299 207.586H157.818C157.818 207.586 157.818 144.84 217.479 143.727C248.465 143.132 264.532 165.324 271.055 182.314C278.645 202.048 276.348 224.537 266.189 242.847C254.598 263.746 229.177 282.741 183.096 273.903V442.369H250.714V343.663C250.714 343.663 345.541 316.877 345.541 202.617C345.541 93.3387 255.865 67.9634 217.491 67.9634C188.14 68.0022 88.1393 75.7533 89.4299 207.586Z" fill="#1F2937"/>
<path opacity="0.3" d="M89.4299 207.586H157.818C157.818 207.586 157.818 144.84 217.479 143.727C248.465 143.132 264.532 165.324 271.055 182.314C278.645 202.048 276.348 224.537 266.189 242.847C254.598 263.746 229.177 282.741 183.096 273.903V442.369H250.714V343.663C250.714 343.663 345.541 316.877 345.541 202.617C345.541 93.3387 255.865 67.9634 217.491 67.9634C188.14 68.0022 88.1393 75.7533 89.4299 207.586Z" fill="black"/>
<path d="M251.531 477.074H182.907V547.118H251.531V477.074Z" fill="#1F2937"/>
<path opacity="0.3" d="M251.531 477.074H182.907V547.118H251.531V477.074Z" fill="black"/>
<path d="M225.199 144.064C224.86 144.096 224.52 144.096 224.181 144.064C223.506 144.064 222.535 143.818 221.268 143.805C217.686 143.613 214.096 143.777 210.541 144.297C205.27 145.026 200.083 146.357 195.066 148.269C192.109 149.399 189.228 150.757 186.447 152.332C183.44 153.974 180.609 155.975 178.005 158.298C175.419 160.641 173.101 163.318 171.102 166.269C169.207 168.997 167.479 171.859 165.928 174.835C163.339 179.904 161.285 185.279 159.807 190.855C158.804 194.618 158.115 198.473 157.747 202.371C157.604 203.743 157.569 204.83 157.533 205.555C157.534 205.928 157.503 206.301 157.439 206.667C157.408 206.297 157.408 205.925 157.439 205.555C157.439 204.817 157.439 203.73 157.545 202.345C157.818 198.405 158.448 194.504 159.428 190.699C160.852 185.059 162.879 179.621 165.466 174.499C167.02 171.49 168.757 168.597 170.664 165.842C172.68 162.842 175.026 160.126 177.65 157.754C180.285 155.4 183.152 153.373 186.198 151.711C188.997 150.107 191.897 148.723 194.877 147.57C199.939 145.666 205.175 144.364 210.494 143.688C214.072 143.208 217.685 143.117 221.28 143.417C222.257 143.485 223.229 143.615 224.193 143.805C224.533 143.865 224.87 143.952 225.199 144.064Z" fill="#263238"/>
<path d="M328.231 130.748C328.231 130.748 328.148 130.658 328.006 130.463C327.864 130.269 327.651 129.933 327.414 129.558L325.153 126.064C324.667 125.313 324.146 124.446 323.53 123.554L321.399 120.72L318.96 117.446C318.072 116.307 317.03 115.207 315.988 114.004C314.946 112.8 313.881 111.519 312.673 110.29C311.465 109.061 310.175 107.806 308.849 106.512C308.186 105.865 307.535 105.218 306.824 104.532L304.622 102.63C303.118 101.336 301.626 100.042 300.004 98.7475C292.934 93.2191 285.434 88.3783 277.591 84.2806L271.352 81.2009L265.159 78.6129C263.135 77.6942 261.074 77.0472 259.085 76.3225C257.096 75.5979 255.154 74.8603 253.165 74.3556L247.506 72.7381C245.671 72.2076 243.847 71.8841 242.107 71.4441C240.366 71.0042 238.685 70.616 237.039 70.396L232.303 69.6455C229.308 69.0891 226.561 68.9726 224.169 68.7138C222.985 68.6103 221.801 68.4679 220.818 68.4162L218 68.3385L214.093 68.1962H213.075H212.732C212.845 68.1768 212.961 68.1768 213.075 68.1962H214.093H218H220.83C221.86 68.1962 222.985 68.3515 224.193 68.4421C226.561 68.662 229.355 68.7526 232.351 69.2832L237.087 69.9819C238.732 70.189 240.414 70.6548 242.166 71.0042C243.918 71.3536 245.718 71.7159 247.6 72.2982L253.284 73.9027C255.249 74.3945 257.191 75.1967 259.204 75.8567C261.216 76.5166 263.265 77.1507 265.289 78.1341L271.517 80.7221L277.793 83.8148C285.677 87.9218 293.206 92.7984 300.289 98.3852C301.922 99.6792 303.414 101.064 304.918 102.345L307.12 104.092C307.831 104.739 308.482 105.386 309.145 106.085L312.957 109.967C314.141 111.261 315.207 112.555 316.261 113.732C317.314 114.91 318.321 116.061 319.209 117.213L321.577 120.513L323.684 123.385C324.288 124.291 324.797 125.171 325.271 125.973C326.194 127.487 326.917 128.678 327.426 129.532L327.982 130.476C328.076 130.555 328.159 130.646 328.231 130.748Z" fill="#263238"/>
<path d="M321.103 291.204C320.962 291.484 320.791 291.745 320.594 291.981L318.96 294.09C318.285 295.034 317.433 296.16 316.379 297.415C315.325 298.67 314.2 300.146 312.827 301.673C311.453 303.199 309.985 304.908 308.316 306.629C306.646 308.35 304.835 310.161 302.905 312.05C294.44 320.125 285.161 327.119 275.247 332.897C272.95 334.191 270.783 335.485 268.687 336.481C266.592 337.478 264.638 338.5 262.838 339.328C261.039 340.156 259.381 340.842 257.937 341.45C256.492 342.058 255.225 342.55 254.183 342.912L251.815 343.753C251.541 343.873 251.255 343.96 250.963 344.012C251.218 343.853 251.488 343.722 251.768 343.624L254.136 342.666C255.166 342.265 256.409 341.748 257.842 341.101C259.275 340.454 260.932 339.807 262.708 338.888C264.484 337.969 266.45 337.102 268.498 335.977C270.546 334.851 272.737 333.66 275.022 332.353C279.533 329.636 284.399 326.453 289.313 322.778C294.226 319.103 298.643 315.234 302.573 311.585C304.503 309.721 306.35 307.974 307.996 306.215C309.642 304.455 311.181 302.863 312.543 301.336C313.904 299.809 315.1 298.399 316.166 297.157C317.231 295.914 318.108 294.827 318.818 293.922L320.476 291.864C320.668 291.626 320.878 291.405 321.103 291.204Z" fill="#263238"/>
<path d="M249.518 436.494C249.341 436.494 249.199 415.713 249.199 390.079C249.199 364.444 249.341 343.65 249.518 343.65C249.696 343.65 249.826 364.432 249.826 390.079C249.826 415.726 249.684 436.494 249.518 436.494Z" fill="#263238"/>
<path d="M252.123 542.37C251.946 542.37 251.815 527.786 251.815 509.8C251.815 491.813 251.946 477.217 252.123 477.217C252.301 477.217 252.431 491.8 252.431 509.8C252.431 527.799 252.289 542.37 252.123 542.37Z" fill="#263238"/>
</g>
<defs>
<clipPath id="clip0_59_60">
<rect width="447" height="547" fill="white"/>
</clipPath>
</defs>
</svg>
