<svg width="359" height="391" viewBox="0 0 359 391" fill="none" xmlns="http://www.w3.org/2000/svg">
<path d="M262.594 69.9369C262.385 69.9369 262.218 67.1857 261.382 62.2523C260.221 55.2824 258.4 48.4754 255.95 41.9497C252.386 32.2777 247.126 23.53 240.49 16.2393C232.455 7.16654 221.593 2.05404 210.26 2.00964C198.927 1.96524 188.036 6.99259 179.945 16.0022C173.279 23.2658 167.989 31.9985 164.401 41.665C161.924 48.1666 160.088 54.9598 158.928 61.9202C158.05 66.6638 157.883 69.6523 157.716 69.6049C157.633 68.9282 157.633 68.2418 157.716 67.5651C157.824 65.626 158.019 63.6944 158.301 61.7779C159.211 54.6899 160.895 47.7582 163.315 41.1432C166.846 31.2078 172.153 22.2111 178.9 14.7213C183.028 10.0611 187.924 6.37022 193.308 3.85971C198.693 1.34921 204.461 0.0683391 210.282 0.0903673C216.103 0.112395 221.863 1.43691 227.233 3.98812C232.603 6.53933 237.477 10.2672 241.576 14.9586C248.308 22.4624 253.588 31.4773 257.078 41.4278C259.465 48.0686 261.135 55.0133 262.051 62.11C262.323 64.0266 262.505 65.9585 262.594 67.8972C262.658 68.5752 262.658 69.259 262.594 69.9369Z" fill="#263238"/>
<path d="M280.686 69.9369C280.686 69.9369 280.352 67.1857 279.516 62.2523C278.355 55.2824 276.534 48.4754 274.085 41.9497C270.521 32.2777 265.261 23.53 258.624 16.2393C250.585 7.13783 239.706 2.00715 228.353 1.96274C217 1.91832 206.09 6.96382 197.996 16.0022C191.33 23.2658 186.04 31.9985 182.452 41.665C179.955 48.1586 178.119 54.9543 176.978 61.9202C176.101 66.6638 175.934 69.6523 175.725 69.6049C175.66 68.9269 175.66 68.2431 175.725 67.5651C175.814 65.6264 175.995 63.6945 176.268 61.7779C177.216 54.6938 178.913 47.7654 181.324 41.1432C184.823 31.1887 190.134 22.185 196.909 14.7213C201.037 10.0611 205.933 6.37022 211.317 3.85971C216.702 1.34921 222.47 0.0683391 228.291 0.0903673C234.112 0.112395 239.872 1.43691 245.242 3.98812C250.612 6.53933 255.486 10.2672 259.585 14.9586C266.317 22.4624 271.597 31.4773 275.087 41.4278C277.474 48.0686 279.144 55.0133 280.06 62.11C280.394 64.6241 280.519 66.569 280.603 67.8972C280.713 68.5696 280.741 69.2559 280.686 69.9369Z" fill="#263238"/>
<path d="M105.737 62.5845L310.437 60.8293L314.908 377.56H85.2207L105.737 62.5845Z" fill="#1F2937"/>
<path d="M310.437 60.8293H336.134L358.237 377.56H314.907L310.437 60.8293Z" fill="#D1D5DB"/>
<path d="M267.065 185.539H133.064V211.012H267.065V185.539Z" fill="#EBEBEB"/>
<path d="M169.249 144.317C168.116 134.487 166.071 124.819 163.148 115.476C160.045 105.699 155.306 96.6948 149.192 88.9594C145.883 84.3808 141.724 80.6882 137.012 78.1455C132.301 75.6027 127.152 74.2725 121.935 74.2499C116.719 74.2272 111.562 75.5127 106.833 78.0145C102.104 80.5162 97.9204 84.1725 94.5805 88.7223C88.4462 96.4216 83.6791 105.393 80.541 115.144C77.5965 124.486 75.5238 134.152 74.357 143.985C74.3016 143.291 74.3016 142.592 74.357 141.898C74.357 140.522 74.357 138.483 74.8166 135.874C75.6489 128.577 77.176 121.403 79.371 114.48C82.4286 104.406 87.2145 95.1191 93.4523 87.157C96.9038 82.373 101.251 78.5225 106.179 75.8861C111.106 73.2497 116.489 71.8936 121.936 71.9163C127.383 71.939 132.757 73.3402 137.667 76.0176C142.577 78.695 146.9 82.5814 150.32 87.3941C156.544 95.3957 161.315 104.713 164.36 114.812C166.501 121.745 167.985 128.916 168.789 136.206C169.081 138.815 169.207 140.949 169.249 142.23C169.359 142.92 169.359 143.627 169.249 144.317Z" fill="#D1D5DB"/>
<path d="M185.628 144.316C184.498 134.489 182.468 124.823 179.569 115.475C176.453 105.694 171.7 96.6896 165.571 88.9582C162.262 84.3796 158.103 80.687 153.391 78.1443C148.68 75.6015 143.532 74.2713 138.315 74.2487C133.098 74.226 127.941 75.5115 123.212 78.0133C118.483 80.515 114.3 84.1713 110.96 88.7211C104.825 96.4204 100.058 105.392 96.9202 115.143C93.9757 124.485 91.9029 134.151 90.7361 143.984C90.6807 143.29 90.6807 142.591 90.7361 141.897C90.7361 140.521 90.7361 138.482 91.1957 135.873C92.028 128.575 93.5552 121.402 95.7502 114.479C98.8078 104.404 103.594 95.1179 109.831 87.1558C113.291 82.3786 117.644 78.5349 122.574 75.9035C127.504 73.272 132.888 71.9187 138.336 71.9414C143.784 71.9641 149.159 73.3623 154.072 76.0348C158.985 78.7072 163.312 82.587 166.741 87.3929C172.938 95.408 177.693 104.722 180.739 114.811C182.9 121.737 184.385 128.911 185.168 136.205C185.461 138.814 185.586 140.948 185.628 142.229C185.738 142.919 185.738 143.626 185.628 144.316Z" fill="#D1D5DB"/>
<path d="M19.2855 131.793L204.305 130.37L208.358 390.984H0.733398L19.2855 131.793Z" fill="#EBEBEB"/>
<path d="M204.305 130.37H227.537L247.552 390.984H208.358L204.305 130.37Z" fill="#D1D5DB"/>
<g opacity="0.3">
<path d="M204.305 130.37H227.537L247.552 390.984H208.358L204.305 130.37Z" fill="black"/>
</g>
<path d="M172.758 218.886H51.626V245.213H172.758V218.886Z" fill="#1F2937"/>
</svg>
