<svg xmlns="http://www.w3.org/2000/svg" xmlns:xlink="http://www.w3.org/1999/xlink" width="500" zoomAndPan="magnify" viewBox="0 0 375 374.999991" height="500" preserveAspectRatio="xMidYMid meet" version="1.0"><defs><clipPath id="60dec80e05"><path d="M 107.636719 109.070312 L 278.964844 109.070312 L 278.964844 283.332031 L 107.636719 283.332031 Z M 107.636719 109.070312 " clip-rule="nonzero"/></clipPath><clipPath id="683af2793a"><path d="M 96.019531 119 L 166 119 L 166 254 L 96.019531 254 Z M 96.019531 119 " clip-rule="nonzero"/></clipPath><clipPath id="10b1af9bf7"><path d="M 96.019531 117 L 164 117 L 164 211 L 96.019531 211 Z M 96.019531 117 " clip-rule="nonzero"/></clipPath><clipPath id="d9082bf5f7"><path d="M 180 178 L 253 178 L 253 219 L 180 219 Z M 180 178 " clip-rule="nonzero"/></clipPath><clipPath id="87f371fad8"><path d="M 184.394531 161.4375 L 266.417969 188.113281 L 242.066406 263 L 160.042969 236.328125 Z M 184.394531 161.4375 " clip-rule="nonzero"/></clipPath><clipPath id="8617813ab8"><path d="M 184.394531 161.4375 L 266.417969 188.113281 L 242.066406 263 L 160.042969 236.328125 Z M 184.394531 161.4375 " clip-rule="nonzero"/></clipPath><clipPath id="eb988f6e05"><path d="M 173 197 L 246 197 L 246 238 L 173 238 Z M 173 197 " clip-rule="nonzero"/></clipPath><clipPath id="dd93678d2f"><path d="M 184.394531 161.4375 L 266.417969 188.113281 L 242.066406 263 L 160.042969 236.328125 Z M 184.394531 161.4375 " clip-rule="nonzero"/></clipPath><clipPath id="7681abb50b"><path d="M 184.394531 161.4375 L 266.417969 188.113281 L 242.066406 263 L 160.042969 236.328125 Z M 184.394531 161.4375 " clip-rule="nonzero"/></clipPath></defs><g clip-path="url(#60dec80e05)"><path fill="#1f2937" d="M 278.964844 149.894531 L 278.945312 149.167969 C 274.238281 148.6875 269.511719 147.800781 264.847656 146.765625 C 246.132812 142.589844 227.953125 135.875 210.484375 128.039062 C 205.703125 125.855469 199.886719 123.105469 195.242188 120.6875 C 189.523438 117.832031 183.324219 114.371094 177.75 111.277344 L 174.144531 109.128906 L 110.78125 252.253906 L 110.09375 254.054688 L 109.949219 254.433594 L 107.804688 260.042969 C 110.222656 260.132812 113.253906 260.308594 115.648438 260.496094 C 120.585938 260.882812 126.027344 261.441406 130.96875 262.035156 C 148.867188 264.195312 171.347656 268.460938 188.984375 272.292969 C 204.003906 275.492188 219.347656 279.46875 234.125 283.628906 C 229.226562 281.960938 224.339844 280.238281 219.417969 278.613281 C 204.765625 273.796875 189.558594 269.308594 174.632812 265.484375 C 157.40625 261.1875 138.726562 256.027344 120.742188 253.15625 L 178.234375 119.914062 C 188.050781 124.671875 198.230469 129.25 208.328125 133.164062 C 226.445312 140.152344 244.632812 147.710938 263.800781 150.921875 C 268.078125 151.625 272.34375 152.21875 276.714844 152.496094 C 276.8125 153.945312 278.6875 181.980469 278.6875 181.980469 L 278.964844 149.894531 " fill-opacity="1" fill-rule="nonzero"/></g><g clip-path="url(#683af2793a)"><path fill="#1f2937" d="M 98.351562 228.414062 L 96.019531 232.492188 L 106.019531 253.210938 L 165.96875 119.359375 L 98.351562 228.414062 " fill-opacity="1" fill-rule="nonzero"/></g><g clip-path="url(#10b1af9bf7)"><path fill="#1f2937" d="M 163.640625 117.027344 L 96.367188 199.292969 L 103.925781 210.570312 Z M 163.640625 117.027344 " fill-opacity="1" fill-rule="nonzero"/></g><path fill="#1f2937" d="M 224.816406 100.324219 C 226.339844 100.960938 227.925781 102.417969 229.230469 105.222656 C 219.800781 109.910156 210.941406 119.671875 209.585938 121.214844 L 214.394531 123.328125 C 217.539062 119.761719 224.125 112.894531 230.628906 109.226562 C 231.960938 114.335938 232.597656 122.035156 231.800781 133.488281 L 235.285156 133.769531 C 236.0625 122.617188 235.742188 113.867188 234.140625 107.578125 C 236.65625 106.671875 239.058594 106.449219 241.125 107.3125 C 245.226562 109.027344 249.769531 116.65625 248.109375 140.476562 L 251.597656 140.761719 C 253.082031 119.402344 250.5625 106.839844 242.695312 103.550781 C 239.679688 102.289062 236.289062 102.554688 232.863281 103.703125 C 231.351562 100.136719 229.21875 97.746094 226.386719 96.5625 C 213.972656 91.371094 195.296875 111.929688 193.277344 114.222656 L 198.082031 116.335938 C 203.042969 110.710938 216.5625 96.871094 224.816406 100.324219 " fill-opacity="1" fill-rule="nonzero"/><g clip-path="url(#d9082bf5f7)"><g clip-path="url(#87f371fad8)"><g clip-path="url(#8617813ab8)"><path fill="#1f2937" d="M 190.917969 179.035156 C 187.136719 181.769531 183.441406 184.613281 181.574219 189.769531 C 179.472656 194.128906 180.722656 199.480469 182.917969 203.640625 C 187.375 209.449219 194.066406 207.203125 200.203125 206.964844 C 214.402344 205.691406 228.390625 203.796875 243.023438 203.785156 C 248.378906 203.625 250.800781 206.753906 245.613281 218.402344 C 249.804688 214.695312 252.75 210.925781 252.476562 207.890625 C 252.128906 199.636719 247.492188 198.335938 242.015625 198.40625 C 226.324219 198.320312 210.792969 200.582031 195.195312 201.890625 C 190.371094 202.863281 187.140625 201.929688 186.328125 198.089844 C 185.316406 193.363281 186.847656 190.421875 189.050781 187.953125 L 194.160156 183.1875 C 196.472656 181.574219 193.285156 177.429688 190.917969 179.035156 Z M 190.917969 179.035156 " fill-opacity="1" fill-rule="evenodd"/></g></g></g><g clip-path="url(#eb988f6e05)"><g clip-path="url(#dd93678d2f)"><g clip-path="url(#7681abb50b)"><path fill="#1f2937" d="M 183.84375 197.96875 C 180.058594 200.703125 176.367188 203.550781 174.496094 208.707031 C 172.394531 213.066406 173.648438 218.414062 175.839844 222.574219 C 180.296875 228.382812 186.992188 226.140625 193.125 225.898438 C 207.328125 224.625 221.316406 222.730469 235.945312 222.71875 C 241.300781 222.5625 243.726562 225.6875 238.539062 237.335938 C 242.730469 233.628906 245.675781 229.863281 245.398438 226.828125 C 245.050781 218.570312 240.417969 217.269531 234.9375 217.339844 C 219.25 217.253906 203.714844 219.515625 188.117188 220.828125 C 183.296875 221.800781 180.0625 220.863281 179.253906 217.027344 C 178.242188 212.296875 179.773438 209.359375 181.972656 206.890625 L 187.082031 202.125 Z M 183.84375 197.96875 " fill-opacity="1" fill-rule="evenodd"/></g></g></g></svg>