<svg xmlns="http://www.w3.org/2000/svg" xmlns:xlink="http://www.w3.org/1999/xlink" width="500" zoomAndPan="magnify" viewBox="0 0 375 374.999991" height="500" preserveAspectRatio="xMidYMid meet" version="1.0"><defs><g/><clipPath id="47b7f0e0c1"><path d="M 107.636719 80.921875 L 278.964844 80.921875 L 278.964844 255.183594 L 107.636719 255.183594 Z M 107.636719 80.921875 " clip-rule="nonzero"/></clipPath><clipPath id="b1592b4136"><path d="M 96.019531 91 L 166 91 L 166 226 L 96.019531 226 Z M 96.019531 91 " clip-rule="nonzero"/></clipPath><clipPath id="e5919f1899"><path d="M 96.019531 88 L 164 88 L 164 183 L 96.019531 183 Z M 96.019531 88 " clip-rule="nonzero"/></clipPath><clipPath id="1c98642338"><path d="M 180 150 L 253 150 L 253 191 L 180 191 Z M 180 150 " clip-rule="nonzero"/></clipPath><clipPath id="d4e7f21969"><path d="M 184.394531 133.289062 L 266.417969 159.960938 L 242.066406 234.851562 L 160.042969 208.179688 Z M 184.394531 133.289062 " clip-rule="nonzero"/></clipPath><clipPath id="9eb07472c9"><path d="M 184.394531 133.289062 L 266.417969 159.960938 L 242.066406 234.851562 L 160.042969 208.179688 Z M 184.394531 133.289062 " clip-rule="nonzero"/></clipPath><clipPath id="dfd4b5be27"><path d="M 173 169 L 246 169 L 246 210 L 173 210 Z M 173 169 " clip-rule="nonzero"/></clipPath><clipPath id="2a34fa2eb6"><path d="M 184.394531 133.289062 L 266.417969 159.960938 L 242.066406 234.851562 L 160.042969 208.179688 Z M 184.394531 133.289062 " clip-rule="nonzero"/></clipPath><clipPath id="ae1c49472b"><path d="M 184.394531 133.289062 L 266.417969 159.960938 L 242.066406 234.851562 L 160.042969 208.179688 Z M 184.394531 133.289062 " clip-rule="nonzero"/></clipPath></defs><g clip-path="url(#47b7f0e0c1)"><path fill="#1f2937" d="M 278.964844 121.746094 L 278.945312 121.019531 C 274.238281 120.539062 269.511719 119.648438 264.847656 118.617188 C 246.132812 114.441406 227.953125 107.726562 210.484375 99.886719 C 205.703125 97.707031 199.886719 94.953125 195.242188 92.539062 C 189.523438 89.683594 183.324219 86.222656 177.75 83.128906 L 174.144531 80.980469 L 110.78125 224.105469 L 110.09375 225.902344 L 109.949219 226.285156 L 107.804688 231.894531 C 110.222656 231.984375 113.253906 232.160156 115.648438 232.347656 C 120.585938 232.730469 126.027344 233.292969 130.96875 233.886719 C 148.867188 236.046875 171.347656 240.308594 188.984375 244.144531 C 204.003906 247.34375 219.347656 251.320312 234.125 255.480469 C 229.226562 253.8125 224.339844 252.089844 219.417969 250.464844 C 204.765625 245.648438 189.558594 241.160156 174.632812 237.332031 C 157.40625 233.039062 138.726562 227.878906 120.742188 225.007812 L 178.234375 91.765625 C 188.050781 96.523438 198.230469 101.101562 208.328125 105.015625 C 226.445312 112.003906 244.632812 119.5625 263.800781 122.773438 C 268.078125 123.476562 272.34375 124.070312 276.714844 124.347656 C 276.8125 125.796875 278.6875 153.828125 278.6875 153.828125 L 278.964844 121.746094 " fill-opacity="1" fill-rule="nonzero"/></g><g clip-path="url(#b1592b4136)"><path fill="#1f2937" d="M 98.351562 200.265625 L 96.019531 204.34375 L 106.019531 225.0625 L 165.96875 91.207031 L 98.351562 200.265625 " fill-opacity="1" fill-rule="nonzero"/></g><g clip-path="url(#e5919f1899)"><path fill="#1f2937" d="M 163.640625 88.878906 L 96.367188 171.144531 L 103.925781 182.421875 Z M 163.640625 88.878906 " fill-opacity="1" fill-rule="nonzero"/></g><path fill="#1f2937" d="M 224.816406 72.175781 C 226.339844 72.8125 227.925781 74.269531 229.230469 77.074219 C 219.800781 81.761719 210.941406 91.523438 209.585938 93.066406 L 214.394531 95.179688 C 217.539062 91.609375 224.125 84.746094 230.628906 81.078125 C 231.960938 86.1875 232.597656 93.886719 231.800781 105.339844 L 235.285156 105.621094 C 236.0625 94.46875 235.742188 85.71875 234.140625 79.429688 C 236.65625 78.523438 239.058594 78.300781 241.125 79.164062 C 245.226562 80.878906 249.769531 88.507812 248.109375 112.328125 L 251.597656 112.613281 C 253.082031 91.253906 250.5625 78.6875 242.695312 75.402344 C 239.679688 74.140625 236.289062 74.402344 232.863281 75.554688 C 231.351562 71.988281 229.21875 69.597656 226.386719 68.414062 C 213.972656 63.222656 195.296875 83.78125 193.277344 86.074219 L 198.082031 88.1875 C 203.042969 82.5625 216.5625 68.722656 224.816406 72.175781 " fill-opacity="1" fill-rule="nonzero"/><g clip-path="url(#1c98642338)"><g clip-path="url(#d4e7f21969)"><g clip-path="url(#9eb07472c9)"><path fill="#1f2937" d="M 190.917969 150.886719 C 187.136719 153.617188 183.441406 156.464844 181.574219 161.621094 C 179.472656 165.980469 180.722656 171.328125 182.917969 175.488281 C 187.375 181.300781 194.066406 179.054688 200.203125 178.816406 C 214.402344 177.542969 228.390625 175.648438 243.023438 175.632812 C 248.378906 175.476562 250.800781 178.605469 245.613281 190.253906 C 249.804688 186.546875 252.75 182.777344 252.476562 179.742188 C 252.128906 171.488281 247.492188 170.1875 242.015625 170.257812 C 226.324219 170.171875 210.792969 172.429688 195.195312 173.742188 C 190.371094 174.714844 187.140625 173.78125 186.328125 169.941406 C 185.316406 165.214844 186.847656 162.273438 189.050781 159.804688 L 194.160156 155.039062 C 196.472656 153.425781 193.285156 149.28125 190.917969 150.886719 Z M 190.917969 150.886719 " fill-opacity="1" fill-rule="evenodd"/></g></g></g><g clip-path="url(#dfd4b5be27)"><g clip-path="url(#2a34fa2eb6)"><g clip-path="url(#ae1c49472b)"><path fill="#1f2937" d="M 183.84375 169.820312 C 180.058594 172.554688 176.367188 175.402344 174.496094 180.558594 C 172.394531 184.914062 173.648438 190.265625 175.839844 194.425781 C 180.296875 200.234375 186.992188 197.992188 193.125 197.75 C 207.328125 196.476562 221.316406 194.582031 235.945312 194.570312 C 241.300781 194.414062 243.726562 197.539062 238.539062 209.1875 C 242.730469 205.480469 245.675781 201.714844 245.398438 198.679688 C 245.050781 190.421875 240.417969 189.121094 234.9375 189.191406 C 219.25 189.105469 203.714844 191.367188 188.117188 192.679688 C 183.296875 193.652344 180.0625 192.714844 179.253906 188.875 C 178.242188 184.148438 179.773438 181.210938 181.972656 178.742188 L 187.082031 173.976562 Z M 183.84375 169.820312 " fill-opacity="1" fill-rule="evenodd"/></g></g></g><g fill="#1f2937" fill-opacity="1"><g transform="translate(60.923502, 291.709624)"><g><path d="M 16.390625 0 L 2.34375 0 L 2.34375 -21 L 16.390625 -21 C 22.140625 -21 26.269531 -20.191406 28.78125 -18.578125 C 30.8125 -17.285156 31.96875 -15.519531 32.25 -13.28125 C 32.375 -12.320312 32.4375 -11.390625 32.4375 -10.484375 C 32.4375 -9.597656 32.375 -8.671875 32.25 -7.703125 C 32.132812 -6.734375 31.8125 -5.789062 31.28125 -4.875 C 30.757812 -3.96875 29.925781 -3.144531 28.78125 -2.40625 C 27.632812 -1.675781 26.0625 -1.09375 24.0625 -0.65625 C 22.070312 -0.21875 19.515625 0 16.390625 0 Z M 15.5625 -5.1875 C 20.03125 -5.1875 22.5625 -6.320312 23.15625 -8.59375 C 23.3125 -9.226562 23.390625 -9.859375 23.390625 -10.484375 C 23.390625 -11.128906 23.304688 -11.765625 23.140625 -12.390625 C 22.984375 -13.023438 22.640625 -13.597656 22.109375 -14.109375 C 21.585938 -14.617188 20.804688 -15.023438 19.765625 -15.328125 C 18.722656 -15.640625 17.320312 -15.796875 15.5625 -15.796875 L 11.15625 -15.796875 L 11.15625 -5.1875 Z M 15.5625 -5.1875 "/></g></g></g><g fill="#1f2937" fill-opacity="1"><g transform="translate(94.525861, 291.709624)"><g><path d="M 35.265625 0 L 26.34375 0 L 24.359375 -3.4375 L 11.125 -3.4375 L 9.140625 0 L 0.21875 0 L 13.65625 -20.984375 L 21.828125 -20.984375 Z M 21.390625 -8.640625 L 17.75 -15 L 14.09375 -8.640625 Z M 21.390625 -8.640625 "/></g></g></g><g fill="#1f2937" fill-opacity="1"><g transform="translate(130.000706, 291.709624)"><g><path d="M 20.484375 0 L 11.671875 0 L 11.671875 -9.953125 L 0.21875 -21 L 9.984375 -21 L 16.078125 -14.71875 L 22.171875 -21 L 31.921875 -21 L 20.484375 -9.953125 Z M 20.484375 0 "/></g></g></g><g fill="#1f2937" fill-opacity="1"><g transform="translate(162.140185, 291.709624)"><g><path d="M 25.578125 0 L 1.3125 0 L 1.3125 -5.1875 L 15.203125 -15.796875 L 1.3125 -15.796875 L 1.3125 -20.984375 L 25.578125 -20.984375 L 25.578125 -15.796875 L 11.671875 -5.1875 L 25.578125 -5.1875 Z M 25.578125 0 "/></g></g></g><g fill="#1f2937" fill-opacity="1"><g transform="translate(189.02792, 291.709624)"><g><path d="M 13.875 0.453125 C 11.03125 0.453125 8.738281 0.148438 7 -0.453125 C 5.269531 -1.066406 3.953125 -1.90625 3.046875 -2.96875 C 2.140625 -4.039062 1.53125 -5.273438 1.21875 -6.671875 L 10.5625 -6.671875 C 11.257812 -5.679688 12.363281 -5.1875 13.875 -5.1875 C 15.382812 -5.1875 16.484375 -5.679688 17.171875 -6.671875 C 17.234375 -6.765625 17.265625 -6.851562 17.265625 -6.9375 C 17.265625 -7.195312 16.914062 -7.390625 16.21875 -7.515625 C 15.519531 -7.648438 14.476562 -7.753906 13.09375 -7.828125 C 11.351562 -7.910156 9.519531 -8.097656 7.59375 -8.390625 C 3.3125 -9.046875 1.171875 -10.765625 1.171875 -13.546875 C 1.171875 -13.785156 1.1875 -14.035156 1.21875 -14.296875 C 1.53125 -15.691406 2.140625 -16.921875 3.046875 -17.984375 C 3.953125 -19.054688 5.269531 -19.894531 7 -20.5 C 8.738281 -21.113281 11.03125 -21.421875 13.875 -21.421875 C 16.707031 -21.421875 18.992188 -21.113281 20.734375 -20.5 C 22.472656 -19.894531 23.796875 -19.054688 24.703125 -17.984375 C 25.609375 -16.921875 26.21875 -15.691406 26.53125 -14.296875 L 17.171875 -14.296875 C 16.484375 -15.296875 15.382812 -15.796875 13.875 -15.796875 C 12.363281 -15.796875 11.257812 -15.296875 10.5625 -14.296875 C 10.507812 -14.210938 10.484375 -14.140625 10.484375 -14.078125 C 10.484375 -13.835938 10.816406 -13.660156 11.484375 -13.546875 C 12.160156 -13.441406 13.148438 -13.347656 14.453125 -13.265625 C 15.753906 -13.191406 17.140625 -13.066406 18.609375 -12.890625 C 20.085938 -12.710938 21.46875 -12.40625 22.75 -11.96875 C 24.03125 -11.539062 25.03125 -10.898438 25.75 -10.046875 C 26.320312 -9.398438 26.609375 -8.570312 26.609375 -7.5625 C 26.609375 -7.28125 26.582031 -6.984375 26.53125 -6.671875 C 26.21875 -5.273438 25.609375 -4.039062 24.703125 -2.96875 C 23.796875 -1.90625 22.472656 -1.066406 20.734375 -0.453125 C 18.992188 0.148438 16.707031 0.453125 13.875 0.453125 Z M 13.875 0.453125 "/></g></g></g><g fill="#1f2937" fill-opacity="1"><g transform="translate(216.793392, 291.709624)"><g><path d="M 31.015625 0 L 22.21875 0 L 22.21875 -8.46875 L 11.15625 -8.46875 L 11.15625 0 L 2.34375 0 L 2.34375 -21 L 11.15625 -21 L 11.15625 -12.515625 L 22.21875 -12.515625 L 22.21875 -21 L 31.015625 -21 Z M 31.015625 0 "/></g></g></g><g fill="#1f2937" fill-opacity="1"><g transform="translate(250.147057, 291.709624)"><g><path d="M 15.875 0.453125 C 10.6875 0.453125 6.867188 -0.613281 4.421875 -2.75 C 2.253906 -4.644531 1.171875 -7.222656 1.171875 -10.484375 C 1.171875 -13.742188 2.253906 -16.320312 4.421875 -18.21875 C 6.867188 -20.351562 10.6875 -21.421875 15.875 -21.421875 C 21.0625 -21.421875 24.878906 -20.351562 27.328125 -18.21875 C 29.492188 -16.320312 30.578125 -13.742188 30.578125 -10.484375 C 30.578125 -7.222656 29.492188 -4.644531 27.328125 -2.75 C 24.878906 -0.613281 21.0625 0.453125 15.875 0.453125 Z M 15.875 -5.1875 C 18 -5.1875 19.5625 -5.796875 20.5625 -7.015625 C 21.363281 -7.992188 21.765625 -9.148438 21.765625 -10.484375 C 21.765625 -11.828125 21.363281 -12.984375 20.5625 -13.953125 C 19.5625 -15.179688 18 -15.796875 15.875 -15.796875 C 13.75 -15.796875 12.1875 -15.179688 11.1875 -13.953125 C 10.382812 -12.984375 9.984375 -11.828125 9.984375 -10.484375 C 9.984375 -9.148438 10.382812 -7.992188 11.1875 -7.015625 C 12.1875 -5.796875 13.75 -5.1875 15.875 -5.1875 Z M 15.875 -5.1875 "/></g></g></g><g fill="#1f2937" fill-opacity="1"><g transform="translate(281.891545, 291.709624)"><g><path d="M 11.15625 0 L 2.34375 0 L 2.34375 -21 L 16.671875 -21 C 20.085938 -21 22.847656 -20.742188 24.953125 -20.234375 C 27.054688 -19.722656 28.585938 -18.914062 29.546875 -17.8125 C 30.515625 -16.71875 31 -15.285156 31 -13.515625 C 31 -11.765625 30.515625 -10.335938 29.546875 -9.234375 C 28.585938 -8.140625 27.054688 -7.335938 24.953125 -6.828125 C 22.847656 -6.316406 20.085938 -6.0625 16.671875 -6.0625 L 11.15625 -6.0625 Z M 11.15625 -11.234375 L 16.1875 -11.25 C 17.59375 -11.25 18.695312 -11.304688 19.5 -11.421875 C 20.3125 -11.535156 20.910156 -11.691406 21.296875 -11.890625 C 21.679688 -12.097656 21.925781 -12.335938 22.03125 -12.609375 C 22.144531 -12.890625 22.203125 -13.191406 22.203125 -13.515625 C 22.203125 -13.847656 22.144531 -14.15625 22.03125 -14.4375 C 21.925781 -14.71875 21.679688 -14.957031 21.296875 -15.15625 C 20.910156 -15.363281 20.3125 -15.519531 19.5 -15.625 C 18.695312 -15.738281 17.59375 -15.796875 16.1875 -15.796875 L 11.15625 -15.796875 Z M 11.15625 -11.234375 "/></g></g></g><g fill="#1f2937" fill-opacity="1"><g transform="translate(112.300778, 320.952752)"><g><path d="M 16.375 -7.96875 C 16.375 -5.5625 15.648438 -3.601562 14.203125 -2.09375 C 12.753906 -0.59375 10.929688 0.15625 8.734375 0.15625 C 6.546875 0.15625 4.71875 -0.601562 3.25 -2.125 C 1.789062 -3.644531 1.0625 -5.601562 1.0625 -8 C 1.0625 -10.394531 1.816406 -12.3125 3.328125 -13.75 C 4.835938 -15.195312 6.640625 -15.921875 8.734375 -15.921875 C 10.828125 -15.921875 12.625 -15.195312 14.125 -13.75 C 15.625 -12.3125 16.375 -10.382812 16.375 -7.96875 Z M 4.796875 -3.3125 C 5.921875 -2.1875 7.234375 -1.625 8.734375 -1.625 C 10.234375 -1.625 11.539062 -2.1875 12.65625 -3.3125 C 13.769531 -4.4375 14.328125 -5.976562 14.328125 -7.9375 C 14.328125 -9.894531 13.753906 -11.425781 12.609375 -12.53125 C 11.472656 -13.632812 10.179688 -14.1875 8.734375 -14.1875 C 7.285156 -14.1875 5.988281 -13.632812 4.84375 -12.53125 C 3.695312 -11.425781 3.125 -9.894531 3.125 -7.9375 C 3.125 -5.976562 3.679688 -4.4375 4.796875 -3.3125 Z M 4.796875 -3.3125 "/></g></g></g><g fill="#1f2937" fill-opacity="1"><g transform="translate(129.743667, 320.952752)"><g><path d="M 12.546875 0 L 10.453125 0 C 9.816406 0 9.5 -0.304688 9.5 -0.921875 L 9.5 -6.703125 C 9.5 -7.554688 9.289062 -8.21875 8.875 -8.6875 C 8.46875 -9.15625 7.867188 -9.390625 7.078125 -9.390625 C 5.953125 -9.390625 5.070312 -8.929688 4.4375 -8.015625 C 4.363281 -7.921875 4.269531 -7.757812 4.15625 -7.53125 L 4.15625 -1.46875 L 5.328125 -1.46875 C 5.515625 -1.46875 5.609375 -1.378906 5.609375 -1.203125 L 5.609375 -0.265625 C 5.609375 -0.0859375 5.515625 0 5.328125 0 L 1.125 0 C 0.9375 0 0.84375 -0.0859375 0.84375 -0.265625 L 0.84375 -1.203125 C 0.84375 -1.378906 0.9375 -1.46875 1.125 -1.46875 L 2.328125 -1.46875 L 2.328125 -9.34375 L 1.125 -9.34375 C 0.9375 -9.34375 0.84375 -9.429688 0.84375 -9.609375 L 0.84375 -10.5625 C 0.84375 -10.738281 0.9375 -10.828125 1.125 -10.828125 L 3.703125 -10.828125 C 3.890625 -10.828125 3.984375 -10.738281 3.984375 -10.5625 L 3.9375 -9.0625 L 4 -9.0625 C 4.757812 -10.34375 5.941406 -10.984375 7.546875 -10.984375 C 8.722656 -10.984375 9.640625 -10.632812 10.296875 -9.9375 C 10.953125 -9.25 11.289062 -8.320312 11.3125 -7.15625 L 11.3125 -1.46875 L 12.546875 -1.46875 C 12.734375 -1.46875 12.828125 -1.378906 12.828125 -1.203125 L 12.828125 -0.265625 C 12.828125 -0.0859375 12.734375 0 12.546875 0 Z M 12.546875 0 "/></g></g></g><g fill="#1f2937" fill-opacity="1"><g transform="translate(143.403231, 320.952752)"><g><path d="M 10.625 -5.1875 L 2.703125 -5.1875 C 2.765625 -3.96875 3.148438 -3.03125 3.859375 -2.375 C 4.566406 -1.71875 5.367188 -1.390625 6.265625 -1.390625 C 7.160156 -1.390625 7.925781 -1.578125 8.5625 -1.953125 C 9.207031 -2.335938 9.640625 -2.710938 9.859375 -3.078125 C 9.972656 -3.222656 10.101562 -3.242188 10.25 -3.140625 L 10.84375 -2.546875 C 10.9375 -2.460938 10.984375 -2.382812 10.984375 -2.3125 C 10.984375 -2.25 10.945312 -2.164062 10.875 -2.0625 C 10.8125 -1.957031 10.675781 -1.796875 10.46875 -1.578125 C 10.257812 -1.359375 9.96875 -1.109375 9.59375 -0.828125 C 9.226562 -0.554688 8.75 -0.320312 8.15625 -0.125 C 7.5625 0.0625 6.925781 0.15625 6.25 0.15625 C 4.707031 0.15625 3.421875 -0.347656 2.390625 -1.359375 C 1.359375 -2.367188 0.84375 -3.726562 0.84375 -5.4375 C 0.84375 -7.15625 1.351562 -8.507812 2.375 -9.5 C 3.40625 -10.488281 4.660156 -10.984375 6.140625 -10.984375 C 7.628906 -10.984375 8.800781 -10.5 9.65625 -9.53125 C 10.507812 -8.570312 10.9375 -7.28125 10.9375 -5.65625 C 10.9375 -5.59375 10.9375 -5.535156 10.9375 -5.484375 C 10.9375 -5.285156 10.832031 -5.1875 10.625 -5.1875 Z M 9.109375 -6.53125 C 9.066406 -7.4375 8.78125 -8.160156 8.25 -8.703125 C 7.71875 -9.253906 7.007812 -9.53125 6.125 -9.53125 C 5.25 -9.53125 4.492188 -9.28125 3.859375 -8.78125 C 3.234375 -8.28125 2.863281 -7.53125 2.75 -6.53125 Z M 9.109375 -6.53125 "/></g></g></g><g fill="#1f2937" fill-opacity="1"><g transform="translate(155.237119, 320.952752)"><g/></g></g><g fill="#1f2937" fill-opacity="1"><g transform="translate(162.121896, 320.952752)"><g><path d="M 12.359375 0 L 10.453125 0 C 10.109375 0 9.859375 -0.0664062 9.703125 -0.203125 C 9.554688 -0.347656 9.484375 -0.585938 9.484375 -0.921875 L 9.484375 -2.15625 L 9.453125 -2.15625 C 9.222656 -1.539062 8.785156 -1 8.140625 -0.53125 C 7.492188 -0.0703125 6.707031 0.15625 5.78125 0.15625 C 4.320312 0.15625 3.132812 -0.351562 2.21875 -1.375 C 1.300781 -2.40625 0.84375 -3.753906 0.84375 -5.421875 C 0.84375 -7.085938 1.300781 -8.429688 2.21875 -9.453125 C 3.132812 -10.472656 4.332031 -10.984375 5.8125 -10.984375 C 6.71875 -10.984375 7.46875 -10.769531 8.0625 -10.34375 C 8.664062 -9.925781 9.101562 -9.421875 9.375 -8.828125 L 9.390625 -8.828125 C 9.378906 -9.117188 9.375 -9.359375 9.375 -9.546875 L 9.375 -14.328125 L 8.140625 -14.328125 C 7.953125 -14.328125 7.859375 -14.414062 7.859375 -14.59375 L 7.859375 -15.53125 C 7.859375 -15.707031 7.953125 -15.796875 8.140625 -15.796875 L 10.875 -15.796875 C 11.039062 -15.796875 11.125 -15.707031 11.125 -15.53125 L 11.125 -1.46875 L 12.359375 -1.46875 C 12.535156 -1.46875 12.625 -1.378906 12.625 -1.203125 L 12.625 -0.265625 C 12.625 -0.0859375 12.535156 0 12.359375 0 Z M 2.640625 -5.453125 C 2.640625 -4.234375 2.957031 -3.25 3.59375 -2.5 C 4.226562 -1.757812 5.035156 -1.390625 6.015625 -1.390625 C 7.003906 -1.390625 7.8125 -1.757812 8.4375 -2.5 C 9.070312 -3.238281 9.390625 -4.222656 9.390625 -5.453125 C 9.390625 -6.679688 9.066406 -7.648438 8.421875 -8.359375 C 7.773438 -9.078125 6.972656 -9.4375 6.015625 -9.4375 C 5.066406 -9.4375 4.265625 -9.078125 3.609375 -8.359375 C 2.960938 -7.640625 2.640625 -6.671875 2.640625 -5.453125 Z M 2.640625 -5.453125 "/></g></g></g><g fill="#1f2937" fill-opacity="1"><g transform="translate(175.5835, 320.952752)"><g><path d="M 11.640625 0 L 9.71875 0 C 9.09375 0 8.78125 -0.304688 8.78125 -0.921875 L 8.78125 -2.046875 L 8.734375 -2.046875 C 7.660156 -0.566406 6.226562 0.171875 4.4375 0.171875 C 3.382812 0.171875 2.519531 -0.0976562 1.84375 -0.640625 C 1.175781 -1.191406 0.84375 -1.9375 0.84375 -2.875 C 0.84375 -4.082031 1.363281 -4.96875 2.40625 -5.53125 C 3.457031 -6.09375 4.898438 -6.375 6.734375 -6.375 L 8.578125 -6.375 L 8.578125 -6.640625 C 8.578125 -8.472656 7.625 -9.390625 5.71875 -9.390625 C 4.820312 -9.390625 4.175781 -9.304688 3.78125 -9.140625 C 3.382812 -8.972656 3.101562 -8.835938 2.9375 -8.734375 C 2.769531 -8.628906 2.640625 -8.546875 2.546875 -8.484375 C 2.328125 -8.316406 2.164062 -8.304688 2.0625 -8.453125 L 1.453125 -9.21875 C 1.347656 -9.332031 1.363281 -9.445312 1.5 -9.5625 C 1.75 -9.882812 2.257812 -10.203125 3.03125 -10.515625 C 3.8125 -10.828125 4.726562 -10.984375 5.78125 -10.984375 C 8.863281 -10.984375 10.40625 -9.515625 10.40625 -6.578125 L 10.40625 -1.46875 L 11.640625 -1.46875 C 11.816406 -1.46875 11.90625 -1.378906 11.90625 -1.203125 L 11.90625 -0.265625 C 11.90625 -0.0859375 11.816406 0 11.640625 0 Z M 8.578125 -5.0625 L 6.84375 -5.0625 C 5.988281 -5.0625 5.28125 -5.015625 4.71875 -4.921875 C 4.164062 -4.835938 3.695312 -4.648438 3.3125 -4.359375 C 2.925781 -4.066406 2.734375 -3.660156 2.734375 -3.140625 C 2.734375 -2.628906 2.941406 -2.207031 3.359375 -1.875 C 3.773438 -1.550781 4.320312 -1.390625 5 -1.390625 C 6.414062 -1.390625 7.609375 -2.019531 8.578125 -3.28125 Z M 8.578125 -5.0625 "/></g></g></g><g fill="#1f2937" fill-opacity="1"><g transform="translate(188.341224, 320.952752)"><g><path d="M 5.734375 -0.234375 C 5.503906 -0.234375 5.316406 -0.421875 5.171875 -0.796875 L 1.796875 -9.34375 L 0.59375 -9.34375 C 0.414062 -9.34375 0.328125 -9.429688 0.328125 -9.609375 L 0.328125 -10.5625 C 0.328125 -10.738281 0.414062 -10.828125 0.59375 -10.828125 L 4.578125 -10.828125 C 4.765625 -10.828125 4.859375 -10.738281 4.859375 -10.5625 L 4.859375 -9.609375 C 4.859375 -9.429688 4.765625 -9.34375 4.578125 -9.34375 L 3.671875 -9.34375 L 6.515625 -1.890625 L 6.5625 -1.890625 L 9.203125 -9.34375 L 8.203125 -9.34375 C 8.023438 -9.34375 7.9375 -9.429688 7.9375 -9.609375 L 7.9375 -10.5625 C 7.9375 -10.738281 8.023438 -10.828125 8.203125 -10.828125 L 12.296875 -10.828125 C 12.472656 -10.828125 12.5625 -10.738281 12.5625 -10.5625 L 12.5625 -9.609375 C 12.5625 -9.429688 12.472656 -9.34375 12.296875 -9.34375 L 11.0625 -9.34375 L 7.15625 1.40625 C 6.664062 2.707031 6.160156 3.65625 5.640625 4.25 C 5.117188 4.84375 4.40625 5.140625 3.5 5.140625 C 2.601562 5.140625 1.832031 4.859375 1.1875 4.296875 C 1.039062 4.140625 1.019531 4.003906 1.125 3.890625 L 1.671875 3.1875 C 1.804688 3.082031 1.9375 3.078125 2.0625 3.171875 C 2.414062 3.453125 2.832031 3.59375 3.3125 3.59375 C 3.800781 3.59375 4.203125 3.425781 4.515625 3.09375 C 4.835938 2.757812 5.144531 2.191406 5.4375 1.390625 L 6.03125 -0.234375 Z M 5.734375 -0.234375 "/></g></g></g><g fill="#1f2937" fill-opacity="1"><g transform="translate(201.318915, 320.952752)"><g/></g></g><g fill="#1f2937" fill-opacity="1"><g transform="translate(208.203692, 320.952752)"><g><path d="M 5.71875 0.15625 C 4.738281 0.15625 3.953125 -0.0234375 3.359375 -0.390625 C 2.773438 -0.765625 2.410156 -1.113281 2.265625 -1.4375 L 2.21875 -1.4375 C 2.25 -0.71875 2.265625 -0.332031 2.265625 -0.28125 C 2.265625 -0.09375 2.160156 0 1.953125 0 L 1.203125 0 C 1.015625 0 0.921875 -0.09375 0.921875 -0.28125 L 0.921875 -3.59375 C 0.921875 -3.78125 1.015625 -3.875 1.203125 -3.875 L 2.0625 -3.875 C 2.269531 -3.875 2.375 -3.78125 2.375 -3.59375 L 2.375 -3.140625 C 2.519531 -2.703125 2.828125 -2.300781 3.296875 -1.9375 C 3.859375 -1.5 4.554688 -1.28125 5.390625 -1.28125 C 7.035156 -1.28125 7.859375 -1.847656 7.859375 -2.984375 C 7.859375 -3.390625 7.628906 -3.710938 7.171875 -3.953125 C 6.710938 -4.191406 6.15625 -4.390625 5.5 -4.546875 C 4.851562 -4.710938 4.207031 -4.894531 3.5625 -5.09375 C 2.914062 -5.300781 2.363281 -5.632812 1.90625 -6.09375 C 1.457031 -6.5625 1.234375 -7.148438 1.234375 -7.859375 C 1.234375 -8.804688 1.578125 -9.5625 2.265625 -10.125 C 2.953125 -10.695312 3.832031 -10.984375 4.90625 -10.984375 C 6.351562 -10.984375 7.394531 -10.554688 8.03125 -9.703125 L 8.078125 -9.703125 C 8.046875 -10.234375 8.03125 -10.503906 8.03125 -10.515625 C 8.03125 -10.703125 8.125 -10.796875 8.3125 -10.796875 L 9.015625 -10.796875 C 9.210938 -10.796875 9.3125 -10.703125 9.3125 -10.515625 L 9.3125 -7.453125 C 9.3125 -7.265625 9.210938 -7.171875 9.015625 -7.171875 L 8.15625 -7.171875 C 7.957031 -7.171875 7.859375 -7.265625 7.859375 -7.453125 L 7.859375 -7.765625 C 7.859375 -8.160156 7.625 -8.550781 7.15625 -8.9375 C 6.695312 -9.332031 6.097656 -9.53125 5.359375 -9.53125 C 4.628906 -9.53125 4.054688 -9.375 3.640625 -9.0625 C 3.234375 -8.757812 3.03125 -8.359375 3.03125 -7.859375 C 3.03125 -7.367188 3.257812 -6.988281 3.71875 -6.71875 C 4.1875 -6.445312 4.75 -6.234375 5.40625 -6.078125 C 6.070312 -5.929688 6.734375 -5.757812 7.390625 -5.5625 C 8.046875 -5.375 8.601562 -5.054688 9.0625 -4.609375 C 9.53125 -4.171875 9.765625 -3.5625 9.765625 -2.78125 C 9.765625 -2.007812 9.429688 -1.328125 8.765625 -0.734375 C 8.097656 -0.140625 7.082031 0.15625 5.71875 0.15625 Z M 5.71875 0.15625 "/></g></g></g><g fill="#1f2937" fill-opacity="1"><g transform="translate(218.893789, 320.952752)"><g><path d="M 12.546875 0 L 10.453125 0 C 9.816406 0 9.5 -0.304688 9.5 -0.921875 L 9.5 -6.703125 C 9.5 -7.554688 9.289062 -8.21875 8.875 -8.6875 C 8.46875 -9.15625 7.867188 -9.390625 7.078125 -9.390625 C 6.484375 -9.390625 6.023438 -9.296875 5.703125 -9.109375 C 5.390625 -8.929688 5.148438 -8.769531 4.984375 -8.625 C 4.828125 -8.488281 4.695312 -8.359375 4.59375 -8.234375 C 4.414062 -7.992188 4.269531 -7.75 4.15625 -7.5 L 4.15625 -1.46875 L 5.328125 -1.46875 C 5.515625 -1.46875 5.609375 -1.378906 5.609375 -1.203125 L 5.609375 -0.265625 C 5.609375 -0.0859375 5.515625 0 5.328125 0 L 1.125 0 C 0.9375 0 0.84375 -0.0859375 0.84375 -0.265625 L 0.84375 -1.203125 C 0.84375 -1.378906 0.9375 -1.46875 1.125 -1.46875 L 2.328125 -1.46875 L 2.328125 -14.328125 L 1.125 -14.328125 C 0.9375 -14.328125 0.84375 -14.414062 0.84375 -14.59375 L 0.84375 -15.53125 C 0.84375 -15.707031 0.9375 -15.796875 1.125 -15.796875 L 3.890625 -15.796875 C 4.066406 -15.796875 4.15625 -15.707031 4.15625 -15.53125 L 4.15625 -10.625 C 4.15625 -10.144531 4.125 -9.695312 4.0625 -9.28125 L 4.109375 -9.28125 C 4.828125 -10.414062 5.972656 -10.984375 7.546875 -10.984375 C 8.722656 -10.984375 9.640625 -10.632812 10.296875 -9.9375 C 10.953125 -9.25 11.289062 -8.320312 11.3125 -7.15625 L 11.3125 -1.46875 L 12.546875 -1.46875 C 12.734375 -1.46875 12.828125 -1.378906 12.828125 -1.203125 L 12.828125 -0.265625 C 12.828125 -0.0859375 12.734375 0 12.546875 0 Z M 12.546875 0 "/></g></g></g><g fill="#1f2937" fill-opacity="1"><g transform="translate(232.553353, 320.952752)"><g><path d="M 10.25 -1.375 C 9.226562 -0.351562 7.914062 0.15625 6.3125 0.15625 C 4.71875 0.15625 3.40625 -0.351562 2.375 -1.375 C 1.351562 -2.394531 0.84375 -3.75 0.84375 -5.4375 C 0.84375 -7.132812 1.359375 -8.484375 2.390625 -9.484375 C 3.429688 -10.484375 4.738281 -10.984375 6.3125 -10.984375 C 7.894531 -10.984375 9.203125 -10.476562 10.234375 -9.46875 C 11.273438 -8.46875 11.796875 -7.125 11.796875 -5.4375 C 11.796875 -3.757812 11.28125 -2.40625 10.25 -1.375 Z M 2.6875 -5.421875 C 2.6875 -4.222656 3.035156 -3.25 3.734375 -2.5 C 4.441406 -1.757812 5.304688 -1.390625 6.328125 -1.390625 C 7.347656 -1.390625 8.207031 -1.757812 8.90625 -2.5 C 9.613281 -3.25 9.96875 -4.222656 9.96875 -5.421875 C 9.96875 -6.628906 9.609375 -7.597656 8.890625 -8.328125 C 8.179688 -9.066406 7.328125 -9.4375 6.328125 -9.4375 C 5.335938 -9.4375 4.484375 -9.066406 3.765625 -8.328125 C 3.046875 -7.597656 2.6875 -6.628906 2.6875 -5.421875 Z M 2.6875 -5.421875 "/></g></g></g><g fill="#1f2937" fill-opacity="1"><g transform="translate(245.201099, 320.952752)"><g><path d="M 5.546875 4.953125 L 1.125 4.953125 C 0.9375 4.953125 0.84375 4.863281 0.84375 4.6875 L 0.84375 3.734375 C 0.84375 3.554688 0.9375 3.46875 1.125 3.46875 L 2.359375 3.46875 L 2.359375 -9.34375 L 1.171875 -9.34375 C 0.972656 -9.34375 0.875 -9.429688 0.875 -9.609375 L 0.875 -10.5625 C 0.875 -10.738281 0.972656 -10.828125 1.171875 -10.828125 L 3.734375 -10.828125 C 3.929688 -10.828125 4.03125 -10.738281 4.03125 -10.5625 L 4 -8.828125 L 4.03125 -8.828125 C 4.300781 -9.421875 4.75 -9.925781 5.375 -10.34375 C 6 -10.769531 6.765625 -10.984375 7.671875 -10.984375 C 9.160156 -10.984375 10.359375 -10.476562 11.265625 -9.46875 C 12.171875 -8.46875 12.625 -7.132812 12.625 -5.46875 C 12.625 -3.800781 12.175781 -2.445312 11.28125 -1.40625 C 10.382812 -0.363281 9.191406 0.15625 7.703125 0.15625 C 6.796875 0.15625 6.035156 -0.0507812 5.421875 -0.46875 C 4.816406 -0.882812 4.378906 -1.394531 4.109375 -2 L 4.046875 -2 C 4.085938 -1.53125 4.109375 -1.191406 4.109375 -0.984375 L 4.109375 3.46875 L 5.546875 3.46875 C 5.734375 3.46875 5.828125 3.554688 5.828125 3.734375 L 5.828125 4.6875 C 5.828125 4.863281 5.734375 4.953125 5.546875 4.953125 Z M 4.0625 -5.359375 C 4.0625 -4.085938 4.394531 -3.109375 5.0625 -2.421875 C 5.738281 -1.734375 6.546875 -1.390625 7.484375 -1.390625 C 8.429688 -1.390625 9.222656 -1.757812 9.859375 -2.5 C 10.503906 -3.238281 10.828125 -4.210938 10.828125 -5.421875 C 10.828125 -6.628906 10.503906 -7.597656 9.859375 -8.328125 C 9.222656 -9.066406 8.425781 -9.4375 7.46875 -9.4375 C 6.519531 -9.4375 5.710938 -9.078125 5.046875 -8.359375 C 4.390625 -7.640625 4.0625 -6.640625 4.0625 -5.359375 Z M 4.0625 -5.359375 "/></g></g></g><g fill="#1f2937" fill-opacity="1"><g transform="translate(258.684699, 320.952752)"><g><path d="M 2.65625 -3.25 L 1.34375 -3.25 C 1.164062 -3.25 1.078125 -3.335938 1.078125 -3.515625 L 1.078125 -16.453125 C 1.078125 -16.628906 1.164062 -16.71875 1.34375 -16.71875 L 2.65625 -16.71875 C 2.832031 -16.71875 2.921875 -16.628906 2.921875 -16.453125 L 2.921875 -3.515625 C 2.921875 -3.335938 2.832031 -3.25 2.65625 -3.25 Z M 2.84375 -0.90625 C 3.0625 -0.6875 3.171875 -0.414062 3.171875 -0.09375 C 3.171875 0.226562 3.0625 0.503906 2.84375 0.734375 C 2.625 0.960938 2.347656 1.078125 2.015625 1.078125 C 1.679688 1.078125 1.398438 0.960938 1.171875 0.734375 C 0.953125 0.503906 0.84375 0.226562 0.84375 -0.09375 C 0.84375 -0.414062 0.953125 -0.6875 1.171875 -0.90625 C 1.398438 -1.132812 1.679688 -1.25 2.015625 -1.25 C 2.347656 -1.25 2.625 -1.132812 2.84375 -0.90625 Z M 2.84375 -0.90625 "/></g></g></g></svg>