<svg xmlns="http://www.w3.org/2000/svg" xmlns:xlink="http://www.w3.org/1999/xlink" width="500" zoomAndPan="magnify" viewBox="0 0 375 374.999991" height="500" preserveAspectRatio="xMidYMid meet" version="1.0"><defs><clipPath id="04355d7fa2"><path d="M 33.34375 36.113281 L 364.054688 36.113281 L 364.054688 373.0625 L 33.34375 373.0625 Z M 33.34375 36.113281 " clip-rule="nonzero"/></clipPath><clipPath id="8f9542ece8"><path d="M 10.917969 55 L 146 55 L 146 315 L 10.917969 315 Z M 10.917969 55 " clip-rule="nonzero"/></clipPath><clipPath id="d9f230e122"><path d="M 173 170 L 313 170 L 313 248 L 173 248 Z M 173 170 " clip-rule="nonzero"/></clipPath><clipPath id="2d25a7f4d3"><path d="M 181.507812 137.195312 L 339.132812 188.453125 L 292.285156 332.523438 L 134.65625 281.269531 Z M 181.507812 137.195312 " clip-rule="nonzero"/></clipPath><clipPath id="eaef82b1e9"><path d="M 181.507812 137.195312 L 339.132812 188.453125 L 292.285156 332.523438 L 134.65625 281.269531 Z M 181.507812 137.195312 " clip-rule="nonzero"/></clipPath><clipPath id="3c2a96f08b"><path d="M 160 207 L 300 207 L 300 284 L 160 284 Z M 160 207 " clip-rule="nonzero"/></clipPath><clipPath id="60d8fc6b7b"><path d="M 181.507812 137.195312 L 339.132812 188.453125 L 292.285156 332.523438 L 134.65625 281.269531 Z M 181.507812 137.195312 " clip-rule="nonzero"/></clipPath><clipPath id="21a1b83e40"><path d="M 181.507812 137.195312 L 339.132812 188.453125 L 292.285156 332.523438 L 134.65625 281.269531 Z M 181.507812 137.195312 " clip-rule="nonzero"/></clipPath></defs><g clip-path="url(#04355d7fa2)"><path fill="#1f2937" d="M 364.054688 114.910156 L 364.015625 113.511719 C 354.929688 112.585938 345.808594 110.871094 336.800781 108.875 C 300.679688 100.8125 265.589844 87.855469 231.867188 72.722656 C 222.640625 68.511719 211.410156 63.199219 202.445312 58.535156 C 191.40625 53.027344 179.441406 46.347656 168.675781 40.371094 L 161.71875 36.222656 L 39.410156 312.5 L 38.085938 315.972656 L 37.804688 316.703125 L 33.667969 327.53125 C 38.332031 327.710938 44.179688 328.050781 48.800781 328.410156 C 58.335938 329.152344 68.839844 330.230469 78.375 331.378906 C 112.929688 335.550781 156.320312 343.78125 190.367188 351.179688 C 219.355469 357.355469 248.976562 365.03125 277.5 373.0625 C 268.042969 369.84375 258.609375 366.519531 249.109375 363.378906 C 220.828125 354.082031 191.46875 345.421875 162.664062 338.035156 C 129.414062 329.746094 93.351562 319.785156 58.640625 314.242188 L 169.613281 57.046875 C 188.566406 66.226562 208.214844 75.066406 227.707031 82.621094 C 262.675781 96.105469 297.785156 110.699219 334.785156 116.894531 C 343.039062 118.253906 351.277344 119.398438 359.710938 119.9375 C 359.898438 122.734375 363.523438 176.847656 363.523438 176.847656 L 364.054688 114.910156 " fill-opacity="1" fill-rule="nonzero"/></g><g clip-path="url(#8f9542ece8)"><path fill="#1f2937" d="M 15.414062 266.480469 L 10.917969 274.351562 L 30.214844 314.347656 L 145.941406 55.96875 L 15.414062 266.480469 " fill-opacity="1" fill-rule="nonzero"/></g><path fill="#1f2937" d="M 141.445312 51.472656 L 11.585938 210.265625 L 26.175781 232.039062 Z M 141.445312 51.472656 " fill-opacity="1" fill-rule="nonzero"/><path fill="#1f2937" d="M 259.527344 19.226562 C 262.472656 20.460938 265.535156 23.273438 268.054688 28.683594 C 249.847656 37.730469 232.75 56.578125 230.132812 59.550781 L 239.414062 63.632812 C 245.484375 56.746094 258.199219 43.496094 270.753906 36.410156 C 273.320312 46.273438 274.550781 61.136719 273.011719 83.242188 L 279.742188 83.789062 C 281.238281 62.257812 280.621094 45.367188 277.535156 33.230469 C 282.386719 31.480469 287.019531 31.050781 291.015625 32.71875 C 298.929688 36.03125 307.695312 50.753906 304.5 96.738281 L 311.222656 97.28125 C 314.09375 56.054688 309.230469 31.800781 294.046875 25.457031 C 288.222656 23.023438 281.679688 23.53125 275.0625 25.75 C 272.148438 18.867188 268.03125 14.25 262.5625 11.964844 C 238.601562 1.949219 202.550781 41.628906 198.648438 46.058594 L 207.929688 50.136719 C 217.503906 39.28125 243.601562 12.5625 259.527344 19.226562 " fill-opacity="1" fill-rule="nonzero"/><g clip-path="url(#d9f230e122)"><g clip-path="url(#2d25a7f4d3)"><g clip-path="url(#eaef82b1e9)"><path fill="#1f2937" d="M 194.101562 171.160156 C 186.796875 176.433594 179.671875 181.929688 176.0625 191.882812 C 172.007812 200.296875 174.421875 210.621094 178.65625 218.652344 C 187.257812 229.863281 200.175781 225.53125 212.023438 225.070312 C 239.433594 222.613281 266.433594 218.957031 294.671875 218.929688 C 305.011719 218.628906 309.691406 224.660156 299.679688 247.148438 C 307.765625 239.992188 313.453125 232.71875 312.921875 226.859375 C 312.25 210.925781 303.304688 208.414062 292.730469 208.550781 C 262.445312 208.382812 232.460938 212.746094 202.355469 215.277344 C 193.046875 217.15625 186.808594 215.351562 185.242188 207.941406 C 183.289062 198.816406 186.246094 193.140625 190.496094 188.378906 L 200.355469 179.175781 C 204.824219 176.0625 198.667969 168.0625 194.101562 171.160156 Z M 194.101562 171.160156 " fill-opacity="1" fill-rule="evenodd"/></g></g></g><g clip-path="url(#3c2a96f08b)"><g clip-path="url(#60d8fc6b7b)"><g clip-path="url(#21a1b83e40)"><path fill="#1f2937" d="M 180.441406 207.710938 C 173.140625 212.984375 166.011719 218.480469 162.402344 228.433594 C 158.347656 236.847656 160.761719 247.171875 165 255.203125 C 173.601562 266.414062 186.519531 262.082031 198.363281 261.621094 C 225.773438 259.164062 252.773438 255.507812 281.015625 255.480469 C 291.355469 255.179688 296.03125 261.210938 286.019531 283.699219 C 294.109375 276.542969 299.792969 269.269531 299.265625 263.410156 C 298.59375 247.476562 289.648438 244.964844 279.074219 245.101562 C 248.789062 244.933594 218.804688 249.296875 188.695312 251.828125 C 179.386719 253.707031 173.148438 251.902344 171.582031 244.492188 C 169.632812 235.367188 172.589844 229.691406 176.835938 224.929688 L 186.699219 215.726562 Z M 180.441406 207.710938 " fill-opacity="1" fill-rule="evenodd"/></g></g></g></svg>
