<svg xmlns="http://www.w3.org/2000/svg" xmlns:xlink="http://www.w3.org/1999/xlink" width="500" zoomAndPan="magnify" viewBox="0 0 375 374.999991" height="500" preserveAspectRatio="xMidYMid meet" version="1.0"><defs><clipPath id="e609ccc864"><path d="M 32 34.585938 L 365.839844 34.585938 L 365.839844 374.933594 L 32 374.933594 Z M 32 34.585938 " clip-rule="nonzero"/></clipPath><clipPath id="9e6514e22c"><path d="M 9.140625 54 L 146 54 L 146 316 L 9.140625 316 Z M 9.140625 54 " clip-rule="nonzero"/></clipPath><clipPath id="6f63fe8afb"><path d="M 9.140625 50 L 141 50 L 141 233 L 9.140625 233 Z M 9.140625 50 " clip-rule="nonzero"/></clipPath><clipPath id="c47ffd70d0"><path d="M 173 170 L 315 170 L 315 248 L 173 248 Z M 173 170 " clip-rule="nonzero"/></clipPath><clipPath id="df9a3c9e45"><path d="M 181.449219 136.6875 L 341.214844 188.640625 L 293.898438 334.140625 L 134.132812 282.1875 Z M 181.449219 136.6875 " clip-rule="nonzero"/></clipPath><clipPath id="e750f4956e"><path d="M 181.449219 136.6875 L 341.214844 188.640625 L 293.898438 334.140625 L 134.132812 282.1875 Z M 181.449219 136.6875 " clip-rule="nonzero"/></clipPath><clipPath id="6d7a2c9369"><path d="M 160 207 L 301 207 L 301 285 L 160 285 Z M 160 207 " clip-rule="nonzero"/></clipPath><clipPath id="941420f95d"><path d="M 181.449219 136.6875 L 341.214844 188.640625 L 293.898438 334.140625 L 134.132812 282.1875 Z M 181.449219 136.6875 " clip-rule="nonzero"/></clipPath><clipPath id="626771853c"><path d="M 181.449219 136.6875 L 341.214844 188.640625 L 293.898438 334.140625 L 134.132812 282.1875 Z M 181.449219 136.6875 " clip-rule="nonzero"/></clipPath></defs><g clip-path="url(#e609ccc864)"><path fill="#ffffff" d="M 365.839844 114.179688 L 365.800781 112.765625 C 356.621094 111.832031 347.410156 110.097656 338.3125 108.082031 C 301.824219 99.9375 266.382812 86.851562 232.316406 71.566406 C 223 67.3125 211.65625 61.945312 202.601562 57.234375 C 191.449219 51.667969 179.363281 44.921875 168.492188 38.890625 L 161.460938 34.695312 L 37.921875 313.761719 L 36.582031 317.269531 L 36.296875 318.007812 L 32.117188 328.945312 C 36.832031 329.128906 42.738281 329.46875 47.40625 329.832031 C 57.039062 330.582031 67.644531 331.671875 77.277344 332.828125 C 112.179688 337.042969 156.011719 345.359375 190.402344 352.832031 C 219.683594 359.070312 249.597656 366.824219 278.414062 374.933594 C 268.859375 371.683594 259.332031 368.324219 249.734375 365.15625 C 221.167969 355.761719 191.515625 347.015625 162.417969 339.554688 C 128.832031 331.183594 92.40625 321.121094 57.34375 315.519531 L 169.4375 55.730469 C 188.582031 65.003906 208.425781 73.933594 228.117188 81.5625 C 263.4375 95.1875 298.902344 109.925781 336.273438 116.183594 C 344.613281 117.558594 352.933594 118.710938 361.453125 119.257812 C 361.640625 122.082031 365.300781 176.738281 365.300781 176.738281 L 365.839844 114.179688 " fill-opacity="1" fill-rule="nonzero"/></g><g clip-path="url(#9e6514e22c)"><path fill="#ffffff" d="M 13.683594 267.277344 L 9.140625 275.230469 L 28.632812 315.628906 L 145.527344 54.640625 L 13.683594 267.277344 " fill-opacity="1" fill-rule="nonzero"/></g><g clip-path="url(#6f63fe8afb)"><path fill="#ffffff" d="M 140.984375 50.101562 L 9.816406 210.496094 L 24.550781 232.488281 Z M 140.984375 50.101562 " fill-opacity="1" fill-rule="nonzero"/></g><path fill="#ffffff" d="M 260.257812 17.53125 C 263.234375 18.773438 266.324219 21.617188 268.871094 27.082031 C 250.480469 36.222656 233.210938 55.257812 230.566406 58.261719 L 239.941406 62.382812 C 246.074219 55.425781 258.914062 42.042969 271.597656 34.886719 C 274.191406 44.847656 275.433594 59.863281 273.878906 82.191406 L 280.675781 82.746094 C 282.1875 60.996094 281.566406 43.933594 278.445312 31.675781 C 283.347656 29.90625 288.027344 29.472656 292.0625 31.160156 C 300.058594 34.503906 308.914062 49.375 305.683594 95.820312 L 312.476562 96.375 C 315.375 54.730469 310.460938 30.230469 295.125 23.820312 C 289.242188 21.363281 282.636719 21.878906 275.949219 24.117188 C 273.007812 17.164062 268.847656 12.503906 263.324219 10.195312 C 239.121094 0.078125 202.707031 40.160156 198.765625 44.632812 L 208.136719 48.753906 C 217.808594 37.785156 244.171875 10.796875 260.257812 17.53125 " fill-opacity="1" fill-rule="nonzero"/><g clip-path="url(#c47ffd70d0)"><g clip-path="url(#df9a3c9e45)"><g clip-path="url(#e750f4956e)"><path fill="#ffffff" d="M 194.171875 170.996094 C 186.792969 176.324219 179.59375 181.875 175.949219 191.925781 C 171.855469 200.421875 174.292969 210.855469 178.570312 218.964844 C 187.257812 230.289062 200.308594 225.914062 212.273438 225.445312 C 239.957031 222.964844 267.230469 219.269531 295.753906 219.246094 C 306.195312 218.941406 310.921875 225.035156 300.808594 247.746094 C 308.980469 240.519531 314.722656 233.175781 314.1875 227.253906 C 313.507812 211.160156 304.472656 208.625 293.792969 208.761719 C 263.203125 208.59375 232.917969 213 202.507812 215.558594 C 193.105469 217.453125 186.804688 215.632812 185.222656 208.144531 C 183.25 198.929688 186.238281 193.199219 190.527344 188.386719 L 200.488281 179.09375 C 205 175.949219 198.78125 167.867188 194.171875 170.996094 Z M 194.171875 170.996094 " fill-opacity="1" fill-rule="evenodd"/></g></g></g><g clip-path="url(#6d7a2c9369)"><g clip-path="url(#941420f95d)"><g clip-path="url(#626771853c)"><path fill="#ffffff" d="M 180.375 207.914062 C 173 213.242188 165.800781 218.792969 162.152344 228.84375 C 158.058594 237.34375 160.496094 247.773438 164.777344 255.882812 C 173.464844 267.210938 186.511719 262.832031 198.476562 262.367188 C 226.160156 259.882812 253.433594 256.191406 281.957031 256.164062 C 292.402344 255.859375 297.125 261.953125 287.015625 284.664062 C 295.183594 277.4375 300.925781 270.09375 300.390625 264.171875 C 299.714844 248.078125 290.679688 245.542969 279.996094 245.679688 C 249.40625 245.511719 219.121094 249.917969 188.710938 252.476562 C 179.308594 254.371094 173.007812 252.550781 171.425781 245.066406 C 169.453125 235.847656 172.441406 230.117188 176.734375 225.304688 L 186.695312 216.011719 Z M 180.375 207.914062 " fill-opacity="1" fill-rule="evenodd"/></g></g></g></svg>