<svg xmlns="http://www.w3.org/2000/svg" xmlns:xlink="http://www.w3.org/1999/xlink" width="500" zoomAndPan="magnify" viewBox="0 0 375 374.999991" height="500" preserveAspectRatio="xMidYMid meet" version="1.0"><defs><g/><clipPath id="9cda440919"><path d="M 74 25.21875 L 317.507812 25.21875 L 317.507812 273.335938 L 74 273.335938 Z M 74 25.21875 " clip-rule="nonzero"/></clipPath><clipPath id="530d828dac"><path d="M 57.46875 39 L 157 39 L 157 231 L 57.46875 231 Z M 57.46875 39 " clip-rule="nonzero"/></clipPath><clipPath id="bd51d34299"><path d="M 57.46875 36 L 154 36 L 154 170 L 57.46875 170 Z M 57.46875 36 " clip-rule="nonzero"/></clipPath><clipPath id="58a33437dd"><path d="M 177 124 L 280 124 L 280 181 L 177 181 Z M 177 124 " clip-rule="nonzero"/></clipPath><clipPath id="73fcc37736"><path d="M 183.089844 99.648438 L 299.347656 137.457031 L 264.789062 243.726562 L 148.53125 205.921875 Z M 183.089844 99.648438 " clip-rule="nonzero"/></clipPath><clipPath id="3c9b74ca55"><path d="M 183.089844 99.648438 L 299.347656 137.457031 L 264.789062 243.726562 L 148.53125 205.921875 Z M 183.089844 99.648438 " clip-rule="nonzero"/></clipPath><clipPath id="fa37b88346"><path d="M 167 151 L 270 151 L 270 208 L 167 208 Z M 167 151 " clip-rule="nonzero"/></clipPath><clipPath id="9e2dd36813"><path d="M 183.089844 99.648438 L 299.347656 137.457031 L 264.789062 243.726562 L 148.53125 205.921875 Z M 183.089844 99.648438 " clip-rule="nonzero"/></clipPath><clipPath id="2c0f60700c"><path d="M 183.089844 99.648438 L 299.347656 137.457031 L 264.789062 243.726562 L 148.53125 205.921875 Z M 183.089844 99.648438 " clip-rule="nonzero"/></clipPath></defs><g clip-path="url(#9cda440919)"><path fill="#1f2937" d="M 317.507812 83.242188 L 317.476562 82.210938 C 310.785156 81.53125 304.070312 80.265625 297.4375 78.796875 C 270.835938 72.859375 245 63.320312 220.167969 52.175781 C 213.375 49.074219 205.105469 45.164062 198.503906 41.730469 C 190.375 37.671875 181.5625 32.753906 173.636719 28.355469 L 168.511719 25.300781 L 78.453125 228.738281 L 77.472656 231.296875 L 77.265625 231.835938 L 74.21875 239.808594 C 77.65625 239.941406 81.960938 240.191406 85.367188 240.457031 C 92.386719 241 100.121094 241.796875 107.140625 242.640625 C 132.585938 245.710938 164.539062 251.773438 189.609375 257.222656 C 210.957031 261.769531 232.765625 267.421875 253.769531 273.335938 C 246.808594 270.964844 239.859375 268.515625 232.863281 266.203125 C 212.039062 259.359375 190.421875 252.980469 169.207031 247.542969 C 144.722656 241.4375 118.171875 234.105469 92.609375 230.019531 L 174.324219 40.632812 C 188.28125 47.390625 202.75 53.902344 217.105469 59.464844 C 242.855469 69.394531 268.707031 80.140625 295.953125 84.703125 C 302.03125 85.703125 308.097656 86.546875 314.308594 86.945312 C 314.445312 89.003906 317.113281 128.847656 317.113281 128.847656 L 317.507812 83.242188 " fill-opacity="1" fill-rule="nonzero"/></g><g clip-path="url(#530d828dac)"><path fill="#1f2937" d="M 60.78125 194.851562 L 57.46875 200.648438 L 71.679688 230.101562 L 156.894531 39.839844 L 60.78125 194.851562 " fill-opacity="1" fill-rule="nonzero"/></g><g clip-path="url(#bd51d34299)"><path fill="#1f2937" d="M 153.585938 36.527344 L 57.960938 153.457031 L 68.703125 169.492188 Z M 153.585938 36.527344 " fill-opacity="1" fill-rule="nonzero"/></g><path fill="#1f2937" d="M 240.539062 12.785156 C 242.707031 13.691406 244.957031 15.765625 246.8125 19.746094 C 233.410156 26.410156 220.820312 40.289062 218.890625 42.476562 L 225.722656 45.480469 C 230.195312 40.410156 239.558594 30.652344 248.800781 25.4375 C 250.691406 32.699219 251.597656 43.644531 250.464844 59.921875 L 255.421875 60.324219 C 256.523438 44.472656 256.070312 32.03125 253.796875 23.09375 C 257.371094 21.804688 260.78125 21.492188 263.722656 22.71875 C 269.550781 25.15625 276.007812 36 273.652344 69.859375 L 278.605469 70.261719 C 280.714844 39.902344 277.136719 22.042969 265.953125 17.371094 C 261.664062 15.578125 256.847656 15.953125 251.976562 17.585938 C 249.832031 12.519531 246.796875 9.117188 242.769531 7.4375 C 225.125 0.0625 198.582031 29.28125 195.707031 32.542969 L 202.539062 35.546875 C 209.589844 27.550781 228.808594 7.875 240.539062 12.785156 " fill-opacity="1" fill-rule="nonzero"/><g clip-path="url(#58a33437dd)"><g clip-path="url(#73fcc37736)"><g clip-path="url(#3c9b74ca55)"><path fill="#1f2937" d="M 192.359375 124.660156 C 186.984375 128.546875 181.734375 132.59375 179.078125 139.921875 C 176.089844 146.117188 177.867188 153.722656 180.988281 159.636719 C 187.320312 167.894531 196.835938 164.703125 205.558594 164.363281 C 225.742188 162.550781 245.625 159.859375 266.421875 159.839844 C 274.035156 159.617188 277.480469 164.0625 270.109375 180.621094 C 276.066406 175.351562 280.25 169.996094 279.863281 165.679688 C 279.367188 153.945312 272.78125 152.097656 264.992188 152.195312 C 242.691406 152.074219 220.609375 155.289062 198.4375 157.152344 C 191.585938 158.535156 186.988281 157.203125 185.835938 151.746094 C 184.398438 145.027344 186.578125 140.851562 189.707031 137.339844 L 196.96875 130.566406 C 200.257812 128.273438 195.722656 122.382812 192.359375 124.660156 Z M 192.359375 124.660156 " fill-opacity="1" fill-rule="evenodd"/></g></g></g><g clip-path="url(#fa37b88346)"><g clip-path="url(#9e2dd36813)"><g clip-path="url(#2c0f60700c)"><path fill="#1f2937" d="M 182.300781 151.578125 C 176.925781 155.460938 171.675781 159.507812 169.019531 166.839844 C 166.03125 173.035156 167.808594 180.636719 170.929688 186.550781 C 177.261719 194.808594 186.777344 191.617188 195.5 191.277344 C 215.683594 189.46875 235.566406 186.773438 256.363281 186.757812 C 263.976562 186.535156 267.421875 190.976562 260.050781 207.535156 C 266.007812 202.265625 270.191406 196.910156 269.804688 192.597656 C 269.308594 180.859375 262.722656 179.011719 254.933594 179.113281 C 232.632812 178.988281 210.550781 182.203125 188.382812 184.066406 C 181.527344 185.449219 176.933594 184.121094 175.777344 178.664062 C 174.339844 171.945312 176.519531 167.765625 179.648438 164.257812 L 186.910156 157.480469 Z M 182.300781 151.578125 " fill-opacity="1" fill-rule="evenodd"/></g></g></g><g fill="#1f2937" fill-opacity="1"><g transform="translate(7.580109, 324.833205)"><g><path d="M 23.296875 0 L 3.328125 0 L 3.328125 -29.84375 L 23.296875 -29.84375 C 31.460938 -29.84375 37.332031 -28.695312 40.90625 -26.40625 C 43.789062 -24.5625 45.4375 -22.054688 45.84375 -18.890625 C 46.019531 -17.515625 46.109375 -16.1875 46.109375 -14.90625 C 46.109375 -13.644531 46.019531 -12.320312 45.84375 -10.9375 C 45.675781 -9.5625 45.21875 -8.222656 44.46875 -6.921875 C 43.71875 -5.628906 42.523438 -4.460938 40.890625 -3.421875 C 39.265625 -2.390625 37.035156 -1.5625 34.203125 -0.9375 C 31.367188 -0.3125 27.734375 0 23.296875 0 Z M 22.109375 -7.390625 C 28.472656 -7.390625 32.070312 -8.992188 32.90625 -12.203125 C 33.125 -13.109375 33.234375 -14.007812 33.234375 -14.90625 C 33.234375 -15.820312 33.117188 -16.726562 32.890625 -17.625 C 32.660156 -18.519531 32.175781 -19.332031 31.4375 -20.0625 C 30.695312 -20.789062 29.582031 -21.375 28.09375 -21.8125 C 26.613281 -22.25 24.617188 -22.46875 22.109375 -22.46875 L 15.84375 -22.46875 L 15.84375 -7.390625 Z M 22.109375 -7.390625 "/></g></g></g><g fill="#1f2937" fill-opacity="1"><g transform="translate(55.343584, 324.833205)"><g><path d="M 50.125 0 L 37.4375 0 L 34.625 -4.890625 L 15.8125 -4.890625 L 13 0 L 0.3125 0 L 19.40625 -29.828125 L 31.03125 -29.828125 Z M 30.40625 -12.265625 L 25.234375 -21.3125 L 20.03125 -12.265625 Z M 30.40625 -12.265625 "/></g></g></g><g fill="#1f2937" fill-opacity="1"><g transform="translate(105.76867, 324.833205)"><g><path d="M 29.109375 0 L 16.59375 0 L 16.59375 -14.140625 L 0.3125 -29.84375 L 14.1875 -29.84375 L 22.859375 -20.921875 L 31.515625 -29.84375 L 45.375 -29.84375 L 29.109375 -14.140625 Z M 29.109375 0 "/></g></g></g><g fill="#1f2937" fill-opacity="1"><g transform="translate(151.45276, 324.833205)"><g><path d="M 36.359375 0 L 1.875 0 L 1.875 -7.359375 L 21.609375 -22.46875 L 1.875 -22.46875 L 1.875 -29.828125 L 36.359375 -29.828125 L 36.359375 -22.46875 L 16.59375 -7.359375 L 36.359375 -7.359375 Z M 36.359375 0 "/></g></g></g><g fill="#1f2937" fill-opacity="1"><g transform="translate(189.671852, 324.833205)"><g><path d="M 19.71875 0.640625 C 15.6875 0.640625 12.4375 0.207031 9.96875 -0.65625 C 7.5 -1.519531 5.617188 -2.710938 4.328125 -4.234375 C 3.035156 -5.753906 2.164062 -7.503906 1.71875 -9.484375 L 15.015625 -9.484375 C 16.003906 -8.066406 17.570312 -7.359375 19.71875 -7.359375 C 21.863281 -7.359375 23.429688 -8.066406 24.421875 -9.484375 C 24.503906 -9.617188 24.546875 -9.742188 24.546875 -9.859375 C 24.546875 -10.234375 24.046875 -10.515625 23.046875 -10.703125 C 22.054688 -10.890625 20.578125 -11.03125 18.609375 -11.125 C 16.128906 -11.238281 13.523438 -11.503906 10.796875 -11.921875 C 4.703125 -12.859375 1.65625 -15.304688 1.65625 -19.265625 C 1.65625 -19.597656 1.675781 -19.945312 1.71875 -20.3125 C 2.164062 -22.300781 3.035156 -24.050781 4.328125 -25.5625 C 5.617188 -27.082031 7.5 -28.273438 9.96875 -29.140625 C 12.4375 -30.015625 15.6875 -30.453125 19.71875 -30.453125 C 23.75 -30.453125 27 -30.015625 29.46875 -29.140625 C 31.9375 -28.273438 33.816406 -27.082031 35.109375 -25.5625 C 36.398438 -24.050781 37.265625 -22.300781 37.703125 -20.3125 L 24.421875 -20.3125 C 23.429688 -21.726562 21.863281 -22.4375 19.71875 -22.4375 C 17.570312 -22.4375 16.003906 -21.726562 15.015625 -20.3125 C 14.941406 -20.207031 14.90625 -20.101562 14.90625 -20 C 14.90625 -19.675781 15.378906 -19.429688 16.328125 -19.265625 C 17.285156 -19.109375 18.6875 -18.972656 20.53125 -18.859375 C 22.382812 -18.753906 24.359375 -18.578125 26.453125 -18.328125 C 28.546875 -18.078125 30.503906 -17.640625 32.328125 -17.015625 C 34.148438 -16.398438 35.578125 -15.488281 36.609375 -14.28125 C 37.410156 -13.351562 37.8125 -12.175781 37.8125 -10.75 C 37.8125 -10.351562 37.773438 -9.929688 37.703125 -9.484375 C 37.265625 -7.503906 36.398438 -5.753906 35.109375 -4.234375 C 33.816406 -2.710938 31.9375 -1.519531 29.46875 -0.65625 C 27 0.207031 23.75 0.640625 19.71875 0.640625 Z M 19.71875 0.640625 "/></g></g></g><g fill="#1f2937" fill-opacity="1"><g transform="translate(229.138587, 324.833205)"><g><path d="M 44.09375 0 L 31.578125 0 L 31.578125 -12.046875 L 15.84375 -12.046875 L 15.84375 0 L 3.328125 0 L 3.328125 -29.84375 L 15.84375 -29.84375 L 15.84375 -17.78125 L 31.578125 -17.78125 L 31.578125 -29.84375 L 44.09375 -29.84375 Z M 44.09375 0 "/></g></g></g><g fill="#1f2937" fill-opacity="1"><g transform="translate(276.548559, 324.833205)"><g><path d="M 22.5625 0.640625 C 15.1875 0.640625 9.757812 -0.875 6.28125 -3.90625 C 3.195312 -6.59375 1.65625 -10.257812 1.65625 -14.90625 C 1.65625 -19.539062 3.195312 -23.203125 6.28125 -25.890625 C 9.757812 -28.929688 15.1875 -30.453125 22.5625 -30.453125 C 29.9375 -30.453125 35.363281 -28.929688 38.84375 -25.890625 C 41.925781 -23.203125 43.46875 -19.539062 43.46875 -14.90625 C 43.46875 -10.257812 41.925781 -6.59375 38.84375 -3.90625 C 35.363281 -0.875 29.9375 0.640625 22.5625 0.640625 Z M 22.5625 -7.359375 C 25.582031 -7.359375 27.800781 -8.226562 29.21875 -9.96875 C 30.351562 -11.363281 30.921875 -13.007812 30.921875 -14.90625 C 30.921875 -16.8125 30.351562 -18.457031 29.21875 -19.84375 C 27.800781 -21.59375 25.582031 -22.46875 22.5625 -22.46875 C 19.539062 -22.46875 17.316406 -21.59375 15.890625 -19.84375 C 14.753906 -18.457031 14.1875 -16.8125 14.1875 -14.90625 C 14.1875 -13.007812 14.753906 -11.363281 15.890625 -9.96875 C 17.316406 -8.226562 19.539062 -7.359375 22.5625 -7.359375 Z M 22.5625 -7.359375 "/></g></g></g><g fill="#1f2937" fill-opacity="1"><g transform="translate(321.671197, 324.833205)"><g><path d="M 15.84375 0 L 3.328125 0 L 3.328125 -29.84375 L 23.6875 -29.84375 C 28.550781 -29.84375 32.476562 -29.476562 35.46875 -28.75 C 38.457031 -28.019531 40.640625 -26.875 42.015625 -25.3125 C 43.390625 -23.757812 44.078125 -21.726562 44.078125 -19.21875 C 44.078125 -16.71875 43.390625 -14.6875 42.015625 -13.125 C 40.640625 -11.570312 38.457031 -10.429688 35.46875 -9.703125 C 32.476562 -8.972656 28.550781 -8.609375 23.6875 -8.609375 L 15.84375 -8.609375 Z M 15.84375 -15.96875 L 23 -16 C 25 -16 26.570312 -16.078125 27.71875 -16.234375 C 28.875 -16.390625 29.722656 -16.613281 30.265625 -16.90625 C 30.816406 -17.195312 31.164062 -17.539062 31.3125 -17.9375 C 31.46875 -18.332031 31.546875 -18.757812 31.546875 -19.21875 C 31.546875 -19.6875 31.46875 -20.117188 31.3125 -20.515625 C 31.164062 -20.910156 30.816406 -21.253906 30.265625 -21.546875 C 29.722656 -21.835938 28.875 -22.0625 27.71875 -22.21875 C 26.570312 -22.382812 25 -22.46875 23 -22.46875 L 15.84375 -22.46875 Z M 15.84375 -15.96875 "/></g></g></g><g fill="#1f2937" fill-opacity="1"><g transform="translate(80.609421, 366.400286)"><g><path d="M 23.265625 -11.328125 C 23.265625 -7.898438 22.238281 -5.117188 20.1875 -2.984375 C 18.132812 -0.847656 15.546875 0.21875 12.421875 0.21875 C 9.304688 0.21875 6.707031 -0.859375 4.625 -3.015625 C 2.539062 -5.171875 1.5 -7.953125 1.5 -11.359375 C 1.5 -14.773438 2.570312 -17.507812 4.71875 -19.5625 C 6.863281 -21.613281 9.425781 -22.640625 12.40625 -22.640625 C 15.394531 -22.640625 17.953125 -21.613281 20.078125 -19.5625 C 22.203125 -17.507812 23.265625 -14.765625 23.265625 -11.328125 Z M 6.828125 -4.703125 C 8.421875 -3.109375 10.28125 -2.3125 12.40625 -2.3125 C 14.539062 -2.3125 16.398438 -3.109375 17.984375 -4.703125 C 19.566406 -6.296875 20.359375 -8.484375 20.359375 -11.265625 C 20.359375 -14.046875 19.546875 -16.222656 17.921875 -17.796875 C 16.304688 -19.378906 14.46875 -20.171875 12.40625 -20.171875 C 10.34375 -20.171875 8.5 -19.378906 6.875 -17.796875 C 5.25 -16.222656 4.4375 -14.046875 4.4375 -11.265625 C 4.4375 -8.484375 5.234375 -6.296875 6.828125 -4.703125 Z M 6.828125 -4.703125 "/></g></g></g><g fill="#1f2937" fill-opacity="1"><g transform="translate(105.403305, 366.400286)"><g><path d="M 17.828125 0 L 14.84375 0 C 13.945312 0 13.5 -0.4375 13.5 -1.3125 L 13.5 -9.53125 C 13.5 -10.738281 13.207031 -11.675781 12.625 -12.34375 C 12.039062 -13.007812 11.1875 -13.34375 10.0625 -13.34375 C 8.457031 -13.34375 7.207031 -12.6875 6.3125 -11.375 C 6.207031 -11.25 6.070312 -11.019531 5.90625 -10.6875 L 5.90625 -2.09375 L 7.5625 -2.09375 C 7.832031 -2.09375 7.96875 -1.96875 7.96875 -1.71875 L 7.96875 -0.375 C 7.96875 -0.125 7.832031 0 7.5625 0 L 1.59375 0 C 1.320312 0 1.1875 -0.125 1.1875 -0.375 L 1.1875 -1.71875 C 1.1875 -1.96875 1.320312 -2.09375 1.59375 -2.09375 L 3.3125 -2.09375 L 3.3125 -13.28125 L 1.59375 -13.28125 C 1.320312 -13.28125 1.1875 -13.40625 1.1875 -13.65625 L 1.1875 -15 C 1.1875 -15.25 1.320312 -15.375 1.59375 -15.375 L 5.25 -15.375 C 5.519531 -15.375 5.65625 -15.25 5.65625 -15 L 5.59375 -12.875 L 5.6875 -12.875 C 6.769531 -14.695312 8.445312 -15.609375 10.71875 -15.609375 C 12.382812 -15.609375 13.6875 -15.113281 14.625 -14.125 C 15.570312 -13.144531 16.054688 -11.820312 16.078125 -10.15625 L 16.078125 -2.09375 L 17.828125 -2.09375 C 18.097656 -2.09375 18.234375 -1.96875 18.234375 -1.71875 L 18.234375 -0.375 C 18.234375 -0.125 18.097656 0 17.828125 0 Z M 17.828125 0 "/></g></g></g><g fill="#1f2937" fill-opacity="1"><g transform="translate(124.819449, 366.400286)"><g><path d="M 15.09375 -7.375 L 3.84375 -7.375 C 3.925781 -5.644531 4.472656 -4.3125 5.484375 -3.375 C 6.492188 -2.4375 7.632812 -1.96875 8.90625 -1.96875 C 10.175781 -1.96875 11.265625 -2.238281 12.171875 -2.78125 C 13.078125 -3.320312 13.6875 -3.851562 14 -4.375 C 14.164062 -4.582031 14.351562 -4.613281 14.5625 -4.46875 L 15.40625 -3.625 C 15.539062 -3.5 15.609375 -3.390625 15.609375 -3.296875 C 15.609375 -3.203125 15.554688 -3.082031 15.453125 -2.9375 C 15.359375 -2.789062 15.164062 -2.5625 14.875 -2.25 C 14.582031 -1.9375 14.171875 -1.582031 13.640625 -1.1875 C 13.109375 -0.789062 12.421875 -0.457031 11.578125 -0.1875 C 10.734375 0.0820312 9.832031 0.21875 8.875 0.21875 C 6.6875 0.21875 4.859375 -0.5 3.390625 -1.9375 C 1.921875 -3.375 1.1875 -5.304688 1.1875 -7.734375 C 1.1875 -10.160156 1.914062 -12.078125 3.375 -13.484375 C 4.832031 -14.898438 6.617188 -15.609375 8.734375 -15.609375 C 10.847656 -15.609375 12.507812 -14.921875 13.71875 -13.546875 C 14.9375 -12.179688 15.546875 -10.34375 15.546875 -8.03125 C 15.546875 -7.945312 15.546875 -7.863281 15.546875 -7.78125 C 15.546875 -7.507812 15.394531 -7.375 15.09375 -7.375 Z M 12.9375 -9.28125 C 12.875 -10.570312 12.46875 -11.601562 11.71875 -12.375 C 10.96875 -13.144531 9.96875 -13.53125 8.71875 -13.53125 C 7.46875 -13.53125 6.394531 -13.175781 5.5 -12.46875 C 4.601562 -11.757812 4.070312 -10.695312 3.90625 -9.28125 Z M 12.9375 -9.28125 "/></g></g></g><g fill="#1f2937" fill-opacity="1"><g transform="translate(141.640518, 366.400286)"><g/></g></g><g fill="#1f2937" fill-opacity="1"><g transform="translate(151.426762, 366.400286)"><g><path d="M 17.578125 0 L 14.84375 0 C 14.363281 0 14.015625 -0.0976562 13.796875 -0.296875 C 13.578125 -0.492188 13.46875 -0.832031 13.46875 -1.3125 L 13.46875 -3.0625 L 13.4375 -3.0625 C 13.101562 -2.1875 12.476562 -1.421875 11.5625 -0.765625 C 10.644531 -0.109375 9.53125 0.21875 8.21875 0.21875 C 6.132812 0.21875 4.441406 -0.507812 3.140625 -1.96875 C 1.835938 -3.425781 1.1875 -5.335938 1.1875 -7.703125 C 1.1875 -10.066406 1.835938 -11.972656 3.140625 -13.421875 C 4.441406 -14.878906 6.144531 -15.609375 8.25 -15.609375 C 9.539062 -15.609375 10.613281 -15.304688 11.46875 -14.703125 C 12.320312 -14.109375 12.9375 -13.382812 13.3125 -12.53125 L 13.34375 -12.53125 C 13.320312 -12.945312 13.3125 -13.289062 13.3125 -13.5625 L 13.3125 -20.359375 L 11.5625 -20.359375 C 11.289062 -20.359375 11.15625 -20.484375 11.15625 -20.734375 L 11.15625 -22.078125 C 11.15625 -22.328125 11.289062 -22.453125 11.5625 -22.453125 L 15.4375 -22.453125 C 15.695312 -22.453125 15.828125 -22.328125 15.828125 -22.078125 L 15.828125 -2.09375 L 17.578125 -2.09375 C 17.828125 -2.09375 17.953125 -1.96875 17.953125 -1.71875 L 17.953125 -0.375 C 17.953125 -0.125 17.828125 0 17.578125 0 Z M 3.75 -7.75 C 3.75 -6.019531 4.203125 -4.625 5.109375 -3.5625 C 6.015625 -2.5 7.164062 -1.96875 8.5625 -1.96875 C 9.957031 -1.96875 11.101562 -2.492188 12 -3.546875 C 12.894531 -4.597656 13.34375 -6 13.34375 -7.75 C 13.34375 -9.5 12.882812 -10.878906 11.96875 -11.890625 C 11.050781 -12.898438 9.914062 -13.40625 8.5625 -13.40625 C 7.207031 -13.40625 6.066406 -12.894531 5.140625 -11.875 C 4.210938 -10.851562 3.75 -9.476562 3.75 -7.75 Z M 3.75 -7.75 "/></g></g></g><g fill="#1f2937" fill-opacity="1"><g transform="translate(170.561519, 366.400286)"><g><path d="M 16.546875 0 L 13.8125 0 C 12.914062 0 12.46875 -0.4375 12.46875 -1.3125 L 12.46875 -2.90625 L 12.40625 -2.90625 C 10.882812 -0.800781 8.851562 0.25 6.3125 0.25 C 4.8125 0.25 3.582031 -0.140625 2.625 -0.921875 C 1.664062 -1.703125 1.1875 -2.757812 1.1875 -4.09375 C 1.1875 -5.800781 1.929688 -7.054688 3.421875 -7.859375 C 4.910156 -8.660156 6.957031 -9.0625 9.5625 -9.0625 L 12.1875 -9.0625 L 12.1875 -9.4375 C 12.1875 -12.039062 10.832031 -13.34375 8.125 -13.34375 C 6.851562 -13.34375 5.9375 -13.222656 5.375 -12.984375 C 4.8125 -12.742188 4.410156 -12.550781 4.171875 -12.40625 C 3.929688 -12.257812 3.75 -12.144531 3.625 -12.0625 C 3.3125 -11.8125 3.082031 -11.789062 2.9375 -12 L 2.0625 -13.09375 C 1.914062 -13.257812 1.9375 -13.425781 2.125 -13.59375 C 2.476562 -14.050781 3.207031 -14.5 4.3125 -14.9375 C 5.414062 -15.382812 6.71875 -15.609375 8.21875 -15.609375 C 12.59375 -15.609375 14.78125 -13.519531 14.78125 -9.34375 L 14.78125 -2.09375 L 16.546875 -2.09375 C 16.796875 -2.09375 16.921875 -1.96875 16.921875 -1.71875 L 16.921875 -0.375 C 16.921875 -0.125 16.796875 0 16.546875 0 Z M 12.1875 -7.1875 L 9.71875 -7.1875 C 8.507812 -7.1875 7.507812 -7.125 6.71875 -7 C 5.925781 -6.875 5.253906 -6.601562 4.703125 -6.1875 C 4.148438 -5.769531 3.875 -5.195312 3.875 -4.46875 C 3.875 -3.738281 4.171875 -3.140625 4.765625 -2.671875 C 5.359375 -2.203125 6.132812 -1.96875 7.09375 -1.96875 C 9.113281 -1.96875 10.8125 -2.863281 12.1875 -4.65625 Z M 12.1875 -7.1875 "/></g></g></g><g fill="#1f2937" fill-opacity="1"><g transform="translate(188.695759, 366.400286)"><g><path d="M 8.15625 -0.34375 C 7.820312 -0.34375 7.550781 -0.601562 7.34375 -1.125 L 2.5625 -13.28125 L 0.84375 -13.28125 C 0.59375 -13.28125 0.46875 -13.40625 0.46875 -13.65625 L 0.46875 -15 C 0.46875 -15.25 0.59375 -15.375 0.84375 -15.375 L 6.5 -15.375 C 6.769531 -15.375 6.90625 -15.25 6.90625 -15 L 6.90625 -13.65625 C 6.90625 -13.40625 6.769531 -13.28125 6.5 -13.28125 L 5.21875 -13.28125 L 9.25 -2.6875 L 9.3125 -2.6875 L 13.0625 -13.28125 L 11.65625 -13.28125 C 11.40625 -13.28125 11.28125 -13.40625 11.28125 -13.65625 L 11.28125 -15 C 11.28125 -15.25 11.40625 -15.375 11.65625 -15.375 L 17.484375 -15.375 C 17.734375 -15.375 17.859375 -15.25 17.859375 -15 L 17.859375 -13.65625 C 17.859375 -13.40625 17.734375 -13.28125 17.484375 -13.28125 L 15.734375 -13.28125 L 10.15625 2 C 9.46875 3.851562 8.753906 5.203125 8.015625 6.046875 C 7.273438 6.890625 6.265625 7.3125 4.984375 7.3125 C 3.703125 7.3125 2.601562 6.90625 1.6875 6.09375 C 1.476562 5.882812 1.445312 5.695312 1.59375 5.53125 L 2.375 4.53125 C 2.5625 4.382812 2.75 4.375 2.9375 4.5 C 3.4375 4.894531 4.03125 5.09375 4.71875 5.09375 C 5.40625 5.09375 5.972656 4.859375 6.421875 4.390625 C 6.867188 3.921875 7.300781 3.113281 7.71875 1.96875 L 8.5625 -0.34375 Z M 8.15625 -0.34375 "/></g></g></g><g fill="#1f2937" fill-opacity="1"><g transform="translate(207.142667, 366.400286)"><g/></g></g><g fill="#1f2937" fill-opacity="1"><g transform="translate(216.92891, 366.400286)"><g><path d="M 8.125 0.21875 C 6.726562 0.21875 5.613281 -0.0390625 4.78125 -0.5625 C 3.945312 -1.082031 3.425781 -1.570312 3.21875 -2.03125 L 3.15625 -2.03125 C 3.195312 -1.007812 3.21875 -0.46875 3.21875 -0.40625 C 3.21875 -0.132812 3.070312 0 2.78125 0 L 1.71875 0 C 1.445312 0 1.3125 -0.132812 1.3125 -0.40625 L 1.3125 -5.09375 C 1.3125 -5.363281 1.445312 -5.5 1.71875 -5.5 L 2.9375 -5.5 C 3.226562 -5.5 3.375 -5.363281 3.375 -5.09375 L 3.375 -4.46875 C 3.582031 -3.84375 4.019531 -3.269531 4.6875 -2.75 C 5.476562 -2.125 6.46875 -1.8125 7.65625 -1.8125 C 9.988281 -1.8125 11.15625 -2.625 11.15625 -4.25 C 11.15625 -4.8125 10.832031 -5.265625 10.1875 -5.609375 C 9.539062 -5.953125 8.753906 -6.238281 7.828125 -6.46875 C 6.898438 -6.695312 5.976562 -6.957031 5.0625 -7.25 C 4.144531 -7.539062 3.363281 -8.015625 2.71875 -8.671875 C 2.070312 -9.328125 1.75 -10.15625 1.75 -11.15625 C 1.75 -12.507812 2.238281 -13.585938 3.21875 -14.390625 C 4.195312 -15.203125 5.445312 -15.609375 6.96875 -15.609375 C 9.03125 -15.609375 10.507812 -15 11.40625 -13.78125 L 11.46875 -13.78125 C 11.425781 -14.53125 11.40625 -14.914062 11.40625 -14.9375 C 11.40625 -15.207031 11.539062 -15.34375 11.8125 -15.34375 L 12.8125 -15.34375 C 13.082031 -15.34375 13.21875 -15.207031 13.21875 -14.9375 L 13.21875 -10.59375 C 13.21875 -10.320312 13.082031 -10.1875 12.8125 -10.1875 L 11.59375 -10.1875 C 11.300781 -10.1875 11.15625 -10.320312 11.15625 -10.59375 L 11.15625 -11.03125 C 11.15625 -11.59375 10.828125 -12.148438 10.171875 -12.703125 C 9.515625 -13.253906 8.664062 -13.53125 7.625 -13.53125 C 6.582031 -13.53125 5.769531 -13.3125 5.1875 -12.875 C 4.601562 -12.4375 4.3125 -11.867188 4.3125 -11.171875 C 4.3125 -10.472656 4.640625 -9.929688 5.296875 -9.546875 C 5.953125 -9.160156 6.75 -8.859375 7.6875 -8.640625 C 8.625 -8.421875 9.5625 -8.175781 10.5 -7.90625 C 11.4375 -7.632812 12.234375 -7.1875 12.890625 -6.5625 C 13.546875 -5.9375 13.875 -5.070312 13.875 -3.96875 C 13.875 -2.863281 13.398438 -1.890625 12.453125 -1.046875 C 11.503906 -0.203125 10.0625 0.21875 8.125 0.21875 Z M 8.125 0.21875 "/></g></g></g><g fill="#1f2937" fill-opacity="1"><g transform="translate(232.124158, 366.400286)"><g><path d="M 17.828125 0 L 14.84375 0 C 13.945312 0 13.5 -0.4375 13.5 -1.3125 L 13.5 -9.53125 C 13.5 -10.738281 13.207031 -11.675781 12.625 -12.34375 C 12.039062 -13.007812 11.1875 -13.34375 10.0625 -13.34375 C 9.207031 -13.34375 8.554688 -13.210938 8.109375 -12.953125 C 7.660156 -12.691406 7.320312 -12.460938 7.09375 -12.265625 C 6.863281 -12.066406 6.675781 -11.875 6.53125 -11.6875 C 6.28125 -11.351562 6.070312 -11.007812 5.90625 -10.65625 L 5.90625 -2.09375 L 7.5625 -2.09375 C 7.832031 -2.09375 7.96875 -1.96875 7.96875 -1.71875 L 7.96875 -0.375 C 7.96875 -0.125 7.832031 0 7.5625 0 L 1.59375 0 C 1.320312 0 1.1875 -0.125 1.1875 -0.375 L 1.1875 -1.71875 C 1.1875 -1.96875 1.320312 -2.09375 1.59375 -2.09375 L 3.3125 -2.09375 L 3.3125 -20.359375 L 1.59375 -20.359375 C 1.320312 -20.359375 1.1875 -20.484375 1.1875 -20.734375 L 1.1875 -22.078125 C 1.1875 -22.328125 1.320312 -22.453125 1.59375 -22.453125 L 5.53125 -22.453125 C 5.78125 -22.453125 5.90625 -22.328125 5.90625 -22.078125 L 5.90625 -15.09375 C 5.90625 -14.40625 5.863281 -13.769531 5.78125 -13.1875 L 5.84375 -13.1875 C 6.863281 -14.800781 8.488281 -15.609375 10.71875 -15.609375 C 12.382812 -15.609375 13.6875 -15.113281 14.625 -14.125 C 15.570312 -13.144531 16.054688 -11.820312 16.078125 -10.15625 L 16.078125 -2.09375 L 17.828125 -2.09375 C 18.097656 -2.09375 18.234375 -1.96875 18.234375 -1.71875 L 18.234375 -0.375 C 18.234375 -0.125 18.097656 0 17.828125 0 Z M 17.828125 0 "/></g></g></g><g fill="#1f2937" fill-opacity="1"><g transform="translate(251.540302, 366.400286)"><g><path d="M 14.5625 -1.96875 C 13.101562 -0.507812 11.238281 0.21875 8.96875 0.21875 C 6.695312 0.21875 4.832031 -0.503906 3.375 -1.953125 C 1.914062 -3.398438 1.1875 -5.328125 1.1875 -7.734375 C 1.1875 -10.140625 1.925781 -12.050781 3.40625 -13.46875 C 4.882812 -14.894531 6.742188 -15.609375 8.984375 -15.609375 C 11.222656 -15.609375 13.078125 -14.890625 14.546875 -13.453125 C 16.023438 -12.023438 16.765625 -10.117188 16.765625 -7.734375 C 16.765625 -5.347656 16.03125 -3.425781 14.5625 -1.96875 Z M 3.8125 -7.71875 C 3.8125 -6.007812 4.3125 -4.625 5.3125 -3.5625 C 6.3125 -2.5 7.535156 -1.96875 8.984375 -1.96875 C 10.429688 -1.96875 11.65625 -2.5 12.65625 -3.5625 C 13.65625 -4.625 14.15625 -6.007812 14.15625 -7.71875 C 14.15625 -9.425781 13.648438 -10.800781 12.640625 -11.84375 C 11.628906 -12.882812 10.414062 -13.40625 9 -13.40625 C 7.582031 -13.40625 6.363281 -12.882812 5.34375 -11.84375 C 4.320312 -10.800781 3.8125 -9.425781 3.8125 -7.71875 Z M 3.8125 -7.71875 "/></g></g></g><g fill="#1f2937" fill-opacity="1"><g transform="translate(269.518216, 366.400286)"><g><path d="M 7.875 7.03125 L 1.59375 7.03125 C 1.320312 7.03125 1.1875 6.90625 1.1875 6.65625 L 1.1875 5.3125 C 1.1875 5.0625 1.320312 4.9375 1.59375 4.9375 L 3.34375 4.9375 L 3.34375 -13.28125 L 1.65625 -13.28125 C 1.382812 -13.28125 1.25 -13.40625 1.25 -13.65625 L 1.25 -15 C 1.25 -15.25 1.382812 -15.375 1.65625 -15.375 L 5.3125 -15.375 C 5.582031 -15.375 5.71875 -15.25 5.71875 -15 L 5.6875 -12.53125 L 5.71875 -12.53125 C 6.113281 -13.382812 6.753906 -14.109375 7.640625 -14.703125 C 8.523438 -15.304688 9.613281 -15.609375 10.90625 -15.609375 C 13.007812 -15.609375 14.707031 -14.890625 16 -13.453125 C 17.300781 -12.023438 17.953125 -10.128906 17.953125 -7.765625 C 17.953125 -5.398438 17.3125 -3.476562 16.03125 -2 C 14.757812 -0.519531 13.0625 0.21875 10.9375 0.21875 C 9.644531 0.21875 8.566406 -0.078125 7.703125 -0.671875 C 6.835938 -1.265625 6.21875 -1.988281 5.84375 -2.84375 L 5.75 -2.84375 C 5.8125 -2.175781 5.84375 -1.695312 5.84375 -1.40625 L 5.84375 4.9375 L 7.875 4.9375 C 8.144531 4.9375 8.28125 5.0625 8.28125 5.3125 L 8.28125 6.65625 C 8.28125 6.90625 8.144531 7.03125 7.875 7.03125 Z M 5.78125 -7.625 C 5.78125 -5.8125 6.253906 -4.414062 7.203125 -3.4375 C 8.148438 -2.457031 9.296875 -1.96875 10.640625 -1.96875 C 11.984375 -1.96875 13.109375 -2.492188 14.015625 -3.546875 C 14.921875 -4.597656 15.375 -5.984375 15.375 -7.703125 C 15.375 -9.421875 14.921875 -10.800781 14.015625 -11.84375 C 13.109375 -12.882812 11.976562 -13.40625 10.625 -13.40625 C 9.269531 -13.40625 8.125 -12.894531 7.1875 -11.875 C 6.25 -10.851562 5.78125 -9.4375 5.78125 -7.625 Z M 5.78125 -7.625 "/></g></g></g><g fill="#1f2937" fill-opacity="1"><g transform="translate(288.684238, 366.400286)"><g><path d="M 3.78125 -4.625 L 1.90625 -4.625 C 1.65625 -4.625 1.53125 -4.75 1.53125 -5 L 1.53125 -23.390625 C 1.53125 -23.640625 1.65625 -23.765625 1.90625 -23.765625 L 3.78125 -23.765625 C 4.03125 -23.765625 4.15625 -23.640625 4.15625 -23.390625 L 4.15625 -5 C 4.15625 -4.75 4.03125 -4.625 3.78125 -4.625 Z M 4.03125 -1.296875 C 4.34375 -0.972656 4.5 -0.582031 4.5 -0.125 C 4.5 0.332031 4.34375 0.722656 4.03125 1.046875 C 3.71875 1.367188 3.328125 1.53125 2.859375 1.53125 C 2.390625 1.53125 1.992188 1.367188 1.671875 1.046875 C 1.347656 0.722656 1.1875 0.332031 1.1875 -0.125 C 1.1875 -0.582031 1.347656 -0.972656 1.671875 -1.296875 C 1.992188 -1.617188 2.390625 -1.78125 2.859375 -1.78125 C 3.328125 -1.78125 3.71875 -1.617188 4.03125 -1.296875 Z M 4.03125 -1.296875 "/></g></g></g></svg>