<svg xmlns="http://www.w3.org/2000/svg" xmlns:xlink="http://www.w3.org/1999/xlink" width="2000" zoomAndPan="magnify" viewBox="0 0 1500 749.999995" height="1000" preserveAspectRatio="xMidYMid meet" version="1.0"><defs><g/><clipPath id="709815ede6"><path d="M 102.472656 189.523438 L 507.644531 189.523438 L 507.644531 601.636719 L 102.472656 601.636719 Z M 102.472656 189.523438 " clip-rule="nonzero"/></clipPath><clipPath id="38b48e6873"><path d="M 274 354 L 446 354 L 446 449 L 274 449 Z M 274 354 " clip-rule="nonzero"/></clipPath><clipPath id="91b083e8b9"><path d="M 284 313.367188 L 477.976562 376.445312 L 420.382812 553.554688 L 226.40625 490.476562 Z M 284 313.367188 " clip-rule="nonzero"/></clipPath><clipPath id="11e85bdd69"><path d="M 284 313.367188 L 477.976562 376.445312 L 420.382812 553.554688 L 226.40625 490.476562 Z M 284 313.367188 " clip-rule="nonzero"/></clipPath><clipPath id="05041d397a"><path d="M 258 399 L 429 399 L 429 493 L 258 493 Z M 258 399 " clip-rule="nonzero"/></clipPath><clipPath id="664b8888d2"><path d="M 284 313.367188 L 477.976562 376.445312 L 420.382812 553.554688 L 226.40625 490.476562 Z M 284 313.367188 " clip-rule="nonzero"/></clipPath><clipPath id="9b2a042b11"><path d="M 284 313.367188 L 477.976562 376.445312 L 420.382812 553.554688 L 226.40625 490.476562 Z M 284 313.367188 " clip-rule="nonzero"/></clipPath></defs><rect x="-150" width="1800" fill="#ffffff" y="-74.999999" height="899.999994" fill-opacity="1"/><rect x="-150" width="1800" fill="#ffffff" y="-74.999999" height="899.999994" fill-opacity="1"/><g clip-path="url(#709815ede6)"><path fill="#1f2937" d="M 507.644531 286.0625 L 507.597656 284.347656 C 496.464844 283.214844 485.292969 281.109375 474.257812 278.664062 C 430 268.789062 387.011719 252.914062 345.695312 234.375 C 334.390625 229.214844 320.632812 222.707031 309.648438 216.992188 C 296.125 210.242188 281.464844 202.058594 268.277344 194.742188 L 259.753906 189.65625 L 109.910156 528.136719 L 108.285156 532.390625 L 107.9375 533.289062 L 102.871094 546.554688 C 108.585938 546.773438 115.75 547.191406 121.414062 547.632812 C 133.09375 548.539062 145.960938 549.863281 157.644531 551.265625 C 199.976562 556.378906 253.140625 566.460938 294.855469 575.527344 C 330.367188 583.089844 366.65625 592.5 401.601562 602.335938 C 390.019531 598.394531 378.460938 594.316406 366.820312 590.472656 C 332.171875 579.082031 296.203125 568.472656 260.910156 559.421875 C 220.171875 549.269531 175.992188 537.0625 133.464844 530.269531 L 269.425781 215.167969 C 292.644531 226.417969 316.714844 237.246094 340.597656 246.5 C 383.441406 263.023438 426.457031 280.902344 471.785156 288.492188 C 481.898438 290.160156 491.992188 291.558594 502.324219 292.222656 C 502.554688 295.648438 506.992188 361.941406 506.992188 361.941406 L 507.644531 286.0625 " fill-opacity="1" fill-rule="nonzero"/></g><path fill="#1f2937" d="M 80.507812 471.757812 L 75 481.402344 L 98.640625 530.402344 L 240.425781 213.847656 L 80.507812 471.757812 " fill-opacity="1" fill-rule="nonzero"/><path fill="#1f2937" d="M 234.914062 208.339844 L 75.816406 402.886719 L 93.691406 429.5625 Z M 234.914062 208.339844 " fill-opacity="1" fill-rule="nonzero"/><path fill="#1f2937" d="M 379.585938 168.835938 C 383.191406 170.34375 386.941406 173.792969 390.03125 180.417969 C 367.726562 191.507812 346.777344 214.59375 343.570312 218.238281 L 354.9375 223.238281 C 362.378906 214.800781 377.957031 198.566406 393.335938 189.886719 C 396.480469 201.972656 397.988281 220.183594 396.105469 247.265625 L 404.347656 247.933594 C 406.179688 221.554688 405.429688 200.863281 401.644531 185.992188 C 407.589844 183.847656 413.265625 183.320312 418.160156 185.367188 C 427.855469 189.421875 438.597656 207.460938 434.679688 263.796875 L 442.921875 264.464844 C 446.433594 213.953125 440.476562 184.242188 421.875 176.464844 C 414.738281 173.484375 406.726562 174.109375 398.617188 176.824219 C 395.046875 168.394531 390 162.738281 383.300781 159.9375 C 353.945312 147.667969 309.78125 196.28125 305 201.707031 L 316.367188 206.703125 C 328.097656 193.402344 360.070312 160.671875 379.585938 168.835938 " fill-opacity="1" fill-rule="nonzero"/><g clip-path="url(#38b48e6873)"><g clip-path="url(#91b083e8b9)"><g clip-path="url(#11e85bdd69)"><path fill="#1f2937" d="M 299.421875 354.980469 C 290.476562 361.445312 281.742188 368.175781 277.320312 380.371094 C 272.355469 390.675781 275.3125 403.328125 280.5 413.167969 C 291.039062 426.90625 306.867188 421.597656 321.378906 421.03125 C 354.960938 418.019531 388.042969 413.539062 422.644531 413.507812 C 435.308594 413.136719 441.039062 420.53125 428.773438 448.082031 C 438.683594 439.3125 445.648438 430.402344 445.003906 423.222656 C 444.179688 403.699219 433.21875 400.625 420.261719 400.789062 C 383.160156 400.585938 346.421875 405.933594 309.535156 409.035156 C 298.132812 411.335938 290.488281 409.125 288.570312 400.042969 C 286.175781 388.863281 289.800781 381.914062 295.003906 376.074219 L 307.085938 364.800781 C 312.558594 360.988281 305.015625 351.1875 299.421875 354.980469 Z M 299.421875 354.980469 " fill-opacity="1" fill-rule="evenodd"/></g></g></g><g clip-path="url(#05041d397a)"><g clip-path="url(#664b8888d2)"><g clip-path="url(#9b2a042b11)"><path fill="#1f2937" d="M 282.6875 399.761719 C 273.742188 406.226562 265.007812 412.957031 260.585938 425.152344 C 255.621094 435.457031 258.578125 448.109375 263.765625 457.949219 C 274.304688 471.6875 290.132812 466.378906 304.644531 465.8125 C 338.226562 462.800781 371.308594 458.320312 405.910156 458.289062 C 418.574219 457.917969 424.308594 465.3125 412.042969 492.863281 C 421.953125 484.09375 428.917969 475.183594 428.269531 468.003906 C 427.445312 448.480469 416.484375 445.40625 403.53125 445.570312 C 366.425781 445.367188 329.6875 450.714844 292.800781 453.816406 C 281.398438 456.117188 273.753906 453.90625 271.835938 444.824219 C 269.445312 433.644531 273.066406 426.695312 278.273438 420.855469 L 290.355469 409.582031 Z M 282.6875 399.761719 " fill-opacity="1" fill-rule="evenodd"/></g></g></g><g fill="#1f2937" fill-opacity="1"><g transform="translate(558.774889, 407.81523)"><g><path d="M 56.078125 0 L 8.015625 0 L 8.015625 -71.84375 L 56.078125 -71.84375 C 75.734375 -71.84375 89.863281 -69.085938 98.46875 -63.578125 C 105.414062 -59.140625 109.375 -53.097656 110.34375 -45.453125 C 110.769531 -42.148438 110.984375 -38.960938 110.984375 -35.890625 C 110.984375 -32.859375 110.773438 -29.679688 110.359375 -26.359375 C 109.941406 -23.035156 108.832031 -19.8125 107.03125 -16.6875 C 105.226562 -13.570312 102.363281 -10.757812 98.4375 -8.25 C 94.519531 -5.75 89.148438 -3.75 82.328125 -2.25 C 75.503906 -0.75 66.753906 0 56.078125 0 Z M 53.21875 -17.765625 C 68.539062 -17.765625 77.203125 -21.640625 79.203125 -29.390625 C 79.734375 -31.554688 80 -33.722656 80 -35.890625 C 80 -38.097656 79.722656 -40.273438 79.171875 -42.421875 C 78.617188 -44.578125 77.453125 -46.53125 75.671875 -48.28125 C 73.890625 -50.039062 71.210938 -51.441406 67.640625 -52.484375 C 64.066406 -53.535156 59.257812 -54.0625 53.21875 -54.0625 L 38.15625 -54.0625 L 38.15625 -17.765625 Z M 53.21875 -17.765625 "/></g></g></g><g fill="#1f2937" fill-opacity="1"><g transform="translate(673.749761, 407.81523)"><g><path d="M 120.65625 0 L 90.109375 0 L 83.359375 -11.765625 L 38.046875 -11.765625 L 31.296875 0 L 0.75 0 L 46.703125 -71.796875 L 74.703125 -71.796875 Z M 73.1875 -29.53125 L 60.734375 -51.3125 L 48.21875 -29.53125 Z M 73.1875 -29.53125 "/></g></g></g><g fill="#1f2937" fill-opacity="1"><g transform="translate(795.13159, 407.81523)"><g><path d="M 70.09375 0 L 39.953125 0 L 39.953125 -34.046875 L 0.75 -71.84375 L 34.140625 -71.84375 L 55.015625 -50.359375 L 75.84375 -71.84375 L 109.234375 -71.84375 L 70.09375 -34.046875 Z M 70.09375 0 "/></g></g></g><g fill="#1f2937" fill-opacity="1"><g transform="translate(905.101027, 407.81523)"><g><path d="M 87.515625 0 L 4.5 0 L 4.5 -17.71875 L 52.015625 -54.0625 L 4.5 -54.0625 L 4.5 -71.796875 L 87.515625 -71.796875 L 87.515625 -54.0625 L 39.953125 -17.71875 L 87.515625 -17.71875 Z M 87.515625 0 "/></g></g></g><g fill="#1f2937" fill-opacity="1"><g transform="translate(997.100934, 407.81523)"><g><path d="M 47.453125 1.546875 C 37.742188 1.546875 29.914062 0.503906 23.96875 -1.578125 C 18.03125 -3.660156 13.507812 -6.53125 10.40625 -10.1875 C 7.300781 -13.84375 5.21875 -18.054688 4.15625 -22.828125 L 36.140625 -22.828125 C 38.515625 -19.421875 42.285156 -17.71875 47.453125 -17.71875 C 52.628906 -17.71875 56.40625 -19.421875 58.78125 -22.828125 C 58.976562 -23.160156 59.078125 -23.460938 59.078125 -23.734375 C 59.078125 -24.628906 57.882812 -25.300781 55.5 -25.75 C 53.113281 -26.207031 49.550781 -26.550781 44.8125 -26.78125 C 38.832031 -27.050781 32.554688 -27.6875 25.984375 -28.6875 C 11.328125 -30.957031 4 -36.847656 4 -46.359375 C 4 -47.160156 4.050781 -48.007812 4.15625 -48.90625 C 5.21875 -53.6875 7.300781 -57.898438 10.40625 -61.546875 C 13.507812 -65.203125 18.03125 -68.070312 23.96875 -70.15625 C 29.914062 -72.25 37.742188 -73.296875 47.453125 -73.296875 C 57.171875 -73.296875 65 -72.25 70.9375 -70.15625 C 76.882812 -68.070312 81.410156 -65.203125 84.515625 -61.546875 C 87.617188 -57.898438 89.703125 -53.6875 90.765625 -48.90625 L 58.78125 -48.90625 C 56.40625 -52.3125 52.628906 -54.015625 47.453125 -54.015625 C 42.285156 -54.015625 38.515625 -52.3125 36.140625 -48.90625 C 35.972656 -48.644531 35.890625 -48.394531 35.890625 -48.15625 C 35.890625 -47.351562 37.03125 -46.757812 39.3125 -46.375 C 41.601562 -46 44.976562 -45.675781 49.4375 -45.40625 C 53.894531 -45.132812 58.640625 -44.695312 63.671875 -44.09375 C 68.710938 -43.5 73.425781 -42.457031 77.8125 -40.96875 C 82.207031 -39.488281 85.640625 -37.296875 88.109375 -34.390625 C 90.046875 -32.160156 91.015625 -29.328125 91.015625 -25.890625 C 91.015625 -24.921875 90.929688 -23.898438 90.765625 -22.828125 C 89.703125 -18.054688 87.617188 -13.84375 84.515625 -10.1875 C 81.410156 -6.53125 76.882812 -3.660156 70.9375 -1.578125 C 65 0.503906 57.171875 1.546875 47.453125 1.546875 Z M 47.453125 1.546875 "/></g></g></g><g fill="#1f2937" fill-opacity="1"><g transform="translate(1092.104132, 407.81523)"><g><path d="M 106.140625 0 L 76 0 L 76 -28.984375 L 38.15625 -28.984375 L 38.15625 0 L 8.015625 0 L 8.015625 -71.84375 L 38.15625 -71.84375 L 38.15625 -42.8125 L 76 -42.8125 L 76 -71.84375 L 106.140625 -71.84375 Z M 106.140625 0 "/></g></g></g><g fill="#1f2937" fill-opacity="1"><g transform="translate(1206.228065, 407.81523)"><g><path d="M 54.3125 1.546875 C 36.5625 1.546875 23.5 -2.101562 15.125 -9.40625 C 7.707031 -15.882812 4 -24.710938 4 -35.890625 C 4 -47.046875 7.707031 -55.859375 15.125 -62.328125 C 23.5 -69.640625 36.5625 -73.296875 54.3125 -73.296875 C 72.070312 -73.296875 85.140625 -69.640625 93.515625 -62.328125 C 100.929688 -55.859375 104.640625 -47.046875 104.640625 -35.890625 C 104.640625 -24.710938 100.929688 -15.882812 93.515625 -9.40625 C 85.140625 -2.101562 72.070312 1.546875 54.3125 1.546875 Z M 54.3125 -17.71875 C 61.59375 -17.71875 66.9375 -19.804688 70.34375 -23.984375 C 73.070312 -27.347656 74.4375 -31.316406 74.4375 -35.890625 C 74.4375 -40.460938 73.070312 -44.421875 70.34375 -47.765625 C 66.9375 -51.960938 61.59375 -54.0625 54.3125 -54.0625 C 47.039062 -54.0625 41.6875 -51.960938 38.25 -47.765625 C 35.507812 -44.421875 34.140625 -40.460938 34.140625 -35.890625 C 34.140625 -31.316406 35.507812 -27.347656 38.25 -23.984375 C 41.6875 -19.804688 47.039062 -17.71875 54.3125 -17.71875 Z M 54.3125 -17.71875 "/></g></g></g><g fill="#1f2937" fill-opacity="1"><g transform="translate(1314.84599, 407.81523)"><g><path d="M 38.15625 0 L 8.015625 0 L 8.015625 -71.84375 L 57.015625 -71.84375 C 68.734375 -71.84375 78.1875 -70.960938 85.375 -69.203125 C 92.570312 -67.453125 97.820312 -64.703125 101.125 -60.953125 C 104.425781 -57.203125 106.078125 -52.304688 106.078125 -46.265625 C 106.078125 -40.253906 104.425781 -35.367188 101.125 -31.609375 C 97.820312 -27.859375 92.570312 -25.101562 85.375 -23.34375 C 78.1875 -21.59375 68.734375 -20.71875 57.015625 -20.71875 L 38.15625 -20.71875 Z M 38.15625 -38.453125 L 55.375 -38.5 C 60.175781 -38.5 63.960938 -38.691406 66.734375 -39.078125 C 69.503906 -39.460938 71.546875 -40.003906 72.859375 -40.703125 C 74.179688 -41.398438 75.023438 -42.222656 75.390625 -43.171875 C 75.765625 -44.128906 75.953125 -45.160156 75.953125 -46.265625 C 75.953125 -47.398438 75.765625 -48.441406 75.390625 -49.390625 C 75.023438 -50.335938 74.179688 -51.160156 72.859375 -51.859375 C 71.546875 -52.566406 69.503906 -53.109375 66.734375 -53.484375 C 63.960938 -53.867188 60.175781 -54.0625 55.375 -54.0625 L 38.15625 -54.0625 Z M 38.15625 -38.453125 "/></g></g></g><g fill="#f97316" fill-opacity="1"><g transform="translate(734.549552, 488.760884)"><g><path d="M 56 -27.28125 C 56 -19.03125 53.523438 -12.332031 48.578125 -7.1875 C 43.640625 -2.039062 37.421875 0.53125 29.921875 0.53125 C 22.421875 0.53125 16.160156 -2.0625 11.140625 -7.25 C 6.117188 -12.445312 3.609375 -19.148438 3.609375 -27.359375 C 3.609375 -35.566406 6.191406 -42.140625 11.359375 -47.078125 C 16.535156 -52.023438 22.707031 -54.5 29.875 -54.5 C 37.050781 -54.5 43.195312 -52.023438 48.3125 -47.078125 C 53.4375 -42.140625 56 -35.539062 56 -27.28125 Z M 16.4375 -11.3125 C 20.28125 -7.476562 24.757812 -5.5625 29.875 -5.5625 C 35 -5.5625 39.46875 -7.476562 43.28125 -11.3125 C 47.09375 -15.15625 49 -20.425781 49 -27.125 C 49 -33.832031 47.050781 -39.078125 43.15625 -42.859375 C 39.269531 -46.648438 34.84375 -48.546875 29.875 -48.546875 C 24.90625 -48.546875 20.460938 -46.648438 16.546875 -42.859375 C 12.640625 -39.078125 10.6875 -33.832031 10.6875 -27.125 C 10.6875 -20.425781 12.601562 -15.15625 16.4375 -11.3125 Z M 16.4375 -11.3125 "/></g></g></g><g fill="#f97316" fill-opacity="1"><g transform="translate(794.238327, 488.760884)"><g><path d="M 42.90625 0 L 35.75 0 C 33.59375 0 32.515625 -1.050781 32.515625 -3.15625 L 32.515625 -22.953125 C 32.515625 -25.867188 31.8125 -28.128906 30.40625 -29.734375 C 29 -31.335938 26.941406 -32.140625 24.234375 -32.140625 C 20.367188 -32.140625 17.359375 -30.554688 15.203125 -27.390625 C 14.953125 -27.085938 14.625 -26.535156 14.21875 -25.734375 L 14.21875 -5.046875 L 18.21875 -5.046875 C 18.863281 -5.046875 19.1875 -4.742188 19.1875 -4.140625 L 19.1875 -0.90625 C 19.1875 -0.300781 18.863281 0 18.21875 0 L 3.84375 0 C 3.1875 0 2.859375 -0.300781 2.859375 -0.90625 L 2.859375 -4.140625 C 2.859375 -4.742188 3.1875 -5.046875 3.84375 -5.046875 L 7.984375 -5.046875 L 7.984375 -31.984375 L 3.84375 -31.984375 C 3.1875 -31.984375 2.859375 -32.285156 2.859375 -32.890625 L 2.859375 -36.125 C 2.859375 -36.726562 3.1875 -37.03125 3.84375 -37.03125 L 12.640625 -37.03125 C 13.296875 -37.03125 13.625 -36.726562 13.625 -36.125 L 13.46875 -31.015625 L 13.703125 -31.015625 C 16.304688 -35.378906 20.34375 -37.5625 25.8125 -37.5625 C 29.832031 -37.5625 32.96875 -36.378906 35.21875 -34.015625 C 37.476562 -31.660156 38.632812 -28.476562 38.6875 -24.46875 L 38.6875 -5.046875 L 42.90625 -5.046875 C 43.550781 -5.046875 43.875 -4.742188 43.875 -4.140625 L 43.875 -0.90625 C 43.875 -0.300781 43.550781 0 42.90625 0 Z M 42.90625 0 "/></g></g></g><g fill="#f97316" fill-opacity="1"><g transform="translate(840.980733, 488.760884)"><g><path d="M 36.359375 -17.765625 L 9.25 -17.765625 C 9.457031 -13.597656 10.773438 -10.382812 13.203125 -8.125 C 15.640625 -5.863281 18.390625 -4.734375 21.453125 -4.734375 C 24.515625 -4.734375 27.132812 -5.382812 29.3125 -6.6875 C 31.5 -8 32.96875 -9.28125 33.71875 -10.53125 C 34.125 -11.039062 34.578125 -11.117188 35.078125 -10.765625 L 37.109375 -8.734375 C 37.410156 -8.429688 37.5625 -8.164062 37.5625 -7.9375 C 37.5625 -7.71875 37.445312 -7.429688 37.21875 -7.078125 C 36.988281 -6.722656 36.519531 -6.171875 35.8125 -5.421875 C 35.113281 -4.671875 34.125 -3.816406 32.84375 -2.859375 C 31.570312 -1.910156 29.921875 -1.109375 27.890625 -0.453125 C 25.859375 0.203125 23.6875 0.53125 21.375 0.53125 C 16.101562 0.53125 11.695312 -1.195312 8.15625 -4.65625 C 4.625 -8.125 2.859375 -12.78125 2.859375 -18.625 C 2.859375 -24.46875 4.613281 -29.082031 8.125 -32.46875 C 11.632812 -35.863281 15.9375 -37.5625 21.03125 -37.5625 C 26.125 -37.5625 30.125 -35.914062 33.03125 -32.625 C 35.945312 -29.34375 37.40625 -24.914062 37.40625 -19.34375 C 37.40625 -19.144531 37.40625 -18.941406 37.40625 -18.734375 C 37.40625 -18.085938 37.054688 -17.765625 36.359375 -17.765625 Z M 31.15625 -22.359375 C 31.007812 -25.460938 30.03125 -27.941406 28.21875 -29.796875 C 26.414062 -31.660156 24.007812 -32.59375 21 -32.59375 C 17.988281 -32.59375 15.40625 -31.738281 13.25 -30.03125 C 11.09375 -28.320312 9.8125 -25.765625 9.40625 -22.359375 Z M 31.15625 -22.359375 "/></g></g></g><g fill="#f97316" fill-opacity="1"><g transform="translate(881.475765, 488.760884)"><g/></g></g><g fill="#f97316" fill-opacity="1"><g transform="translate(905.035143, 488.760884)"><g><path d="M 42.296875 0 L 35.75 0 C 34.59375 0 33.75 -0.238281 33.21875 -0.71875 C 32.695312 -1.195312 32.4375 -2.007812 32.4375 -3.15625 L 32.4375 -7.375 L 32.359375 -7.375 C 31.554688 -5.269531 30.050781 -3.425781 27.84375 -1.84375 C 25.632812 -0.257812 22.953125 0.53125 19.796875 0.53125 C 14.773438 0.53125 10.695312 -1.222656 7.5625 -4.734375 C 4.425781 -8.253906 2.859375 -12.859375 2.859375 -18.546875 C 2.859375 -24.242188 4.425781 -28.835938 7.5625 -32.328125 C 10.695312 -35.816406 14.800781 -37.5625 19.875 -37.5625 C 22.976562 -37.5625 25.554688 -36.84375 27.609375 -35.40625 C 29.671875 -33.976562 31.15625 -32.238281 32.0625 -30.1875 L 32.140625 -30.1875 C 32.085938 -31.1875 32.0625 -32.015625 32.0625 -32.671875 L 32.0625 -49 L 27.84375 -49 C 27.195312 -49 26.875 -49.300781 26.875 -49.90625 L 26.875 -53.140625 C 26.875 -53.742188 27.195312 -54.046875 27.84375 -54.046875 L 37.1875 -54.046875 C 37.78125 -54.046875 38.078125 -53.742188 38.078125 -53.140625 L 38.078125 -5.046875 L 42.296875 -5.046875 C 42.898438 -5.046875 43.203125 -4.742188 43.203125 -4.140625 L 43.203125 -0.90625 C 43.203125 -0.300781 42.898438 0 42.296875 0 Z M 9.03125 -18.65625 C 9.03125 -14.5 10.117188 -11.140625 12.296875 -8.578125 C 14.484375 -6.015625 17.257812 -4.734375 20.625 -4.734375 C 23.988281 -4.734375 26.75 -6 28.90625 -8.53125 C 31.0625 -11.070312 32.140625 -14.445312 32.140625 -18.65625 C 32.140625 -22.875 31.035156 -26.195312 28.828125 -28.625 C 26.617188 -31.0625 23.882812 -32.28125 20.625 -32.28125 C 17.363281 -32.28125 14.613281 -31.050781 12.375 -28.59375 C 10.144531 -26.132812 9.03125 -22.820312 9.03125 -18.65625 Z M 9.03125 -18.65625 "/></g></g></g><g fill="#f97316" fill-opacity="1"><g transform="translate(951.100139, 488.760884)"><g><path d="M 39.8125 0 L 33.265625 0 C 31.109375 0 30.03125 -1.050781 30.03125 -3.15625 L 30.03125 -7 L 29.875 -7 C 26.21875 -1.925781 21.328125 0.609375 15.203125 0.609375 C 11.585938 0.609375 8.625 -0.332031 6.3125 -2.21875 C 4.007812 -4.101562 2.859375 -6.648438 2.859375 -9.859375 C 2.859375 -13.972656 4.648438 -16.992188 8.234375 -18.921875 C 11.828125 -20.859375 16.757812 -21.828125 23.03125 -21.828125 L 29.359375 -21.828125 L 29.359375 -22.734375 C 29.359375 -29.003906 26.09375 -32.140625 19.5625 -32.140625 C 16.507812 -32.140625 14.300781 -31.847656 12.9375 -31.265625 C 11.582031 -30.691406 10.617188 -30.226562 10.046875 -29.875 C 9.472656 -29.53125 9.035156 -29.253906 8.734375 -29.046875 C 7.984375 -28.453125 7.429688 -28.40625 7.078125 -28.90625 L 4.96875 -31.53125 C 4.613281 -31.9375 4.664062 -32.335938 5.125 -32.734375 C 5.96875 -33.835938 7.722656 -34.921875 10.390625 -35.984375 C 13.046875 -37.035156 16.179688 -37.5625 19.796875 -37.5625 C 30.328125 -37.5625 35.59375 -32.539062 35.59375 -22.5 L 35.59375 -5.046875 L 39.8125 -5.046875 C 40.414062 -5.046875 40.71875 -4.742188 40.71875 -4.140625 L 40.71875 -0.90625 C 40.71875 -0.300781 40.414062 0 39.8125 0 Z M 29.359375 -17.3125 L 23.40625 -17.3125 C 20.5 -17.3125 18.09375 -17.160156 16.1875 -16.859375 C 14.28125 -16.554688 12.660156 -15.898438 11.328125 -14.890625 C 9.992188 -13.890625 9.328125 -12.507812 9.328125 -10.75 C 9.328125 -9 10.039062 -7.554688 11.46875 -6.421875 C 12.90625 -5.296875 14.773438 -4.734375 17.078125 -4.734375 C 21.953125 -4.734375 26.046875 -6.894531 29.359375 -11.21875 Z M 29.359375 -17.3125 "/></g></g></g><g fill="#f97316" fill-opacity="1"><g transform="translate(994.756509, 488.760884)"><g><path d="M 19.640625 -0.828125 C 18.835938 -0.828125 18.1875 -1.453125 17.6875 -2.703125 L 6.171875 -31.984375 L 2.03125 -31.984375 C 1.425781 -31.984375 1.125 -32.285156 1.125 -32.890625 L 1.125 -36.125 C 1.125 -36.726562 1.425781 -37.03125 2.03125 -37.03125 L 15.65625 -37.03125 C 16.3125 -37.03125 16.640625 -36.726562 16.640625 -36.125 L 16.640625 -32.890625 C 16.640625 -32.285156 16.3125 -31.984375 15.65625 -31.984375 L 12.5625 -31.984375 L 22.28125 -6.46875 L 22.421875 -6.46875 L 31.46875 -31.984375 L 28.078125 -31.984375 C 27.472656 -31.984375 27.171875 -32.285156 27.171875 -32.890625 L 27.171875 -36.125 C 27.171875 -36.726562 27.472656 -37.03125 28.078125 -37.03125 L 42.078125 -37.03125 C 42.679688 -37.03125 42.984375 -36.726562 42.984375 -36.125 L 42.984375 -32.890625 C 42.984375 -32.285156 42.679688 -31.984375 42.078125 -31.984375 L 37.859375 -31.984375 L 24.46875 4.8125 C 22.8125 9.28125 21.09375 12.53125 19.3125 14.5625 C 17.53125 16.59375 15.09375 17.609375 12 17.609375 C 8.914062 17.609375 6.269531 16.628906 4.0625 14.671875 C 3.5625 14.171875 3.488281 13.722656 3.84375 13.328125 L 5.71875 10.90625 C 6.164062 10.5625 6.617188 10.539062 7.078125 10.84375 C 8.273438 11.789062 9.703125 12.265625 11.359375 12.265625 C 13.015625 12.265625 14.378906 11.695312 15.453125 10.5625 C 16.535156 9.4375 17.582031 7.492188 18.59375 4.734375 L 20.625 -0.828125 Z M 19.640625 -0.828125 "/></g></g></g><g fill="#f97316" fill-opacity="1"><g transform="translate(1039.165557, 488.760884)"><g/></g></g><g fill="#f97316" fill-opacity="1"><g transform="translate(1062.724936, 488.760884)"><g><path d="M 19.5625 0.53125 C 16.207031 0.53125 13.523438 -0.09375 11.515625 -1.34375 C 9.503906 -2.601562 8.25 -3.785156 7.75 -4.890625 L 7.609375 -4.890625 C 7.703125 -2.429688 7.75 -1.128906 7.75 -0.984375 C 7.75 -0.328125 7.398438 0 6.703125 0 L 4.140625 0 C 3.484375 0 3.15625 -0.328125 3.15625 -0.984375 L 3.15625 -12.265625 C 3.15625 -12.921875 3.484375 -13.25 4.140625 -13.25 L 7.078125 -13.25 C 7.773438 -13.25 8.125 -12.921875 8.125 -12.265625 L 8.125 -10.765625 C 8.625 -9.253906 9.679688 -7.875 11.296875 -6.625 C 13.203125 -5.113281 15.582031 -4.359375 18.4375 -4.359375 C 24.0625 -4.359375 26.875 -6.316406 26.875 -10.234375 C 26.875 -11.585938 26.09375 -12.675781 24.53125 -13.5 C 22.976562 -14.332031 21.082031 -15.023438 18.84375 -15.578125 C 16.613281 -16.128906 14.394531 -16.753906 12.1875 -17.453125 C 9.976562 -18.160156 8.097656 -19.300781 6.546875 -20.875 C 4.992188 -22.457031 4.21875 -24.457031 4.21875 -26.875 C 4.21875 -30.132812 5.394531 -32.726562 7.75 -34.65625 C 10.113281 -36.59375 13.125 -37.5625 16.78125 -37.5625 C 21.75 -37.5625 25.3125 -36.101562 27.46875 -33.1875 L 27.625 -33.1875 C 27.519531 -35 27.46875 -35.929688 27.46875 -35.984375 C 27.46875 -36.628906 27.796875 -36.953125 28.453125 -36.953125 L 30.859375 -36.953125 C 31.515625 -36.953125 31.84375 -36.628906 31.84375 -35.984375 L 31.84375 -25.515625 C 31.84375 -24.859375 31.515625 -24.53125 30.859375 -24.53125 L 27.921875 -24.53125 C 27.222656 -24.53125 26.875 -24.859375 26.875 -25.515625 L 26.875 -26.5625 C 26.875 -27.914062 26.082031 -29.257812 24.5 -30.59375 C 22.914062 -31.925781 20.867188 -32.59375 18.359375 -32.59375 C 15.847656 -32.59375 13.890625 -32.0625 12.484375 -31 C 11.085938 -29.945312 10.390625 -28.582031 10.390625 -26.90625 C 10.390625 -25.226562 11.175781 -23.921875 12.75 -22.984375 C 14.332031 -22.054688 16.253906 -21.328125 18.515625 -20.796875 C 20.773438 -20.273438 23.03125 -19.6875 25.28125 -19.03125 C 27.539062 -18.382812 29.460938 -17.304688 31.046875 -15.796875 C 32.628906 -14.296875 33.421875 -12.210938 33.421875 -9.546875 C 33.421875 -6.890625 32.273438 -4.546875 29.984375 -2.515625 C 27.703125 -0.484375 24.226562 0.53125 19.5625 0.53125 Z M 19.5625 0.53125 "/></g></g></g><g fill="#f97316" fill-opacity="1"><g transform="translate(1099.305951, 488.760884)"><g><path d="M 42.90625 0 L 35.75 0 C 33.59375 0 32.515625 -1.050781 32.515625 -3.15625 L 32.515625 -22.953125 C 32.515625 -25.867188 31.8125 -28.128906 30.40625 -29.734375 C 29 -31.335938 26.941406 -32.140625 24.234375 -32.140625 C 22.179688 -32.140625 20.613281 -31.820312 19.53125 -31.1875 C 18.445312 -30.5625 17.628906 -30.007812 17.078125 -29.53125 C 16.523438 -29.0625 16.078125 -28.601562 15.734375 -28.15625 C 15.128906 -27.34375 14.625 -26.515625 14.21875 -25.671875 L 14.21875 -5.046875 L 18.21875 -5.046875 C 18.863281 -5.046875 19.1875 -4.742188 19.1875 -4.140625 L 19.1875 -0.90625 C 19.1875 -0.300781 18.863281 0 18.21875 0 L 3.84375 0 C 3.1875 0 2.859375 -0.300781 2.859375 -0.90625 L 2.859375 -4.140625 C 2.859375 -4.742188 3.1875 -5.046875 3.84375 -5.046875 L 7.984375 -5.046875 L 7.984375 -49 L 3.84375 -49 C 3.1875 -49 2.859375 -49.300781 2.859375 -49.90625 L 2.859375 -53.140625 C 2.859375 -53.742188 3.1875 -54.046875 3.84375 -54.046875 L 13.328125 -54.046875 C 13.921875 -54.046875 14.21875 -53.742188 14.21875 -53.140625 L 14.21875 -36.359375 C 14.21875 -34.703125 14.117188 -33.171875 13.921875 -31.765625 L 14.078125 -31.765625 C 16.535156 -35.628906 20.445312 -37.5625 25.8125 -37.5625 C 29.832031 -37.5625 32.96875 -36.378906 35.21875 -34.015625 C 37.476562 -31.660156 38.632812 -28.476562 38.6875 -24.46875 L 38.6875 -5.046875 L 42.90625 -5.046875 C 43.550781 -5.046875 43.875 -4.742188 43.875 -4.140625 L 43.875 -0.90625 C 43.875 -0.300781 43.550781 0 42.90625 0 Z M 42.90625 0 "/></g></g></g><g fill="#f97316" fill-opacity="1"><g transform="translate(1146.048357, 488.760884)"><g><path d="M 35.078125 -4.734375 C 31.566406 -1.222656 27.070312 0.53125 21.59375 0.53125 C 16.125 0.53125 11.632812 -1.210938 8.125 -4.703125 C 4.613281 -8.191406 2.859375 -12.832031 2.859375 -18.625 C 2.859375 -24.425781 4.640625 -29.03125 8.203125 -32.4375 C 11.765625 -35.851562 16.242188 -37.5625 21.640625 -37.5625 C 27.035156 -37.5625 31.5 -35.84375 35.03125 -32.40625 C 38.570312 -28.96875 40.34375 -24.375 40.34375 -18.625 C 40.34375 -12.882812 38.585938 -8.253906 35.078125 -4.734375 Z M 9.1875 -18.59375 C 9.1875 -14.476562 10.390625 -11.140625 12.796875 -8.578125 C 15.203125 -6.015625 18.148438 -4.734375 21.640625 -4.734375 C 25.128906 -4.734375 28.078125 -6.015625 30.484375 -8.578125 C 32.890625 -11.140625 34.09375 -14.476562 34.09375 -18.59375 C 34.09375 -22.707031 32.875 -26.015625 30.4375 -28.515625 C 28.007812 -31.023438 25.085938 -32.28125 21.671875 -32.28125 C 18.265625 -32.28125 15.332031 -31.023438 12.875 -28.515625 C 10.414062 -26.015625 9.1875 -22.707031 9.1875 -18.59375 Z M 9.1875 -18.59375 "/></g></g></g><g fill="#f97316" fill-opacity="1"><g transform="translate(1189.328354, 488.760884)"><g><path d="M 18.96875 16.9375 L 3.84375 16.9375 C 3.1875 16.9375 2.859375 16.632812 2.859375 16.03125 L 2.859375 12.796875 C 2.859375 12.191406 3.1875 11.890625 3.84375 11.890625 L 8.046875 11.890625 L 8.046875 -31.984375 L 3.984375 -31.984375 C 3.335938 -31.984375 3.015625 -32.285156 3.015625 -32.890625 L 3.015625 -36.125 C 3.015625 -36.726562 3.335938 -37.03125 3.984375 -37.03125 L 12.796875 -37.03125 C 13.453125 -37.03125 13.78125 -36.726562 13.78125 -36.125 L 13.703125 -30.1875 L 13.78125 -30.1875 C 14.726562 -32.238281 16.265625 -33.976562 18.390625 -35.40625 C 20.523438 -36.84375 23.148438 -37.5625 26.265625 -37.5625 C 31.335938 -37.5625 35.425781 -35.84375 38.53125 -32.40625 C 41.644531 -28.96875 43.203125 -24.398438 43.203125 -18.703125 C 43.203125 -13.003906 41.671875 -8.375 38.609375 -4.8125 C 35.546875 -1.25 31.457031 0.53125 26.34375 0.53125 C 23.226562 0.53125 20.628906 -0.179688 18.546875 -1.609375 C 16.460938 -3.046875 14.972656 -4.789062 14.078125 -6.84375 L 13.84375 -6.84375 C 14 -5.238281 14.078125 -4.085938 14.078125 -3.390625 L 14.078125 11.890625 L 18.96875 11.890625 C 19.625 11.890625 19.953125 12.191406 19.953125 12.796875 L 19.953125 16.03125 C 19.953125 16.632812 19.625 16.9375 18.96875 16.9375 Z M 13.921875 -18.359375 C 13.921875 -13.992188 15.0625 -10.628906 17.34375 -8.265625 C 19.625 -5.910156 22.382812 -4.734375 25.625 -4.734375 C 28.863281 -4.734375 31.570312 -6 33.75 -8.53125 C 35.9375 -11.070312 37.03125 -14.410156 37.03125 -18.546875 C 37.03125 -22.691406 35.9375 -26.015625 33.75 -28.515625 C 31.570312 -31.023438 28.851562 -32.28125 25.59375 -32.28125 C 22.332031 -32.28125 19.570312 -31.050781 17.3125 -28.59375 C 15.050781 -26.132812 13.921875 -22.722656 13.921875 -18.359375 Z M 13.921875 -18.359375 "/></g></g></g><g fill="#f97316" fill-opacity="1"><g transform="translate(1235.468596, 488.760884)"><g><path d="M 9.109375 -11.140625 L 4.59375 -11.140625 C 3.988281 -11.140625 3.6875 -11.441406 3.6875 -12.046875 L 3.6875 -56.296875 C 3.6875 -56.898438 3.988281 -57.203125 4.59375 -57.203125 L 9.109375 -57.203125 C 9.710938 -57.203125 10.015625 -56.898438 10.015625 -56.296875 L 10.015625 -12.046875 C 10.015625 -11.441406 9.710938 -11.140625 9.109375 -11.140625 Z M 9.703125 -3.125 C 10.460938 -2.34375 10.84375 -1.398438 10.84375 -0.296875 C 10.84375 0.804688 10.460938 1.742188 9.703125 2.515625 C 8.953125 3.296875 8.007812 3.6875 6.875 3.6875 C 5.75 3.6875 4.796875 3.296875 4.015625 2.515625 C 3.242188 1.742188 2.859375 0.804688 2.859375 -0.296875 C 2.859375 -1.398438 3.242188 -2.34375 4.015625 -3.125 C 4.796875 -3.90625 5.75 -4.296875 6.875 -4.296875 C 8.007812 -4.296875 8.953125 -3.90625 9.703125 -3.125 Z M 9.703125 -3.125 "/></g></g></g></svg>